M48
;DRILL file {KiCad 4.0.7-e2-6376~58~ubuntu16.04.1} date Tue Oct  2 08:26:45 2018
;FORMAT={-:-/ absolute / inch / decimal}
FMAT,2
INCH,TZ
T1C0.016
T2C0.020
T3C0.028
T4C0.039
T5C0.126
%
G90
G05
M72
T1
X4.39Y-3.519
X4.49Y-3.559
X4.59Y-3.599
X4.69Y-3.757
X4.79Y-3.678
X4.89Y-3.639
X5.7825Y-4.7325
T2
X4.1339Y-2.4016
X4.1339Y-2.4803
X4.1339Y-2.5591
X4.1339Y-2.6378
X4.1339Y-2.7165
X4.1339Y-2.7953
X4.1339Y-2.874
X4.1339Y-2.9528
X4.1339Y-3.0315
X4.1339Y-3.1102
X4.2126Y-2.4016
X4.2126Y-2.4803
X4.2126Y-2.5591
X4.2126Y-2.6378
X4.2126Y-2.7165
X4.2126Y-2.7953
X4.2126Y-2.874
X4.2126Y-2.9528
X4.2126Y-3.0315
X4.2126Y-3.1102
X5.Y-2.4016
X5.Y-2.4803
X5.Y-2.5591
X5.Y-2.6378
X5.Y-2.7165
X5.Y-2.7953
X5.Y-2.874
X5.Y-2.9528
X5.Y-3.0315
X5.Y-3.1102
X5.0787Y-2.4016
X5.0787Y-2.4803
X5.0787Y-2.5591
X5.0787Y-2.6378
X5.0787Y-2.7165
X5.0787Y-2.7953
X5.0787Y-2.874
X5.0787Y-2.9528
X5.0787Y-3.0315
X5.0787Y-3.1102
X5.12Y-4.24
X5.16Y-4.3
X5.365Y-4.17
X5.476Y-4.37
X5.664Y-4.846
X5.742Y-4.779
T3
X4.34Y-3.45
X4.44Y-3.45
X4.54Y-3.45
X4.64Y-3.45
X4.74Y-3.45
X4.84Y-3.45
X4.94Y-3.45
X6.36Y-4.
X6.36Y-4.1
X6.36Y-4.2
X6.36Y-4.3
X6.36Y-4.4
X6.36Y-4.5
X6.36Y-4.6
X6.36Y-4.7
X6.36Y-4.8
X6.36Y-4.9
X6.36Y-5.
X6.36Y-5.1
X6.36Y-5.2
T4
X6.1024Y-5.1181
X6.1024Y-5.2181
X6.1024Y-5.3181
X6.1024Y-5.4181
X6.31Y-5.4
X6.41Y-5.4
X6.51Y-5.4
X6.61Y-5.4
X6.78Y-2.4
X6.78Y-2.5
X6.78Y-2.6
X6.78Y-2.7
X6.78Y-2.8
X6.78Y-2.9
X6.78Y-3.
X6.78Y-3.1
X6.78Y-3.2
X6.78Y-3.3
X6.78Y-3.4
X6.78Y-3.5
X6.78Y-3.6
X6.78Y-3.7
X6.78Y-3.8
X6.78Y-3.9
X6.78Y-4.
X6.78Y-4.1
X6.78Y-4.2
X6.78Y-4.3
X6.78Y-4.4
X6.78Y-4.5
X6.78Y-4.6
X6.78Y-4.7
X6.78Y-4.8
X6.78Y-4.9
X6.78Y-5.
X6.78Y-5.34
X6.88Y-5.34
X6.9178Y-4.7
X6.9178Y-4.8
X6.9178Y-4.9
X6.9178Y-5.
X6.98Y-5.34
X7.0178Y-4.8
X7.0178Y-4.9
X7.0178Y-5.
X7.08Y-5.34
X7.1178Y-4.8
X7.1178Y-4.9
X7.1178Y-5.
X7.18Y-5.34
X7.2178Y-4.8
X7.2178Y-4.9
X7.2178Y-5.
X7.28Y-5.34
X7.3178Y-4.8
X7.3178Y-4.9
X7.3178Y-5.
X7.38Y-5.34
X7.4178Y-4.8
X7.4178Y-4.9
X7.4178Y-5.
X7.48Y-5.34
X7.58Y-5.34
X7.68Y-2.4
X7.68Y-2.5
X7.68Y-2.6
X7.68Y-2.7
X7.68Y-2.8
X7.68Y-2.9
X7.68Y-3.
X7.68Y-3.1
X7.68Y-3.2
X7.68Y-3.3
X7.68Y-3.4
X7.68Y-3.5
X7.68Y-3.6
X7.68Y-3.7
X7.68Y-3.8
X7.68Y-3.9
X7.68Y-4.
X7.68Y-4.1
X7.68Y-4.2
X7.68Y-4.3
X7.68Y-4.4
X7.68Y-4.5
X7.68Y-4.6
X7.68Y-4.7
X7.68Y-4.8
X7.68Y-4.9
X7.68Y-4.9984
X7.68Y-5.34
T5
X6.829Y-5.7888
X7.6311Y-5.7888
T0
M30
