%FSLAX45Y45*%
G04 Gerber Fmt 4.5, Leading zero omitted, Abs format (unit mm)*
G04 Created by KiCad (PCBNEW 4.0.7-e2-6376~58~ubuntu16.04.1) date Tue Oct  2 08:29:19 2018*
%MOMM*%
%LPD*%
G01*
G04 APERTURE LIST*
%ADD10C,0.127000*%
%ADD11C,0.150000*%
%ADD12C,0.200000*%
%ADD13C,0.300000*%
G04 APERTURE END LIST*
D10*
D11*
X20000000Y-5000000D02*
X10000000Y-5000000D01*
X20000000Y-15000000D02*
X20000000Y-5000000D01*
X10000000Y-15000000D02*
X20000000Y-15000000D01*
X10000000Y-5000000D02*
X10000000Y-15000000D01*
D12*
X12244240Y-11241000D02*
X12354240Y-11351000D01*
X12354240Y-11241000D02*
X12244240Y-11351000D01*
X12379240Y-13396000D02*
G75*
G03X12379240Y-13396000I-80000J0D01*
G01*
X10500000Y-5340000D02*
X10500000Y-5660000D01*
X10340000Y-5500000D02*
X10660000Y-5500000D01*
X10500000Y-9540000D02*
X10500000Y-9860000D01*
X10340000Y-9700000D02*
X10660000Y-9700000D01*
X10500000Y-14340000D02*
X10500000Y-14660000D01*
X10340000Y-14500000D02*
X10660000Y-14500000D01*
X15200000Y-9540000D02*
X15200000Y-9860000D01*
X15040000Y-9700000D02*
X15360000Y-9700000D01*
X15200000Y-14340000D02*
X15200000Y-14660000D01*
X15040000Y-14500000D02*
X15360000Y-14500000D01*
X17853406Y-14543806D02*
X17853406Y-14863806D01*
X17693406Y-14703806D02*
X18013406Y-14703806D01*
X19500000Y-5340000D02*
X19500000Y-5660000D01*
X19340000Y-5500000D02*
X19660000Y-5500000D01*
D13*
X10263929Y-15473214D02*
X10263929Y-15173214D01*
X10335357Y-15173214D01*
X10378214Y-15187500D01*
X10406786Y-15216071D01*
X10421071Y-15244643D01*
X10435357Y-15301786D01*
X10435357Y-15344643D01*
X10421071Y-15401786D01*
X10406786Y-15430357D01*
X10378214Y-15458929D01*
X10335357Y-15473214D01*
X10263929Y-15473214D01*
X10563929Y-15473214D02*
X10563929Y-15273214D01*
X10563929Y-15330357D02*
X10578214Y-15301786D01*
X10592500Y-15287500D01*
X10621071Y-15273214D01*
X10649643Y-15273214D01*
X10749643Y-15473214D02*
X10749643Y-15273214D01*
X10749643Y-15173214D02*
X10735357Y-15187500D01*
X10749643Y-15201786D01*
X10763929Y-15187500D01*
X10749643Y-15173214D01*
X10749643Y-15201786D01*
X10935357Y-15473214D02*
X10906786Y-15458929D01*
X10892500Y-15430357D01*
X10892500Y-15173214D01*
X11092500Y-15473214D02*
X11063929Y-15458929D01*
X11049643Y-15430357D01*
X11049643Y-15173214D01*
X11435357Y-15473214D02*
X11435357Y-15173214D01*
X11535357Y-15387500D01*
X11635357Y-15173214D01*
X11635357Y-15473214D01*
X11906786Y-15473214D02*
X11906786Y-15316071D01*
X11892500Y-15287500D01*
X11863928Y-15273214D01*
X11806786Y-15273214D01*
X11778214Y-15287500D01*
X11906786Y-15458929D02*
X11878214Y-15473214D01*
X11806786Y-15473214D01*
X11778214Y-15458929D01*
X11763928Y-15430357D01*
X11763928Y-15401786D01*
X11778214Y-15373214D01*
X11806786Y-15358929D01*
X11878214Y-15358929D01*
X11906786Y-15344643D01*
X12049643Y-15273214D02*
X12049643Y-15573214D01*
X12049643Y-15287500D02*
X12078214Y-15273214D01*
X12135357Y-15273214D01*
X12163928Y-15287500D01*
X12178214Y-15301786D01*
X12192500Y-15330357D01*
X12192500Y-15416071D01*
X12178214Y-15444643D01*
X12163928Y-15458929D01*
X12135357Y-15473214D01*
X12078214Y-15473214D01*
X12049643Y-15458929D01*
X12321071Y-15444643D02*
X12335357Y-15458929D01*
X12321071Y-15473214D01*
X12306786Y-15458929D01*
X12321071Y-15444643D01*
X12321071Y-15473214D01*
X12321071Y-15287500D02*
X12335357Y-15301786D01*
X12321071Y-15316071D01*
X12306786Y-15301786D01*
X12321071Y-15287500D01*
X12321071Y-15316071D01*
X9882500Y-15912500D02*
X9992500Y-16022500D01*
X9992500Y-15912500D02*
X9882500Y-16022500D01*
X10421071Y-16103214D02*
X10249643Y-16103214D01*
X10335357Y-16103214D02*
X10335357Y-15803214D01*
X10306786Y-15846071D01*
X10278214Y-15874643D01*
X10249643Y-15888929D01*
X10549643Y-16074643D02*
X10563929Y-16088929D01*
X10549643Y-16103214D01*
X10535357Y-16088929D01*
X10549643Y-16074643D01*
X10549643Y-16103214D01*
X10849643Y-16103214D02*
X10678214Y-16103214D01*
X10763928Y-16103214D02*
X10763928Y-15803214D01*
X10735357Y-15846071D01*
X10706786Y-15874643D01*
X10678214Y-15888929D01*
X11035357Y-15803214D02*
X11063929Y-15803214D01*
X11092500Y-15817500D01*
X11106786Y-15831786D01*
X11121071Y-15860357D01*
X11135357Y-15917500D01*
X11135357Y-15988929D01*
X11121071Y-16046071D01*
X11106786Y-16074643D01*
X11092500Y-16088929D01*
X11063929Y-16103214D01*
X11035357Y-16103214D01*
X11006786Y-16088929D01*
X10992500Y-16074643D01*
X10978214Y-16046071D01*
X10963929Y-15988929D01*
X10963929Y-15917500D01*
X10978214Y-15860357D01*
X10992500Y-15831786D01*
X11006786Y-15817500D01*
X11035357Y-15803214D01*
X11263928Y-16103214D02*
X11263928Y-15903214D01*
X11263928Y-15931786D02*
X11278214Y-15917500D01*
X11306786Y-15903214D01*
X11349643Y-15903214D01*
X11378214Y-15917500D01*
X11392500Y-15946071D01*
X11392500Y-16103214D01*
X11392500Y-15946071D02*
X11406786Y-15917500D01*
X11435357Y-15903214D01*
X11478214Y-15903214D01*
X11506786Y-15917500D01*
X11521071Y-15946071D01*
X11521071Y-16103214D01*
X11663928Y-16103214D02*
X11663928Y-15903214D01*
X11663928Y-15931786D02*
X11678214Y-15917500D01*
X11706786Y-15903214D01*
X11749643Y-15903214D01*
X11778214Y-15917500D01*
X11792500Y-15946071D01*
X11792500Y-16103214D01*
X11792500Y-15946071D02*
X11806786Y-15917500D01*
X11835357Y-15903214D01*
X11878214Y-15903214D01*
X11906786Y-15917500D01*
X11921071Y-15946071D01*
X11921071Y-16103214D01*
X12506786Y-15788929D02*
X12249643Y-16174643D01*
X12892500Y-15803214D02*
X12921071Y-15803214D01*
X12949643Y-15817500D01*
X12963928Y-15831786D01*
X12978214Y-15860357D01*
X12992500Y-15917500D01*
X12992500Y-15988929D01*
X12978214Y-16046071D01*
X12963928Y-16074643D01*
X12949643Y-16088929D01*
X12921071Y-16103214D01*
X12892500Y-16103214D01*
X12863928Y-16088929D01*
X12849643Y-16074643D01*
X12835357Y-16046071D01*
X12821071Y-15988929D01*
X12821071Y-15917500D01*
X12835357Y-15860357D01*
X12849643Y-15831786D01*
X12863928Y-15817500D01*
X12892500Y-15803214D01*
X13121071Y-16074643D02*
X13135357Y-16088929D01*
X13121071Y-16103214D01*
X13106786Y-16088929D01*
X13121071Y-16074643D01*
X13121071Y-16103214D01*
X13321071Y-15803214D02*
X13349643Y-15803214D01*
X13378214Y-15817500D01*
X13392500Y-15831786D01*
X13406785Y-15860357D01*
X13421071Y-15917500D01*
X13421071Y-15988929D01*
X13406785Y-16046071D01*
X13392500Y-16074643D01*
X13378214Y-16088929D01*
X13349643Y-16103214D01*
X13321071Y-16103214D01*
X13292500Y-16088929D01*
X13278214Y-16074643D01*
X13263928Y-16046071D01*
X13249643Y-15988929D01*
X13249643Y-15917500D01*
X13263928Y-15860357D01*
X13278214Y-15831786D01*
X13292500Y-15817500D01*
X13321071Y-15803214D01*
X13678214Y-15903214D02*
X13678214Y-16103214D01*
X13606785Y-15788929D02*
X13535357Y-16003214D01*
X13721071Y-16003214D01*
X13806785Y-15803214D02*
X13992500Y-15803214D01*
X13892500Y-15917500D01*
X13935357Y-15917500D01*
X13963928Y-15931786D01*
X13978214Y-15946071D01*
X13992500Y-15974643D01*
X13992500Y-16046071D01*
X13978214Y-16074643D01*
X13963928Y-16088929D01*
X13935357Y-16103214D01*
X13849643Y-16103214D01*
X13821071Y-16088929D01*
X13806785Y-16074643D01*
X14106786Y-15803214D02*
X14106786Y-15860357D01*
X14221071Y-15803214D02*
X14221071Y-15860357D01*
X14663928Y-16217500D02*
X14649643Y-16203214D01*
X14621071Y-16160357D01*
X14606785Y-16131786D01*
X14592500Y-16088929D01*
X14578214Y-16017500D01*
X14578214Y-15960357D01*
X14592500Y-15888929D01*
X14606785Y-15846071D01*
X14621071Y-15817500D01*
X14649643Y-15774643D01*
X14663928Y-15760357D01*
X14935357Y-16103214D02*
X14763928Y-16103214D01*
X14849643Y-16103214D02*
X14849643Y-15803214D01*
X14821071Y-15846071D01*
X14792500Y-15874643D01*
X14763928Y-15888929D01*
X15292500Y-16103214D02*
X15292500Y-15803214D01*
X15421071Y-16103214D02*
X15421071Y-15946071D01*
X15406785Y-15917500D01*
X15378214Y-15903214D01*
X15335357Y-15903214D01*
X15306785Y-15917500D01*
X15292500Y-15931786D01*
X15606785Y-16103214D02*
X15578214Y-16088929D01*
X15563928Y-16074643D01*
X15549643Y-16046071D01*
X15549643Y-15960357D01*
X15563928Y-15931786D01*
X15578214Y-15917500D01*
X15606785Y-15903214D01*
X15649643Y-15903214D01*
X15678214Y-15917500D01*
X15692500Y-15931786D01*
X15706785Y-15960357D01*
X15706785Y-16046071D01*
X15692500Y-16074643D01*
X15678214Y-16088929D01*
X15649643Y-16103214D01*
X15606785Y-16103214D01*
X15878214Y-16103214D02*
X15849643Y-16088929D01*
X15835357Y-16060357D01*
X15835357Y-15803214D01*
X16106786Y-16088929D02*
X16078214Y-16103214D01*
X16021071Y-16103214D01*
X15992500Y-16088929D01*
X15978214Y-16060357D01*
X15978214Y-15946071D01*
X15992500Y-15917500D01*
X16021071Y-15903214D01*
X16078214Y-15903214D01*
X16106786Y-15917500D01*
X16121071Y-15946071D01*
X16121071Y-15974643D01*
X15978214Y-16003214D01*
X16221071Y-16217500D02*
X16235357Y-16203214D01*
X16263928Y-16160357D01*
X16278214Y-16131786D01*
X16292500Y-16088929D01*
X16306786Y-16017500D01*
X16306786Y-15960357D01*
X16292500Y-15888929D01*
X16278214Y-15846071D01*
X16263928Y-15817500D01*
X16235357Y-15774643D01*
X16221071Y-15760357D01*
X16763928Y-16217500D02*
X16749643Y-16203214D01*
X16721071Y-16160357D01*
X16706786Y-16131786D01*
X16692500Y-16088929D01*
X16678214Y-16017500D01*
X16678214Y-15960357D01*
X16692500Y-15888929D01*
X16706786Y-15846071D01*
X16721071Y-15817500D01*
X16749643Y-15774643D01*
X16763928Y-15760357D01*
X16878214Y-15903214D02*
X16878214Y-16103214D01*
X16878214Y-15931786D02*
X16892500Y-15917500D01*
X16921071Y-15903214D01*
X16963929Y-15903214D01*
X16992500Y-15917500D01*
X17006786Y-15946071D01*
X17006786Y-16103214D01*
X17192500Y-16103214D02*
X17163929Y-16088929D01*
X17149643Y-16074643D01*
X17135357Y-16046071D01*
X17135357Y-15960357D01*
X17149643Y-15931786D01*
X17163929Y-15917500D01*
X17192500Y-15903214D01*
X17235357Y-15903214D01*
X17263929Y-15917500D01*
X17278214Y-15931786D01*
X17292500Y-15960357D01*
X17292500Y-16046071D01*
X17278214Y-16074643D01*
X17263929Y-16088929D01*
X17235357Y-16103214D01*
X17192500Y-16103214D01*
X17378214Y-15903214D02*
X17492500Y-15903214D01*
X17421071Y-15803214D02*
X17421071Y-16060357D01*
X17435357Y-16088929D01*
X17463929Y-16103214D01*
X17492500Y-16103214D01*
X17821071Y-15903214D02*
X17821071Y-16203214D01*
X17821071Y-15917500D02*
X17849643Y-15903214D01*
X17906786Y-15903214D01*
X17935357Y-15917500D01*
X17949643Y-15931786D01*
X17963929Y-15960357D01*
X17963929Y-16046071D01*
X17949643Y-16074643D01*
X17935357Y-16088929D01*
X17906786Y-16103214D01*
X17849643Y-16103214D01*
X17821071Y-16088929D01*
X18135357Y-16103214D02*
X18106786Y-16088929D01*
X18092500Y-16060357D01*
X18092500Y-15803214D01*
X18378214Y-16103214D02*
X18378214Y-15946071D01*
X18363929Y-15917500D01*
X18335357Y-15903214D01*
X18278214Y-15903214D01*
X18249643Y-15917500D01*
X18378214Y-16088929D02*
X18349643Y-16103214D01*
X18278214Y-16103214D01*
X18249643Y-16088929D01*
X18235357Y-16060357D01*
X18235357Y-16031786D01*
X18249643Y-16003214D01*
X18278214Y-15988929D01*
X18349643Y-15988929D01*
X18378214Y-15974643D01*
X18478214Y-15903214D02*
X18592500Y-15903214D01*
X18521072Y-15803214D02*
X18521072Y-16060357D01*
X18535357Y-16088929D01*
X18563929Y-16103214D01*
X18592500Y-16103214D01*
X18806786Y-16088929D02*
X18778214Y-16103214D01*
X18721072Y-16103214D01*
X18692500Y-16088929D01*
X18678214Y-16060357D01*
X18678214Y-15946071D01*
X18692500Y-15917500D01*
X18721072Y-15903214D01*
X18778214Y-15903214D01*
X18806786Y-15917500D01*
X18821072Y-15946071D01*
X18821072Y-15974643D01*
X18678214Y-16003214D01*
X19078214Y-16103214D02*
X19078214Y-15803214D01*
X19078214Y-16088929D02*
X19049643Y-16103214D01*
X18992500Y-16103214D01*
X18963929Y-16088929D01*
X18949643Y-16074643D01*
X18935357Y-16046071D01*
X18935357Y-15960357D01*
X18949643Y-15931786D01*
X18963929Y-15917500D01*
X18992500Y-15903214D01*
X19049643Y-15903214D01*
X19078214Y-15917500D01*
X19192500Y-16217500D02*
X19206786Y-16203214D01*
X19235357Y-16160357D01*
X19249643Y-16131786D01*
X19263929Y-16088929D01*
X19278214Y-16017500D01*
X19278214Y-15960357D01*
X19263929Y-15888929D01*
X19249643Y-15846071D01*
X19235357Y-15817500D01*
X19206786Y-15774643D01*
X19192500Y-15760357D01*
X9992500Y-16363500D02*
G75*
G03X9992500Y-16363500I-80000J0D01*
G01*
X10421071Y-16499214D02*
X10249643Y-16499214D01*
X10335357Y-16499214D02*
X10335357Y-16199214D01*
X10306786Y-16242071D01*
X10278214Y-16270643D01*
X10249643Y-16284929D01*
X10549643Y-16470643D02*
X10563929Y-16484929D01*
X10549643Y-16499214D01*
X10535357Y-16484929D01*
X10549643Y-16470643D01*
X10549643Y-16499214D01*
X10821071Y-16199214D02*
X10763928Y-16199214D01*
X10735357Y-16213500D01*
X10721071Y-16227786D01*
X10692500Y-16270643D01*
X10678214Y-16327786D01*
X10678214Y-16442071D01*
X10692500Y-16470643D01*
X10706786Y-16484929D01*
X10735357Y-16499214D01*
X10792500Y-16499214D01*
X10821071Y-16484929D01*
X10835357Y-16470643D01*
X10849643Y-16442071D01*
X10849643Y-16370643D01*
X10835357Y-16342071D01*
X10821071Y-16327786D01*
X10792500Y-16313500D01*
X10735357Y-16313500D01*
X10706786Y-16327786D01*
X10692500Y-16342071D01*
X10678214Y-16370643D01*
X11035357Y-16199214D02*
X11063929Y-16199214D01*
X11092500Y-16213500D01*
X11106786Y-16227786D01*
X11121071Y-16256357D01*
X11135357Y-16313500D01*
X11135357Y-16384929D01*
X11121071Y-16442071D01*
X11106786Y-16470643D01*
X11092500Y-16484929D01*
X11063929Y-16499214D01*
X11035357Y-16499214D01*
X11006786Y-16484929D01*
X10992500Y-16470643D01*
X10978214Y-16442071D01*
X10963929Y-16384929D01*
X10963929Y-16313500D01*
X10978214Y-16256357D01*
X10992500Y-16227786D01*
X11006786Y-16213500D01*
X11035357Y-16199214D01*
X11263928Y-16499214D02*
X11263928Y-16299214D01*
X11263928Y-16327786D02*
X11278214Y-16313500D01*
X11306786Y-16299214D01*
X11349643Y-16299214D01*
X11378214Y-16313500D01*
X11392500Y-16342071D01*
X11392500Y-16499214D01*
X11392500Y-16342071D02*
X11406786Y-16313500D01*
X11435357Y-16299214D01*
X11478214Y-16299214D01*
X11506786Y-16313500D01*
X11521071Y-16342071D01*
X11521071Y-16499214D01*
X11663928Y-16499214D02*
X11663928Y-16299214D01*
X11663928Y-16327786D02*
X11678214Y-16313500D01*
X11706786Y-16299214D01*
X11749643Y-16299214D01*
X11778214Y-16313500D01*
X11792500Y-16342071D01*
X11792500Y-16499214D01*
X11792500Y-16342071D02*
X11806786Y-16313500D01*
X11835357Y-16299214D01*
X11878214Y-16299214D01*
X11906786Y-16313500D01*
X11921071Y-16342071D01*
X11921071Y-16499214D01*
X12506786Y-16184929D02*
X12249643Y-16570643D01*
X12892500Y-16199214D02*
X12921071Y-16199214D01*
X12949643Y-16213500D01*
X12963928Y-16227786D01*
X12978214Y-16256357D01*
X12992500Y-16313500D01*
X12992500Y-16384929D01*
X12978214Y-16442071D01*
X12963928Y-16470643D01*
X12949643Y-16484929D01*
X12921071Y-16499214D01*
X12892500Y-16499214D01*
X12863928Y-16484929D01*
X12849643Y-16470643D01*
X12835357Y-16442071D01*
X12821071Y-16384929D01*
X12821071Y-16313500D01*
X12835357Y-16256357D01*
X12849643Y-16227786D01*
X12863928Y-16213500D01*
X12892500Y-16199214D01*
X13121071Y-16470643D02*
X13135357Y-16484929D01*
X13121071Y-16499214D01*
X13106786Y-16484929D01*
X13121071Y-16470643D01*
X13121071Y-16499214D01*
X13321071Y-16199214D02*
X13349643Y-16199214D01*
X13378214Y-16213500D01*
X13392500Y-16227786D01*
X13406785Y-16256357D01*
X13421071Y-16313500D01*
X13421071Y-16384929D01*
X13406785Y-16442071D01*
X13392500Y-16470643D01*
X13378214Y-16484929D01*
X13349643Y-16499214D01*
X13321071Y-16499214D01*
X13292500Y-16484929D01*
X13278214Y-16470643D01*
X13263928Y-16442071D01*
X13249643Y-16384929D01*
X13249643Y-16313500D01*
X13263928Y-16256357D01*
X13278214Y-16227786D01*
X13292500Y-16213500D01*
X13321071Y-16199214D01*
X13678214Y-16199214D02*
X13621071Y-16199214D01*
X13592500Y-16213500D01*
X13578214Y-16227786D01*
X13549643Y-16270643D01*
X13535357Y-16327786D01*
X13535357Y-16442071D01*
X13549643Y-16470643D01*
X13563928Y-16484929D01*
X13592500Y-16499214D01*
X13649643Y-16499214D01*
X13678214Y-16484929D01*
X13692500Y-16470643D01*
X13706785Y-16442071D01*
X13706785Y-16370643D01*
X13692500Y-16342071D01*
X13678214Y-16327786D01*
X13649643Y-16313500D01*
X13592500Y-16313500D01*
X13563928Y-16327786D01*
X13549643Y-16342071D01*
X13535357Y-16370643D01*
X13806785Y-16199214D02*
X13992500Y-16199214D01*
X13892500Y-16313500D01*
X13935357Y-16313500D01*
X13963928Y-16327786D01*
X13978214Y-16342071D01*
X13992500Y-16370643D01*
X13992500Y-16442071D01*
X13978214Y-16470643D01*
X13963928Y-16484929D01*
X13935357Y-16499214D01*
X13849643Y-16499214D01*
X13821071Y-16484929D01*
X13806785Y-16470643D01*
X14106786Y-16199214D02*
X14106786Y-16256357D01*
X14221071Y-16199214D02*
X14221071Y-16256357D01*
X14663928Y-16613500D02*
X14649643Y-16599214D01*
X14621071Y-16556357D01*
X14606785Y-16527786D01*
X14592500Y-16484929D01*
X14578214Y-16413500D01*
X14578214Y-16356357D01*
X14592500Y-16284929D01*
X14606785Y-16242071D01*
X14621071Y-16213500D01*
X14649643Y-16170643D01*
X14663928Y-16156357D01*
X14935357Y-16499214D02*
X14763928Y-16499214D01*
X14849643Y-16499214D02*
X14849643Y-16199214D01*
X14821071Y-16242071D01*
X14792500Y-16270643D01*
X14763928Y-16284929D01*
X15292500Y-16499214D02*
X15292500Y-16199214D01*
X15421071Y-16499214D02*
X15421071Y-16342071D01*
X15406785Y-16313500D01*
X15378214Y-16299214D01*
X15335357Y-16299214D01*
X15306785Y-16313500D01*
X15292500Y-16327786D01*
X15606785Y-16499214D02*
X15578214Y-16484929D01*
X15563928Y-16470643D01*
X15549643Y-16442071D01*
X15549643Y-16356357D01*
X15563928Y-16327786D01*
X15578214Y-16313500D01*
X15606785Y-16299214D01*
X15649643Y-16299214D01*
X15678214Y-16313500D01*
X15692500Y-16327786D01*
X15706785Y-16356357D01*
X15706785Y-16442071D01*
X15692500Y-16470643D01*
X15678214Y-16484929D01*
X15649643Y-16499214D01*
X15606785Y-16499214D01*
X15878214Y-16499214D02*
X15849643Y-16484929D01*
X15835357Y-16456357D01*
X15835357Y-16199214D01*
X16106786Y-16484929D02*
X16078214Y-16499214D01*
X16021071Y-16499214D01*
X15992500Y-16484929D01*
X15978214Y-16456357D01*
X15978214Y-16342071D01*
X15992500Y-16313500D01*
X16021071Y-16299214D01*
X16078214Y-16299214D01*
X16106786Y-16313500D01*
X16121071Y-16342071D01*
X16121071Y-16370643D01*
X15978214Y-16399214D01*
X16221071Y-16613500D02*
X16235357Y-16599214D01*
X16263928Y-16556357D01*
X16278214Y-16527786D01*
X16292500Y-16484929D01*
X16306786Y-16413500D01*
X16306786Y-16356357D01*
X16292500Y-16284929D01*
X16278214Y-16242071D01*
X16263928Y-16213500D01*
X16235357Y-16170643D01*
X16221071Y-16156357D01*
X16763928Y-16613500D02*
X16749643Y-16599214D01*
X16721071Y-16556357D01*
X16706786Y-16527786D01*
X16692500Y-16484929D01*
X16678214Y-16413500D01*
X16678214Y-16356357D01*
X16692500Y-16284929D01*
X16706786Y-16242071D01*
X16721071Y-16213500D01*
X16749643Y-16170643D01*
X16763928Y-16156357D01*
X16878214Y-16299214D02*
X16878214Y-16499214D01*
X16878214Y-16327786D02*
X16892500Y-16313500D01*
X16921071Y-16299214D01*
X16963929Y-16299214D01*
X16992500Y-16313500D01*
X17006786Y-16342071D01*
X17006786Y-16499214D01*
X17192500Y-16499214D02*
X17163929Y-16484929D01*
X17149643Y-16470643D01*
X17135357Y-16442071D01*
X17135357Y-16356357D01*
X17149643Y-16327786D01*
X17163929Y-16313500D01*
X17192500Y-16299214D01*
X17235357Y-16299214D01*
X17263929Y-16313500D01*
X17278214Y-16327786D01*
X17292500Y-16356357D01*
X17292500Y-16442071D01*
X17278214Y-16470643D01*
X17263929Y-16484929D01*
X17235357Y-16499214D01*
X17192500Y-16499214D01*
X17378214Y-16299214D02*
X17492500Y-16299214D01*
X17421071Y-16199214D02*
X17421071Y-16456357D01*
X17435357Y-16484929D01*
X17463929Y-16499214D01*
X17492500Y-16499214D01*
X17821071Y-16299214D02*
X17821071Y-16599214D01*
X17821071Y-16313500D02*
X17849643Y-16299214D01*
X17906786Y-16299214D01*
X17935357Y-16313500D01*
X17949643Y-16327786D01*
X17963929Y-16356357D01*
X17963929Y-16442071D01*
X17949643Y-16470643D01*
X17935357Y-16484929D01*
X17906786Y-16499214D01*
X17849643Y-16499214D01*
X17821071Y-16484929D01*
X18135357Y-16499214D02*
X18106786Y-16484929D01*
X18092500Y-16456357D01*
X18092500Y-16199214D01*
X18378214Y-16499214D02*
X18378214Y-16342071D01*
X18363929Y-16313500D01*
X18335357Y-16299214D01*
X18278214Y-16299214D01*
X18249643Y-16313500D01*
X18378214Y-16484929D02*
X18349643Y-16499214D01*
X18278214Y-16499214D01*
X18249643Y-16484929D01*
X18235357Y-16456357D01*
X18235357Y-16427786D01*
X18249643Y-16399214D01*
X18278214Y-16384929D01*
X18349643Y-16384929D01*
X18378214Y-16370643D01*
X18478214Y-16299214D02*
X18592500Y-16299214D01*
X18521072Y-16199214D02*
X18521072Y-16456357D01*
X18535357Y-16484929D01*
X18563929Y-16499214D01*
X18592500Y-16499214D01*
X18806786Y-16484929D02*
X18778214Y-16499214D01*
X18721072Y-16499214D01*
X18692500Y-16484929D01*
X18678214Y-16456357D01*
X18678214Y-16342071D01*
X18692500Y-16313500D01*
X18721072Y-16299214D01*
X18778214Y-16299214D01*
X18806786Y-16313500D01*
X18821072Y-16342071D01*
X18821072Y-16370643D01*
X18678214Y-16399214D01*
X19078214Y-16499214D02*
X19078214Y-16199214D01*
X19078214Y-16484929D02*
X19049643Y-16499214D01*
X18992500Y-16499214D01*
X18963929Y-16484929D01*
X18949643Y-16470643D01*
X18935357Y-16442071D01*
X18935357Y-16356357D01*
X18949643Y-16327786D01*
X18963929Y-16313500D01*
X18992500Y-16299214D01*
X19049643Y-16299214D01*
X19078214Y-16313500D01*
X19192500Y-16613500D02*
X19206786Y-16599214D01*
X19235357Y-16556357D01*
X19249643Y-16527786D01*
X19263929Y-16484929D01*
X19278214Y-16413500D01*
X19278214Y-16356357D01*
X19263929Y-16284929D01*
X19249643Y-16242071D01*
X19235357Y-16213500D01*
X19206786Y-16170643D01*
X19192500Y-16156357D01*
X9832500Y-16599500D02*
X9832500Y-16919500D01*
X9672500Y-16759500D02*
X9992500Y-16759500D01*
X10235357Y-16595214D02*
X10421071Y-16595214D01*
X10321071Y-16709500D01*
X10363929Y-16709500D01*
X10392500Y-16723786D01*
X10406786Y-16738071D01*
X10421071Y-16766643D01*
X10421071Y-16838072D01*
X10406786Y-16866643D01*
X10392500Y-16880929D01*
X10363929Y-16895214D01*
X10278214Y-16895214D01*
X10249643Y-16880929D01*
X10235357Y-16866643D01*
X10549643Y-16866643D02*
X10563929Y-16880929D01*
X10549643Y-16895214D01*
X10535357Y-16880929D01*
X10549643Y-16866643D01*
X10549643Y-16895214D01*
X10678214Y-16623786D02*
X10692500Y-16609500D01*
X10721071Y-16595214D01*
X10792500Y-16595214D01*
X10821071Y-16609500D01*
X10835357Y-16623786D01*
X10849643Y-16652357D01*
X10849643Y-16680929D01*
X10835357Y-16723786D01*
X10663928Y-16895214D01*
X10849643Y-16895214D01*
X11035357Y-16595214D02*
X11063929Y-16595214D01*
X11092500Y-16609500D01*
X11106786Y-16623786D01*
X11121071Y-16652357D01*
X11135357Y-16709500D01*
X11135357Y-16780929D01*
X11121071Y-16838072D01*
X11106786Y-16866643D01*
X11092500Y-16880929D01*
X11063929Y-16895214D01*
X11035357Y-16895214D01*
X11006786Y-16880929D01*
X10992500Y-16866643D01*
X10978214Y-16838072D01*
X10963929Y-16780929D01*
X10963929Y-16709500D01*
X10978214Y-16652357D01*
X10992500Y-16623786D01*
X11006786Y-16609500D01*
X11035357Y-16595214D01*
X11263928Y-16895214D02*
X11263928Y-16695214D01*
X11263928Y-16723786D02*
X11278214Y-16709500D01*
X11306786Y-16695214D01*
X11349643Y-16695214D01*
X11378214Y-16709500D01*
X11392500Y-16738071D01*
X11392500Y-16895214D01*
X11392500Y-16738071D02*
X11406786Y-16709500D01*
X11435357Y-16695214D01*
X11478214Y-16695214D01*
X11506786Y-16709500D01*
X11521071Y-16738071D01*
X11521071Y-16895214D01*
X11663928Y-16895214D02*
X11663928Y-16695214D01*
X11663928Y-16723786D02*
X11678214Y-16709500D01*
X11706786Y-16695214D01*
X11749643Y-16695214D01*
X11778214Y-16709500D01*
X11792500Y-16738071D01*
X11792500Y-16895214D01*
X11792500Y-16738071D02*
X11806786Y-16709500D01*
X11835357Y-16695214D01*
X11878214Y-16695214D01*
X11906786Y-16709500D01*
X11921071Y-16738071D01*
X11921071Y-16895214D01*
X12506786Y-16580929D02*
X12249643Y-16966643D01*
X12892500Y-16595214D02*
X12921071Y-16595214D01*
X12949643Y-16609500D01*
X12963928Y-16623786D01*
X12978214Y-16652357D01*
X12992500Y-16709500D01*
X12992500Y-16780929D01*
X12978214Y-16838072D01*
X12963928Y-16866643D01*
X12949643Y-16880929D01*
X12921071Y-16895214D01*
X12892500Y-16895214D01*
X12863928Y-16880929D01*
X12849643Y-16866643D01*
X12835357Y-16838072D01*
X12821071Y-16780929D01*
X12821071Y-16709500D01*
X12835357Y-16652357D01*
X12849643Y-16623786D01*
X12863928Y-16609500D01*
X12892500Y-16595214D01*
X13121071Y-16866643D02*
X13135357Y-16880929D01*
X13121071Y-16895214D01*
X13106786Y-16880929D01*
X13121071Y-16866643D01*
X13121071Y-16895214D01*
X13421071Y-16895214D02*
X13249643Y-16895214D01*
X13335357Y-16895214D02*
X13335357Y-16595214D01*
X13306785Y-16638071D01*
X13278214Y-16666643D01*
X13249643Y-16680929D01*
X13535357Y-16623786D02*
X13549643Y-16609500D01*
X13578214Y-16595214D01*
X13649643Y-16595214D01*
X13678214Y-16609500D01*
X13692500Y-16623786D01*
X13706785Y-16652357D01*
X13706785Y-16680929D01*
X13692500Y-16723786D01*
X13521071Y-16895214D01*
X13706785Y-16895214D01*
X13963928Y-16595214D02*
X13906785Y-16595214D01*
X13878214Y-16609500D01*
X13863928Y-16623786D01*
X13835357Y-16666643D01*
X13821071Y-16723786D01*
X13821071Y-16838072D01*
X13835357Y-16866643D01*
X13849643Y-16880929D01*
X13878214Y-16895214D01*
X13935357Y-16895214D01*
X13963928Y-16880929D01*
X13978214Y-16866643D01*
X13992500Y-16838072D01*
X13992500Y-16766643D01*
X13978214Y-16738071D01*
X13963928Y-16723786D01*
X13935357Y-16709500D01*
X13878214Y-16709500D01*
X13849643Y-16723786D01*
X13835357Y-16738071D01*
X13821071Y-16766643D01*
X14106786Y-16595214D02*
X14106786Y-16652357D01*
X14221071Y-16595214D02*
X14221071Y-16652357D01*
X14663928Y-17009500D02*
X14649643Y-16995214D01*
X14621071Y-16952357D01*
X14606785Y-16923786D01*
X14592500Y-16880929D01*
X14578214Y-16809500D01*
X14578214Y-16752357D01*
X14592500Y-16680929D01*
X14606785Y-16638071D01*
X14621071Y-16609500D01*
X14649643Y-16566643D01*
X14663928Y-16552357D01*
X14749643Y-16595214D02*
X14949643Y-16595214D01*
X14821071Y-16895214D01*
X15292500Y-16895214D02*
X15292500Y-16595214D01*
X15421071Y-16895214D02*
X15421071Y-16738071D01*
X15406785Y-16709500D01*
X15378214Y-16695214D01*
X15335357Y-16695214D01*
X15306785Y-16709500D01*
X15292500Y-16723786D01*
X15606785Y-16895214D02*
X15578214Y-16880929D01*
X15563928Y-16866643D01*
X15549643Y-16838072D01*
X15549643Y-16752357D01*
X15563928Y-16723786D01*
X15578214Y-16709500D01*
X15606785Y-16695214D01*
X15649643Y-16695214D01*
X15678214Y-16709500D01*
X15692500Y-16723786D01*
X15706785Y-16752357D01*
X15706785Y-16838072D01*
X15692500Y-16866643D01*
X15678214Y-16880929D01*
X15649643Y-16895214D01*
X15606785Y-16895214D01*
X15878214Y-16895214D02*
X15849643Y-16880929D01*
X15835357Y-16852357D01*
X15835357Y-16595214D01*
X16106786Y-16880929D02*
X16078214Y-16895214D01*
X16021071Y-16895214D01*
X15992500Y-16880929D01*
X15978214Y-16852357D01*
X15978214Y-16738071D01*
X15992500Y-16709500D01*
X16021071Y-16695214D01*
X16078214Y-16695214D01*
X16106786Y-16709500D01*
X16121071Y-16738071D01*
X16121071Y-16766643D01*
X15978214Y-16795214D01*
X16235357Y-16880929D02*
X16263928Y-16895214D01*
X16321071Y-16895214D01*
X16349643Y-16880929D01*
X16363928Y-16852357D01*
X16363928Y-16838072D01*
X16349643Y-16809500D01*
X16321071Y-16795214D01*
X16278214Y-16795214D01*
X16249643Y-16780929D01*
X16235357Y-16752357D01*
X16235357Y-16738071D01*
X16249643Y-16709500D01*
X16278214Y-16695214D01*
X16321071Y-16695214D01*
X16349643Y-16709500D01*
X16463928Y-17009500D02*
X16478214Y-16995214D01*
X16506786Y-16952357D01*
X16521071Y-16923786D01*
X16535357Y-16880929D01*
X16549643Y-16809500D01*
X16549643Y-16752357D01*
X16535357Y-16680929D01*
X16521071Y-16638071D01*
X16506786Y-16609500D01*
X16478214Y-16566643D01*
X16463928Y-16552357D01*
X17006786Y-17009500D02*
X16992500Y-16995214D01*
X16963928Y-16952357D01*
X16949643Y-16923786D01*
X16935357Y-16880929D01*
X16921071Y-16809500D01*
X16921071Y-16752357D01*
X16935357Y-16680929D01*
X16949643Y-16638071D01*
X16963928Y-16609500D01*
X16992500Y-16566643D01*
X17006786Y-16552357D01*
X17121071Y-16695214D02*
X17121071Y-16895214D01*
X17121071Y-16723786D02*
X17135357Y-16709500D01*
X17163928Y-16695214D01*
X17206786Y-16695214D01*
X17235357Y-16709500D01*
X17249643Y-16738071D01*
X17249643Y-16895214D01*
X17435357Y-16895214D02*
X17406786Y-16880929D01*
X17392500Y-16866643D01*
X17378214Y-16838072D01*
X17378214Y-16752357D01*
X17392500Y-16723786D01*
X17406786Y-16709500D01*
X17435357Y-16695214D01*
X17478214Y-16695214D01*
X17506786Y-16709500D01*
X17521071Y-16723786D01*
X17535357Y-16752357D01*
X17535357Y-16838072D01*
X17521071Y-16866643D01*
X17506786Y-16880929D01*
X17478214Y-16895214D01*
X17435357Y-16895214D01*
X17621071Y-16695214D02*
X17735357Y-16695214D01*
X17663929Y-16595214D02*
X17663929Y-16852357D01*
X17678214Y-16880929D01*
X17706786Y-16895214D01*
X17735357Y-16895214D01*
X18063929Y-16695214D02*
X18063929Y-16995214D01*
X18063929Y-16709500D02*
X18092500Y-16695214D01*
X18149643Y-16695214D01*
X18178214Y-16709500D01*
X18192500Y-16723786D01*
X18206786Y-16752357D01*
X18206786Y-16838072D01*
X18192500Y-16866643D01*
X18178214Y-16880929D01*
X18149643Y-16895214D01*
X18092500Y-16895214D01*
X18063929Y-16880929D01*
X18378214Y-16895214D02*
X18349643Y-16880929D01*
X18335357Y-16852357D01*
X18335357Y-16595214D01*
X18621071Y-16895214D02*
X18621071Y-16738071D01*
X18606786Y-16709500D01*
X18578214Y-16695214D01*
X18521071Y-16695214D01*
X18492500Y-16709500D01*
X18621071Y-16880929D02*
X18592500Y-16895214D01*
X18521071Y-16895214D01*
X18492500Y-16880929D01*
X18478214Y-16852357D01*
X18478214Y-16823786D01*
X18492500Y-16795214D01*
X18521071Y-16780929D01*
X18592500Y-16780929D01*
X18621071Y-16766643D01*
X18721071Y-16695214D02*
X18835357Y-16695214D01*
X18763929Y-16595214D02*
X18763929Y-16852357D01*
X18778214Y-16880929D01*
X18806786Y-16895214D01*
X18835357Y-16895214D01*
X19049643Y-16880929D02*
X19021072Y-16895214D01*
X18963929Y-16895214D01*
X18935357Y-16880929D01*
X18921072Y-16852357D01*
X18921072Y-16738071D01*
X18935357Y-16709500D01*
X18963929Y-16695214D01*
X19021072Y-16695214D01*
X19049643Y-16709500D01*
X19063929Y-16738071D01*
X19063929Y-16766643D01*
X18921072Y-16795214D01*
X19321072Y-16895214D02*
X19321072Y-16595214D01*
X19321072Y-16880929D02*
X19292500Y-16895214D01*
X19235357Y-16895214D01*
X19206786Y-16880929D01*
X19192500Y-16866643D01*
X19178214Y-16838072D01*
X19178214Y-16752357D01*
X19192500Y-16723786D01*
X19206786Y-16709500D01*
X19235357Y-16695214D01*
X19292500Y-16695214D01*
X19321072Y-16709500D01*
X19435357Y-17009500D02*
X19449643Y-16995214D01*
X19478214Y-16952357D01*
X19492500Y-16923786D01*
X19506786Y-16880929D01*
X19521072Y-16809500D01*
X19521072Y-16752357D01*
X19506786Y-16680929D01*
X19492500Y-16638071D01*
X19478214Y-16609500D01*
X19449643Y-16566643D01*
X19435357Y-16552357D01*
M02*
