%FSLAX45Y45*%
G04 Gerber Fmt 4.5, Leading zero omitted, Abs format (unit mm)*
G04 Created by KiCad (PCBNEW 4.0.7) date 10/02/18 03:43:43*
%MOMM*%
%LPD*%
G01*
G04 APERTURE LIST*
%ADD10C,0.127000*%
%ADD11C,0.150000*%
%ADD12C,0.200000*%
%ADD13C,0.300000*%
G04 APERTURE END LIST*
D10*
D11*
X14700000Y-12800000D02*
X14700000Y-7000000D01*
X9000000Y-12800000D02*
X9000000Y-7000000D01*
X9000000Y-12800000D02*
X14700000Y-12800000D01*
X9000000Y-7000000D02*
X14700000Y-7000000D01*
D12*
X9340000Y-7340000D02*
X9660000Y-7660000D01*
X9660000Y-7340000D02*
X9340000Y-7660000D01*
X9340000Y-12140000D02*
X9660000Y-12460000D01*
X9660000Y-12140000D02*
X9340000Y-12460000D01*
X14040000Y-7340000D02*
X14360000Y-7660000D01*
X14360000Y-7340000D02*
X14040000Y-7660000D01*
X14040000Y-12140000D02*
X14360000Y-12460000D01*
X14360000Y-12140000D02*
X14040000Y-12460000D01*
D13*
X9263929Y-13273214D02*
X9263929Y-12973214D01*
X9335357Y-12973214D01*
X9378214Y-12987500D01*
X9406786Y-13016071D01*
X9421071Y-13044643D01*
X9435357Y-13101786D01*
X9435357Y-13144643D01*
X9421071Y-13201786D01*
X9406786Y-13230357D01*
X9378214Y-13258929D01*
X9335357Y-13273214D01*
X9263929Y-13273214D01*
X9563929Y-13273214D02*
X9563929Y-13073214D01*
X9563929Y-13130357D02*
X9578214Y-13101786D01*
X9592500Y-13087500D01*
X9621071Y-13073214D01*
X9649643Y-13073214D01*
X9749643Y-13273214D02*
X9749643Y-13073214D01*
X9749643Y-12973214D02*
X9735357Y-12987500D01*
X9749643Y-13001786D01*
X9763929Y-12987500D01*
X9749643Y-12973214D01*
X9749643Y-13001786D01*
X9935357Y-13273214D02*
X9906786Y-13258929D01*
X9892500Y-13230357D01*
X9892500Y-12973214D01*
X10092500Y-13273214D02*
X10063929Y-13258929D01*
X10049643Y-13230357D01*
X10049643Y-12973214D01*
X10435357Y-13273214D02*
X10435357Y-12973214D01*
X10535357Y-13187500D01*
X10635357Y-12973214D01*
X10635357Y-13273214D01*
X10906786Y-13273214D02*
X10906786Y-13116071D01*
X10892500Y-13087500D01*
X10863929Y-13073214D01*
X10806786Y-13073214D01*
X10778214Y-13087500D01*
X10906786Y-13258929D02*
X10878214Y-13273214D01*
X10806786Y-13273214D01*
X10778214Y-13258929D01*
X10763929Y-13230357D01*
X10763929Y-13201786D01*
X10778214Y-13173214D01*
X10806786Y-13158929D01*
X10878214Y-13158929D01*
X10906786Y-13144643D01*
X11049643Y-13073214D02*
X11049643Y-13373214D01*
X11049643Y-13087500D02*
X11078214Y-13073214D01*
X11135357Y-13073214D01*
X11163929Y-13087500D01*
X11178214Y-13101786D01*
X11192500Y-13130357D01*
X11192500Y-13216071D01*
X11178214Y-13244643D01*
X11163929Y-13258929D01*
X11135357Y-13273214D01*
X11078214Y-13273214D01*
X11049643Y-13258929D01*
X11321071Y-13244643D02*
X11335357Y-13258929D01*
X11321071Y-13273214D01*
X11306786Y-13258929D01*
X11321071Y-13244643D01*
X11321071Y-13273214D01*
X11321071Y-13087500D02*
X11335357Y-13101786D01*
X11321071Y-13116071D01*
X11306786Y-13101786D01*
X11321071Y-13087500D01*
X11321071Y-13116071D01*
X8672500Y-13607500D02*
X8992500Y-13927500D01*
X8992500Y-13607500D02*
X8672500Y-13927500D01*
X9235357Y-13603214D02*
X9421071Y-13603214D01*
X9321071Y-13717500D01*
X9363929Y-13717500D01*
X9392500Y-13731786D01*
X9406786Y-13746071D01*
X9421071Y-13774643D01*
X9421071Y-13846071D01*
X9406786Y-13874643D01*
X9392500Y-13888929D01*
X9363929Y-13903214D01*
X9278214Y-13903214D01*
X9249643Y-13888929D01*
X9235357Y-13874643D01*
X9549643Y-13874643D02*
X9563929Y-13888929D01*
X9549643Y-13903214D01*
X9535357Y-13888929D01*
X9549643Y-13874643D01*
X9549643Y-13903214D01*
X9678214Y-13631786D02*
X9692500Y-13617500D01*
X9721071Y-13603214D01*
X9792500Y-13603214D01*
X9821071Y-13617500D01*
X9835357Y-13631786D01*
X9849643Y-13660357D01*
X9849643Y-13688929D01*
X9835357Y-13731786D01*
X9663928Y-13903214D01*
X9849643Y-13903214D01*
X10035357Y-13603214D02*
X10063929Y-13603214D01*
X10092500Y-13617500D01*
X10106786Y-13631786D01*
X10121071Y-13660357D01*
X10135357Y-13717500D01*
X10135357Y-13788929D01*
X10121071Y-13846071D01*
X10106786Y-13874643D01*
X10092500Y-13888929D01*
X10063929Y-13903214D01*
X10035357Y-13903214D01*
X10006786Y-13888929D01*
X9992500Y-13874643D01*
X9978214Y-13846071D01*
X9963929Y-13788929D01*
X9963929Y-13717500D01*
X9978214Y-13660357D01*
X9992500Y-13631786D01*
X10006786Y-13617500D01*
X10035357Y-13603214D01*
X10263929Y-13903214D02*
X10263929Y-13703214D01*
X10263929Y-13731786D02*
X10278214Y-13717500D01*
X10306786Y-13703214D01*
X10349643Y-13703214D01*
X10378214Y-13717500D01*
X10392500Y-13746071D01*
X10392500Y-13903214D01*
X10392500Y-13746071D02*
X10406786Y-13717500D01*
X10435357Y-13703214D01*
X10478214Y-13703214D01*
X10506786Y-13717500D01*
X10521071Y-13746071D01*
X10521071Y-13903214D01*
X10663929Y-13903214D02*
X10663929Y-13703214D01*
X10663929Y-13731786D02*
X10678214Y-13717500D01*
X10706786Y-13703214D01*
X10749643Y-13703214D01*
X10778214Y-13717500D01*
X10792500Y-13746071D01*
X10792500Y-13903214D01*
X10792500Y-13746071D02*
X10806786Y-13717500D01*
X10835357Y-13703214D01*
X10878214Y-13703214D01*
X10906786Y-13717500D01*
X10921071Y-13746071D01*
X10921071Y-13903214D01*
X11506786Y-13588929D02*
X11249643Y-13974643D01*
X11892500Y-13603214D02*
X11921071Y-13603214D01*
X11949643Y-13617500D01*
X11963928Y-13631786D01*
X11978214Y-13660357D01*
X11992500Y-13717500D01*
X11992500Y-13788929D01*
X11978214Y-13846071D01*
X11963928Y-13874643D01*
X11949643Y-13888929D01*
X11921071Y-13903214D01*
X11892500Y-13903214D01*
X11863928Y-13888929D01*
X11849643Y-13874643D01*
X11835357Y-13846071D01*
X11821071Y-13788929D01*
X11821071Y-13717500D01*
X11835357Y-13660357D01*
X11849643Y-13631786D01*
X11863928Y-13617500D01*
X11892500Y-13603214D01*
X12121071Y-13874643D02*
X12135357Y-13888929D01*
X12121071Y-13903214D01*
X12106786Y-13888929D01*
X12121071Y-13874643D01*
X12121071Y-13903214D01*
X12421071Y-13903214D02*
X12249643Y-13903214D01*
X12335357Y-13903214D02*
X12335357Y-13603214D01*
X12306785Y-13646071D01*
X12278214Y-13674643D01*
X12249643Y-13688929D01*
X12535357Y-13631786D02*
X12549643Y-13617500D01*
X12578214Y-13603214D01*
X12649643Y-13603214D01*
X12678214Y-13617500D01*
X12692500Y-13631786D01*
X12706785Y-13660357D01*
X12706785Y-13688929D01*
X12692500Y-13731786D01*
X12521071Y-13903214D01*
X12706785Y-13903214D01*
X12963928Y-13603214D02*
X12906785Y-13603214D01*
X12878214Y-13617500D01*
X12863928Y-13631786D01*
X12835357Y-13674643D01*
X12821071Y-13731786D01*
X12821071Y-13846071D01*
X12835357Y-13874643D01*
X12849643Y-13888929D01*
X12878214Y-13903214D01*
X12935357Y-13903214D01*
X12963928Y-13888929D01*
X12978214Y-13874643D01*
X12992500Y-13846071D01*
X12992500Y-13774643D01*
X12978214Y-13746071D01*
X12963928Y-13731786D01*
X12935357Y-13717500D01*
X12878214Y-13717500D01*
X12849643Y-13731786D01*
X12835357Y-13746071D01*
X12821071Y-13774643D01*
X13106786Y-13603214D02*
X13106786Y-13660357D01*
X13221071Y-13603214D02*
X13221071Y-13660357D01*
X13663928Y-14017500D02*
X13649643Y-14003214D01*
X13621071Y-13960357D01*
X13606785Y-13931786D01*
X13592500Y-13888929D01*
X13578214Y-13817500D01*
X13578214Y-13760357D01*
X13592500Y-13688929D01*
X13606785Y-13646071D01*
X13621071Y-13617500D01*
X13649643Y-13574643D01*
X13663928Y-13560357D01*
X13906785Y-13703214D02*
X13906785Y-13903214D01*
X13835357Y-13588929D02*
X13763928Y-13803214D01*
X13949643Y-13803214D01*
X14292500Y-13903214D02*
X14292500Y-13603214D01*
X14421071Y-13903214D02*
X14421071Y-13746071D01*
X14406785Y-13717500D01*
X14378214Y-13703214D01*
X14335357Y-13703214D01*
X14306785Y-13717500D01*
X14292500Y-13731786D01*
X14606785Y-13903214D02*
X14578214Y-13888929D01*
X14563928Y-13874643D01*
X14549643Y-13846071D01*
X14549643Y-13760357D01*
X14563928Y-13731786D01*
X14578214Y-13717500D01*
X14606785Y-13703214D01*
X14649643Y-13703214D01*
X14678214Y-13717500D01*
X14692500Y-13731786D01*
X14706785Y-13760357D01*
X14706785Y-13846071D01*
X14692500Y-13874643D01*
X14678214Y-13888929D01*
X14649643Y-13903214D01*
X14606785Y-13903214D01*
X14878214Y-13903214D02*
X14849643Y-13888929D01*
X14835357Y-13860357D01*
X14835357Y-13603214D01*
X15106786Y-13888929D02*
X15078214Y-13903214D01*
X15021071Y-13903214D01*
X14992500Y-13888929D01*
X14978214Y-13860357D01*
X14978214Y-13746071D01*
X14992500Y-13717500D01*
X15021071Y-13703214D01*
X15078214Y-13703214D01*
X15106786Y-13717500D01*
X15121071Y-13746071D01*
X15121071Y-13774643D01*
X14978214Y-13803214D01*
X15235357Y-13888929D02*
X15263928Y-13903214D01*
X15321071Y-13903214D01*
X15349643Y-13888929D01*
X15363928Y-13860357D01*
X15363928Y-13846071D01*
X15349643Y-13817500D01*
X15321071Y-13803214D01*
X15278214Y-13803214D01*
X15249643Y-13788929D01*
X15235357Y-13760357D01*
X15235357Y-13746071D01*
X15249643Y-13717500D01*
X15278214Y-13703214D01*
X15321071Y-13703214D01*
X15349643Y-13717500D01*
X15463928Y-14017500D02*
X15478214Y-14003214D01*
X15506786Y-13960357D01*
X15521071Y-13931786D01*
X15535357Y-13888929D01*
X15549643Y-13817500D01*
X15549643Y-13760357D01*
X15535357Y-13688929D01*
X15521071Y-13646071D01*
X15506786Y-13617500D01*
X15478214Y-13574643D01*
X15463928Y-13560357D01*
X16006786Y-14017500D02*
X15992500Y-14003214D01*
X15963928Y-13960357D01*
X15949643Y-13931786D01*
X15935357Y-13888929D01*
X15921071Y-13817500D01*
X15921071Y-13760357D01*
X15935357Y-13688929D01*
X15949643Y-13646071D01*
X15963928Y-13617500D01*
X15992500Y-13574643D01*
X16006786Y-13560357D01*
X16121071Y-13703214D02*
X16121071Y-13903214D01*
X16121071Y-13731786D02*
X16135357Y-13717500D01*
X16163928Y-13703214D01*
X16206786Y-13703214D01*
X16235357Y-13717500D01*
X16249643Y-13746071D01*
X16249643Y-13903214D01*
X16435357Y-13903214D02*
X16406786Y-13888929D01*
X16392500Y-13874643D01*
X16378214Y-13846071D01*
X16378214Y-13760357D01*
X16392500Y-13731786D01*
X16406786Y-13717500D01*
X16435357Y-13703214D01*
X16478214Y-13703214D01*
X16506786Y-13717500D01*
X16521071Y-13731786D01*
X16535357Y-13760357D01*
X16535357Y-13846071D01*
X16521071Y-13874643D01*
X16506786Y-13888929D01*
X16478214Y-13903214D01*
X16435357Y-13903214D01*
X16621071Y-13703214D02*
X16735357Y-13703214D01*
X16663928Y-13603214D02*
X16663928Y-13860357D01*
X16678214Y-13888929D01*
X16706786Y-13903214D01*
X16735357Y-13903214D01*
X17063929Y-13703214D02*
X17063929Y-14003214D01*
X17063929Y-13717500D02*
X17092500Y-13703214D01*
X17149643Y-13703214D01*
X17178214Y-13717500D01*
X17192500Y-13731786D01*
X17206786Y-13760357D01*
X17206786Y-13846071D01*
X17192500Y-13874643D01*
X17178214Y-13888929D01*
X17149643Y-13903214D01*
X17092500Y-13903214D01*
X17063929Y-13888929D01*
X17378214Y-13903214D02*
X17349643Y-13888929D01*
X17335357Y-13860357D01*
X17335357Y-13603214D01*
X17621071Y-13903214D02*
X17621071Y-13746071D01*
X17606786Y-13717500D01*
X17578214Y-13703214D01*
X17521071Y-13703214D01*
X17492500Y-13717500D01*
X17621071Y-13888929D02*
X17592500Y-13903214D01*
X17521071Y-13903214D01*
X17492500Y-13888929D01*
X17478214Y-13860357D01*
X17478214Y-13831786D01*
X17492500Y-13803214D01*
X17521071Y-13788929D01*
X17592500Y-13788929D01*
X17621071Y-13774643D01*
X17721071Y-13703214D02*
X17835357Y-13703214D01*
X17763929Y-13603214D02*
X17763929Y-13860357D01*
X17778214Y-13888929D01*
X17806786Y-13903214D01*
X17835357Y-13903214D01*
X18049643Y-13888929D02*
X18021072Y-13903214D01*
X17963929Y-13903214D01*
X17935357Y-13888929D01*
X17921072Y-13860357D01*
X17921072Y-13746071D01*
X17935357Y-13717500D01*
X17963929Y-13703214D01*
X18021072Y-13703214D01*
X18049643Y-13717500D01*
X18063929Y-13746071D01*
X18063929Y-13774643D01*
X17921072Y-13803214D01*
X18321072Y-13903214D02*
X18321072Y-13603214D01*
X18321072Y-13888929D02*
X18292500Y-13903214D01*
X18235357Y-13903214D01*
X18206786Y-13888929D01*
X18192500Y-13874643D01*
X18178214Y-13846071D01*
X18178214Y-13760357D01*
X18192500Y-13731786D01*
X18206786Y-13717500D01*
X18235357Y-13703214D01*
X18292500Y-13703214D01*
X18321072Y-13717500D01*
X18435357Y-14017500D02*
X18449643Y-14003214D01*
X18478214Y-13960357D01*
X18492500Y-13931786D01*
X18506786Y-13888929D01*
X18521072Y-13817500D01*
X18521072Y-13760357D01*
X18506786Y-13688929D01*
X18492500Y-13646071D01*
X18478214Y-13617500D01*
X18449643Y-13574643D01*
X18435357Y-13560357D01*
M02*
