M48
;DRILL file {KiCad 4.0.7} date 10/02/18 03:43:42
;FORMAT={-:-/ absolute / inch / decimal}
FMAT,2
INCH,TZ
T1C0.012
T2C0.028
T3C0.030
T4C0.031
T5C0.039
T6C0.043
T7C0.060
T8C0.079
%
G90
G05
M72
T1
X4.3088Y-3.5976
X4.3088Y-3.6488
X4.3088Y-3.7
X4.3088Y-3.7512
X4.3088Y-3.8024
X4.36Y-3.5976
X4.36Y-3.6488
X4.36Y-3.7
X4.36Y-3.7512
X4.36Y-3.8024
X4.4112Y-3.5976
X4.4112Y-3.6488
X4.4112Y-3.7
X4.4112Y-3.7512
X4.4112Y-3.8024
T2
X3.86Y-3.74
X3.86Y-4.56
X3.98Y-3.52
X3.98Y-3.58
X3.98Y-3.64
X4.04Y-3.58
X4.58Y-3.86
X4.58Y-4.34
T3
X5.58Y-3.8216
X5.58Y-4.0184
T4
X4.28Y-4.86
X4.38Y-4.86
T5
X4.2Y-4.05
X4.2Y-4.15
X4.35Y-4.05
X4.35Y-4.15
X4.5Y-4.05
X4.5Y-4.15
X4.7Y-2.95
X4.8Y-2.95
X5.7087Y-4.252
X5.7087Y-4.352
X5.7087Y-4.452
X5.7087Y-4.552
T6
X5.1Y-3.68
X5.4Y-3.68
T7
X4.6Y-4.9
X4.8Y-4.9
T8
X5.Y-4.1
X5.Y-4.3
X5.Y-4.5
T5
X3.7138Y-3.2606G85X3.7138Y-3.3394
G05
X3.7925Y-3.485G85X3.8713Y-3.485
G05
X3.95Y-3.2606G85X3.95Y-3.3394
G05
T0
M30
