%FSLAX45Y45*%
G04 Gerber Fmt 4.5, Leading zero omitted, Abs format (unit mm)*
G04 Created by KiCad (PCBNEW 4.0.7) date 10/02/18 03:43:43*
%MOMM*%
%LPD*%
G01*
G04 APERTURE LIST*
%ADD10C,0.127000*%
%ADD11C,0.150000*%
%ADD12C,0.200000*%
%ADD13C,0.300000*%
G04 APERTURE END LIST*
D10*
D11*
X14700000Y-12800000D02*
X14700000Y-7000000D01*
X9000000Y-12800000D02*
X9000000Y-7000000D01*
X9000000Y-12800000D02*
X14700000Y-12800000D01*
X9000000Y-7000000D02*
X14700000Y-7000000D01*
D12*
X10929400Y-9123000D02*
X10959400Y-9153000D01*
X10959400Y-9123000D02*
X10929400Y-9153000D01*
X10929400Y-9253000D02*
X10959400Y-9283000D01*
X10959400Y-9253000D02*
X10929400Y-9283000D01*
X10929400Y-9383000D02*
X10959400Y-9413000D01*
X10959400Y-9383000D02*
X10929400Y-9413000D01*
X10929400Y-9513000D02*
X10959400Y-9543000D01*
X10959400Y-9513000D02*
X10929400Y-9543000D01*
X10929400Y-9643000D02*
X10959400Y-9673000D01*
X10959400Y-9643000D02*
X10929400Y-9673000D01*
X11059400Y-9123000D02*
X11089400Y-9153000D01*
X11089400Y-9123000D02*
X11059400Y-9153000D01*
X11059400Y-9253000D02*
X11089400Y-9283000D01*
X11089400Y-9253000D02*
X11059400Y-9283000D01*
X11059400Y-9383000D02*
X11089400Y-9413000D01*
X11089400Y-9383000D02*
X11059400Y-9413000D01*
X11059400Y-9513000D02*
X11089400Y-9543000D01*
X11089400Y-9513000D02*
X11059400Y-9543000D01*
X11059400Y-9643000D02*
X11089400Y-9673000D01*
X11089400Y-9643000D02*
X11059400Y-9673000D01*
X11189400Y-9123000D02*
X11219400Y-9153000D01*
X11219400Y-9123000D02*
X11189400Y-9153000D01*
X11189400Y-9253000D02*
X11219400Y-9283000D01*
X11219400Y-9253000D02*
X11189400Y-9283000D01*
X11189400Y-9383000D02*
X11219400Y-9413000D01*
X11219400Y-9383000D02*
X11189400Y-9413000D01*
X11189400Y-9513000D02*
X11219400Y-9543000D01*
X11219400Y-9513000D02*
X11189400Y-9543000D01*
X11189400Y-9643000D02*
X11219400Y-9673000D01*
X11219400Y-9643000D02*
X11189400Y-9673000D01*
X9839400Y-9499600D02*
G75*
G03X9839400Y-9499600I-35000J0D01*
G01*
X9839400Y-11582400D02*
G75*
G03X9839400Y-11582400I-35000J0D01*
G01*
X10144200Y-8940800D02*
G75*
G03X10144200Y-8940800I-35000J0D01*
G01*
X10144200Y-9093200D02*
G75*
G03X10144200Y-9093200I-35000J0D01*
G01*
X10144200Y-9245600D02*
G75*
G03X10144200Y-9245600I-35000J0D01*
G01*
X10296600Y-9093200D02*
G75*
G03X10296600Y-9093200I-35000J0D01*
G01*
X11668200Y-9804400D02*
G75*
G03X11668200Y-9804400I-35000J0D01*
G01*
X11668200Y-11023600D02*
G75*
G03X11668200Y-11023600I-35000J0D01*
G01*
X14173200Y-9668700D02*
X14173200Y-9744900D01*
X14135100Y-9706800D02*
X14211300Y-9706800D01*
X14173200Y-10168700D02*
X14173200Y-10244900D01*
X14135100Y-10206800D02*
X14211300Y-10206800D01*
X10899485Y-12372684D02*
X10899485Y-12316115D01*
X10842916Y-12316115D01*
X10842916Y-12372684D01*
X10899485Y-12372684D01*
X11153485Y-12372684D02*
X11153485Y-12316115D01*
X11096916Y-12316115D01*
X11096916Y-12372684D01*
X11153485Y-12372684D01*
X9433000Y-8432000D02*
X9483000Y-8382000D01*
X9433000Y-8332000D01*
X9383000Y-8382000D01*
X9433000Y-8432000D01*
X9393000Y-8282000D02*
X9393000Y-8482000D01*
X9473000Y-8282000D02*
X9473000Y-8482000D01*
X9393000Y-8482000D02*
G75*
G03X9473000Y-8482000I40000J0D01*
G01*
X9473000Y-8282000D02*
G75*
G03X9393000Y-8282000I-40000J0D01*
G01*
X9733000Y-8902000D02*
X9783000Y-8852000D01*
X9733000Y-8802000D01*
X9683000Y-8852000D01*
X9733000Y-8902000D01*
X9633000Y-8892000D02*
X9833000Y-8892000D01*
X9633000Y-8812000D02*
X9833000Y-8812000D01*
X9833000Y-8892000D02*
G75*
G03X9833000Y-8812000I0J40000D01*
G01*
X9633000Y-8812000D02*
G75*
G03X9633000Y-8892000I0J-40000D01*
G01*
X10033000Y-8432000D02*
X10083000Y-8382000D01*
X10033000Y-8332000D01*
X9983000Y-8382000D01*
X10033000Y-8432000D01*
X9993000Y-8282000D02*
X9993000Y-8482000D01*
X10073000Y-8282000D02*
X10073000Y-8482000D01*
X9993000Y-8482000D02*
G75*
G03X10073000Y-8482000I40000J0D01*
G01*
X10073000Y-8282000D02*
G75*
G03X9993000Y-8282000I-40000J0D01*
G01*
X10668000Y-10337000D02*
X10718000Y-10287000D01*
X10668000Y-10237000D01*
X10618000Y-10287000D01*
X10668000Y-10337000D01*
X10668000Y-10591000D02*
X10718000Y-10541000D01*
X10668000Y-10491000D01*
X10618000Y-10541000D01*
X10668000Y-10591000D01*
X11049000Y-10337000D02*
X11099000Y-10287000D01*
X11049000Y-10237000D01*
X10999000Y-10287000D01*
X11049000Y-10337000D01*
X11049000Y-10591000D02*
X11099000Y-10541000D01*
X11049000Y-10491000D01*
X10999000Y-10541000D01*
X11049000Y-10591000D01*
X11430000Y-10337000D02*
X11480000Y-10287000D01*
X11430000Y-10237000D01*
X11380000Y-10287000D01*
X11430000Y-10337000D01*
X11430000Y-10591000D02*
X11480000Y-10541000D01*
X11430000Y-10491000D01*
X11380000Y-10541000D01*
X11430000Y-10591000D01*
X11938000Y-7543000D02*
X11988000Y-7493000D01*
X11938000Y-7443000D01*
X11888000Y-7493000D01*
X11938000Y-7543000D01*
X12192000Y-7543000D02*
X12242000Y-7493000D01*
X12192000Y-7443000D01*
X12142000Y-7493000D01*
X12192000Y-7543000D01*
X14500000Y-10850000D02*
X14550000Y-10800000D01*
X14500000Y-10750000D01*
X14450000Y-10800000D01*
X14500000Y-10850000D01*
X14500000Y-11104000D02*
X14550000Y-11054000D01*
X14500000Y-11004000D01*
X14450000Y-11054000D01*
X14500000Y-11104000D01*
X14500000Y-11358000D02*
X14550000Y-11308000D01*
X14500000Y-11258000D01*
X14450000Y-11308000D01*
X14500000Y-11358000D01*
X14500000Y-11612000D02*
X14550000Y-11562000D01*
X14500000Y-11512000D01*
X14450000Y-11562000D01*
X14500000Y-11612000D01*
X12899000Y-9292200D02*
X13009000Y-9402200D01*
X13009000Y-9292200D02*
X12899000Y-9402200D01*
X13009000Y-9347200D02*
G75*
G03X13009000Y-9347200I-55000J0D01*
G01*
X13661000Y-9292200D02*
X13771000Y-9402200D01*
X13771000Y-9292200D02*
X13661000Y-9402200D01*
X13771000Y-9347200D02*
G75*
G03X13771000Y-9347200I-55000J0D01*
G01*
X11608000Y-12370000D02*
X11760000Y-12522000D01*
X11760000Y-12370000D02*
X11608000Y-12522000D01*
X11684000Y-12370000D02*
X11684000Y-12522000D01*
X11608000Y-12446000D02*
X11760000Y-12446000D01*
X12116000Y-12370000D02*
X12268000Y-12522000D01*
X12268000Y-12370000D02*
X12116000Y-12522000D01*
X12192000Y-12370000D02*
X12192000Y-12522000D01*
X12116000Y-12446000D02*
X12268000Y-12446000D01*
X12600000Y-10314000D02*
X12800000Y-10514000D01*
X12800000Y-10314000D02*
X12600000Y-10514000D01*
X12770711Y-10484711D02*
X12770711Y-10343289D01*
X12629289Y-10343289D01*
X12629289Y-10484711D01*
X12770711Y-10484711D01*
X12600000Y-10822000D02*
X12800000Y-11022000D01*
X12800000Y-10822000D02*
X12600000Y-11022000D01*
X12770711Y-10992711D02*
X12770711Y-10851289D01*
X12629289Y-10851289D01*
X12629289Y-10992711D01*
X12770711Y-10992711D01*
X12600000Y-11330000D02*
X12800000Y-11530000D01*
X12800000Y-11330000D02*
X12600000Y-11530000D01*
X12770711Y-11500711D02*
X12770711Y-11359289D01*
X12629289Y-11359289D01*
X12629289Y-11500711D01*
X12770711Y-11500711D01*
D13*
X9263929Y-13273214D02*
X9263929Y-12973214D01*
X9335357Y-12973214D01*
X9378214Y-12987500D01*
X9406786Y-13016071D01*
X9421071Y-13044643D01*
X9435357Y-13101786D01*
X9435357Y-13144643D01*
X9421071Y-13201786D01*
X9406786Y-13230357D01*
X9378214Y-13258929D01*
X9335357Y-13273214D01*
X9263929Y-13273214D01*
X9563929Y-13273214D02*
X9563929Y-13073214D01*
X9563929Y-13130357D02*
X9578214Y-13101786D01*
X9592500Y-13087500D01*
X9621071Y-13073214D01*
X9649643Y-13073214D01*
X9749643Y-13273214D02*
X9749643Y-13073214D01*
X9749643Y-12973214D02*
X9735357Y-12987500D01*
X9749643Y-13001786D01*
X9763929Y-12987500D01*
X9749643Y-12973214D01*
X9749643Y-13001786D01*
X9935357Y-13273214D02*
X9906786Y-13258929D01*
X9892500Y-13230357D01*
X9892500Y-12973214D01*
X10092500Y-13273214D02*
X10063929Y-13258929D01*
X10049643Y-13230357D01*
X10049643Y-12973214D01*
X10435357Y-13273214D02*
X10435357Y-12973214D01*
X10535357Y-13187500D01*
X10635357Y-12973214D01*
X10635357Y-13273214D01*
X10906786Y-13273214D02*
X10906786Y-13116071D01*
X10892500Y-13087500D01*
X10863929Y-13073214D01*
X10806786Y-13073214D01*
X10778214Y-13087500D01*
X10906786Y-13258929D02*
X10878214Y-13273214D01*
X10806786Y-13273214D01*
X10778214Y-13258929D01*
X10763929Y-13230357D01*
X10763929Y-13201786D01*
X10778214Y-13173214D01*
X10806786Y-13158929D01*
X10878214Y-13158929D01*
X10906786Y-13144643D01*
X11049643Y-13073214D02*
X11049643Y-13373214D01*
X11049643Y-13087500D02*
X11078214Y-13073214D01*
X11135357Y-13073214D01*
X11163929Y-13087500D01*
X11178214Y-13101786D01*
X11192500Y-13130357D01*
X11192500Y-13216071D01*
X11178214Y-13244643D01*
X11163929Y-13258929D01*
X11135357Y-13273214D01*
X11078214Y-13273214D01*
X11049643Y-13258929D01*
X11321071Y-13244643D02*
X11335357Y-13258929D01*
X11321071Y-13273214D01*
X11306786Y-13258929D01*
X11321071Y-13244643D01*
X11321071Y-13273214D01*
X11321071Y-13087500D02*
X11335357Y-13101786D01*
X11321071Y-13116071D01*
X11306786Y-13101786D01*
X11321071Y-13087500D01*
X11321071Y-13116071D01*
X8962500Y-13752500D02*
X8992500Y-13782500D01*
X8992500Y-13752500D02*
X8962500Y-13782500D01*
X9321071Y-13603214D02*
X9349643Y-13603214D01*
X9378214Y-13617500D01*
X9392500Y-13631786D01*
X9406786Y-13660357D01*
X9421071Y-13717500D01*
X9421071Y-13788929D01*
X9406786Y-13846071D01*
X9392500Y-13874643D01*
X9378214Y-13888929D01*
X9349643Y-13903214D01*
X9321071Y-13903214D01*
X9292500Y-13888929D01*
X9278214Y-13874643D01*
X9263929Y-13846071D01*
X9249643Y-13788929D01*
X9249643Y-13717500D01*
X9263929Y-13660357D01*
X9278214Y-13631786D01*
X9292500Y-13617500D01*
X9321071Y-13603214D01*
X9549643Y-13874643D02*
X9563929Y-13888929D01*
X9549643Y-13903214D01*
X9535357Y-13888929D01*
X9549643Y-13874643D01*
X9549643Y-13903214D01*
X9663928Y-13603214D02*
X9849643Y-13603214D01*
X9749643Y-13717500D01*
X9792500Y-13717500D01*
X9821071Y-13731786D01*
X9835357Y-13746071D01*
X9849643Y-13774643D01*
X9849643Y-13846071D01*
X9835357Y-13874643D01*
X9821071Y-13888929D01*
X9792500Y-13903214D01*
X9706786Y-13903214D01*
X9678214Y-13888929D01*
X9663928Y-13874643D01*
X10035357Y-13603214D02*
X10063929Y-13603214D01*
X10092500Y-13617500D01*
X10106786Y-13631786D01*
X10121071Y-13660357D01*
X10135357Y-13717500D01*
X10135357Y-13788929D01*
X10121071Y-13846071D01*
X10106786Y-13874643D01*
X10092500Y-13888929D01*
X10063929Y-13903214D01*
X10035357Y-13903214D01*
X10006786Y-13888929D01*
X9992500Y-13874643D01*
X9978214Y-13846071D01*
X9963929Y-13788929D01*
X9963929Y-13717500D01*
X9978214Y-13660357D01*
X9992500Y-13631786D01*
X10006786Y-13617500D01*
X10035357Y-13603214D01*
X10263929Y-13903214D02*
X10263929Y-13703214D01*
X10263929Y-13731786D02*
X10278214Y-13717500D01*
X10306786Y-13703214D01*
X10349643Y-13703214D01*
X10378214Y-13717500D01*
X10392500Y-13746071D01*
X10392500Y-13903214D01*
X10392500Y-13746071D02*
X10406786Y-13717500D01*
X10435357Y-13703214D01*
X10478214Y-13703214D01*
X10506786Y-13717500D01*
X10521071Y-13746071D01*
X10521071Y-13903214D01*
X10663929Y-13903214D02*
X10663929Y-13703214D01*
X10663929Y-13731786D02*
X10678214Y-13717500D01*
X10706786Y-13703214D01*
X10749643Y-13703214D01*
X10778214Y-13717500D01*
X10792500Y-13746071D01*
X10792500Y-13903214D01*
X10792500Y-13746071D02*
X10806786Y-13717500D01*
X10835357Y-13703214D01*
X10878214Y-13703214D01*
X10906786Y-13717500D01*
X10921071Y-13746071D01*
X10921071Y-13903214D01*
X11506786Y-13588929D02*
X11249643Y-13974643D01*
X11892500Y-13603214D02*
X11921071Y-13603214D01*
X11949643Y-13617500D01*
X11963928Y-13631786D01*
X11978214Y-13660357D01*
X11992500Y-13717500D01*
X11992500Y-13788929D01*
X11978214Y-13846071D01*
X11963928Y-13874643D01*
X11949643Y-13888929D01*
X11921071Y-13903214D01*
X11892500Y-13903214D01*
X11863928Y-13888929D01*
X11849643Y-13874643D01*
X11835357Y-13846071D01*
X11821071Y-13788929D01*
X11821071Y-13717500D01*
X11835357Y-13660357D01*
X11849643Y-13631786D01*
X11863928Y-13617500D01*
X11892500Y-13603214D01*
X12121071Y-13874643D02*
X12135357Y-13888929D01*
X12121071Y-13903214D01*
X12106786Y-13888929D01*
X12121071Y-13874643D01*
X12121071Y-13903214D01*
X12321071Y-13603214D02*
X12349643Y-13603214D01*
X12378214Y-13617500D01*
X12392500Y-13631786D01*
X12406785Y-13660357D01*
X12421071Y-13717500D01*
X12421071Y-13788929D01*
X12406785Y-13846071D01*
X12392500Y-13874643D01*
X12378214Y-13888929D01*
X12349643Y-13903214D01*
X12321071Y-13903214D01*
X12292500Y-13888929D01*
X12278214Y-13874643D01*
X12263928Y-13846071D01*
X12249643Y-13788929D01*
X12249643Y-13717500D01*
X12263928Y-13660357D01*
X12278214Y-13631786D01*
X12292500Y-13617500D01*
X12321071Y-13603214D01*
X12706785Y-13903214D02*
X12535357Y-13903214D01*
X12621071Y-13903214D02*
X12621071Y-13603214D01*
X12592500Y-13646071D01*
X12563928Y-13674643D01*
X12535357Y-13688929D01*
X12821071Y-13631786D02*
X12835357Y-13617500D01*
X12863928Y-13603214D01*
X12935357Y-13603214D01*
X12963928Y-13617500D01*
X12978214Y-13631786D01*
X12992500Y-13660357D01*
X12992500Y-13688929D01*
X12978214Y-13731786D01*
X12806785Y-13903214D01*
X12992500Y-13903214D01*
X13106786Y-13603214D02*
X13106786Y-13660357D01*
X13221071Y-13603214D02*
X13221071Y-13660357D01*
X13663928Y-14017500D02*
X13649643Y-14003214D01*
X13621071Y-13960357D01*
X13606785Y-13931786D01*
X13592500Y-13888929D01*
X13578214Y-13817500D01*
X13578214Y-13760357D01*
X13592500Y-13688929D01*
X13606785Y-13646071D01*
X13621071Y-13617500D01*
X13649643Y-13574643D01*
X13663928Y-13560357D01*
X13935357Y-13903214D02*
X13763928Y-13903214D01*
X13849643Y-13903214D02*
X13849643Y-13603214D01*
X13821071Y-13646071D01*
X13792500Y-13674643D01*
X13763928Y-13688929D01*
X14206785Y-13603214D02*
X14063928Y-13603214D01*
X14049643Y-13746071D01*
X14063928Y-13731786D01*
X14092500Y-13717500D01*
X14163928Y-13717500D01*
X14192500Y-13731786D01*
X14206785Y-13746071D01*
X14221071Y-13774643D01*
X14221071Y-13846071D01*
X14206785Y-13874643D01*
X14192500Y-13888929D01*
X14163928Y-13903214D01*
X14092500Y-13903214D01*
X14063928Y-13888929D01*
X14049643Y-13874643D01*
X14578214Y-13903214D02*
X14578214Y-13603214D01*
X14706785Y-13903214D02*
X14706785Y-13746071D01*
X14692500Y-13717500D01*
X14663928Y-13703214D01*
X14621071Y-13703214D01*
X14592500Y-13717500D01*
X14578214Y-13731786D01*
X14892500Y-13903214D02*
X14863928Y-13888929D01*
X14849643Y-13874643D01*
X14835357Y-13846071D01*
X14835357Y-13760357D01*
X14849643Y-13731786D01*
X14863928Y-13717500D01*
X14892500Y-13703214D01*
X14935357Y-13703214D01*
X14963928Y-13717500D01*
X14978214Y-13731786D01*
X14992500Y-13760357D01*
X14992500Y-13846071D01*
X14978214Y-13874643D01*
X14963928Y-13888929D01*
X14935357Y-13903214D01*
X14892500Y-13903214D01*
X15163928Y-13903214D02*
X15135357Y-13888929D01*
X15121071Y-13860357D01*
X15121071Y-13603214D01*
X15392500Y-13888929D02*
X15363928Y-13903214D01*
X15306786Y-13903214D01*
X15278214Y-13888929D01*
X15263928Y-13860357D01*
X15263928Y-13746071D01*
X15278214Y-13717500D01*
X15306786Y-13703214D01*
X15363928Y-13703214D01*
X15392500Y-13717500D01*
X15406786Y-13746071D01*
X15406786Y-13774643D01*
X15263928Y-13803214D01*
X15521071Y-13888929D02*
X15549643Y-13903214D01*
X15606786Y-13903214D01*
X15635357Y-13888929D01*
X15649643Y-13860357D01*
X15649643Y-13846071D01*
X15635357Y-13817500D01*
X15606786Y-13803214D01*
X15563928Y-13803214D01*
X15535357Y-13788929D01*
X15521071Y-13760357D01*
X15521071Y-13746071D01*
X15535357Y-13717500D01*
X15563928Y-13703214D01*
X15606786Y-13703214D01*
X15635357Y-13717500D01*
X15749643Y-14017500D02*
X15763928Y-14003214D01*
X15792500Y-13960357D01*
X15806786Y-13931786D01*
X15821071Y-13888929D01*
X15835357Y-13817500D01*
X15835357Y-13760357D01*
X15821071Y-13688929D01*
X15806786Y-13646071D01*
X15792500Y-13617500D01*
X15763928Y-13574643D01*
X15749643Y-13560357D01*
X8992500Y-14163500D02*
G75*
G03X8992500Y-14163500I-35000J0D01*
G01*
X9321071Y-13999214D02*
X9349643Y-13999214D01*
X9378214Y-14013500D01*
X9392500Y-14027786D01*
X9406786Y-14056357D01*
X9421071Y-14113500D01*
X9421071Y-14184929D01*
X9406786Y-14242071D01*
X9392500Y-14270643D01*
X9378214Y-14284929D01*
X9349643Y-14299214D01*
X9321071Y-14299214D01*
X9292500Y-14284929D01*
X9278214Y-14270643D01*
X9263929Y-14242071D01*
X9249643Y-14184929D01*
X9249643Y-14113500D01*
X9263929Y-14056357D01*
X9278214Y-14027786D01*
X9292500Y-14013500D01*
X9321071Y-13999214D01*
X9549643Y-14270643D02*
X9563929Y-14284929D01*
X9549643Y-14299214D01*
X9535357Y-14284929D01*
X9549643Y-14270643D01*
X9549643Y-14299214D01*
X9663928Y-13999214D02*
X9863928Y-13999214D01*
X9735357Y-14299214D01*
X10035357Y-13999214D02*
X10063929Y-13999214D01*
X10092500Y-14013500D01*
X10106786Y-14027786D01*
X10121071Y-14056357D01*
X10135357Y-14113500D01*
X10135357Y-14184929D01*
X10121071Y-14242071D01*
X10106786Y-14270643D01*
X10092500Y-14284929D01*
X10063929Y-14299214D01*
X10035357Y-14299214D01*
X10006786Y-14284929D01*
X9992500Y-14270643D01*
X9978214Y-14242071D01*
X9963929Y-14184929D01*
X9963929Y-14113500D01*
X9978214Y-14056357D01*
X9992500Y-14027786D01*
X10006786Y-14013500D01*
X10035357Y-13999214D01*
X10263929Y-14299214D02*
X10263929Y-14099214D01*
X10263929Y-14127786D02*
X10278214Y-14113500D01*
X10306786Y-14099214D01*
X10349643Y-14099214D01*
X10378214Y-14113500D01*
X10392500Y-14142071D01*
X10392500Y-14299214D01*
X10392500Y-14142071D02*
X10406786Y-14113500D01*
X10435357Y-14099214D01*
X10478214Y-14099214D01*
X10506786Y-14113500D01*
X10521071Y-14142071D01*
X10521071Y-14299214D01*
X10663929Y-14299214D02*
X10663929Y-14099214D01*
X10663929Y-14127786D02*
X10678214Y-14113500D01*
X10706786Y-14099214D01*
X10749643Y-14099214D01*
X10778214Y-14113500D01*
X10792500Y-14142071D01*
X10792500Y-14299214D01*
X10792500Y-14142071D02*
X10806786Y-14113500D01*
X10835357Y-14099214D01*
X10878214Y-14099214D01*
X10906786Y-14113500D01*
X10921071Y-14142071D01*
X10921071Y-14299214D01*
X11506786Y-13984929D02*
X11249643Y-14370643D01*
X11892500Y-13999214D02*
X11921071Y-13999214D01*
X11949643Y-14013500D01*
X11963928Y-14027786D01*
X11978214Y-14056357D01*
X11992500Y-14113500D01*
X11992500Y-14184929D01*
X11978214Y-14242071D01*
X11963928Y-14270643D01*
X11949643Y-14284929D01*
X11921071Y-14299214D01*
X11892500Y-14299214D01*
X11863928Y-14284929D01*
X11849643Y-14270643D01*
X11835357Y-14242071D01*
X11821071Y-14184929D01*
X11821071Y-14113500D01*
X11835357Y-14056357D01*
X11849643Y-14027786D01*
X11863928Y-14013500D01*
X11892500Y-13999214D01*
X12121071Y-14270643D02*
X12135357Y-14284929D01*
X12121071Y-14299214D01*
X12106786Y-14284929D01*
X12121071Y-14270643D01*
X12121071Y-14299214D01*
X12321071Y-13999214D02*
X12349643Y-13999214D01*
X12378214Y-14013500D01*
X12392500Y-14027786D01*
X12406785Y-14056357D01*
X12421071Y-14113500D01*
X12421071Y-14184929D01*
X12406785Y-14242071D01*
X12392500Y-14270643D01*
X12378214Y-14284929D01*
X12349643Y-14299214D01*
X12321071Y-14299214D01*
X12292500Y-14284929D01*
X12278214Y-14270643D01*
X12263928Y-14242071D01*
X12249643Y-14184929D01*
X12249643Y-14113500D01*
X12263928Y-14056357D01*
X12278214Y-14027786D01*
X12292500Y-14013500D01*
X12321071Y-13999214D01*
X12535357Y-14027786D02*
X12549643Y-14013500D01*
X12578214Y-13999214D01*
X12649643Y-13999214D01*
X12678214Y-14013500D01*
X12692500Y-14027786D01*
X12706785Y-14056357D01*
X12706785Y-14084929D01*
X12692500Y-14127786D01*
X12521071Y-14299214D01*
X12706785Y-14299214D01*
X12878214Y-14127786D02*
X12849643Y-14113500D01*
X12835357Y-14099214D01*
X12821071Y-14070643D01*
X12821071Y-14056357D01*
X12835357Y-14027786D01*
X12849643Y-14013500D01*
X12878214Y-13999214D01*
X12935357Y-13999214D01*
X12963928Y-14013500D01*
X12978214Y-14027786D01*
X12992500Y-14056357D01*
X12992500Y-14070643D01*
X12978214Y-14099214D01*
X12963928Y-14113500D01*
X12935357Y-14127786D01*
X12878214Y-14127786D01*
X12849643Y-14142071D01*
X12835357Y-14156357D01*
X12821071Y-14184929D01*
X12821071Y-14242071D01*
X12835357Y-14270643D01*
X12849643Y-14284929D01*
X12878214Y-14299214D01*
X12935357Y-14299214D01*
X12963928Y-14284929D01*
X12978214Y-14270643D01*
X12992500Y-14242071D01*
X12992500Y-14184929D01*
X12978214Y-14156357D01*
X12963928Y-14142071D01*
X12935357Y-14127786D01*
X13106786Y-13999214D02*
X13106786Y-14056357D01*
X13221071Y-13999214D02*
X13221071Y-14056357D01*
X13663928Y-14413500D02*
X13649643Y-14399214D01*
X13621071Y-14356357D01*
X13606785Y-14327786D01*
X13592500Y-14284929D01*
X13578214Y-14213500D01*
X13578214Y-14156357D01*
X13592500Y-14084929D01*
X13606785Y-14042071D01*
X13621071Y-14013500D01*
X13649643Y-13970643D01*
X13663928Y-13956357D01*
X13821071Y-14127786D02*
X13792500Y-14113500D01*
X13778214Y-14099214D01*
X13763928Y-14070643D01*
X13763928Y-14056357D01*
X13778214Y-14027786D01*
X13792500Y-14013500D01*
X13821071Y-13999214D01*
X13878214Y-13999214D01*
X13906785Y-14013500D01*
X13921071Y-14027786D01*
X13935357Y-14056357D01*
X13935357Y-14070643D01*
X13921071Y-14099214D01*
X13906785Y-14113500D01*
X13878214Y-14127786D01*
X13821071Y-14127786D01*
X13792500Y-14142071D01*
X13778214Y-14156357D01*
X13763928Y-14184929D01*
X13763928Y-14242071D01*
X13778214Y-14270643D01*
X13792500Y-14284929D01*
X13821071Y-14299214D01*
X13878214Y-14299214D01*
X13906785Y-14284929D01*
X13921071Y-14270643D01*
X13935357Y-14242071D01*
X13935357Y-14184929D01*
X13921071Y-14156357D01*
X13906785Y-14142071D01*
X13878214Y-14127786D01*
X14292500Y-14299214D02*
X14292500Y-13999214D01*
X14421071Y-14299214D02*
X14421071Y-14142071D01*
X14406785Y-14113500D01*
X14378214Y-14099214D01*
X14335357Y-14099214D01*
X14306785Y-14113500D01*
X14292500Y-14127786D01*
X14606785Y-14299214D02*
X14578214Y-14284929D01*
X14563928Y-14270643D01*
X14549643Y-14242071D01*
X14549643Y-14156357D01*
X14563928Y-14127786D01*
X14578214Y-14113500D01*
X14606785Y-14099214D01*
X14649643Y-14099214D01*
X14678214Y-14113500D01*
X14692500Y-14127786D01*
X14706785Y-14156357D01*
X14706785Y-14242071D01*
X14692500Y-14270643D01*
X14678214Y-14284929D01*
X14649643Y-14299214D01*
X14606785Y-14299214D01*
X14878214Y-14299214D02*
X14849643Y-14284929D01*
X14835357Y-14256357D01*
X14835357Y-13999214D01*
X15106786Y-14284929D02*
X15078214Y-14299214D01*
X15021071Y-14299214D01*
X14992500Y-14284929D01*
X14978214Y-14256357D01*
X14978214Y-14142071D01*
X14992500Y-14113500D01*
X15021071Y-14099214D01*
X15078214Y-14099214D01*
X15106786Y-14113500D01*
X15121071Y-14142071D01*
X15121071Y-14170643D01*
X14978214Y-14199214D01*
X15235357Y-14284929D02*
X15263928Y-14299214D01*
X15321071Y-14299214D01*
X15349643Y-14284929D01*
X15363928Y-14256357D01*
X15363928Y-14242071D01*
X15349643Y-14213500D01*
X15321071Y-14199214D01*
X15278214Y-14199214D01*
X15249643Y-14184929D01*
X15235357Y-14156357D01*
X15235357Y-14142071D01*
X15249643Y-14113500D01*
X15278214Y-14099214D01*
X15321071Y-14099214D01*
X15349643Y-14113500D01*
X15463928Y-14413500D02*
X15478214Y-14399214D01*
X15506786Y-14356357D01*
X15521071Y-14327786D01*
X15535357Y-14284929D01*
X15549643Y-14213500D01*
X15549643Y-14156357D01*
X15535357Y-14084929D01*
X15521071Y-14042071D01*
X15506786Y-14013500D01*
X15478214Y-13970643D01*
X15463928Y-13956357D01*
X8954400Y-14521400D02*
X8954400Y-14597600D01*
X8916300Y-14559500D02*
X8992500Y-14559500D01*
X9321071Y-14395214D02*
X9349643Y-14395214D01*
X9378214Y-14409500D01*
X9392500Y-14423786D01*
X9406786Y-14452357D01*
X9421071Y-14509500D01*
X9421071Y-14580929D01*
X9406786Y-14638071D01*
X9392500Y-14666643D01*
X9378214Y-14680929D01*
X9349643Y-14695214D01*
X9321071Y-14695214D01*
X9292500Y-14680929D01*
X9278214Y-14666643D01*
X9263929Y-14638071D01*
X9249643Y-14580929D01*
X9249643Y-14509500D01*
X9263929Y-14452357D01*
X9278214Y-14423786D01*
X9292500Y-14409500D01*
X9321071Y-14395214D01*
X9549643Y-14666643D02*
X9563929Y-14680929D01*
X9549643Y-14695214D01*
X9535357Y-14680929D01*
X9549643Y-14666643D01*
X9549643Y-14695214D01*
X9663928Y-14395214D02*
X9863928Y-14395214D01*
X9735357Y-14695214D01*
X10106786Y-14395214D02*
X10049643Y-14395214D01*
X10021071Y-14409500D01*
X10006786Y-14423786D01*
X9978214Y-14466643D01*
X9963929Y-14523786D01*
X9963929Y-14638071D01*
X9978214Y-14666643D01*
X9992500Y-14680929D01*
X10021071Y-14695214D01*
X10078214Y-14695214D01*
X10106786Y-14680929D01*
X10121071Y-14666643D01*
X10135357Y-14638071D01*
X10135357Y-14566643D01*
X10121071Y-14538071D01*
X10106786Y-14523786D01*
X10078214Y-14509500D01*
X10021071Y-14509500D01*
X9992500Y-14523786D01*
X9978214Y-14538071D01*
X9963929Y-14566643D01*
X10263929Y-14695214D02*
X10263929Y-14495214D01*
X10263929Y-14523786D02*
X10278214Y-14509500D01*
X10306786Y-14495214D01*
X10349643Y-14495214D01*
X10378214Y-14509500D01*
X10392500Y-14538071D01*
X10392500Y-14695214D01*
X10392500Y-14538071D02*
X10406786Y-14509500D01*
X10435357Y-14495214D01*
X10478214Y-14495214D01*
X10506786Y-14509500D01*
X10521071Y-14538071D01*
X10521071Y-14695214D01*
X10663929Y-14695214D02*
X10663929Y-14495214D01*
X10663929Y-14523786D02*
X10678214Y-14509500D01*
X10706786Y-14495214D01*
X10749643Y-14495214D01*
X10778214Y-14509500D01*
X10792500Y-14538071D01*
X10792500Y-14695214D01*
X10792500Y-14538071D02*
X10806786Y-14509500D01*
X10835357Y-14495214D01*
X10878214Y-14495214D01*
X10906786Y-14509500D01*
X10921071Y-14538071D01*
X10921071Y-14695214D01*
X11506786Y-14380929D02*
X11249643Y-14766643D01*
X11892500Y-14395214D02*
X11921071Y-14395214D01*
X11949643Y-14409500D01*
X11963928Y-14423786D01*
X11978214Y-14452357D01*
X11992500Y-14509500D01*
X11992500Y-14580929D01*
X11978214Y-14638071D01*
X11963928Y-14666643D01*
X11949643Y-14680929D01*
X11921071Y-14695214D01*
X11892500Y-14695214D01*
X11863928Y-14680929D01*
X11849643Y-14666643D01*
X11835357Y-14638071D01*
X11821071Y-14580929D01*
X11821071Y-14509500D01*
X11835357Y-14452357D01*
X11849643Y-14423786D01*
X11863928Y-14409500D01*
X11892500Y-14395214D01*
X12121071Y-14666643D02*
X12135357Y-14680929D01*
X12121071Y-14695214D01*
X12106786Y-14680929D01*
X12121071Y-14666643D01*
X12121071Y-14695214D01*
X12321071Y-14395214D02*
X12349643Y-14395214D01*
X12378214Y-14409500D01*
X12392500Y-14423786D01*
X12406785Y-14452357D01*
X12421071Y-14509500D01*
X12421071Y-14580929D01*
X12406785Y-14638071D01*
X12392500Y-14666643D01*
X12378214Y-14680929D01*
X12349643Y-14695214D01*
X12321071Y-14695214D01*
X12292500Y-14680929D01*
X12278214Y-14666643D01*
X12263928Y-14638071D01*
X12249643Y-14580929D01*
X12249643Y-14509500D01*
X12263928Y-14452357D01*
X12278214Y-14423786D01*
X12292500Y-14409500D01*
X12321071Y-14395214D01*
X12521071Y-14395214D02*
X12706785Y-14395214D01*
X12606785Y-14509500D01*
X12649643Y-14509500D01*
X12678214Y-14523786D01*
X12692500Y-14538071D01*
X12706785Y-14566643D01*
X12706785Y-14638071D01*
X12692500Y-14666643D01*
X12678214Y-14680929D01*
X12649643Y-14695214D01*
X12563928Y-14695214D01*
X12535357Y-14680929D01*
X12521071Y-14666643D01*
X12892500Y-14395214D02*
X12921071Y-14395214D01*
X12949643Y-14409500D01*
X12963928Y-14423786D01*
X12978214Y-14452357D01*
X12992500Y-14509500D01*
X12992500Y-14580929D01*
X12978214Y-14638071D01*
X12963928Y-14666643D01*
X12949643Y-14680929D01*
X12921071Y-14695214D01*
X12892500Y-14695214D01*
X12863928Y-14680929D01*
X12849643Y-14666643D01*
X12835357Y-14638071D01*
X12821071Y-14580929D01*
X12821071Y-14509500D01*
X12835357Y-14452357D01*
X12849643Y-14423786D01*
X12863928Y-14409500D01*
X12892500Y-14395214D01*
X13106786Y-14395214D02*
X13106786Y-14452357D01*
X13221071Y-14395214D02*
X13221071Y-14452357D01*
X13663928Y-14809500D02*
X13649643Y-14795214D01*
X13621071Y-14752357D01*
X13606785Y-14723786D01*
X13592500Y-14680929D01*
X13578214Y-14609500D01*
X13578214Y-14552357D01*
X13592500Y-14480929D01*
X13606785Y-14438071D01*
X13621071Y-14409500D01*
X13649643Y-14366643D01*
X13663928Y-14352357D01*
X13763928Y-14423786D02*
X13778214Y-14409500D01*
X13806785Y-14395214D01*
X13878214Y-14395214D01*
X13906785Y-14409500D01*
X13921071Y-14423786D01*
X13935357Y-14452357D01*
X13935357Y-14480929D01*
X13921071Y-14523786D01*
X13749643Y-14695214D01*
X13935357Y-14695214D01*
X14292500Y-14695214D02*
X14292500Y-14395214D01*
X14421071Y-14695214D02*
X14421071Y-14538071D01*
X14406785Y-14509500D01*
X14378214Y-14495214D01*
X14335357Y-14495214D01*
X14306785Y-14509500D01*
X14292500Y-14523786D01*
X14606785Y-14695214D02*
X14578214Y-14680929D01*
X14563928Y-14666643D01*
X14549643Y-14638071D01*
X14549643Y-14552357D01*
X14563928Y-14523786D01*
X14578214Y-14509500D01*
X14606785Y-14495214D01*
X14649643Y-14495214D01*
X14678214Y-14509500D01*
X14692500Y-14523786D01*
X14706785Y-14552357D01*
X14706785Y-14638071D01*
X14692500Y-14666643D01*
X14678214Y-14680929D01*
X14649643Y-14695214D01*
X14606785Y-14695214D01*
X14878214Y-14695214D02*
X14849643Y-14680929D01*
X14835357Y-14652357D01*
X14835357Y-14395214D01*
X15106786Y-14680929D02*
X15078214Y-14695214D01*
X15021071Y-14695214D01*
X14992500Y-14680929D01*
X14978214Y-14652357D01*
X14978214Y-14538071D01*
X14992500Y-14509500D01*
X15021071Y-14495214D01*
X15078214Y-14495214D01*
X15106786Y-14509500D01*
X15121071Y-14538071D01*
X15121071Y-14566643D01*
X14978214Y-14595214D01*
X15235357Y-14680929D02*
X15263928Y-14695214D01*
X15321071Y-14695214D01*
X15349643Y-14680929D01*
X15363928Y-14652357D01*
X15363928Y-14638071D01*
X15349643Y-14609500D01*
X15321071Y-14595214D01*
X15278214Y-14595214D01*
X15249643Y-14580929D01*
X15235357Y-14552357D01*
X15235357Y-14538071D01*
X15249643Y-14509500D01*
X15278214Y-14495214D01*
X15321071Y-14495214D01*
X15349643Y-14509500D01*
X15463928Y-14809500D02*
X15478214Y-14795214D01*
X15506786Y-14752357D01*
X15521071Y-14723786D01*
X15535357Y-14680929D01*
X15549643Y-14609500D01*
X15549643Y-14552357D01*
X15535357Y-14480929D01*
X15521071Y-14438071D01*
X15506786Y-14409500D01*
X15478214Y-14366643D01*
X15463928Y-14352357D01*
X8980784Y-14983785D02*
X8980784Y-14927216D01*
X8924215Y-14927216D01*
X8924215Y-14983785D01*
X8980784Y-14983785D01*
X9321071Y-14791214D02*
X9349643Y-14791214D01*
X9378214Y-14805500D01*
X9392500Y-14819786D01*
X9406786Y-14848357D01*
X9421071Y-14905500D01*
X9421071Y-14976929D01*
X9406786Y-15034071D01*
X9392500Y-15062643D01*
X9378214Y-15076929D01*
X9349643Y-15091214D01*
X9321071Y-15091214D01*
X9292500Y-15076929D01*
X9278214Y-15062643D01*
X9263929Y-15034071D01*
X9249643Y-14976929D01*
X9249643Y-14905500D01*
X9263929Y-14848357D01*
X9278214Y-14819786D01*
X9292500Y-14805500D01*
X9321071Y-14791214D01*
X9549643Y-15062643D02*
X9563929Y-15076929D01*
X9549643Y-15091214D01*
X9535357Y-15076929D01*
X9549643Y-15062643D01*
X9549643Y-15091214D01*
X9735357Y-14919786D02*
X9706786Y-14905500D01*
X9692500Y-14891214D01*
X9678214Y-14862643D01*
X9678214Y-14848357D01*
X9692500Y-14819786D01*
X9706786Y-14805500D01*
X9735357Y-14791214D01*
X9792500Y-14791214D01*
X9821071Y-14805500D01*
X9835357Y-14819786D01*
X9849643Y-14848357D01*
X9849643Y-14862643D01*
X9835357Y-14891214D01*
X9821071Y-14905500D01*
X9792500Y-14919786D01*
X9735357Y-14919786D01*
X9706786Y-14934071D01*
X9692500Y-14948357D01*
X9678214Y-14976929D01*
X9678214Y-15034071D01*
X9692500Y-15062643D01*
X9706786Y-15076929D01*
X9735357Y-15091214D01*
X9792500Y-15091214D01*
X9821071Y-15076929D01*
X9835357Y-15062643D01*
X9849643Y-15034071D01*
X9849643Y-14976929D01*
X9835357Y-14948357D01*
X9821071Y-14934071D01*
X9792500Y-14919786D01*
X10035357Y-14791214D02*
X10063929Y-14791214D01*
X10092500Y-14805500D01*
X10106786Y-14819786D01*
X10121071Y-14848357D01*
X10135357Y-14905500D01*
X10135357Y-14976929D01*
X10121071Y-15034071D01*
X10106786Y-15062643D01*
X10092500Y-15076929D01*
X10063929Y-15091214D01*
X10035357Y-15091214D01*
X10006786Y-15076929D01*
X9992500Y-15062643D01*
X9978214Y-15034071D01*
X9963929Y-14976929D01*
X9963929Y-14905500D01*
X9978214Y-14848357D01*
X9992500Y-14819786D01*
X10006786Y-14805500D01*
X10035357Y-14791214D01*
X10263929Y-15091214D02*
X10263929Y-14891214D01*
X10263929Y-14919786D02*
X10278214Y-14905500D01*
X10306786Y-14891214D01*
X10349643Y-14891214D01*
X10378214Y-14905500D01*
X10392500Y-14934071D01*
X10392500Y-15091214D01*
X10392500Y-14934071D02*
X10406786Y-14905500D01*
X10435357Y-14891214D01*
X10478214Y-14891214D01*
X10506786Y-14905500D01*
X10521071Y-14934071D01*
X10521071Y-15091214D01*
X10663929Y-15091214D02*
X10663929Y-14891214D01*
X10663929Y-14919786D02*
X10678214Y-14905500D01*
X10706786Y-14891214D01*
X10749643Y-14891214D01*
X10778214Y-14905500D01*
X10792500Y-14934071D01*
X10792500Y-15091214D01*
X10792500Y-14934071D02*
X10806786Y-14905500D01*
X10835357Y-14891214D01*
X10878214Y-14891214D01*
X10906786Y-14905500D01*
X10921071Y-14934071D01*
X10921071Y-15091214D01*
X11506786Y-14776929D02*
X11249643Y-15162643D01*
X11892500Y-14791214D02*
X11921071Y-14791214D01*
X11949643Y-14805500D01*
X11963928Y-14819786D01*
X11978214Y-14848357D01*
X11992500Y-14905500D01*
X11992500Y-14976929D01*
X11978214Y-15034071D01*
X11963928Y-15062643D01*
X11949643Y-15076929D01*
X11921071Y-15091214D01*
X11892500Y-15091214D01*
X11863928Y-15076929D01*
X11849643Y-15062643D01*
X11835357Y-15034071D01*
X11821071Y-14976929D01*
X11821071Y-14905500D01*
X11835357Y-14848357D01*
X11849643Y-14819786D01*
X11863928Y-14805500D01*
X11892500Y-14791214D01*
X12121071Y-15062643D02*
X12135357Y-15076929D01*
X12121071Y-15091214D01*
X12106786Y-15076929D01*
X12121071Y-15062643D01*
X12121071Y-15091214D01*
X12321071Y-14791214D02*
X12349643Y-14791214D01*
X12378214Y-14805500D01*
X12392500Y-14819786D01*
X12406785Y-14848357D01*
X12421071Y-14905500D01*
X12421071Y-14976929D01*
X12406785Y-15034071D01*
X12392500Y-15062643D01*
X12378214Y-15076929D01*
X12349643Y-15091214D01*
X12321071Y-15091214D01*
X12292500Y-15076929D01*
X12278214Y-15062643D01*
X12263928Y-15034071D01*
X12249643Y-14976929D01*
X12249643Y-14905500D01*
X12263928Y-14848357D01*
X12278214Y-14819786D01*
X12292500Y-14805500D01*
X12321071Y-14791214D01*
X12521071Y-14791214D02*
X12706785Y-14791214D01*
X12606785Y-14905500D01*
X12649643Y-14905500D01*
X12678214Y-14919786D01*
X12692500Y-14934071D01*
X12706785Y-14962643D01*
X12706785Y-15034071D01*
X12692500Y-15062643D01*
X12678214Y-15076929D01*
X12649643Y-15091214D01*
X12563928Y-15091214D01*
X12535357Y-15076929D01*
X12521071Y-15062643D01*
X12992500Y-15091214D02*
X12821071Y-15091214D01*
X12906785Y-15091214D02*
X12906785Y-14791214D01*
X12878214Y-14834071D01*
X12849643Y-14862643D01*
X12821071Y-14876929D01*
X13106786Y-14791214D02*
X13106786Y-14848357D01*
X13221071Y-14791214D02*
X13221071Y-14848357D01*
X13663928Y-15205500D02*
X13649643Y-15191214D01*
X13621071Y-15148357D01*
X13606785Y-15119786D01*
X13592500Y-15076929D01*
X13578214Y-15005500D01*
X13578214Y-14948357D01*
X13592500Y-14876929D01*
X13606785Y-14834071D01*
X13621071Y-14805500D01*
X13649643Y-14762643D01*
X13663928Y-14748357D01*
X13763928Y-14819786D02*
X13778214Y-14805500D01*
X13806785Y-14791214D01*
X13878214Y-14791214D01*
X13906785Y-14805500D01*
X13921071Y-14819786D01*
X13935357Y-14848357D01*
X13935357Y-14876929D01*
X13921071Y-14919786D01*
X13749643Y-15091214D01*
X13935357Y-15091214D01*
X14292500Y-15091214D02*
X14292500Y-14791214D01*
X14421071Y-15091214D02*
X14421071Y-14934071D01*
X14406785Y-14905500D01*
X14378214Y-14891214D01*
X14335357Y-14891214D01*
X14306785Y-14905500D01*
X14292500Y-14919786D01*
X14606785Y-15091214D02*
X14578214Y-15076929D01*
X14563928Y-15062643D01*
X14549643Y-15034071D01*
X14549643Y-14948357D01*
X14563928Y-14919786D01*
X14578214Y-14905500D01*
X14606785Y-14891214D01*
X14649643Y-14891214D01*
X14678214Y-14905500D01*
X14692500Y-14919786D01*
X14706785Y-14948357D01*
X14706785Y-15034071D01*
X14692500Y-15062643D01*
X14678214Y-15076929D01*
X14649643Y-15091214D01*
X14606785Y-15091214D01*
X14878214Y-15091214D02*
X14849643Y-15076929D01*
X14835357Y-15048357D01*
X14835357Y-14791214D01*
X15106786Y-15076929D02*
X15078214Y-15091214D01*
X15021071Y-15091214D01*
X14992500Y-15076929D01*
X14978214Y-15048357D01*
X14978214Y-14934071D01*
X14992500Y-14905500D01*
X15021071Y-14891214D01*
X15078214Y-14891214D01*
X15106786Y-14905500D01*
X15121071Y-14934071D01*
X15121071Y-14962643D01*
X14978214Y-14991214D01*
X15235357Y-15076929D02*
X15263928Y-15091214D01*
X15321071Y-15091214D01*
X15349643Y-15076929D01*
X15363928Y-15048357D01*
X15363928Y-15034071D01*
X15349643Y-15005500D01*
X15321071Y-14991214D01*
X15278214Y-14991214D01*
X15249643Y-14976929D01*
X15235357Y-14948357D01*
X15235357Y-14934071D01*
X15249643Y-14905500D01*
X15278214Y-14891214D01*
X15321071Y-14891214D01*
X15349643Y-14905500D01*
X15463928Y-15205500D02*
X15478214Y-15191214D01*
X15506786Y-15148357D01*
X15521071Y-15119786D01*
X15535357Y-15076929D01*
X15549643Y-15005500D01*
X15549643Y-14948357D01*
X15535357Y-14876929D01*
X15521071Y-14834071D01*
X15506786Y-14805500D01*
X15478214Y-14762643D01*
X15463928Y-14748357D01*
X8942500Y-15401500D02*
X8992500Y-15351500D01*
X8942500Y-15301500D01*
X8892500Y-15351500D01*
X8942500Y-15401500D01*
X9421071Y-15487214D02*
X9249643Y-15487214D01*
X9335357Y-15487214D02*
X9335357Y-15187214D01*
X9306786Y-15230071D01*
X9278214Y-15258643D01*
X9249643Y-15272929D01*
X9549643Y-15458643D02*
X9563929Y-15472929D01*
X9549643Y-15487214D01*
X9535357Y-15472929D01*
X9549643Y-15458643D01*
X9549643Y-15487214D01*
X9749643Y-15187214D02*
X9778214Y-15187214D01*
X9806786Y-15201500D01*
X9821071Y-15215786D01*
X9835357Y-15244357D01*
X9849643Y-15301500D01*
X9849643Y-15372929D01*
X9835357Y-15430071D01*
X9821071Y-15458643D01*
X9806786Y-15472929D01*
X9778214Y-15487214D01*
X9749643Y-15487214D01*
X9721071Y-15472929D01*
X9706786Y-15458643D01*
X9692500Y-15430071D01*
X9678214Y-15372929D01*
X9678214Y-15301500D01*
X9692500Y-15244357D01*
X9706786Y-15215786D01*
X9721071Y-15201500D01*
X9749643Y-15187214D01*
X10035357Y-15187214D02*
X10063929Y-15187214D01*
X10092500Y-15201500D01*
X10106786Y-15215786D01*
X10121071Y-15244357D01*
X10135357Y-15301500D01*
X10135357Y-15372929D01*
X10121071Y-15430071D01*
X10106786Y-15458643D01*
X10092500Y-15472929D01*
X10063929Y-15487214D01*
X10035357Y-15487214D01*
X10006786Y-15472929D01*
X9992500Y-15458643D01*
X9978214Y-15430071D01*
X9963929Y-15372929D01*
X9963929Y-15301500D01*
X9978214Y-15244357D01*
X9992500Y-15215786D01*
X10006786Y-15201500D01*
X10035357Y-15187214D01*
X10263929Y-15487214D02*
X10263929Y-15287214D01*
X10263929Y-15315786D02*
X10278214Y-15301500D01*
X10306786Y-15287214D01*
X10349643Y-15287214D01*
X10378214Y-15301500D01*
X10392500Y-15330071D01*
X10392500Y-15487214D01*
X10392500Y-15330071D02*
X10406786Y-15301500D01*
X10435357Y-15287214D01*
X10478214Y-15287214D01*
X10506786Y-15301500D01*
X10521071Y-15330071D01*
X10521071Y-15487214D01*
X10663929Y-15487214D02*
X10663929Y-15287214D01*
X10663929Y-15315786D02*
X10678214Y-15301500D01*
X10706786Y-15287214D01*
X10749643Y-15287214D01*
X10778214Y-15301500D01*
X10792500Y-15330071D01*
X10792500Y-15487214D01*
X10792500Y-15330071D02*
X10806786Y-15301500D01*
X10835357Y-15287214D01*
X10878214Y-15287214D01*
X10906786Y-15301500D01*
X10921071Y-15330071D01*
X10921071Y-15487214D01*
X11506786Y-15172929D02*
X11249643Y-15558643D01*
X11892500Y-15187214D02*
X11921071Y-15187214D01*
X11949643Y-15201500D01*
X11963928Y-15215786D01*
X11978214Y-15244357D01*
X11992500Y-15301500D01*
X11992500Y-15372929D01*
X11978214Y-15430071D01*
X11963928Y-15458643D01*
X11949643Y-15472929D01*
X11921071Y-15487214D01*
X11892500Y-15487214D01*
X11863928Y-15472929D01*
X11849643Y-15458643D01*
X11835357Y-15430071D01*
X11821071Y-15372929D01*
X11821071Y-15301500D01*
X11835357Y-15244357D01*
X11849643Y-15215786D01*
X11863928Y-15201500D01*
X11892500Y-15187214D01*
X12121071Y-15458643D02*
X12135357Y-15472929D01*
X12121071Y-15487214D01*
X12106786Y-15472929D01*
X12121071Y-15458643D01*
X12121071Y-15487214D01*
X12321071Y-15187214D02*
X12349643Y-15187214D01*
X12378214Y-15201500D01*
X12392500Y-15215786D01*
X12406785Y-15244357D01*
X12421071Y-15301500D01*
X12421071Y-15372929D01*
X12406785Y-15430071D01*
X12392500Y-15458643D01*
X12378214Y-15472929D01*
X12349643Y-15487214D01*
X12321071Y-15487214D01*
X12292500Y-15472929D01*
X12278214Y-15458643D01*
X12263928Y-15430071D01*
X12249643Y-15372929D01*
X12249643Y-15301500D01*
X12263928Y-15244357D01*
X12278214Y-15215786D01*
X12292500Y-15201500D01*
X12321071Y-15187214D01*
X12521071Y-15187214D02*
X12706785Y-15187214D01*
X12606785Y-15301500D01*
X12649643Y-15301500D01*
X12678214Y-15315786D01*
X12692500Y-15330071D01*
X12706785Y-15358643D01*
X12706785Y-15430071D01*
X12692500Y-15458643D01*
X12678214Y-15472929D01*
X12649643Y-15487214D01*
X12563928Y-15487214D01*
X12535357Y-15472929D01*
X12521071Y-15458643D01*
X12849643Y-15487214D02*
X12906785Y-15487214D01*
X12935357Y-15472929D01*
X12949643Y-15458643D01*
X12978214Y-15415786D01*
X12992500Y-15358643D01*
X12992500Y-15244357D01*
X12978214Y-15215786D01*
X12963928Y-15201500D01*
X12935357Y-15187214D01*
X12878214Y-15187214D01*
X12849643Y-15201500D01*
X12835357Y-15215786D01*
X12821071Y-15244357D01*
X12821071Y-15315786D01*
X12835357Y-15344357D01*
X12849643Y-15358643D01*
X12878214Y-15372929D01*
X12935357Y-15372929D01*
X12963928Y-15358643D01*
X12978214Y-15344357D01*
X12992500Y-15315786D01*
X13106786Y-15187214D02*
X13106786Y-15244357D01*
X13221071Y-15187214D02*
X13221071Y-15244357D01*
X13663928Y-15601500D02*
X13649643Y-15587214D01*
X13621071Y-15544357D01*
X13606785Y-15515786D01*
X13592500Y-15472929D01*
X13578214Y-15401500D01*
X13578214Y-15344357D01*
X13592500Y-15272929D01*
X13606785Y-15230071D01*
X13621071Y-15201500D01*
X13649643Y-15158643D01*
X13663928Y-15144357D01*
X13935357Y-15487214D02*
X13763928Y-15487214D01*
X13849643Y-15487214D02*
X13849643Y-15187214D01*
X13821071Y-15230071D01*
X13792500Y-15258643D01*
X13763928Y-15272929D01*
X14049643Y-15215786D02*
X14063928Y-15201500D01*
X14092500Y-15187214D01*
X14163928Y-15187214D01*
X14192500Y-15201500D01*
X14206785Y-15215786D01*
X14221071Y-15244357D01*
X14221071Y-15272929D01*
X14206785Y-15315786D01*
X14035357Y-15487214D01*
X14221071Y-15487214D01*
X14578214Y-15487214D02*
X14578214Y-15187214D01*
X14706785Y-15487214D02*
X14706785Y-15330071D01*
X14692500Y-15301500D01*
X14663928Y-15287214D01*
X14621071Y-15287214D01*
X14592500Y-15301500D01*
X14578214Y-15315786D01*
X14892500Y-15487214D02*
X14863928Y-15472929D01*
X14849643Y-15458643D01*
X14835357Y-15430071D01*
X14835357Y-15344357D01*
X14849643Y-15315786D01*
X14863928Y-15301500D01*
X14892500Y-15287214D01*
X14935357Y-15287214D01*
X14963928Y-15301500D01*
X14978214Y-15315786D01*
X14992500Y-15344357D01*
X14992500Y-15430071D01*
X14978214Y-15458643D01*
X14963928Y-15472929D01*
X14935357Y-15487214D01*
X14892500Y-15487214D01*
X15163928Y-15487214D02*
X15135357Y-15472929D01*
X15121071Y-15444357D01*
X15121071Y-15187214D01*
X15392500Y-15472929D02*
X15363928Y-15487214D01*
X15306786Y-15487214D01*
X15278214Y-15472929D01*
X15263928Y-15444357D01*
X15263928Y-15330071D01*
X15278214Y-15301500D01*
X15306786Y-15287214D01*
X15363928Y-15287214D01*
X15392500Y-15301500D01*
X15406786Y-15330071D01*
X15406786Y-15358643D01*
X15263928Y-15387214D01*
X15521071Y-15472929D02*
X15549643Y-15487214D01*
X15606786Y-15487214D01*
X15635357Y-15472929D01*
X15649643Y-15444357D01*
X15649643Y-15430071D01*
X15635357Y-15401500D01*
X15606786Y-15387214D01*
X15563928Y-15387214D01*
X15535357Y-15372929D01*
X15521071Y-15344357D01*
X15521071Y-15330071D01*
X15535357Y-15301500D01*
X15563928Y-15287214D01*
X15606786Y-15287214D01*
X15635357Y-15301500D01*
X16006786Y-15372929D02*
X16235357Y-15372929D01*
X16121071Y-15487214D02*
X16121071Y-15258643D01*
X16578214Y-15187214D02*
X16763928Y-15187214D01*
X16663928Y-15301500D01*
X16706786Y-15301500D01*
X16735357Y-15315786D01*
X16749643Y-15330071D01*
X16763928Y-15358643D01*
X16763928Y-15430071D01*
X16749643Y-15458643D01*
X16735357Y-15472929D01*
X16706786Y-15487214D01*
X16621071Y-15487214D01*
X16592500Y-15472929D01*
X16578214Y-15458643D01*
X17106786Y-15472929D02*
X17135357Y-15487214D01*
X17192500Y-15487214D01*
X17221071Y-15472929D01*
X17235357Y-15444357D01*
X17235357Y-15430071D01*
X17221071Y-15401500D01*
X17192500Y-15387214D01*
X17149643Y-15387214D01*
X17121071Y-15372929D01*
X17106786Y-15344357D01*
X17106786Y-15330071D01*
X17121071Y-15301500D01*
X17149643Y-15287214D01*
X17192500Y-15287214D01*
X17221071Y-15301500D01*
X17406786Y-15487214D02*
X17378214Y-15472929D01*
X17363928Y-15444357D01*
X17363928Y-15187214D01*
X17563928Y-15487214D02*
X17535357Y-15472929D01*
X17521071Y-15458643D01*
X17506786Y-15430071D01*
X17506786Y-15344357D01*
X17521071Y-15315786D01*
X17535357Y-15301500D01*
X17563928Y-15287214D01*
X17606786Y-15287214D01*
X17635357Y-15301500D01*
X17649643Y-15315786D01*
X17663928Y-15344357D01*
X17663928Y-15430071D01*
X17649643Y-15458643D01*
X17635357Y-15472929D01*
X17606786Y-15487214D01*
X17563928Y-15487214D01*
X17749643Y-15287214D02*
X17863928Y-15287214D01*
X17792500Y-15187214D02*
X17792500Y-15444357D01*
X17806786Y-15472929D01*
X17835357Y-15487214D01*
X17863928Y-15487214D01*
X17949643Y-15472929D02*
X17978214Y-15487214D01*
X18035357Y-15487214D01*
X18063929Y-15472929D01*
X18078214Y-15444357D01*
X18078214Y-15430071D01*
X18063929Y-15401500D01*
X18035357Y-15387214D01*
X17992500Y-15387214D01*
X17963929Y-15372929D01*
X17949643Y-15344357D01*
X17949643Y-15330071D01*
X17963929Y-15301500D01*
X17992500Y-15287214D01*
X18035357Y-15287214D01*
X18063929Y-15301500D01*
X18178214Y-15601500D02*
X18192500Y-15587214D01*
X18221071Y-15544357D01*
X18235357Y-15515786D01*
X18249643Y-15472929D01*
X18263928Y-15401500D01*
X18263928Y-15344357D01*
X18249643Y-15272929D01*
X18235357Y-15230071D01*
X18221071Y-15201500D01*
X18192500Y-15158643D01*
X18178214Y-15144357D01*
X8882500Y-15692500D02*
X8992500Y-15802500D01*
X8992500Y-15692500D02*
X8882500Y-15802500D01*
X8992500Y-15747500D02*
G75*
G03X8992500Y-15747500I-55000J0D01*
G01*
X9421071Y-15883214D02*
X9249643Y-15883214D01*
X9335357Y-15883214D02*
X9335357Y-15583214D01*
X9306786Y-15626071D01*
X9278214Y-15654643D01*
X9249643Y-15668929D01*
X9549643Y-15854643D02*
X9563929Y-15868929D01*
X9549643Y-15883214D01*
X9535357Y-15868929D01*
X9549643Y-15854643D01*
X9549643Y-15883214D01*
X9849643Y-15883214D02*
X9678214Y-15883214D01*
X9763928Y-15883214D02*
X9763928Y-15583214D01*
X9735357Y-15626071D01*
X9706786Y-15654643D01*
X9678214Y-15668929D01*
X10035357Y-15583214D02*
X10063929Y-15583214D01*
X10092500Y-15597500D01*
X10106786Y-15611786D01*
X10121071Y-15640357D01*
X10135357Y-15697500D01*
X10135357Y-15768929D01*
X10121071Y-15826071D01*
X10106786Y-15854643D01*
X10092500Y-15868929D01*
X10063929Y-15883214D01*
X10035357Y-15883214D01*
X10006786Y-15868929D01*
X9992500Y-15854643D01*
X9978214Y-15826071D01*
X9963929Y-15768929D01*
X9963929Y-15697500D01*
X9978214Y-15640357D01*
X9992500Y-15611786D01*
X10006786Y-15597500D01*
X10035357Y-15583214D01*
X10263929Y-15883214D02*
X10263929Y-15683214D01*
X10263929Y-15711786D02*
X10278214Y-15697500D01*
X10306786Y-15683214D01*
X10349643Y-15683214D01*
X10378214Y-15697500D01*
X10392500Y-15726071D01*
X10392500Y-15883214D01*
X10392500Y-15726071D02*
X10406786Y-15697500D01*
X10435357Y-15683214D01*
X10478214Y-15683214D01*
X10506786Y-15697500D01*
X10521071Y-15726071D01*
X10521071Y-15883214D01*
X10663929Y-15883214D02*
X10663929Y-15683214D01*
X10663929Y-15711786D02*
X10678214Y-15697500D01*
X10706786Y-15683214D01*
X10749643Y-15683214D01*
X10778214Y-15697500D01*
X10792500Y-15726071D01*
X10792500Y-15883214D01*
X10792500Y-15726071D02*
X10806786Y-15697500D01*
X10835357Y-15683214D01*
X10878214Y-15683214D01*
X10906786Y-15697500D01*
X10921071Y-15726071D01*
X10921071Y-15883214D01*
X11506786Y-15568929D02*
X11249643Y-15954643D01*
X11892500Y-15583214D02*
X11921071Y-15583214D01*
X11949643Y-15597500D01*
X11963928Y-15611786D01*
X11978214Y-15640357D01*
X11992500Y-15697500D01*
X11992500Y-15768929D01*
X11978214Y-15826071D01*
X11963928Y-15854643D01*
X11949643Y-15868929D01*
X11921071Y-15883214D01*
X11892500Y-15883214D01*
X11863928Y-15868929D01*
X11849643Y-15854643D01*
X11835357Y-15826071D01*
X11821071Y-15768929D01*
X11821071Y-15697500D01*
X11835357Y-15640357D01*
X11849643Y-15611786D01*
X11863928Y-15597500D01*
X11892500Y-15583214D01*
X12121071Y-15854643D02*
X12135357Y-15868929D01*
X12121071Y-15883214D01*
X12106786Y-15868929D01*
X12121071Y-15854643D01*
X12121071Y-15883214D01*
X12321071Y-15583214D02*
X12349643Y-15583214D01*
X12378214Y-15597500D01*
X12392500Y-15611786D01*
X12406785Y-15640357D01*
X12421071Y-15697500D01*
X12421071Y-15768929D01*
X12406785Y-15826071D01*
X12392500Y-15854643D01*
X12378214Y-15868929D01*
X12349643Y-15883214D01*
X12321071Y-15883214D01*
X12292500Y-15868929D01*
X12278214Y-15854643D01*
X12263928Y-15826071D01*
X12249643Y-15768929D01*
X12249643Y-15697500D01*
X12263928Y-15640357D01*
X12278214Y-15611786D01*
X12292500Y-15597500D01*
X12321071Y-15583214D01*
X12678214Y-15683214D02*
X12678214Y-15883214D01*
X12606785Y-15568929D02*
X12535357Y-15783214D01*
X12721071Y-15783214D01*
X12806785Y-15583214D02*
X12992500Y-15583214D01*
X12892500Y-15697500D01*
X12935357Y-15697500D01*
X12963928Y-15711786D01*
X12978214Y-15726071D01*
X12992500Y-15754643D01*
X12992500Y-15826071D01*
X12978214Y-15854643D01*
X12963928Y-15868929D01*
X12935357Y-15883214D01*
X12849643Y-15883214D01*
X12821071Y-15868929D01*
X12806785Y-15854643D01*
X13106786Y-15583214D02*
X13106786Y-15640357D01*
X13221071Y-15583214D02*
X13221071Y-15640357D01*
X13663928Y-15997500D02*
X13649643Y-15983214D01*
X13621071Y-15940357D01*
X13606785Y-15911786D01*
X13592500Y-15868929D01*
X13578214Y-15797500D01*
X13578214Y-15740357D01*
X13592500Y-15668929D01*
X13606785Y-15626071D01*
X13621071Y-15597500D01*
X13649643Y-15554643D01*
X13663928Y-15540357D01*
X13763928Y-15611786D02*
X13778214Y-15597500D01*
X13806785Y-15583214D01*
X13878214Y-15583214D01*
X13906785Y-15597500D01*
X13921071Y-15611786D01*
X13935357Y-15640357D01*
X13935357Y-15668929D01*
X13921071Y-15711786D01*
X13749643Y-15883214D01*
X13935357Y-15883214D01*
X14292500Y-15883214D02*
X14292500Y-15583214D01*
X14421071Y-15883214D02*
X14421071Y-15726071D01*
X14406785Y-15697500D01*
X14378214Y-15683214D01*
X14335357Y-15683214D01*
X14306785Y-15697500D01*
X14292500Y-15711786D01*
X14606785Y-15883214D02*
X14578214Y-15868929D01*
X14563928Y-15854643D01*
X14549643Y-15826071D01*
X14549643Y-15740357D01*
X14563928Y-15711786D01*
X14578214Y-15697500D01*
X14606785Y-15683214D01*
X14649643Y-15683214D01*
X14678214Y-15697500D01*
X14692500Y-15711786D01*
X14706785Y-15740357D01*
X14706785Y-15826071D01*
X14692500Y-15854643D01*
X14678214Y-15868929D01*
X14649643Y-15883214D01*
X14606785Y-15883214D01*
X14878214Y-15883214D02*
X14849643Y-15868929D01*
X14835357Y-15840357D01*
X14835357Y-15583214D01*
X15106786Y-15868929D02*
X15078214Y-15883214D01*
X15021071Y-15883214D01*
X14992500Y-15868929D01*
X14978214Y-15840357D01*
X14978214Y-15726071D01*
X14992500Y-15697500D01*
X15021071Y-15683214D01*
X15078214Y-15683214D01*
X15106786Y-15697500D01*
X15121071Y-15726071D01*
X15121071Y-15754643D01*
X14978214Y-15783214D01*
X15235357Y-15868929D02*
X15263928Y-15883214D01*
X15321071Y-15883214D01*
X15349643Y-15868929D01*
X15363928Y-15840357D01*
X15363928Y-15826071D01*
X15349643Y-15797500D01*
X15321071Y-15783214D01*
X15278214Y-15783214D01*
X15249643Y-15768929D01*
X15235357Y-15740357D01*
X15235357Y-15726071D01*
X15249643Y-15697500D01*
X15278214Y-15683214D01*
X15321071Y-15683214D01*
X15349643Y-15697500D01*
X15463928Y-15997500D02*
X15478214Y-15983214D01*
X15506786Y-15940357D01*
X15521071Y-15911786D01*
X15535357Y-15868929D01*
X15549643Y-15797500D01*
X15549643Y-15740357D01*
X15535357Y-15668929D01*
X15521071Y-15626071D01*
X15506786Y-15597500D01*
X15478214Y-15554643D01*
X15463928Y-15540357D01*
X8840500Y-16067500D02*
X8992500Y-16219500D01*
X8992500Y-16067500D02*
X8840500Y-16219500D01*
X8916500Y-16067500D02*
X8916500Y-16219500D01*
X8840500Y-16143500D02*
X8992500Y-16143500D01*
X9421071Y-16279214D02*
X9249643Y-16279214D01*
X9335357Y-16279214D02*
X9335357Y-15979214D01*
X9306786Y-16022071D01*
X9278214Y-16050643D01*
X9249643Y-16064929D01*
X9549643Y-16250643D02*
X9563929Y-16264929D01*
X9549643Y-16279214D01*
X9535357Y-16264929D01*
X9549643Y-16250643D01*
X9549643Y-16279214D01*
X9835357Y-15979214D02*
X9692500Y-15979214D01*
X9678214Y-16122071D01*
X9692500Y-16107786D01*
X9721071Y-16093500D01*
X9792500Y-16093500D01*
X9821071Y-16107786D01*
X9835357Y-16122071D01*
X9849643Y-16150643D01*
X9849643Y-16222071D01*
X9835357Y-16250643D01*
X9821071Y-16264929D01*
X9792500Y-16279214D01*
X9721071Y-16279214D01*
X9692500Y-16264929D01*
X9678214Y-16250643D01*
X9963929Y-16007786D02*
X9978214Y-15993500D01*
X10006786Y-15979214D01*
X10078214Y-15979214D01*
X10106786Y-15993500D01*
X10121071Y-16007786D01*
X10135357Y-16036357D01*
X10135357Y-16064929D01*
X10121071Y-16107786D01*
X9949643Y-16279214D01*
X10135357Y-16279214D01*
X10263929Y-16279214D02*
X10263929Y-16079214D01*
X10263929Y-16107786D02*
X10278214Y-16093500D01*
X10306786Y-16079214D01*
X10349643Y-16079214D01*
X10378214Y-16093500D01*
X10392500Y-16122071D01*
X10392500Y-16279214D01*
X10392500Y-16122071D02*
X10406786Y-16093500D01*
X10435357Y-16079214D01*
X10478214Y-16079214D01*
X10506786Y-16093500D01*
X10521071Y-16122071D01*
X10521071Y-16279214D01*
X10663929Y-16279214D02*
X10663929Y-16079214D01*
X10663929Y-16107786D02*
X10678214Y-16093500D01*
X10706786Y-16079214D01*
X10749643Y-16079214D01*
X10778214Y-16093500D01*
X10792500Y-16122071D01*
X10792500Y-16279214D01*
X10792500Y-16122071D02*
X10806786Y-16093500D01*
X10835357Y-16079214D01*
X10878214Y-16079214D01*
X10906786Y-16093500D01*
X10921071Y-16122071D01*
X10921071Y-16279214D01*
X11506786Y-15964929D02*
X11249643Y-16350643D01*
X11892500Y-15979214D02*
X11921071Y-15979214D01*
X11949643Y-15993500D01*
X11963928Y-16007786D01*
X11978214Y-16036357D01*
X11992500Y-16093500D01*
X11992500Y-16164929D01*
X11978214Y-16222071D01*
X11963928Y-16250643D01*
X11949643Y-16264929D01*
X11921071Y-16279214D01*
X11892500Y-16279214D01*
X11863928Y-16264929D01*
X11849643Y-16250643D01*
X11835357Y-16222071D01*
X11821071Y-16164929D01*
X11821071Y-16093500D01*
X11835357Y-16036357D01*
X11849643Y-16007786D01*
X11863928Y-15993500D01*
X11892500Y-15979214D01*
X12121071Y-16250643D02*
X12135357Y-16264929D01*
X12121071Y-16279214D01*
X12106786Y-16264929D01*
X12121071Y-16250643D01*
X12121071Y-16279214D01*
X12321071Y-15979214D02*
X12349643Y-15979214D01*
X12378214Y-15993500D01*
X12392500Y-16007786D01*
X12406785Y-16036357D01*
X12421071Y-16093500D01*
X12421071Y-16164929D01*
X12406785Y-16222071D01*
X12392500Y-16250643D01*
X12378214Y-16264929D01*
X12349643Y-16279214D01*
X12321071Y-16279214D01*
X12292500Y-16264929D01*
X12278214Y-16250643D01*
X12263928Y-16222071D01*
X12249643Y-16164929D01*
X12249643Y-16093500D01*
X12263928Y-16036357D01*
X12278214Y-16007786D01*
X12292500Y-15993500D01*
X12321071Y-15979214D01*
X12678214Y-15979214D02*
X12621071Y-15979214D01*
X12592500Y-15993500D01*
X12578214Y-16007786D01*
X12549643Y-16050643D01*
X12535357Y-16107786D01*
X12535357Y-16222071D01*
X12549643Y-16250643D01*
X12563928Y-16264929D01*
X12592500Y-16279214D01*
X12649643Y-16279214D01*
X12678214Y-16264929D01*
X12692500Y-16250643D01*
X12706785Y-16222071D01*
X12706785Y-16150643D01*
X12692500Y-16122071D01*
X12678214Y-16107786D01*
X12649643Y-16093500D01*
X12592500Y-16093500D01*
X12563928Y-16107786D01*
X12549643Y-16122071D01*
X12535357Y-16150643D01*
X12892500Y-15979214D02*
X12921071Y-15979214D01*
X12949643Y-15993500D01*
X12963928Y-16007786D01*
X12978214Y-16036357D01*
X12992500Y-16093500D01*
X12992500Y-16164929D01*
X12978214Y-16222071D01*
X12963928Y-16250643D01*
X12949643Y-16264929D01*
X12921071Y-16279214D01*
X12892500Y-16279214D01*
X12863928Y-16264929D01*
X12849643Y-16250643D01*
X12835357Y-16222071D01*
X12821071Y-16164929D01*
X12821071Y-16093500D01*
X12835357Y-16036357D01*
X12849643Y-16007786D01*
X12863928Y-15993500D01*
X12892500Y-15979214D01*
X13106786Y-15979214D02*
X13106786Y-16036357D01*
X13221071Y-15979214D02*
X13221071Y-16036357D01*
X13663928Y-16393500D02*
X13649643Y-16379214D01*
X13621071Y-16336357D01*
X13606785Y-16307786D01*
X13592500Y-16264929D01*
X13578214Y-16193500D01*
X13578214Y-16136357D01*
X13592500Y-16064929D01*
X13606785Y-16022071D01*
X13621071Y-15993500D01*
X13649643Y-15950643D01*
X13663928Y-15936357D01*
X13763928Y-16007786D02*
X13778214Y-15993500D01*
X13806785Y-15979214D01*
X13878214Y-15979214D01*
X13906785Y-15993500D01*
X13921071Y-16007786D01*
X13935357Y-16036357D01*
X13935357Y-16064929D01*
X13921071Y-16107786D01*
X13749643Y-16279214D01*
X13935357Y-16279214D01*
X14292500Y-16279214D02*
X14292500Y-15979214D01*
X14421071Y-16279214D02*
X14421071Y-16122071D01*
X14406785Y-16093500D01*
X14378214Y-16079214D01*
X14335357Y-16079214D01*
X14306785Y-16093500D01*
X14292500Y-16107786D01*
X14606785Y-16279214D02*
X14578214Y-16264929D01*
X14563928Y-16250643D01*
X14549643Y-16222071D01*
X14549643Y-16136357D01*
X14563928Y-16107786D01*
X14578214Y-16093500D01*
X14606785Y-16079214D01*
X14649643Y-16079214D01*
X14678214Y-16093500D01*
X14692500Y-16107786D01*
X14706785Y-16136357D01*
X14706785Y-16222071D01*
X14692500Y-16250643D01*
X14678214Y-16264929D01*
X14649643Y-16279214D01*
X14606785Y-16279214D01*
X14878214Y-16279214D02*
X14849643Y-16264929D01*
X14835357Y-16236357D01*
X14835357Y-15979214D01*
X15106786Y-16264929D02*
X15078214Y-16279214D01*
X15021071Y-16279214D01*
X14992500Y-16264929D01*
X14978214Y-16236357D01*
X14978214Y-16122071D01*
X14992500Y-16093500D01*
X15021071Y-16079214D01*
X15078214Y-16079214D01*
X15106786Y-16093500D01*
X15121071Y-16122071D01*
X15121071Y-16150643D01*
X14978214Y-16179214D01*
X15235357Y-16264929D02*
X15263928Y-16279214D01*
X15321071Y-16279214D01*
X15349643Y-16264929D01*
X15363928Y-16236357D01*
X15363928Y-16222071D01*
X15349643Y-16193500D01*
X15321071Y-16179214D01*
X15278214Y-16179214D01*
X15249643Y-16164929D01*
X15235357Y-16136357D01*
X15235357Y-16122071D01*
X15249643Y-16093500D01*
X15278214Y-16079214D01*
X15321071Y-16079214D01*
X15349643Y-16093500D01*
X15463928Y-16393500D02*
X15478214Y-16379214D01*
X15506786Y-16336357D01*
X15521071Y-16307786D01*
X15535357Y-16264929D01*
X15549643Y-16193500D01*
X15549643Y-16136357D01*
X15535357Y-16064929D01*
X15521071Y-16022071D01*
X15506786Y-15993500D01*
X15478214Y-15950643D01*
X15463928Y-15936357D01*
X8792500Y-16439500D02*
X8992500Y-16639500D01*
X8992500Y-16439500D02*
X8792500Y-16639500D01*
X8963211Y-16610211D02*
X8963211Y-16468789D01*
X8821789Y-16468789D01*
X8821789Y-16610211D01*
X8963211Y-16610211D01*
X9249643Y-16403786D02*
X9263929Y-16389500D01*
X9292500Y-16375214D01*
X9363929Y-16375214D01*
X9392500Y-16389500D01*
X9406786Y-16403786D01*
X9421071Y-16432357D01*
X9421071Y-16460929D01*
X9406786Y-16503786D01*
X9235357Y-16675214D01*
X9421071Y-16675214D01*
X9549643Y-16646643D02*
X9563929Y-16660929D01*
X9549643Y-16675214D01*
X9535357Y-16660929D01*
X9549643Y-16646643D01*
X9549643Y-16675214D01*
X9749643Y-16375214D02*
X9778214Y-16375214D01*
X9806786Y-16389500D01*
X9821071Y-16403786D01*
X9835357Y-16432357D01*
X9849643Y-16489500D01*
X9849643Y-16560929D01*
X9835357Y-16618071D01*
X9821071Y-16646643D01*
X9806786Y-16660929D01*
X9778214Y-16675214D01*
X9749643Y-16675214D01*
X9721071Y-16660929D01*
X9706786Y-16646643D01*
X9692500Y-16618071D01*
X9678214Y-16560929D01*
X9678214Y-16489500D01*
X9692500Y-16432357D01*
X9706786Y-16403786D01*
X9721071Y-16389500D01*
X9749643Y-16375214D01*
X10035357Y-16375214D02*
X10063929Y-16375214D01*
X10092500Y-16389500D01*
X10106786Y-16403786D01*
X10121071Y-16432357D01*
X10135357Y-16489500D01*
X10135357Y-16560929D01*
X10121071Y-16618071D01*
X10106786Y-16646643D01*
X10092500Y-16660929D01*
X10063929Y-16675214D01*
X10035357Y-16675214D01*
X10006786Y-16660929D01*
X9992500Y-16646643D01*
X9978214Y-16618071D01*
X9963929Y-16560929D01*
X9963929Y-16489500D01*
X9978214Y-16432357D01*
X9992500Y-16403786D01*
X10006786Y-16389500D01*
X10035357Y-16375214D01*
X10263929Y-16675214D02*
X10263929Y-16475214D01*
X10263929Y-16503786D02*
X10278214Y-16489500D01*
X10306786Y-16475214D01*
X10349643Y-16475214D01*
X10378214Y-16489500D01*
X10392500Y-16518071D01*
X10392500Y-16675214D01*
X10392500Y-16518071D02*
X10406786Y-16489500D01*
X10435357Y-16475214D01*
X10478214Y-16475214D01*
X10506786Y-16489500D01*
X10521071Y-16518071D01*
X10521071Y-16675214D01*
X10663929Y-16675214D02*
X10663929Y-16475214D01*
X10663929Y-16503786D02*
X10678214Y-16489500D01*
X10706786Y-16475214D01*
X10749643Y-16475214D01*
X10778214Y-16489500D01*
X10792500Y-16518071D01*
X10792500Y-16675214D01*
X10792500Y-16518071D02*
X10806786Y-16489500D01*
X10835357Y-16475214D01*
X10878214Y-16475214D01*
X10906786Y-16489500D01*
X10921071Y-16518071D01*
X10921071Y-16675214D01*
X11506786Y-16360929D02*
X11249643Y-16746643D01*
X11892500Y-16375214D02*
X11921071Y-16375214D01*
X11949643Y-16389500D01*
X11963928Y-16403786D01*
X11978214Y-16432357D01*
X11992500Y-16489500D01*
X11992500Y-16560929D01*
X11978214Y-16618071D01*
X11963928Y-16646643D01*
X11949643Y-16660929D01*
X11921071Y-16675214D01*
X11892500Y-16675214D01*
X11863928Y-16660929D01*
X11849643Y-16646643D01*
X11835357Y-16618071D01*
X11821071Y-16560929D01*
X11821071Y-16489500D01*
X11835357Y-16432357D01*
X11849643Y-16403786D01*
X11863928Y-16389500D01*
X11892500Y-16375214D01*
X12121071Y-16646643D02*
X12135357Y-16660929D01*
X12121071Y-16675214D01*
X12106786Y-16660929D01*
X12121071Y-16646643D01*
X12121071Y-16675214D01*
X12321071Y-16375214D02*
X12349643Y-16375214D01*
X12378214Y-16389500D01*
X12392500Y-16403786D01*
X12406785Y-16432357D01*
X12421071Y-16489500D01*
X12421071Y-16560929D01*
X12406785Y-16618071D01*
X12392500Y-16646643D01*
X12378214Y-16660929D01*
X12349643Y-16675214D01*
X12321071Y-16675214D01*
X12292500Y-16660929D01*
X12278214Y-16646643D01*
X12263928Y-16618071D01*
X12249643Y-16560929D01*
X12249643Y-16489500D01*
X12263928Y-16432357D01*
X12278214Y-16403786D01*
X12292500Y-16389500D01*
X12321071Y-16375214D01*
X12521071Y-16375214D02*
X12721071Y-16375214D01*
X12592500Y-16675214D01*
X12849643Y-16675214D02*
X12906785Y-16675214D01*
X12935357Y-16660929D01*
X12949643Y-16646643D01*
X12978214Y-16603786D01*
X12992500Y-16546643D01*
X12992500Y-16432357D01*
X12978214Y-16403786D01*
X12963928Y-16389500D01*
X12935357Y-16375214D01*
X12878214Y-16375214D01*
X12849643Y-16389500D01*
X12835357Y-16403786D01*
X12821071Y-16432357D01*
X12821071Y-16503786D01*
X12835357Y-16532357D01*
X12849643Y-16546643D01*
X12878214Y-16560929D01*
X12935357Y-16560929D01*
X12963928Y-16546643D01*
X12978214Y-16532357D01*
X12992500Y-16503786D01*
X13106786Y-16375214D02*
X13106786Y-16432357D01*
X13221071Y-16375214D02*
X13221071Y-16432357D01*
X13663928Y-16789500D02*
X13649643Y-16775214D01*
X13621071Y-16732357D01*
X13606785Y-16703786D01*
X13592500Y-16660929D01*
X13578214Y-16589500D01*
X13578214Y-16532357D01*
X13592500Y-16460929D01*
X13606785Y-16418071D01*
X13621071Y-16389500D01*
X13649643Y-16346643D01*
X13663928Y-16332357D01*
X13749643Y-16375214D02*
X13935357Y-16375214D01*
X13835357Y-16489500D01*
X13878214Y-16489500D01*
X13906785Y-16503786D01*
X13921071Y-16518071D01*
X13935357Y-16546643D01*
X13935357Y-16618071D01*
X13921071Y-16646643D01*
X13906785Y-16660929D01*
X13878214Y-16675214D01*
X13792500Y-16675214D01*
X13763928Y-16660929D01*
X13749643Y-16646643D01*
X14292500Y-16675214D02*
X14292500Y-16375214D01*
X14421071Y-16675214D02*
X14421071Y-16518071D01*
X14406785Y-16489500D01*
X14378214Y-16475214D01*
X14335357Y-16475214D01*
X14306785Y-16489500D01*
X14292500Y-16503786D01*
X14606785Y-16675214D02*
X14578214Y-16660929D01*
X14563928Y-16646643D01*
X14549643Y-16618071D01*
X14549643Y-16532357D01*
X14563928Y-16503786D01*
X14578214Y-16489500D01*
X14606785Y-16475214D01*
X14649643Y-16475214D01*
X14678214Y-16489500D01*
X14692500Y-16503786D01*
X14706785Y-16532357D01*
X14706785Y-16618071D01*
X14692500Y-16646643D01*
X14678214Y-16660929D01*
X14649643Y-16675214D01*
X14606785Y-16675214D01*
X14878214Y-16675214D02*
X14849643Y-16660929D01*
X14835357Y-16632357D01*
X14835357Y-16375214D01*
X15106786Y-16660929D02*
X15078214Y-16675214D01*
X15021071Y-16675214D01*
X14992500Y-16660929D01*
X14978214Y-16632357D01*
X14978214Y-16518071D01*
X14992500Y-16489500D01*
X15021071Y-16475214D01*
X15078214Y-16475214D01*
X15106786Y-16489500D01*
X15121071Y-16518071D01*
X15121071Y-16546643D01*
X14978214Y-16575214D01*
X15235357Y-16660929D02*
X15263928Y-16675214D01*
X15321071Y-16675214D01*
X15349643Y-16660929D01*
X15363928Y-16632357D01*
X15363928Y-16618071D01*
X15349643Y-16589500D01*
X15321071Y-16575214D01*
X15278214Y-16575214D01*
X15249643Y-16560929D01*
X15235357Y-16532357D01*
X15235357Y-16518071D01*
X15249643Y-16489500D01*
X15278214Y-16475214D01*
X15321071Y-16475214D01*
X15349643Y-16489500D01*
X15463928Y-16789500D02*
X15478214Y-16775214D01*
X15506786Y-16732357D01*
X15521071Y-16703786D01*
X15535357Y-16660929D01*
X15549643Y-16589500D01*
X15549643Y-16532357D01*
X15535357Y-16460929D01*
X15521071Y-16418071D01*
X15506786Y-16389500D01*
X15478214Y-16346643D01*
X15463928Y-16332357D01*
M02*
