G04 #@! TF.FileFunction,Copper,L1,Top,Signal*
%FSLAX46Y46*%
G04 Gerber Fmt 4.6, Leading zero omitted, Abs format (unit mm)*
G04 Created by KiCad (PCBNEW 4.0.7-e2-6376~58~ubuntu16.04.1) date Tue Oct  2 08:21:06 2018*
%MOMM*%
%LPD*%
G01*
G04 APERTURE LIST*
%ADD10C,0.100000*%
%ADD11R,1.350000X1.350000*%
%ADD12O,1.350000X1.350000*%
%ADD13C,1.350000*%
%ADD14C,1.524000*%
%ADD15O,1.727200X1.727200*%
%ADD16R,3.500000X1.600000*%
%ADD17R,4.000000X2.500000*%
%ADD18R,2.200000X2.200000*%
%ADD19O,2.200000X2.200000*%
%ADD20R,1.300000X1.500000*%
%ADD21C,1.500000*%
%ADD22R,4.600000X1.100000*%
%ADD23R,9.400000X10.800000*%
%ADD24R,4.550000X5.250000*%
%ADD25R,1.700000X1.700000*%
%ADD26O,1.700000X1.700000*%
%ADD27C,3.500000*%
%ADD28R,1.550000X0.600000*%
%ADD29R,1.800000X1.200000*%
%ADD30R,3.000000X3.000000*%
%ADD31C,3.000000*%
%ADD32R,1.000000X1.000000*%
%ADD33R,2.300000X1.000000*%
%ADD34R,3.800000X1.000000*%
%ADD35R,1.000000X2.300000*%
%ADD36R,1.000000X3.800000*%
%ADD37C,1.000000*%
%ADD38C,0.600000*%
%ADD39C,0.700000*%
%ADD40C,0.300000*%
%ADD41C,0.254000*%
G04 APERTURE END LIST*
D10*
D11*
X105000000Y-60000000D03*
X103000000Y-60000000D03*
D12*
X105000000Y-62000000D03*
X103000000Y-62000000D03*
X105000000Y-64000000D03*
X103000000Y-64000000D03*
X105000000Y-66000000D03*
X103000000Y-66000000D03*
X105000000Y-68000000D03*
X103000000Y-68000000D03*
X105000000Y-70000000D03*
X103000000Y-70000000D03*
X105000000Y-72000000D03*
X103000000Y-72000000D03*
X105000000Y-74000000D03*
X103000000Y-74000000D03*
X105000000Y-76000000D03*
X103000000Y-76000000D03*
X105000000Y-78000000D03*
X103000000Y-78000000D03*
X127000000Y-64000000D03*
D13*
X127000000Y-60000000D03*
D12*
X125000000Y-60000000D03*
X127000000Y-62000000D03*
X125000000Y-62000000D03*
X125000000Y-64000000D03*
X127000000Y-66000000D03*
X125000000Y-66000000D03*
X125000000Y-68000000D03*
X127000000Y-70000000D03*
X125000000Y-70000000D03*
X127000000Y-72000000D03*
X127000000Y-68000000D03*
X127000000Y-74000000D03*
X125000000Y-72000000D03*
X125000000Y-74000000D03*
X127000000Y-78000000D03*
X125000000Y-76000000D03*
X127000000Y-76000000D03*
X125000000Y-78000000D03*
D14*
X139192000Y-133684000D03*
X139192000Y-138684000D03*
D15*
X171600000Y-87893000D03*
X171600000Y-85353000D03*
X174140000Y-85353000D03*
X174140000Y-87893000D03*
X176680000Y-85353000D03*
X148740000Y-100720000D03*
X148740000Y-105800000D03*
X148740000Y-108340000D03*
X148740000Y-110880000D03*
X148740000Y-113420000D03*
X148740000Y-115960000D03*
X148740000Y-118500000D03*
X148740000Y-121040000D03*
X197000000Y-65160000D03*
X197000000Y-67700000D03*
X197000000Y-70240000D03*
X197000000Y-72780000D03*
X197000000Y-75320000D03*
X197000000Y-77860000D03*
X197000000Y-80400000D03*
X197000000Y-82940000D03*
X197000000Y-88020000D03*
X197000000Y-90560000D03*
X197000000Y-93100000D03*
X197000000Y-95640000D03*
X197000000Y-98180000D03*
X197000000Y-100720000D03*
X197000000Y-103260000D03*
X197000000Y-105800000D03*
X197000000Y-125104000D03*
X197000000Y-109864000D03*
X197000000Y-112404000D03*
X197000000Y-114944000D03*
X197000000Y-132724000D03*
X197000000Y-130184000D03*
X197000000Y-127644000D03*
X197000000Y-122564000D03*
X197000000Y-120024000D03*
X197000000Y-117484000D03*
X148740000Y-123580000D03*
X148740000Y-98180000D03*
X148740000Y-95640000D03*
X148740000Y-93100000D03*
X148740000Y-90560000D03*
X148740000Y-88020000D03*
X148740000Y-85480000D03*
X148740000Y-82940000D03*
X148740000Y-77860000D03*
X148740000Y-75320000D03*
X148740000Y-72780000D03*
X148740000Y-70240000D03*
X148740000Y-67700000D03*
X148740000Y-65160000D03*
X148740000Y-62620000D03*
X148740000Y-60080000D03*
X197000000Y-57540000D03*
X197000000Y-55000000D03*
X194460000Y-57540000D03*
X194460000Y-55000000D03*
X191920000Y-57540000D03*
X191920000Y-55000000D03*
X189380000Y-57540000D03*
X189380000Y-55000000D03*
X186840000Y-57540000D03*
X186840000Y-55000000D03*
X184300000Y-57540000D03*
X184300000Y-55000000D03*
X181760000Y-57540000D03*
X181760000Y-55000000D03*
X179220000Y-57540000D03*
X179220000Y-55000000D03*
X176680000Y-57540000D03*
X176680000Y-55000000D03*
X174140000Y-57540000D03*
X174140000Y-55000000D03*
X171600000Y-57540000D03*
X171600000Y-55000000D03*
X169060000Y-57540000D03*
X169060000Y-55000000D03*
X166520000Y-57540000D03*
X166520000Y-55000000D03*
X163980000Y-57540000D03*
X163980000Y-55000000D03*
X161440000Y-57540000D03*
X161440000Y-55000000D03*
X158900000Y-57540000D03*
X158900000Y-55000000D03*
X156360000Y-57540000D03*
X156360000Y-55000000D03*
X153820000Y-57540000D03*
X153820000Y-55000000D03*
X176680000Y-87893000D03*
D16*
X124300000Y-137515600D03*
X129700000Y-137515600D03*
D17*
X123000000Y-128016000D03*
X131000000Y-128016000D03*
D18*
X116332000Y-124968000D03*
D19*
X108712000Y-124968000D03*
D20*
X139000000Y-69000000D03*
X139000000Y-66300000D03*
D21*
X120904000Y-81788000D03*
X123444000Y-81788000D03*
X115824000Y-81788000D03*
X118364000Y-81788000D03*
X142389860Y-100718620D03*
X142389860Y-98178620D03*
X142389860Y-95638620D03*
X110744000Y-81788000D03*
X108204000Y-81788000D03*
X113284000Y-81788000D03*
X103124000Y-81788000D03*
X105664000Y-81788000D03*
X142389860Y-108338620D03*
X142389860Y-103258620D03*
X142389860Y-105798620D03*
X142389860Y-110878620D03*
X142389860Y-113418620D03*
X142389860Y-115958620D03*
D22*
X115824000Y-137512000D03*
X115824000Y-135812000D03*
X115824000Y-134112000D03*
X115824000Y-132412000D03*
X115824000Y-130712000D03*
D23*
X106674000Y-134112000D03*
D24*
X104249000Y-131337000D03*
X109099000Y-136887000D03*
X104249000Y-136887000D03*
X109099000Y-131337000D03*
D25*
X143400000Y-77240000D03*
D26*
X143400000Y-74700000D03*
X143400000Y-72160000D03*
X143400000Y-69620000D03*
X143400000Y-67080000D03*
X143400000Y-64540000D03*
X143400000Y-62000000D03*
X143400000Y-59460000D03*
X143400000Y-56920000D03*
X143400000Y-54380000D03*
D27*
X132000000Y-75999000D03*
X132000000Y-55625000D03*
D28*
X144685500Y-81788000D03*
X144685500Y-82788000D03*
X144685500Y-83788000D03*
X144685500Y-84788000D03*
X144685500Y-85788000D03*
X144685500Y-86788000D03*
D29*
X140810500Y-80488000D03*
X140810500Y-88088000D03*
D30*
X123952000Y-145796000D03*
D31*
X129032000Y-145796000D03*
D30*
X111760000Y-145796000D03*
D31*
X116840000Y-145796000D03*
D32*
X102100000Y-88100000D03*
X133900000Y-88100000D03*
X133900000Y-119900000D03*
X102100000Y-119900000D03*
D33*
X103750000Y-88100000D03*
X103750000Y-119900000D03*
D34*
X109000000Y-88100000D03*
X109000000Y-119900000D03*
X115000000Y-88100000D03*
X115000000Y-119900000D03*
X121000000Y-88100000D03*
X121000000Y-119900000D03*
X127000000Y-88100000D03*
X127000000Y-119900000D03*
D33*
X132250000Y-88100000D03*
X132250000Y-119900000D03*
D35*
X102100000Y-89750000D03*
X133900000Y-89750000D03*
D36*
X102100000Y-95000000D03*
X133900000Y-95000000D03*
X102100000Y-101000000D03*
X133900000Y-101000000D03*
X102100000Y-107000000D03*
X133900000Y-107000000D03*
X102100000Y-113000000D03*
X133900000Y-113000000D03*
D35*
X102100000Y-118250000D03*
X133900000Y-118250000D03*
D37*
X195000000Y-145000000D03*
X112000000Y-55000000D03*
D38*
X159082740Y-110906560D03*
X160147000Y-109728000D03*
X157993080Y-109728000D03*
X159082740Y-109728000D03*
X173345000Y-111125000D03*
X171958000Y-109728000D03*
X174625000Y-109728000D03*
X173342300Y-109728000D03*
X183896000Y-109728000D03*
X185420000Y-111252000D03*
X185420000Y-109728000D03*
X139827000Y-70764400D03*
X137185400Y-70764400D03*
X136017000Y-70764400D03*
X140919200Y-71459990D03*
X140919200Y-70764400D03*
X157835600Y-78638400D03*
X157835600Y-75946000D03*
X157835600Y-83820000D03*
X159486600Y-85353000D03*
X157835600Y-85344000D03*
X157835600Y-77343000D03*
X156006800Y-77343000D03*
X154178000Y-77343000D03*
X152654000Y-77343000D03*
X110363000Y-76835000D03*
X110363000Y-77927200D03*
X110363000Y-72593200D03*
X110363000Y-73888600D03*
X113157000Y-69519800D03*
X113148000Y-72000000D03*
X114046000Y-65354200D03*
X112776000Y-65354200D03*
X160065720Y-104673400D03*
X168716960Y-103601520D03*
X178866800Y-102636320D03*
X181160420Y-101363780D03*
X111988600Y-83778190D03*
X156591000Y-70739000D03*
X156743400Y-73456800D03*
X109474000Y-84478190D03*
X151231600Y-57073800D03*
X185420000Y-105410000D03*
X184607200Y-106273600D03*
X185420000Y-106273600D03*
X179146200Y-106273600D03*
X164846000Y-106273600D03*
X166878000Y-106273600D03*
X165862000Y-107188000D03*
X165862000Y-106273600D03*
X177469800Y-106273600D03*
X178308000Y-107162600D03*
X178308000Y-106273600D03*
X178054000Y-81051400D03*
X176680000Y-81841200D03*
X175260000Y-81051400D03*
X176682400Y-81051400D03*
X156598620Y-83713320D03*
X150939500Y-87675720D03*
X146304000Y-88646000D03*
X169164000Y-90678000D03*
D39*
X133807200Y-85928200D02*
X132971540Y-85928200D01*
X132971540Y-85928200D02*
X103733600Y-85928200D01*
X134505700Y-85920580D02*
X132979160Y-85920580D01*
X132979160Y-85920580D02*
X132971540Y-85928200D01*
X135854440Y-87269320D02*
X134505700Y-85920580D01*
X135854440Y-112039400D02*
X135854440Y-87269320D01*
X135854440Y-114157760D02*
X135854440Y-112039400D01*
X135854440Y-116011960D02*
X135854440Y-114157760D01*
X141313960Y-115943380D02*
X135923020Y-115943380D01*
X135854440Y-116011960D02*
X135923020Y-115943380D01*
X135854440Y-117335300D02*
X135854440Y-116011960D01*
X151485600Y-125450600D02*
X139545060Y-125450600D01*
X139545060Y-125450600D02*
X135854440Y-121759980D01*
X135854440Y-121759980D02*
X135854440Y-117335300D01*
X142389860Y-115958620D02*
X141329200Y-115958620D01*
X141329200Y-115958620D02*
X141313960Y-115943380D01*
X159082740Y-109728000D02*
X159082740Y-110906560D01*
X157624780Y-109728000D02*
X160147000Y-109728000D01*
X160147000Y-109728000D02*
X171958000Y-109728000D01*
X157624780Y-109728000D02*
X157993080Y-109728000D01*
X157993080Y-109728000D02*
X159082740Y-109728000D01*
X154432000Y-109728000D02*
X157624780Y-109728000D01*
X101371400Y-62842401D02*
X101371400Y-67995800D01*
X101371400Y-67995800D02*
X101371400Y-83566000D01*
X103000000Y-68000000D02*
X102045406Y-68000000D01*
X102045406Y-68000000D02*
X102041206Y-67995800D01*
X102041206Y-67995800D02*
X101371400Y-67995800D01*
X101371400Y-83566000D02*
X101774999Y-83969599D01*
X101371400Y-60253600D02*
X101371400Y-62842401D01*
X103000000Y-60000000D02*
X101625000Y-60000000D01*
X101625000Y-60000000D02*
X101371400Y-60253600D01*
X103733600Y-85928200D02*
X101774999Y-83969599D01*
X151485600Y-125450600D02*
X151485600Y-112674400D01*
X151485600Y-138557000D02*
X151485600Y-125450600D01*
X139141200Y-145186400D02*
X144856200Y-145186400D01*
X144856200Y-145186400D02*
X151485600Y-138557000D01*
X151485600Y-112674400D02*
X154432000Y-109728000D01*
X136118600Y-145186400D02*
X139141200Y-145186400D01*
X139192000Y-140030200D02*
X139192000Y-145135600D01*
X139192000Y-145135600D02*
X139141200Y-145186400D01*
X132588000Y-134620000D02*
X132588000Y-141655800D01*
X132588000Y-141655800D02*
X136118600Y-145186400D01*
X139192000Y-138684000D02*
X139192000Y-140030200D01*
X139192000Y-140030200D02*
X139217400Y-140055600D01*
X129540000Y-131572000D02*
X126288800Y-131572000D01*
X132588000Y-134620000D02*
X129540000Y-131572000D01*
X126288800Y-131572000D02*
X126238000Y-131521200D01*
X132588000Y-134645400D02*
X132588000Y-134620000D01*
X126238000Y-131521200D02*
X126238000Y-133731000D01*
X126238000Y-133731000D02*
X124157000Y-135812000D01*
X124157000Y-135812000D02*
X119761000Y-135812000D01*
X119761000Y-135812000D02*
X115824000Y-135812000D01*
X118846600Y-124968000D02*
X125069600Y-124968000D01*
X125069600Y-124968000D02*
X126238000Y-126136400D01*
X126238000Y-126136400D02*
X126238000Y-131521200D01*
X116332000Y-124968000D02*
X118846600Y-124968000D01*
X118846600Y-126562600D02*
X118846600Y-124968000D01*
X123000000Y-128016000D02*
X120300000Y-128016000D01*
X120300000Y-128016000D02*
X118846600Y-126562600D01*
X173342300Y-109728000D02*
X173342300Y-111122300D01*
X173342300Y-111122300D02*
X173345000Y-111125000D01*
X173342300Y-109728000D02*
X171958000Y-109728000D01*
X185420000Y-109728000D02*
X174625000Y-109728000D01*
X174625000Y-109728000D02*
X173342300Y-109728000D01*
X185420000Y-109728000D02*
X185420000Y-111252000D01*
X115824000Y-135812000D02*
X115824000Y-135763000D01*
X100792280Y-139918440D02*
X101727000Y-140853160D01*
X101727000Y-140853160D02*
X109128560Y-140853160D01*
X100792280Y-128976120D02*
X100792280Y-139918440D01*
X102534720Y-127233680D02*
X100792280Y-128976120D01*
X104256840Y-127233680D02*
X102534720Y-127233680D01*
X104256840Y-127233680D02*
X104249000Y-127241520D01*
X104249000Y-127241520D02*
X104249000Y-127764760D01*
X108712000Y-127233680D02*
X108712000Y-130950000D01*
X108712000Y-127233680D02*
X104256840Y-127233680D01*
X108712000Y-124968000D02*
X108712000Y-127233680D01*
X104249000Y-131337000D02*
X104249000Y-127764760D01*
X109128560Y-140241560D02*
X109128560Y-140853160D01*
X109099000Y-136887000D02*
X109099000Y-140212000D01*
X109099000Y-140212000D02*
X109128560Y-140241560D01*
X104267000Y-140230000D02*
X104267000Y-140787120D01*
X104249000Y-136887000D02*
X104249000Y-140212000D01*
X104249000Y-140212000D02*
X104267000Y-140230000D01*
X101252360Y-136865360D02*
X101274000Y-136887000D01*
X104249000Y-136887000D02*
X101274000Y-136887000D01*
X101234680Y-131297680D02*
X101274000Y-131337000D01*
X104249000Y-131337000D02*
X101274000Y-131337000D01*
X108712000Y-130950000D02*
X109099000Y-131337000D01*
X109099000Y-136887000D02*
X109099000Y-131337000D01*
X104249000Y-136887000D02*
X109099000Y-136887000D01*
X104249000Y-131337000D02*
X104249000Y-136887000D01*
X109099000Y-131337000D02*
X104249000Y-131337000D01*
X140919200Y-70764400D02*
X139827000Y-70764400D01*
X136017000Y-70764400D02*
X137185400Y-70764400D01*
X140919200Y-74015600D02*
X140919200Y-71459990D01*
X140919200Y-71459990D02*
X140919200Y-70764400D01*
X141603600Y-74700000D02*
X140919200Y-74015600D01*
X143400000Y-74700000D02*
X141603600Y-74700000D01*
X157835600Y-77343000D02*
X157835600Y-78638400D01*
X157835600Y-77343000D02*
X157835600Y-75946000D01*
X157835600Y-85344000D02*
X157835600Y-83820000D01*
X171600000Y-85353000D02*
X159486600Y-85353000D01*
X159486600Y-85353000D02*
X158352600Y-85353000D01*
X158352600Y-85353000D02*
X158343600Y-85344000D01*
X158343600Y-85344000D02*
X157835600Y-85344000D01*
X156006800Y-77343000D02*
X157835600Y-77343000D01*
X154602264Y-77343000D02*
X156006800Y-77343000D01*
X154178000Y-77343000D02*
X154602264Y-77343000D01*
X152654000Y-77343000D02*
X154178000Y-77343000D01*
X143400000Y-74700000D02*
X147973601Y-79273601D01*
X147973601Y-79273601D02*
X150723399Y-79273601D01*
X150723399Y-79273601D02*
X152654000Y-77343000D01*
X110363000Y-73888600D02*
X110363000Y-76835000D01*
X110363000Y-76835000D02*
X110363000Y-77927200D01*
X110363000Y-73888600D02*
X110363000Y-72593200D01*
X113157000Y-69519800D02*
X113157000Y-71991000D01*
X113157000Y-71991000D02*
X113148000Y-72000000D01*
X117500400Y-65354200D02*
X114046000Y-65354200D01*
X114046000Y-65354200D02*
X112776000Y-65354200D01*
X120142000Y-67995800D02*
X117500400Y-65354200D01*
X120142000Y-72000000D02*
X113148000Y-72000000D01*
X125000000Y-72000000D02*
X120142000Y-72000000D01*
X120142000Y-72000000D02*
X120142000Y-67995800D01*
X120396000Y-137515600D02*
X120129300Y-137515600D01*
X120129300Y-137515600D02*
X115827600Y-137515600D01*
X116840000Y-145796000D02*
X116840000Y-143674680D01*
X116840000Y-143674680D02*
X120129300Y-140385380D01*
X120129300Y-140385380D02*
X120129300Y-137515600D01*
X124300000Y-137515600D02*
X120396000Y-137515600D01*
X115827600Y-137515600D02*
X115824000Y-137512000D01*
D40*
X142389860Y-110878620D02*
X143652081Y-109616399D01*
X143652081Y-109616399D02*
X149346529Y-109616399D01*
X149346529Y-109616399D02*
X154289528Y-104673400D01*
X154289528Y-104673400D02*
X160065720Y-104673400D01*
X150545800Y-107063601D02*
X150545800Y-106705400D01*
X143664879Y-107063601D02*
X150545800Y-107063601D01*
X142389860Y-108338620D02*
X143664879Y-107063601D01*
X150545800Y-106705400D02*
X153642060Y-103609140D01*
X153642060Y-103609140D02*
X168709340Y-103609140D01*
X168709340Y-103609140D02*
X168716960Y-103601520D01*
X178866800Y-102636320D02*
X178864260Y-102633780D01*
X178864260Y-102633780D02*
X152770840Y-102633780D01*
X152770840Y-102633780D02*
X151104600Y-104300020D01*
X151104600Y-104300020D02*
X148369850Y-104300020D01*
X148369850Y-104300020D02*
X146871250Y-105798620D01*
X146871250Y-105798620D02*
X142389860Y-105798620D01*
X181160420Y-101363780D02*
X151958040Y-101363780D01*
X151958040Y-101363780D02*
X150063200Y-103258620D01*
X150063200Y-103258620D02*
X142389860Y-103258620D01*
D39*
X111760000Y-145796000D02*
X111760000Y-147996000D01*
X111760000Y-147996000D02*
X112430200Y-148666200D01*
X112430200Y-148666200D02*
X126161800Y-148666200D01*
X126161800Y-148666200D02*
X129032000Y-145796000D01*
X113995200Y-122453400D02*
X112776000Y-123672600D01*
X132080000Y-122453400D02*
X113995200Y-122453400D01*
X112776000Y-123672600D02*
X112776000Y-126923800D01*
X139192000Y-129565400D02*
X132080000Y-122453400D01*
X139192000Y-133684000D02*
X139192000Y-129565400D01*
X112776000Y-126923800D02*
X114681000Y-128828800D01*
X118973600Y-128828800D02*
X120015000Y-129870200D01*
X120015000Y-129870200D02*
X120015000Y-131221000D01*
X120015000Y-131221000D02*
X118824000Y-132412000D01*
X114681000Y-128828800D02*
X118973600Y-128828800D01*
X118824000Y-132412000D02*
X115824000Y-132412000D01*
D40*
X111988600Y-81788000D02*
X111988600Y-79375000D01*
X111988600Y-83778190D02*
X111988600Y-81788000D01*
X111988600Y-81788000D02*
X110744000Y-81788000D01*
X111988600Y-79375000D02*
X111988600Y-68988600D01*
X111988600Y-68988600D02*
X110744000Y-67744000D01*
X105000000Y-62000000D02*
X110744000Y-67744000D01*
X157556200Y-70231000D02*
X157099000Y-70231000D01*
X157099000Y-70231000D02*
X156591000Y-70739000D01*
X158699200Y-70231000D02*
X157556200Y-70231000D01*
X166624000Y-70231000D02*
X158699200Y-70231000D01*
X176613600Y-70231000D02*
X166624000Y-70231000D01*
X176622600Y-70240000D02*
X176613600Y-70231000D01*
X197000000Y-70240000D02*
X176622600Y-70240000D01*
X109474000Y-81788000D02*
X109474000Y-68474000D01*
X108204000Y-67204000D02*
X105000000Y-64000000D01*
X109474000Y-68474000D02*
X108204000Y-67204000D01*
X158699200Y-72783700D02*
X158394400Y-72783700D01*
X156743400Y-73456800D02*
X157416500Y-72783700D01*
X157416500Y-72783700D02*
X158394400Y-72783700D01*
X109474000Y-84478190D02*
X109474000Y-82880200D01*
X109474000Y-82880200D02*
X109474000Y-81788000D01*
X109474000Y-81788000D02*
X108204000Y-81788000D01*
X181660800Y-72783700D02*
X158699200Y-72783700D01*
X185226960Y-72783700D02*
X181660800Y-72783700D01*
X185229500Y-72781160D02*
X185226960Y-72783700D01*
X186402980Y-72781160D02*
X185229500Y-72781160D01*
X187533280Y-72781160D02*
X186402980Y-72781160D01*
X191538860Y-72781160D02*
X187533280Y-72781160D01*
X191540020Y-72780000D02*
X191538860Y-72781160D01*
X197000000Y-72780000D02*
X191540020Y-72780000D01*
X106934000Y-81711800D02*
X106934000Y-82677000D01*
X132347410Y-85178190D02*
X107682590Y-85178190D01*
X106934000Y-82677000D02*
X106934000Y-83032600D01*
X197000000Y-95640000D02*
X195778686Y-95640000D01*
X195778686Y-95640000D02*
X195769686Y-95631000D01*
X138836400Y-94411800D02*
X137490200Y-94411800D01*
X195769686Y-95631000D02*
X150527130Y-95631000D01*
X138850999Y-94426399D02*
X138836400Y-94411800D01*
X150527130Y-95631000D02*
X149322529Y-94426399D01*
X134816364Y-85170570D02*
X132355030Y-85170570D01*
X107682590Y-85178190D02*
X106934000Y-84429600D01*
X149322529Y-94426399D02*
X138850999Y-94426399D01*
X137490200Y-94411800D02*
X136604450Y-93526050D01*
X136604450Y-93526050D02*
X136604449Y-86958655D01*
X136604449Y-86958655D02*
X134816364Y-85170570D01*
X132355030Y-85170570D02*
X132347410Y-85178190D01*
X106934000Y-84429600D02*
X106934000Y-82677000D01*
X106934000Y-81711800D02*
X106857800Y-81788000D01*
X106857800Y-81788000D02*
X105664000Y-81788000D01*
X106934000Y-81711800D02*
X106934000Y-71934000D01*
X106934000Y-71934000D02*
X106704200Y-71704200D01*
X106704200Y-71704200D02*
X105000000Y-70000000D01*
X103124000Y-81788000D02*
X106095800Y-78816200D01*
X105968800Y-76968800D02*
X105000000Y-76000000D01*
X106095800Y-78816200D02*
X106095800Y-77095800D01*
X106095800Y-77095800D02*
X105968800Y-76968800D01*
X151231600Y-54660800D02*
X151231600Y-57073800D01*
X152292391Y-53600009D02*
X151231600Y-54660800D01*
X152419391Y-53600009D02*
X152292391Y-53600009D01*
X186840000Y-55000000D02*
X185440009Y-53600009D01*
X185440009Y-53600009D02*
X152419391Y-53600009D01*
X113284000Y-81788000D02*
X113284000Y-74757280D01*
X113284000Y-74757280D02*
X114041280Y-74000000D01*
X114041280Y-74000000D02*
X125000000Y-74000000D01*
X143400000Y-77240000D02*
X141248000Y-77240000D01*
X141248000Y-77240000D02*
X139000000Y-74992000D01*
X139000000Y-74992000D02*
X139000000Y-73406000D01*
X139000000Y-73406000D02*
X139000000Y-69000000D01*
D39*
X146685000Y-80137000D02*
X146685000Y-81076800D01*
X143883400Y-79273400D02*
X145821400Y-79273400D01*
X145821400Y-79273400D02*
X146685000Y-80137000D01*
X143400000Y-77240000D02*
X143400000Y-78790000D01*
X143400000Y-78790000D02*
X143883400Y-79273400D01*
X146685000Y-81076800D02*
X146685000Y-82263500D01*
X175260000Y-81051400D02*
X146710400Y-81051400D01*
X146710400Y-81051400D02*
X146685000Y-81076800D01*
X146685000Y-82263500D02*
X146160500Y-82788000D01*
X146160500Y-82788000D02*
X144685500Y-82788000D01*
X185420000Y-106273600D02*
X185420000Y-105410000D01*
X184607200Y-106273600D02*
X185420000Y-106273600D01*
X178308000Y-106273600D02*
X179146200Y-106273600D01*
X179146200Y-106273600D02*
X184607200Y-106273600D01*
X155886400Y-106273600D02*
X164846000Y-106273600D01*
X164846000Y-106273600D02*
X165862000Y-106273600D01*
X165862000Y-106273600D02*
X166878000Y-106273600D01*
X166878000Y-106273600D02*
X177469800Y-106273600D01*
X165862000Y-106273600D02*
X165862000Y-107188000D01*
X177469800Y-106273600D02*
X178308000Y-106273600D01*
X178308000Y-106273600D02*
X178308000Y-107162600D01*
X148740000Y-113420000D02*
X155886400Y-106273600D01*
X176682400Y-81051400D02*
X178054000Y-81051400D01*
X176682400Y-81051400D02*
X176682400Y-81838800D01*
X176682400Y-81838800D02*
X176680000Y-81841200D01*
X176682400Y-81051400D02*
X175260000Y-81051400D01*
D40*
X143400000Y-62000000D02*
X140344020Y-62000000D01*
X140344020Y-62000000D02*
X139000000Y-63344020D01*
X139000000Y-63344020D02*
X139000000Y-66300000D01*
X197000000Y-67700000D02*
X198882000Y-65818000D01*
X198882000Y-65818000D02*
X198882000Y-64643000D01*
X198882000Y-64643000D02*
X198135399Y-63896399D01*
X198135399Y-63896399D02*
X191856201Y-63896399D01*
X191856201Y-63896399D02*
X191846200Y-63906400D01*
X191846200Y-63906400D02*
X188115001Y-63906400D01*
X188115001Y-63906400D02*
X185597800Y-66423601D01*
X146596399Y-66423601D02*
X185597800Y-66423601D01*
X143400000Y-69620000D02*
X146596399Y-66423601D01*
X197000000Y-65160000D02*
X189376001Y-65160000D01*
X144249999Y-71310001D02*
X143400000Y-72160000D01*
X189376001Y-65160000D02*
X185572400Y-68963601D01*
X185572400Y-68963601D02*
X146596399Y-68963601D01*
X146596399Y-68963601D02*
X144249999Y-71310001D01*
X143400000Y-59460000D02*
X141605000Y-57665000D01*
X141605000Y-57665000D02*
X141605000Y-53619400D01*
X142900400Y-52324000D02*
X191784000Y-52324000D01*
X141605000Y-53619400D02*
X142900400Y-52324000D01*
X191784000Y-52324000D02*
X194460000Y-55000000D01*
X128828800Y-78714600D02*
X128828800Y-69672200D01*
X129942781Y-68569840D02*
X129931160Y-68569840D01*
X129931160Y-68569840D02*
X128828800Y-69672200D01*
X137802620Y-60710001D02*
X144000001Y-60710001D01*
X129942781Y-68569840D02*
X137802620Y-60710001D01*
X145008600Y-59701402D02*
X145008600Y-55988600D01*
X145008600Y-55988600D02*
X143400000Y-54380000D01*
X144000001Y-60710001D02*
X145008600Y-59701402D01*
X128066800Y-79476600D02*
X128828800Y-78714600D01*
X120675400Y-79476600D02*
X128066800Y-79476600D01*
X118364000Y-81788000D02*
X120675400Y-79476600D01*
X143400000Y-54380000D02*
X144730001Y-53049999D01*
X144730001Y-53049999D02*
X189969999Y-53049999D01*
X189969999Y-53049999D02*
X191056401Y-54136401D01*
X191056401Y-54136401D02*
X191920000Y-55000000D01*
X197000000Y-82940000D02*
X156598620Y-82940000D01*
X156598620Y-82940000D02*
X152101599Y-82940000D01*
X156598620Y-83713320D02*
X156598620Y-83289056D01*
X156598620Y-83289056D02*
X156598620Y-82940000D01*
X152101599Y-82940000D02*
X150825200Y-84216399D01*
X150825200Y-84216399D02*
X148133471Y-84216399D01*
X148133471Y-84216399D02*
X147705072Y-83788000D01*
X147705072Y-83788000D02*
X144685500Y-83788000D01*
X150939500Y-86743601D02*
X152123599Y-86743601D01*
X152123599Y-86743601D02*
X155041998Y-89662000D01*
X155041998Y-89662000D02*
X192112900Y-89662000D01*
X192112900Y-89662000D02*
X193763900Y-88011000D01*
X193763900Y-88011000D02*
X193776600Y-88011000D01*
X193776600Y-88011000D02*
X194307599Y-87480001D01*
X194307599Y-87480001D02*
X194330129Y-87480001D01*
X194330129Y-87480001D02*
X198263601Y-83546529D01*
X198263601Y-83546529D02*
X198263601Y-81663601D01*
X198263601Y-81663601D02*
X197000000Y-80400000D01*
X148133471Y-86743601D02*
X150939500Y-86743601D01*
X150939500Y-87675720D02*
X150939500Y-87251456D01*
X150939500Y-87251456D02*
X150939500Y-86743601D01*
X144685500Y-84788000D02*
X146177870Y-84788000D01*
X146177870Y-84788000D02*
X148133471Y-86743601D01*
X146939000Y-88015130D02*
X146934870Y-88015130D01*
X146934870Y-88015130D02*
X146304000Y-88646000D01*
X145715670Y-86791800D02*
X146939000Y-88015130D01*
X146939000Y-88015130D02*
X148179470Y-89255600D01*
X154828240Y-91401900D02*
X168440100Y-91401900D01*
X151447500Y-89255600D02*
X152681940Y-89255600D01*
X152681940Y-89255600D02*
X154828240Y-91401900D01*
X148179470Y-89255600D02*
X150431500Y-89255600D01*
X150431500Y-89255600D02*
X151447500Y-89255600D01*
X150495000Y-89319100D02*
X150431500Y-89255600D01*
X144685500Y-86788000D02*
X145160500Y-86788000D01*
X145160500Y-86788000D02*
X145164300Y-86791800D01*
X145164300Y-86791800D02*
X145715670Y-86791800D01*
X168440100Y-91401900D02*
X169164000Y-90678000D01*
D41*
G36*
X199290000Y-149290000D02*
X126931000Y-149290000D01*
X128382820Y-147838180D01*
X128605459Y-147930628D01*
X129454815Y-147931370D01*
X130239800Y-147607020D01*
X130840909Y-147006959D01*
X131166628Y-146222541D01*
X131167370Y-145373185D01*
X130843020Y-144588200D01*
X130242959Y-143987091D01*
X129458541Y-143661372D01*
X128609185Y-143660630D01*
X127824200Y-143984980D01*
X127223091Y-144585041D01*
X126897372Y-145369459D01*
X126896630Y-146218815D01*
X126990062Y-146444938D01*
X126087000Y-147348000D01*
X126087000Y-146081750D01*
X125928250Y-145923000D01*
X124079000Y-145923000D01*
X124079000Y-145943000D01*
X123825000Y-145943000D01*
X123825000Y-145923000D01*
X121975750Y-145923000D01*
X121817000Y-146081750D01*
X121817000Y-147422310D01*
X121913673Y-147655699D01*
X121939174Y-147681200D01*
X117868271Y-147681200D01*
X118047800Y-147607020D01*
X118648909Y-147006959D01*
X118974628Y-146222541D01*
X118975370Y-145373185D01*
X118651020Y-144588200D01*
X118233240Y-144169690D01*
X121817000Y-144169690D01*
X121817000Y-145510250D01*
X121975750Y-145669000D01*
X123825000Y-145669000D01*
X123825000Y-143819750D01*
X124079000Y-143819750D01*
X124079000Y-145669000D01*
X125928250Y-145669000D01*
X126087000Y-145510250D01*
X126087000Y-144169690D01*
X125990327Y-143936301D01*
X125811698Y-143757673D01*
X125578309Y-143661000D01*
X124237750Y-143661000D01*
X124079000Y-143819750D01*
X123825000Y-143819750D01*
X123666250Y-143661000D01*
X122325691Y-143661000D01*
X122092302Y-143757673D01*
X121913673Y-143936301D01*
X121817000Y-144169690D01*
X118233240Y-144169690D01*
X118050959Y-143987091D01*
X117958840Y-143948840D01*
X120825800Y-141081880D01*
X121039321Y-140762323D01*
X121114300Y-140385380D01*
X121114300Y-138500600D01*
X121937370Y-138500600D01*
X121946838Y-138550917D01*
X122085910Y-138767041D01*
X122298110Y-138912031D01*
X122550000Y-138963040D01*
X126050000Y-138963040D01*
X126285317Y-138918762D01*
X126501441Y-138779690D01*
X126646431Y-138567490D01*
X126697440Y-138315600D01*
X126697440Y-137801350D01*
X127315000Y-137801350D01*
X127315000Y-138441910D01*
X127411673Y-138675299D01*
X127590302Y-138853927D01*
X127823691Y-138950600D01*
X129414250Y-138950600D01*
X129573000Y-138791850D01*
X129573000Y-137642600D01*
X127473750Y-137642600D01*
X127315000Y-137801350D01*
X126697440Y-137801350D01*
X126697440Y-136715600D01*
X126673674Y-136589290D01*
X127315000Y-136589290D01*
X127315000Y-137229850D01*
X127473750Y-137388600D01*
X129573000Y-137388600D01*
X129573000Y-136239350D01*
X129414250Y-136080600D01*
X127823691Y-136080600D01*
X127590302Y-136177273D01*
X127411673Y-136355901D01*
X127315000Y-136589290D01*
X126673674Y-136589290D01*
X126653162Y-136480283D01*
X126514090Y-136264159D01*
X126301890Y-136119169D01*
X126050000Y-136068160D01*
X125293840Y-136068160D01*
X126934500Y-134427500D01*
X127148021Y-134107943D01*
X127184709Y-133923500D01*
X127223000Y-133731000D01*
X127223000Y-132557000D01*
X129132000Y-132557000D01*
X131603000Y-135028000D01*
X131603000Y-136091656D01*
X131576309Y-136080600D01*
X129985750Y-136080600D01*
X129827000Y-136239350D01*
X129827000Y-137388600D01*
X129847000Y-137388600D01*
X129847000Y-137642600D01*
X129827000Y-137642600D01*
X129827000Y-138791850D01*
X129985750Y-138950600D01*
X131576309Y-138950600D01*
X131603000Y-138939544D01*
X131603000Y-141655800D01*
X131677979Y-142032743D01*
X131891500Y-142352300D01*
X135422100Y-145882900D01*
X135741657Y-146096421D01*
X136118600Y-146171400D01*
X144856200Y-146171400D01*
X145233143Y-146096421D01*
X145552700Y-145882900D01*
X146158939Y-145276661D01*
X193602758Y-145276661D01*
X193814990Y-145790303D01*
X194207630Y-146183629D01*
X194720900Y-146396757D01*
X195276661Y-146397242D01*
X195790303Y-146185010D01*
X196183629Y-145792370D01*
X196396757Y-145279100D01*
X196397242Y-144723339D01*
X196185010Y-144209697D01*
X195792370Y-143816371D01*
X195279100Y-143603243D01*
X194723339Y-143602758D01*
X194209697Y-143814990D01*
X193816371Y-144207630D01*
X193603243Y-144720900D01*
X193602758Y-145276661D01*
X146158939Y-145276661D01*
X152182100Y-139253500D01*
X152395621Y-138933943D01*
X152428820Y-138767041D01*
X152470600Y-138557000D01*
X152470600Y-136722619D01*
X194764613Y-136722619D01*
X195104155Y-137544372D01*
X195732321Y-138173636D01*
X196553481Y-138514611D01*
X197442619Y-138515387D01*
X198264372Y-138175845D01*
X198893636Y-137547679D01*
X199234611Y-136726519D01*
X199235387Y-135837381D01*
X198895845Y-135015628D01*
X198267679Y-134386364D01*
X197610200Y-134113355D01*
X198059670Y-133813029D01*
X198384526Y-133326848D01*
X198498600Y-132753359D01*
X198498600Y-132694641D01*
X198384526Y-132121152D01*
X198059670Y-131634971D01*
X197788828Y-131454000D01*
X198059670Y-131273029D01*
X198384526Y-130786848D01*
X198498600Y-130213359D01*
X198498600Y-130154641D01*
X198384526Y-129581152D01*
X198059670Y-129094971D01*
X197788828Y-128914000D01*
X198059670Y-128733029D01*
X198384526Y-128246848D01*
X198498600Y-127673359D01*
X198498600Y-127614641D01*
X198384526Y-127041152D01*
X198059670Y-126554971D01*
X197788839Y-126374008D01*
X198206821Y-125992490D01*
X198454968Y-125463027D01*
X198334469Y-125231000D01*
X197127000Y-125231000D01*
X197127000Y-125251000D01*
X196873000Y-125251000D01*
X196873000Y-125231000D01*
X195665531Y-125231000D01*
X195545032Y-125463027D01*
X195793179Y-125992490D01*
X196211161Y-126374008D01*
X195940330Y-126554971D01*
X195615474Y-127041152D01*
X195501400Y-127614641D01*
X195501400Y-127673359D01*
X195615474Y-128246848D01*
X195940330Y-128733029D01*
X196211172Y-128914000D01*
X195940330Y-129094971D01*
X195615474Y-129581152D01*
X195501400Y-130154641D01*
X195501400Y-130213359D01*
X195615474Y-130786848D01*
X195940330Y-131273029D01*
X196211172Y-131454000D01*
X195940330Y-131634971D01*
X195615474Y-132121152D01*
X195501400Y-132694641D01*
X195501400Y-132753359D01*
X195615474Y-133326848D01*
X195940330Y-133813029D01*
X196390263Y-134113665D01*
X195735628Y-134384155D01*
X195106364Y-135012321D01*
X194765389Y-135833481D01*
X194764613Y-136722619D01*
X152470600Y-136722619D01*
X152470600Y-127109187D01*
X161784752Y-127109187D01*
X162002757Y-127636800D01*
X162406077Y-128040824D01*
X162933309Y-128259750D01*
X163504187Y-128260248D01*
X164031800Y-128042243D01*
X164435824Y-127638923D01*
X164654750Y-127111691D01*
X164654795Y-127059677D01*
X183034794Y-127059677D01*
X183214820Y-127495372D01*
X183547875Y-127829009D01*
X183983255Y-128009794D01*
X184454677Y-128010206D01*
X184890372Y-127830180D01*
X185224009Y-127497125D01*
X185404794Y-127061745D01*
X185405206Y-126590323D01*
X185225180Y-126154628D01*
X184892125Y-125820991D01*
X184456745Y-125640206D01*
X183985323Y-125639794D01*
X183549628Y-125819820D01*
X183215991Y-126152875D01*
X183035206Y-126588255D01*
X183034794Y-127059677D01*
X164654795Y-127059677D01*
X164655248Y-126540813D01*
X164437243Y-126013200D01*
X164033923Y-125609176D01*
X163506691Y-125390250D01*
X162935813Y-125389752D01*
X162408200Y-125607757D01*
X162004176Y-126011077D01*
X161785250Y-126538309D01*
X161784752Y-127109187D01*
X152470600Y-127109187D01*
X152470600Y-113082400D01*
X154840000Y-110713000D01*
X158097740Y-110713000D01*
X158097740Y-110906560D01*
X158172719Y-111283503D01*
X158386240Y-111603060D01*
X158705797Y-111816581D01*
X159082740Y-111891560D01*
X159459683Y-111816581D01*
X159779240Y-111603060D01*
X159992761Y-111283503D01*
X160067740Y-110906560D01*
X160067740Y-110713000D01*
X172357300Y-110713000D01*
X172357300Y-111122300D01*
X172432279Y-111499243D01*
X172645800Y-111818800D01*
X172648500Y-111821500D01*
X172968057Y-112035021D01*
X173345000Y-112109999D01*
X173721943Y-112035021D01*
X174041500Y-111821500D01*
X174255021Y-111501943D01*
X174329999Y-111125000D01*
X174327300Y-111111431D01*
X174327300Y-110713000D01*
X184435000Y-110713000D01*
X184435000Y-111252000D01*
X184509979Y-111628943D01*
X184723500Y-111948500D01*
X185043057Y-112162021D01*
X185420000Y-112237000D01*
X185796943Y-112162021D01*
X186116500Y-111948500D01*
X186330021Y-111628943D01*
X186405000Y-111252000D01*
X186405000Y-109834641D01*
X195501400Y-109834641D01*
X195501400Y-109893359D01*
X195615474Y-110466848D01*
X195940330Y-110953029D01*
X196211172Y-111134000D01*
X195940330Y-111314971D01*
X195615474Y-111801152D01*
X195501400Y-112374641D01*
X195501400Y-112433359D01*
X195615474Y-113006848D01*
X195940330Y-113493029D01*
X196211172Y-113674000D01*
X195940330Y-113854971D01*
X195615474Y-114341152D01*
X195501400Y-114914641D01*
X195501400Y-114973359D01*
X195615474Y-115546848D01*
X195940330Y-116033029D01*
X196211172Y-116214000D01*
X195940330Y-116394971D01*
X195615474Y-116881152D01*
X195501400Y-117454641D01*
X195501400Y-117513359D01*
X195615474Y-118086848D01*
X195940330Y-118573029D01*
X196211172Y-118754000D01*
X195940330Y-118934971D01*
X195615474Y-119421152D01*
X195501400Y-119994641D01*
X195501400Y-120053359D01*
X195615474Y-120626848D01*
X195940330Y-121113029D01*
X196211172Y-121294000D01*
X195940330Y-121474971D01*
X195615474Y-121961152D01*
X195501400Y-122534641D01*
X195501400Y-122593359D01*
X195615474Y-123166848D01*
X195940330Y-123653029D01*
X196211161Y-123833992D01*
X195793179Y-124215510D01*
X195545032Y-124744973D01*
X195665531Y-124977000D01*
X196873000Y-124977000D01*
X196873000Y-124957000D01*
X197127000Y-124957000D01*
X197127000Y-124977000D01*
X198334469Y-124977000D01*
X198454968Y-124744973D01*
X198206821Y-124215510D01*
X197788839Y-123833992D01*
X198059670Y-123653029D01*
X198384526Y-123166848D01*
X198498600Y-122593359D01*
X198498600Y-122534641D01*
X198384526Y-121961152D01*
X198059670Y-121474971D01*
X197788828Y-121294000D01*
X198059670Y-121113029D01*
X198384526Y-120626848D01*
X198498600Y-120053359D01*
X198498600Y-119994641D01*
X198384526Y-119421152D01*
X198059670Y-118934971D01*
X197788828Y-118754000D01*
X198059670Y-118573029D01*
X198384526Y-118086848D01*
X198498600Y-117513359D01*
X198498600Y-117454641D01*
X198384526Y-116881152D01*
X198059670Y-116394971D01*
X197788828Y-116214000D01*
X198059670Y-116033029D01*
X198384526Y-115546848D01*
X198498600Y-114973359D01*
X198498600Y-114914641D01*
X198384526Y-114341152D01*
X198059670Y-113854971D01*
X197788828Y-113674000D01*
X198059670Y-113493029D01*
X198384526Y-113006848D01*
X198498600Y-112433359D01*
X198498600Y-112374641D01*
X198384526Y-111801152D01*
X198059670Y-111314971D01*
X197788828Y-111134000D01*
X198059670Y-110953029D01*
X198384526Y-110466848D01*
X198498600Y-109893359D01*
X198498600Y-109834641D01*
X198384526Y-109261152D01*
X198059670Y-108774971D01*
X197573489Y-108450115D01*
X197000000Y-108336041D01*
X196426511Y-108450115D01*
X195940330Y-108774971D01*
X195615474Y-109261152D01*
X195501400Y-109834641D01*
X186405000Y-109834641D01*
X186405000Y-109728000D01*
X186330021Y-109351057D01*
X186116500Y-109031500D01*
X185796943Y-108817979D01*
X185420000Y-108743000D01*
X154810000Y-108743000D01*
X156294400Y-107258600D01*
X164891043Y-107258600D01*
X164951979Y-107564943D01*
X165165500Y-107884500D01*
X165485057Y-108098021D01*
X165862000Y-108173000D01*
X166238943Y-108098021D01*
X166558500Y-107884500D01*
X166772021Y-107564943D01*
X166832957Y-107258600D01*
X177342096Y-107258600D01*
X177397979Y-107539543D01*
X177611500Y-107859100D01*
X177931057Y-108072621D01*
X178308000Y-108147600D01*
X178684943Y-108072621D01*
X179004500Y-107859100D01*
X179218021Y-107539543D01*
X179273904Y-107258600D01*
X185420000Y-107258600D01*
X185796943Y-107183621D01*
X186116500Y-106970100D01*
X186330021Y-106650543D01*
X186405000Y-106273600D01*
X186405000Y-105410000D01*
X186330021Y-105033057D01*
X186116500Y-104713500D01*
X185796943Y-104499979D01*
X185420000Y-104425000D01*
X185043057Y-104499979D01*
X184723500Y-104713500D01*
X184509979Y-105033057D01*
X184459148Y-105288600D01*
X160772891Y-105288600D01*
X160857912Y-105203727D01*
X161000558Y-104860199D01*
X161000882Y-104488233D01*
X160962004Y-104394140D01*
X168187664Y-104394140D01*
X168530161Y-104536358D01*
X168902127Y-104536682D01*
X169245903Y-104394637D01*
X169509152Y-104131847D01*
X169651798Y-103788319D01*
X169652120Y-103418780D01*
X178326758Y-103418780D01*
X178336473Y-103428512D01*
X178680001Y-103571158D01*
X179051967Y-103571482D01*
X179395743Y-103429437D01*
X179658992Y-103166647D01*
X179801638Y-102823119D01*
X179801962Y-102451153D01*
X179677024Y-102148780D01*
X180622914Y-102148780D01*
X180630093Y-102155972D01*
X180973621Y-102298618D01*
X181345587Y-102298942D01*
X181689363Y-102156897D01*
X181952612Y-101894107D01*
X182095258Y-101550579D01*
X182095582Y-101178613D01*
X181953537Y-100834837D01*
X181690747Y-100571588D01*
X181347219Y-100428942D01*
X180975253Y-100428618D01*
X180631477Y-100570663D01*
X180623346Y-100578780D01*
X151958040Y-100578780D01*
X151657634Y-100638535D01*
X151491773Y-100749359D01*
X151402961Y-100808701D01*
X149738042Y-102473620D01*
X143563209Y-102473620D01*
X143175424Y-102085159D01*
X142942990Y-101988644D01*
X143173375Y-101893451D01*
X143563321Y-101504184D01*
X143774619Y-100995322D01*
X143775100Y-100444335D01*
X143564691Y-99935105D01*
X143175424Y-99545159D01*
X142942990Y-99448644D01*
X143173375Y-99353451D01*
X143563321Y-98964184D01*
X143774619Y-98455322D01*
X143775100Y-97904335D01*
X143564691Y-97395105D01*
X143175424Y-97005159D01*
X142942990Y-96908644D01*
X143173375Y-96813451D01*
X143563321Y-96424184D01*
X143774619Y-95915322D01*
X143775100Y-95364335D01*
X143711908Y-95211399D01*
X147320814Y-95211399D01*
X147241400Y-95610641D01*
X147241400Y-95669359D01*
X147355474Y-96242848D01*
X147680330Y-96729029D01*
X147951172Y-96910000D01*
X147680330Y-97090971D01*
X147355474Y-97577152D01*
X147241400Y-98150641D01*
X147241400Y-98209359D01*
X147355474Y-98782848D01*
X147680330Y-99269029D01*
X147951172Y-99450000D01*
X147680330Y-99630971D01*
X147355474Y-100117152D01*
X147241400Y-100690641D01*
X147241400Y-100749359D01*
X147355474Y-101322848D01*
X147680330Y-101809029D01*
X148166511Y-102133885D01*
X148740000Y-102247959D01*
X149313489Y-102133885D01*
X149799670Y-101809029D01*
X150124526Y-101322848D01*
X150238600Y-100749359D01*
X150238600Y-100690641D01*
X150124526Y-100117152D01*
X149799670Y-99630971D01*
X149528828Y-99450000D01*
X149799670Y-99269029D01*
X150124526Y-98782848D01*
X150238600Y-98209359D01*
X150238600Y-98150641D01*
X150124526Y-97577152D01*
X149799670Y-97090971D01*
X149528828Y-96910000D01*
X149799670Y-96729029D01*
X150103687Y-96274035D01*
X150226723Y-96356245D01*
X150527130Y-96416000D01*
X195731171Y-96416000D01*
X195940330Y-96729029D01*
X196211172Y-96910000D01*
X195940330Y-97090971D01*
X195615474Y-97577152D01*
X195501400Y-98150641D01*
X195501400Y-98209359D01*
X195615474Y-98782848D01*
X195940330Y-99269029D01*
X196211172Y-99450000D01*
X195940330Y-99630971D01*
X195615474Y-100117152D01*
X195501400Y-100690641D01*
X195501400Y-100749359D01*
X195615474Y-101322848D01*
X195940330Y-101809029D01*
X196211172Y-101990000D01*
X195940330Y-102170971D01*
X195615474Y-102657152D01*
X195501400Y-103230641D01*
X195501400Y-103289359D01*
X195615474Y-103862848D01*
X195940330Y-104349029D01*
X196211172Y-104530000D01*
X195940330Y-104710971D01*
X195615474Y-105197152D01*
X195501400Y-105770641D01*
X195501400Y-105829359D01*
X195615474Y-106402848D01*
X195940330Y-106889029D01*
X196426511Y-107213885D01*
X197000000Y-107327959D01*
X197573489Y-107213885D01*
X198059670Y-106889029D01*
X198384526Y-106402848D01*
X198498600Y-105829359D01*
X198498600Y-105770641D01*
X198384526Y-105197152D01*
X198059670Y-104710971D01*
X197788828Y-104530000D01*
X198059670Y-104349029D01*
X198384526Y-103862848D01*
X198498600Y-103289359D01*
X198498600Y-103230641D01*
X198384526Y-102657152D01*
X198059670Y-102170971D01*
X197788828Y-101990000D01*
X198059670Y-101809029D01*
X198384526Y-101322848D01*
X198498600Y-100749359D01*
X198498600Y-100690641D01*
X198384526Y-100117152D01*
X198059670Y-99630971D01*
X197788828Y-99450000D01*
X198059670Y-99269029D01*
X198384526Y-98782848D01*
X198498600Y-98209359D01*
X198498600Y-98150641D01*
X198384526Y-97577152D01*
X198059670Y-97090971D01*
X197788828Y-96910000D01*
X198059670Y-96729029D01*
X198384526Y-96242848D01*
X198498600Y-95669359D01*
X198498600Y-95610641D01*
X198384526Y-95037152D01*
X198059670Y-94550971D01*
X197788828Y-94370000D01*
X198059670Y-94189029D01*
X198384526Y-93702848D01*
X198498600Y-93129359D01*
X198498600Y-93070641D01*
X198384526Y-92497152D01*
X198059670Y-92010971D01*
X197788828Y-91830000D01*
X198059670Y-91649029D01*
X198384526Y-91162848D01*
X198498600Y-90589359D01*
X198498600Y-90530641D01*
X198384526Y-89957152D01*
X198059670Y-89470971D01*
X197788828Y-89290000D01*
X198059670Y-89109029D01*
X198384526Y-88622848D01*
X198498600Y-88049359D01*
X198498600Y-87990641D01*
X198384526Y-87417152D01*
X198059670Y-86930971D01*
X197573489Y-86606115D01*
X197000000Y-86492041D01*
X196426511Y-86606115D01*
X196087961Y-86832327D01*
X198818680Y-84101608D01*
X198839591Y-84070312D01*
X198988846Y-83846935D01*
X199048601Y-83546529D01*
X199048601Y-81663601D01*
X198988846Y-81363195D01*
X198818680Y-81108522D01*
X198439024Y-80728866D01*
X198498600Y-80429359D01*
X198498600Y-80370641D01*
X198384526Y-79797152D01*
X198059670Y-79310971D01*
X197788828Y-79130000D01*
X198059670Y-78949029D01*
X198384526Y-78462848D01*
X198498600Y-77889359D01*
X198498600Y-77830641D01*
X198384526Y-77257152D01*
X198059670Y-76770971D01*
X197788828Y-76590000D01*
X198059670Y-76409029D01*
X198384526Y-75922848D01*
X198498600Y-75349359D01*
X198498600Y-75290641D01*
X198384526Y-74717152D01*
X198059670Y-74230971D01*
X197788828Y-74050000D01*
X198059670Y-73869029D01*
X198384526Y-73382848D01*
X198498600Y-72809359D01*
X198498600Y-72750641D01*
X198384526Y-72177152D01*
X198059670Y-71690971D01*
X197788828Y-71510000D01*
X198059670Y-71329029D01*
X198384526Y-70842848D01*
X198498600Y-70269359D01*
X198498600Y-70210641D01*
X198384526Y-69637152D01*
X198059670Y-69150971D01*
X197788828Y-68970000D01*
X198059670Y-68789029D01*
X198384526Y-68302848D01*
X198498600Y-67729359D01*
X198498600Y-67670641D01*
X198439024Y-67371134D01*
X199290000Y-66520158D01*
X199290000Y-149290000D01*
X199290000Y-149290000D01*
G37*
X199290000Y-149290000D02*
X126931000Y-149290000D01*
X128382820Y-147838180D01*
X128605459Y-147930628D01*
X129454815Y-147931370D01*
X130239800Y-147607020D01*
X130840909Y-147006959D01*
X131166628Y-146222541D01*
X131167370Y-145373185D01*
X130843020Y-144588200D01*
X130242959Y-143987091D01*
X129458541Y-143661372D01*
X128609185Y-143660630D01*
X127824200Y-143984980D01*
X127223091Y-144585041D01*
X126897372Y-145369459D01*
X126896630Y-146218815D01*
X126990062Y-146444938D01*
X126087000Y-147348000D01*
X126087000Y-146081750D01*
X125928250Y-145923000D01*
X124079000Y-145923000D01*
X124079000Y-145943000D01*
X123825000Y-145943000D01*
X123825000Y-145923000D01*
X121975750Y-145923000D01*
X121817000Y-146081750D01*
X121817000Y-147422310D01*
X121913673Y-147655699D01*
X121939174Y-147681200D01*
X117868271Y-147681200D01*
X118047800Y-147607020D01*
X118648909Y-147006959D01*
X118974628Y-146222541D01*
X118975370Y-145373185D01*
X118651020Y-144588200D01*
X118233240Y-144169690D01*
X121817000Y-144169690D01*
X121817000Y-145510250D01*
X121975750Y-145669000D01*
X123825000Y-145669000D01*
X123825000Y-143819750D01*
X124079000Y-143819750D01*
X124079000Y-145669000D01*
X125928250Y-145669000D01*
X126087000Y-145510250D01*
X126087000Y-144169690D01*
X125990327Y-143936301D01*
X125811698Y-143757673D01*
X125578309Y-143661000D01*
X124237750Y-143661000D01*
X124079000Y-143819750D01*
X123825000Y-143819750D01*
X123666250Y-143661000D01*
X122325691Y-143661000D01*
X122092302Y-143757673D01*
X121913673Y-143936301D01*
X121817000Y-144169690D01*
X118233240Y-144169690D01*
X118050959Y-143987091D01*
X117958840Y-143948840D01*
X120825800Y-141081880D01*
X121039321Y-140762323D01*
X121114300Y-140385380D01*
X121114300Y-138500600D01*
X121937370Y-138500600D01*
X121946838Y-138550917D01*
X122085910Y-138767041D01*
X122298110Y-138912031D01*
X122550000Y-138963040D01*
X126050000Y-138963040D01*
X126285317Y-138918762D01*
X126501441Y-138779690D01*
X126646431Y-138567490D01*
X126697440Y-138315600D01*
X126697440Y-137801350D01*
X127315000Y-137801350D01*
X127315000Y-138441910D01*
X127411673Y-138675299D01*
X127590302Y-138853927D01*
X127823691Y-138950600D01*
X129414250Y-138950600D01*
X129573000Y-138791850D01*
X129573000Y-137642600D01*
X127473750Y-137642600D01*
X127315000Y-137801350D01*
X126697440Y-137801350D01*
X126697440Y-136715600D01*
X126673674Y-136589290D01*
X127315000Y-136589290D01*
X127315000Y-137229850D01*
X127473750Y-137388600D01*
X129573000Y-137388600D01*
X129573000Y-136239350D01*
X129414250Y-136080600D01*
X127823691Y-136080600D01*
X127590302Y-136177273D01*
X127411673Y-136355901D01*
X127315000Y-136589290D01*
X126673674Y-136589290D01*
X126653162Y-136480283D01*
X126514090Y-136264159D01*
X126301890Y-136119169D01*
X126050000Y-136068160D01*
X125293840Y-136068160D01*
X126934500Y-134427500D01*
X127148021Y-134107943D01*
X127184709Y-133923500D01*
X127223000Y-133731000D01*
X127223000Y-132557000D01*
X129132000Y-132557000D01*
X131603000Y-135028000D01*
X131603000Y-136091656D01*
X131576309Y-136080600D01*
X129985750Y-136080600D01*
X129827000Y-136239350D01*
X129827000Y-137388600D01*
X129847000Y-137388600D01*
X129847000Y-137642600D01*
X129827000Y-137642600D01*
X129827000Y-138791850D01*
X129985750Y-138950600D01*
X131576309Y-138950600D01*
X131603000Y-138939544D01*
X131603000Y-141655800D01*
X131677979Y-142032743D01*
X131891500Y-142352300D01*
X135422100Y-145882900D01*
X135741657Y-146096421D01*
X136118600Y-146171400D01*
X144856200Y-146171400D01*
X145233143Y-146096421D01*
X145552700Y-145882900D01*
X146158939Y-145276661D01*
X193602758Y-145276661D01*
X193814990Y-145790303D01*
X194207630Y-146183629D01*
X194720900Y-146396757D01*
X195276661Y-146397242D01*
X195790303Y-146185010D01*
X196183629Y-145792370D01*
X196396757Y-145279100D01*
X196397242Y-144723339D01*
X196185010Y-144209697D01*
X195792370Y-143816371D01*
X195279100Y-143603243D01*
X194723339Y-143602758D01*
X194209697Y-143814990D01*
X193816371Y-144207630D01*
X193603243Y-144720900D01*
X193602758Y-145276661D01*
X146158939Y-145276661D01*
X152182100Y-139253500D01*
X152395621Y-138933943D01*
X152428820Y-138767041D01*
X152470600Y-138557000D01*
X152470600Y-136722619D01*
X194764613Y-136722619D01*
X195104155Y-137544372D01*
X195732321Y-138173636D01*
X196553481Y-138514611D01*
X197442619Y-138515387D01*
X198264372Y-138175845D01*
X198893636Y-137547679D01*
X199234611Y-136726519D01*
X199235387Y-135837381D01*
X198895845Y-135015628D01*
X198267679Y-134386364D01*
X197610200Y-134113355D01*
X198059670Y-133813029D01*
X198384526Y-133326848D01*
X198498600Y-132753359D01*
X198498600Y-132694641D01*
X198384526Y-132121152D01*
X198059670Y-131634971D01*
X197788828Y-131454000D01*
X198059670Y-131273029D01*
X198384526Y-130786848D01*
X198498600Y-130213359D01*
X198498600Y-130154641D01*
X198384526Y-129581152D01*
X198059670Y-129094971D01*
X197788828Y-128914000D01*
X198059670Y-128733029D01*
X198384526Y-128246848D01*
X198498600Y-127673359D01*
X198498600Y-127614641D01*
X198384526Y-127041152D01*
X198059670Y-126554971D01*
X197788839Y-126374008D01*
X198206821Y-125992490D01*
X198454968Y-125463027D01*
X198334469Y-125231000D01*
X197127000Y-125231000D01*
X197127000Y-125251000D01*
X196873000Y-125251000D01*
X196873000Y-125231000D01*
X195665531Y-125231000D01*
X195545032Y-125463027D01*
X195793179Y-125992490D01*
X196211161Y-126374008D01*
X195940330Y-126554971D01*
X195615474Y-127041152D01*
X195501400Y-127614641D01*
X195501400Y-127673359D01*
X195615474Y-128246848D01*
X195940330Y-128733029D01*
X196211172Y-128914000D01*
X195940330Y-129094971D01*
X195615474Y-129581152D01*
X195501400Y-130154641D01*
X195501400Y-130213359D01*
X195615474Y-130786848D01*
X195940330Y-131273029D01*
X196211172Y-131454000D01*
X195940330Y-131634971D01*
X195615474Y-132121152D01*
X195501400Y-132694641D01*
X195501400Y-132753359D01*
X195615474Y-133326848D01*
X195940330Y-133813029D01*
X196390263Y-134113665D01*
X195735628Y-134384155D01*
X195106364Y-135012321D01*
X194765389Y-135833481D01*
X194764613Y-136722619D01*
X152470600Y-136722619D01*
X152470600Y-127109187D01*
X161784752Y-127109187D01*
X162002757Y-127636800D01*
X162406077Y-128040824D01*
X162933309Y-128259750D01*
X163504187Y-128260248D01*
X164031800Y-128042243D01*
X164435824Y-127638923D01*
X164654750Y-127111691D01*
X164654795Y-127059677D01*
X183034794Y-127059677D01*
X183214820Y-127495372D01*
X183547875Y-127829009D01*
X183983255Y-128009794D01*
X184454677Y-128010206D01*
X184890372Y-127830180D01*
X185224009Y-127497125D01*
X185404794Y-127061745D01*
X185405206Y-126590323D01*
X185225180Y-126154628D01*
X184892125Y-125820991D01*
X184456745Y-125640206D01*
X183985323Y-125639794D01*
X183549628Y-125819820D01*
X183215991Y-126152875D01*
X183035206Y-126588255D01*
X183034794Y-127059677D01*
X164654795Y-127059677D01*
X164655248Y-126540813D01*
X164437243Y-126013200D01*
X164033923Y-125609176D01*
X163506691Y-125390250D01*
X162935813Y-125389752D01*
X162408200Y-125607757D01*
X162004176Y-126011077D01*
X161785250Y-126538309D01*
X161784752Y-127109187D01*
X152470600Y-127109187D01*
X152470600Y-113082400D01*
X154840000Y-110713000D01*
X158097740Y-110713000D01*
X158097740Y-110906560D01*
X158172719Y-111283503D01*
X158386240Y-111603060D01*
X158705797Y-111816581D01*
X159082740Y-111891560D01*
X159459683Y-111816581D01*
X159779240Y-111603060D01*
X159992761Y-111283503D01*
X160067740Y-110906560D01*
X160067740Y-110713000D01*
X172357300Y-110713000D01*
X172357300Y-111122300D01*
X172432279Y-111499243D01*
X172645800Y-111818800D01*
X172648500Y-111821500D01*
X172968057Y-112035021D01*
X173345000Y-112109999D01*
X173721943Y-112035021D01*
X174041500Y-111821500D01*
X174255021Y-111501943D01*
X174329999Y-111125000D01*
X174327300Y-111111431D01*
X174327300Y-110713000D01*
X184435000Y-110713000D01*
X184435000Y-111252000D01*
X184509979Y-111628943D01*
X184723500Y-111948500D01*
X185043057Y-112162021D01*
X185420000Y-112237000D01*
X185796943Y-112162021D01*
X186116500Y-111948500D01*
X186330021Y-111628943D01*
X186405000Y-111252000D01*
X186405000Y-109834641D01*
X195501400Y-109834641D01*
X195501400Y-109893359D01*
X195615474Y-110466848D01*
X195940330Y-110953029D01*
X196211172Y-111134000D01*
X195940330Y-111314971D01*
X195615474Y-111801152D01*
X195501400Y-112374641D01*
X195501400Y-112433359D01*
X195615474Y-113006848D01*
X195940330Y-113493029D01*
X196211172Y-113674000D01*
X195940330Y-113854971D01*
X195615474Y-114341152D01*
X195501400Y-114914641D01*
X195501400Y-114973359D01*
X195615474Y-115546848D01*
X195940330Y-116033029D01*
X196211172Y-116214000D01*
X195940330Y-116394971D01*
X195615474Y-116881152D01*
X195501400Y-117454641D01*
X195501400Y-117513359D01*
X195615474Y-118086848D01*
X195940330Y-118573029D01*
X196211172Y-118754000D01*
X195940330Y-118934971D01*
X195615474Y-119421152D01*
X195501400Y-119994641D01*
X195501400Y-120053359D01*
X195615474Y-120626848D01*
X195940330Y-121113029D01*
X196211172Y-121294000D01*
X195940330Y-121474971D01*
X195615474Y-121961152D01*
X195501400Y-122534641D01*
X195501400Y-122593359D01*
X195615474Y-123166848D01*
X195940330Y-123653029D01*
X196211161Y-123833992D01*
X195793179Y-124215510D01*
X195545032Y-124744973D01*
X195665531Y-124977000D01*
X196873000Y-124977000D01*
X196873000Y-124957000D01*
X197127000Y-124957000D01*
X197127000Y-124977000D01*
X198334469Y-124977000D01*
X198454968Y-124744973D01*
X198206821Y-124215510D01*
X197788839Y-123833992D01*
X198059670Y-123653029D01*
X198384526Y-123166848D01*
X198498600Y-122593359D01*
X198498600Y-122534641D01*
X198384526Y-121961152D01*
X198059670Y-121474971D01*
X197788828Y-121294000D01*
X198059670Y-121113029D01*
X198384526Y-120626848D01*
X198498600Y-120053359D01*
X198498600Y-119994641D01*
X198384526Y-119421152D01*
X198059670Y-118934971D01*
X197788828Y-118754000D01*
X198059670Y-118573029D01*
X198384526Y-118086848D01*
X198498600Y-117513359D01*
X198498600Y-117454641D01*
X198384526Y-116881152D01*
X198059670Y-116394971D01*
X197788828Y-116214000D01*
X198059670Y-116033029D01*
X198384526Y-115546848D01*
X198498600Y-114973359D01*
X198498600Y-114914641D01*
X198384526Y-114341152D01*
X198059670Y-113854971D01*
X197788828Y-113674000D01*
X198059670Y-113493029D01*
X198384526Y-113006848D01*
X198498600Y-112433359D01*
X198498600Y-112374641D01*
X198384526Y-111801152D01*
X198059670Y-111314971D01*
X197788828Y-111134000D01*
X198059670Y-110953029D01*
X198384526Y-110466848D01*
X198498600Y-109893359D01*
X198498600Y-109834641D01*
X198384526Y-109261152D01*
X198059670Y-108774971D01*
X197573489Y-108450115D01*
X197000000Y-108336041D01*
X196426511Y-108450115D01*
X195940330Y-108774971D01*
X195615474Y-109261152D01*
X195501400Y-109834641D01*
X186405000Y-109834641D01*
X186405000Y-109728000D01*
X186330021Y-109351057D01*
X186116500Y-109031500D01*
X185796943Y-108817979D01*
X185420000Y-108743000D01*
X154810000Y-108743000D01*
X156294400Y-107258600D01*
X164891043Y-107258600D01*
X164951979Y-107564943D01*
X165165500Y-107884500D01*
X165485057Y-108098021D01*
X165862000Y-108173000D01*
X166238943Y-108098021D01*
X166558500Y-107884500D01*
X166772021Y-107564943D01*
X166832957Y-107258600D01*
X177342096Y-107258600D01*
X177397979Y-107539543D01*
X177611500Y-107859100D01*
X177931057Y-108072621D01*
X178308000Y-108147600D01*
X178684943Y-108072621D01*
X179004500Y-107859100D01*
X179218021Y-107539543D01*
X179273904Y-107258600D01*
X185420000Y-107258600D01*
X185796943Y-107183621D01*
X186116500Y-106970100D01*
X186330021Y-106650543D01*
X186405000Y-106273600D01*
X186405000Y-105410000D01*
X186330021Y-105033057D01*
X186116500Y-104713500D01*
X185796943Y-104499979D01*
X185420000Y-104425000D01*
X185043057Y-104499979D01*
X184723500Y-104713500D01*
X184509979Y-105033057D01*
X184459148Y-105288600D01*
X160772891Y-105288600D01*
X160857912Y-105203727D01*
X161000558Y-104860199D01*
X161000882Y-104488233D01*
X160962004Y-104394140D01*
X168187664Y-104394140D01*
X168530161Y-104536358D01*
X168902127Y-104536682D01*
X169245903Y-104394637D01*
X169509152Y-104131847D01*
X169651798Y-103788319D01*
X169652120Y-103418780D01*
X178326758Y-103418780D01*
X178336473Y-103428512D01*
X178680001Y-103571158D01*
X179051967Y-103571482D01*
X179395743Y-103429437D01*
X179658992Y-103166647D01*
X179801638Y-102823119D01*
X179801962Y-102451153D01*
X179677024Y-102148780D01*
X180622914Y-102148780D01*
X180630093Y-102155972D01*
X180973621Y-102298618D01*
X181345587Y-102298942D01*
X181689363Y-102156897D01*
X181952612Y-101894107D01*
X182095258Y-101550579D01*
X182095582Y-101178613D01*
X181953537Y-100834837D01*
X181690747Y-100571588D01*
X181347219Y-100428942D01*
X180975253Y-100428618D01*
X180631477Y-100570663D01*
X180623346Y-100578780D01*
X151958040Y-100578780D01*
X151657634Y-100638535D01*
X151491773Y-100749359D01*
X151402961Y-100808701D01*
X149738042Y-102473620D01*
X143563209Y-102473620D01*
X143175424Y-102085159D01*
X142942990Y-101988644D01*
X143173375Y-101893451D01*
X143563321Y-101504184D01*
X143774619Y-100995322D01*
X143775100Y-100444335D01*
X143564691Y-99935105D01*
X143175424Y-99545159D01*
X142942990Y-99448644D01*
X143173375Y-99353451D01*
X143563321Y-98964184D01*
X143774619Y-98455322D01*
X143775100Y-97904335D01*
X143564691Y-97395105D01*
X143175424Y-97005159D01*
X142942990Y-96908644D01*
X143173375Y-96813451D01*
X143563321Y-96424184D01*
X143774619Y-95915322D01*
X143775100Y-95364335D01*
X143711908Y-95211399D01*
X147320814Y-95211399D01*
X147241400Y-95610641D01*
X147241400Y-95669359D01*
X147355474Y-96242848D01*
X147680330Y-96729029D01*
X147951172Y-96910000D01*
X147680330Y-97090971D01*
X147355474Y-97577152D01*
X147241400Y-98150641D01*
X147241400Y-98209359D01*
X147355474Y-98782848D01*
X147680330Y-99269029D01*
X147951172Y-99450000D01*
X147680330Y-99630971D01*
X147355474Y-100117152D01*
X147241400Y-100690641D01*
X147241400Y-100749359D01*
X147355474Y-101322848D01*
X147680330Y-101809029D01*
X148166511Y-102133885D01*
X148740000Y-102247959D01*
X149313489Y-102133885D01*
X149799670Y-101809029D01*
X150124526Y-101322848D01*
X150238600Y-100749359D01*
X150238600Y-100690641D01*
X150124526Y-100117152D01*
X149799670Y-99630971D01*
X149528828Y-99450000D01*
X149799670Y-99269029D01*
X150124526Y-98782848D01*
X150238600Y-98209359D01*
X150238600Y-98150641D01*
X150124526Y-97577152D01*
X149799670Y-97090971D01*
X149528828Y-96910000D01*
X149799670Y-96729029D01*
X150103687Y-96274035D01*
X150226723Y-96356245D01*
X150527130Y-96416000D01*
X195731171Y-96416000D01*
X195940330Y-96729029D01*
X196211172Y-96910000D01*
X195940330Y-97090971D01*
X195615474Y-97577152D01*
X195501400Y-98150641D01*
X195501400Y-98209359D01*
X195615474Y-98782848D01*
X195940330Y-99269029D01*
X196211172Y-99450000D01*
X195940330Y-99630971D01*
X195615474Y-100117152D01*
X195501400Y-100690641D01*
X195501400Y-100749359D01*
X195615474Y-101322848D01*
X195940330Y-101809029D01*
X196211172Y-101990000D01*
X195940330Y-102170971D01*
X195615474Y-102657152D01*
X195501400Y-103230641D01*
X195501400Y-103289359D01*
X195615474Y-103862848D01*
X195940330Y-104349029D01*
X196211172Y-104530000D01*
X195940330Y-104710971D01*
X195615474Y-105197152D01*
X195501400Y-105770641D01*
X195501400Y-105829359D01*
X195615474Y-106402848D01*
X195940330Y-106889029D01*
X196426511Y-107213885D01*
X197000000Y-107327959D01*
X197573489Y-107213885D01*
X198059670Y-106889029D01*
X198384526Y-106402848D01*
X198498600Y-105829359D01*
X198498600Y-105770641D01*
X198384526Y-105197152D01*
X198059670Y-104710971D01*
X197788828Y-104530000D01*
X198059670Y-104349029D01*
X198384526Y-103862848D01*
X198498600Y-103289359D01*
X198498600Y-103230641D01*
X198384526Y-102657152D01*
X198059670Y-102170971D01*
X197788828Y-101990000D01*
X198059670Y-101809029D01*
X198384526Y-101322848D01*
X198498600Y-100749359D01*
X198498600Y-100690641D01*
X198384526Y-100117152D01*
X198059670Y-99630971D01*
X197788828Y-99450000D01*
X198059670Y-99269029D01*
X198384526Y-98782848D01*
X198498600Y-98209359D01*
X198498600Y-98150641D01*
X198384526Y-97577152D01*
X198059670Y-97090971D01*
X197788828Y-96910000D01*
X198059670Y-96729029D01*
X198384526Y-96242848D01*
X198498600Y-95669359D01*
X198498600Y-95610641D01*
X198384526Y-95037152D01*
X198059670Y-94550971D01*
X197788828Y-94370000D01*
X198059670Y-94189029D01*
X198384526Y-93702848D01*
X198498600Y-93129359D01*
X198498600Y-93070641D01*
X198384526Y-92497152D01*
X198059670Y-92010971D01*
X197788828Y-91830000D01*
X198059670Y-91649029D01*
X198384526Y-91162848D01*
X198498600Y-90589359D01*
X198498600Y-90530641D01*
X198384526Y-89957152D01*
X198059670Y-89470971D01*
X197788828Y-89290000D01*
X198059670Y-89109029D01*
X198384526Y-88622848D01*
X198498600Y-88049359D01*
X198498600Y-87990641D01*
X198384526Y-87417152D01*
X198059670Y-86930971D01*
X197573489Y-86606115D01*
X197000000Y-86492041D01*
X196426511Y-86606115D01*
X196087961Y-86832327D01*
X198818680Y-84101608D01*
X198839591Y-84070312D01*
X198988846Y-83846935D01*
X199048601Y-83546529D01*
X199048601Y-81663601D01*
X198988846Y-81363195D01*
X198818680Y-81108522D01*
X198439024Y-80728866D01*
X198498600Y-80429359D01*
X198498600Y-80370641D01*
X198384526Y-79797152D01*
X198059670Y-79310971D01*
X197788828Y-79130000D01*
X198059670Y-78949029D01*
X198384526Y-78462848D01*
X198498600Y-77889359D01*
X198498600Y-77830641D01*
X198384526Y-77257152D01*
X198059670Y-76770971D01*
X197788828Y-76590000D01*
X198059670Y-76409029D01*
X198384526Y-75922848D01*
X198498600Y-75349359D01*
X198498600Y-75290641D01*
X198384526Y-74717152D01*
X198059670Y-74230971D01*
X197788828Y-74050000D01*
X198059670Y-73869029D01*
X198384526Y-73382848D01*
X198498600Y-72809359D01*
X198498600Y-72750641D01*
X198384526Y-72177152D01*
X198059670Y-71690971D01*
X197788828Y-71510000D01*
X198059670Y-71329029D01*
X198384526Y-70842848D01*
X198498600Y-70269359D01*
X198498600Y-70210641D01*
X198384526Y-69637152D01*
X198059670Y-69150971D01*
X197788828Y-68970000D01*
X198059670Y-68789029D01*
X198384526Y-68302848D01*
X198498600Y-67729359D01*
X198498600Y-67670641D01*
X198439024Y-67371134D01*
X199290000Y-66520158D01*
X199290000Y-149290000D01*
G36*
X103037100Y-86624700D02*
X103356657Y-86838221D01*
X103733600Y-86913200D01*
X133807200Y-86913200D01*
X133845508Y-86905580D01*
X134097700Y-86905580D01*
X134144680Y-86952560D01*
X131100000Y-86952560D01*
X130864683Y-86996838D01*
X130648559Y-87135910D01*
X130503569Y-87348110D01*
X130452560Y-87600000D01*
X130452560Y-88600000D01*
X130496838Y-88835317D01*
X130635910Y-89051441D01*
X130848110Y-89196431D01*
X131100000Y-89247440D01*
X132752560Y-89247440D01*
X132752560Y-90900000D01*
X132796838Y-91135317D01*
X132935910Y-91351441D01*
X133148110Y-91496431D01*
X133400000Y-91547440D01*
X134400000Y-91547440D01*
X134635317Y-91503162D01*
X134851441Y-91364090D01*
X134869440Y-91337748D01*
X134869440Y-92656873D01*
X134864090Y-92648559D01*
X134651890Y-92503569D01*
X134400000Y-92452560D01*
X133400000Y-92452560D01*
X133164683Y-92496838D01*
X132948559Y-92635910D01*
X132803569Y-92848110D01*
X132752560Y-93100000D01*
X132752560Y-96900000D01*
X132796838Y-97135317D01*
X132935910Y-97351441D01*
X133148110Y-97496431D01*
X133400000Y-97547440D01*
X134400000Y-97547440D01*
X134635317Y-97503162D01*
X134851441Y-97364090D01*
X134869440Y-97337748D01*
X134869440Y-98656873D01*
X134864090Y-98648559D01*
X134651890Y-98503569D01*
X134400000Y-98452560D01*
X133400000Y-98452560D01*
X133164683Y-98496838D01*
X132948559Y-98635910D01*
X132803569Y-98848110D01*
X132752560Y-99100000D01*
X132752560Y-102900000D01*
X132796838Y-103135317D01*
X132935910Y-103351441D01*
X133148110Y-103496431D01*
X133400000Y-103547440D01*
X134400000Y-103547440D01*
X134635317Y-103503162D01*
X134851441Y-103364090D01*
X134869440Y-103337748D01*
X134869440Y-104656873D01*
X134864090Y-104648559D01*
X134651890Y-104503569D01*
X134400000Y-104452560D01*
X133400000Y-104452560D01*
X133164683Y-104496838D01*
X132948559Y-104635910D01*
X132803569Y-104848110D01*
X132752560Y-105100000D01*
X132752560Y-108900000D01*
X132796838Y-109135317D01*
X132935910Y-109351441D01*
X133148110Y-109496431D01*
X133400000Y-109547440D01*
X134400000Y-109547440D01*
X134635317Y-109503162D01*
X134851441Y-109364090D01*
X134869440Y-109337748D01*
X134869440Y-110656873D01*
X134864090Y-110648559D01*
X134651890Y-110503569D01*
X134400000Y-110452560D01*
X133400000Y-110452560D01*
X133164683Y-110496838D01*
X132948559Y-110635910D01*
X132803569Y-110848110D01*
X132752560Y-111100000D01*
X132752560Y-114900000D01*
X132796838Y-115135317D01*
X132935910Y-115351441D01*
X133148110Y-115496431D01*
X133400000Y-115547440D01*
X134400000Y-115547440D01*
X134635317Y-115503162D01*
X134851441Y-115364090D01*
X134869440Y-115337748D01*
X134869440Y-116656873D01*
X134864090Y-116648559D01*
X134651890Y-116503569D01*
X134400000Y-116452560D01*
X133400000Y-116452560D01*
X133164683Y-116496838D01*
X132948559Y-116635910D01*
X132803569Y-116848110D01*
X132752560Y-117100000D01*
X132752560Y-118752560D01*
X131100000Y-118752560D01*
X130864683Y-118796838D01*
X130648559Y-118935910D01*
X130503569Y-119148110D01*
X130452560Y-119400000D01*
X130452560Y-120400000D01*
X130496838Y-120635317D01*
X130635910Y-120851441D01*
X130848110Y-120996431D01*
X131100000Y-121047440D01*
X134400000Y-121047440D01*
X134635317Y-121003162D01*
X134851441Y-120864090D01*
X134869440Y-120837748D01*
X134869440Y-121759980D01*
X134944419Y-122136923D01*
X135157940Y-122456480D01*
X138848560Y-126147100D01*
X139168117Y-126360621D01*
X139545060Y-126435600D01*
X150500600Y-126435600D01*
X150500600Y-136150147D01*
X150007679Y-135656364D01*
X149186519Y-135315389D01*
X148297381Y-135314613D01*
X147475628Y-135654155D01*
X146846364Y-136282321D01*
X146505389Y-137103481D01*
X146504613Y-137992619D01*
X146844155Y-138814372D01*
X147472321Y-139443636D01*
X148293481Y-139784611D01*
X148864491Y-139785109D01*
X144448200Y-144201400D01*
X140177000Y-144201400D01*
X140177000Y-140183294D01*
X140202400Y-140055600D01*
X140177000Y-139927906D01*
X140177000Y-139674653D01*
X140375629Y-139476370D01*
X140588757Y-138963100D01*
X140589242Y-138407339D01*
X140377010Y-137893697D01*
X139984370Y-137500371D01*
X139471100Y-137287243D01*
X138915339Y-137286758D01*
X138401697Y-137498990D01*
X138008371Y-137891630D01*
X137795243Y-138404900D01*
X137794758Y-138960661D01*
X138006990Y-139474303D01*
X138207000Y-139674662D01*
X138207000Y-144201400D01*
X136526600Y-144201400D01*
X133573000Y-141247800D01*
X133573000Y-134620000D01*
X133498021Y-134243057D01*
X133284500Y-133923500D01*
X130236500Y-130875500D01*
X129916943Y-130661979D01*
X129540000Y-130587000D01*
X127223000Y-130587000D01*
X127223000Y-128301750D01*
X128365000Y-128301750D01*
X128365000Y-129392310D01*
X128461673Y-129625699D01*
X128640302Y-129804327D01*
X128873691Y-129901000D01*
X130714250Y-129901000D01*
X130873000Y-129742250D01*
X130873000Y-128143000D01*
X131127000Y-128143000D01*
X131127000Y-129742250D01*
X131285750Y-129901000D01*
X133126309Y-129901000D01*
X133359698Y-129804327D01*
X133538327Y-129625699D01*
X133635000Y-129392310D01*
X133635000Y-128301750D01*
X133476250Y-128143000D01*
X131127000Y-128143000D01*
X130873000Y-128143000D01*
X128523750Y-128143000D01*
X128365000Y-128301750D01*
X127223000Y-128301750D01*
X127223000Y-126639690D01*
X128365000Y-126639690D01*
X128365000Y-127730250D01*
X128523750Y-127889000D01*
X130873000Y-127889000D01*
X130873000Y-126289750D01*
X131127000Y-126289750D01*
X131127000Y-127889000D01*
X133476250Y-127889000D01*
X133635000Y-127730250D01*
X133635000Y-126639690D01*
X133538327Y-126406301D01*
X133359698Y-126227673D01*
X133126309Y-126131000D01*
X131285750Y-126131000D01*
X131127000Y-126289750D01*
X130873000Y-126289750D01*
X130714250Y-126131000D01*
X128873691Y-126131000D01*
X128640302Y-126227673D01*
X128461673Y-126406301D01*
X128365000Y-126639690D01*
X127223000Y-126639690D01*
X127223000Y-126136400D01*
X127148021Y-125759457D01*
X126934500Y-125439900D01*
X125766100Y-124271500D01*
X125446543Y-124057979D01*
X125069600Y-123983000D01*
X118079440Y-123983000D01*
X118079440Y-123868000D01*
X118035162Y-123632683D01*
X117910144Y-123438400D01*
X131672000Y-123438400D01*
X138207000Y-129973400D01*
X138207000Y-132693347D01*
X138008371Y-132891630D01*
X137795243Y-133404900D01*
X137794758Y-133960661D01*
X138006990Y-134474303D01*
X138399630Y-134867629D01*
X138912900Y-135080757D01*
X139468661Y-135081242D01*
X139982303Y-134869010D01*
X140375629Y-134476370D01*
X140588757Y-133963100D01*
X140589242Y-133407339D01*
X140377010Y-132893697D01*
X140177000Y-132693338D01*
X140177000Y-129565400D01*
X140102021Y-129188457D01*
X139888500Y-128868900D01*
X132776500Y-121756900D01*
X132456943Y-121543379D01*
X132080000Y-121468400D01*
X113995200Y-121468400D01*
X113618257Y-121543379D01*
X113298700Y-121756900D01*
X112079500Y-122976100D01*
X111865979Y-123295657D01*
X111791000Y-123672600D01*
X111791000Y-126923800D01*
X111865979Y-127300743D01*
X112079500Y-127620300D01*
X113984500Y-129525300D01*
X113987044Y-129527000D01*
X113397691Y-129527000D01*
X113164302Y-129623673D01*
X112985673Y-129802301D01*
X112889000Y-130035690D01*
X112889000Y-130426250D01*
X113047750Y-130585000D01*
X115697000Y-130585000D01*
X115697000Y-130565000D01*
X115951000Y-130565000D01*
X115951000Y-130585000D01*
X118600250Y-130585000D01*
X118759000Y-130426250D01*
X118759000Y-130035690D01*
X118738854Y-129987054D01*
X119030000Y-130278200D01*
X119030000Y-130813000D01*
X118759000Y-131084000D01*
X118759000Y-130997750D01*
X118600250Y-130839000D01*
X115951000Y-130839000D01*
X115951000Y-130859000D01*
X115697000Y-130859000D01*
X115697000Y-130839000D01*
X113047750Y-130839000D01*
X112889000Y-130997750D01*
X112889000Y-131388310D01*
X112960755Y-131561541D01*
X112927569Y-131610110D01*
X112876560Y-131862000D01*
X112876560Y-132962000D01*
X112920838Y-133197317D01*
X112961538Y-133260567D01*
X112889000Y-133435690D01*
X112889000Y-133826250D01*
X113047750Y-133985000D01*
X115697000Y-133985000D01*
X115697000Y-133965000D01*
X115951000Y-133965000D01*
X115951000Y-133985000D01*
X118600250Y-133985000D01*
X118759000Y-133826250D01*
X118759000Y-133435690D01*
X118742974Y-133397000D01*
X118824000Y-133397000D01*
X119200943Y-133322021D01*
X119520500Y-133108500D01*
X120711500Y-131917500D01*
X120925021Y-131597943D01*
X120940286Y-131521200D01*
X121000000Y-131221000D01*
X121000000Y-129913440D01*
X125000000Y-129913440D01*
X125235317Y-129869162D01*
X125253000Y-129857783D01*
X125253000Y-133323000D01*
X123749000Y-134827000D01*
X118742974Y-134827000D01*
X118759000Y-134788310D01*
X118759000Y-134397750D01*
X118600250Y-134239000D01*
X115951000Y-134239000D01*
X115951000Y-134259000D01*
X115697000Y-134259000D01*
X115697000Y-134239000D01*
X113047750Y-134239000D01*
X112889000Y-134397750D01*
X112889000Y-134788310D01*
X112960755Y-134961541D01*
X112927569Y-135010110D01*
X112876560Y-135262000D01*
X112876560Y-136362000D01*
X112920838Y-136597317D01*
X112961481Y-136660478D01*
X112927569Y-136710110D01*
X112876560Y-136962000D01*
X112876560Y-138062000D01*
X112920838Y-138297317D01*
X113059910Y-138513441D01*
X113272110Y-138658431D01*
X113524000Y-138709440D01*
X118124000Y-138709440D01*
X118359317Y-138665162D01*
X118575441Y-138526090D01*
X118592858Y-138500600D01*
X119144300Y-138500600D01*
X119144300Y-139977380D01*
X116143500Y-142978180D01*
X115929979Y-143297737D01*
X115855000Y-143674680D01*
X115855000Y-143892921D01*
X115632200Y-143984980D01*
X115031091Y-144585041D01*
X114705372Y-145369459D01*
X114704630Y-146218815D01*
X115028980Y-147003800D01*
X115629041Y-147604909D01*
X115812770Y-147681200D01*
X113765344Y-147681200D01*
X113856431Y-147547890D01*
X113907440Y-147296000D01*
X113907440Y-144296000D01*
X113863162Y-144060683D01*
X113724090Y-143844559D01*
X113511890Y-143699569D01*
X113260000Y-143648560D01*
X110260000Y-143648560D01*
X110024683Y-143692838D01*
X109808559Y-143831910D01*
X109663569Y-144044110D01*
X109612560Y-144296000D01*
X109612560Y-147296000D01*
X109656838Y-147531317D01*
X109795910Y-147747441D01*
X110008110Y-147892431D01*
X110260000Y-147943440D01*
X110775000Y-147943440D01*
X110775000Y-147996000D01*
X110849979Y-148372943D01*
X111063500Y-148692500D01*
X111661000Y-149290000D01*
X100710000Y-149290000D01*
X100710000Y-145442619D01*
X102764613Y-145442619D01*
X103104155Y-146264372D01*
X103732321Y-146893636D01*
X104553481Y-147234611D01*
X105442619Y-147235387D01*
X106264372Y-146895845D01*
X106893636Y-146267679D01*
X107234611Y-145446519D01*
X107235387Y-144557381D01*
X106895845Y-143735628D01*
X106267679Y-143106364D01*
X105446519Y-142765389D01*
X104557381Y-142764613D01*
X103735628Y-143104155D01*
X103106364Y-143732321D01*
X102765389Y-144553481D01*
X102764613Y-145442619D01*
X100710000Y-145442619D01*
X100710000Y-128585690D01*
X101339000Y-128585690D01*
X101339000Y-134088310D01*
X101348813Y-134112000D01*
X101339000Y-134135690D01*
X101339000Y-139638310D01*
X101435673Y-139871699D01*
X101614302Y-140050327D01*
X101847691Y-140147000D01*
X106650309Y-140147000D01*
X106674000Y-140137187D01*
X106697691Y-140147000D01*
X111500309Y-140147000D01*
X111733698Y-140050327D01*
X111912327Y-139871699D01*
X112009000Y-139638310D01*
X112009000Y-134135690D01*
X111999187Y-134112000D01*
X112009000Y-134088310D01*
X112009000Y-128585690D01*
X111912327Y-128352301D01*
X111733698Y-128173673D01*
X111500309Y-128077000D01*
X106697691Y-128077000D01*
X106674000Y-128086813D01*
X106650309Y-128077000D01*
X101847691Y-128077000D01*
X101614302Y-128173673D01*
X101435673Y-128352301D01*
X101339000Y-128585690D01*
X100710000Y-128585690D01*
X100710000Y-125364122D01*
X107022825Y-125364122D01*
X107237466Y-125882332D01*
X107699608Y-126377012D01*
X108315877Y-126657183D01*
X108585000Y-126539604D01*
X108585000Y-125095000D01*
X108839000Y-125095000D01*
X108839000Y-126539604D01*
X109108123Y-126657183D01*
X109724392Y-126377012D01*
X110186534Y-125882332D01*
X110401175Y-125364122D01*
X110283125Y-125095000D01*
X108839000Y-125095000D01*
X108585000Y-125095000D01*
X107140875Y-125095000D01*
X107022825Y-125364122D01*
X100710000Y-125364122D01*
X100710000Y-124571878D01*
X107022825Y-124571878D01*
X107140875Y-124841000D01*
X108585000Y-124841000D01*
X108585000Y-123396396D01*
X108839000Y-123396396D01*
X108839000Y-124841000D01*
X110283125Y-124841000D01*
X110401175Y-124571878D01*
X110186534Y-124053668D01*
X109724392Y-123558988D01*
X109108123Y-123278817D01*
X108839000Y-123396396D01*
X108585000Y-123396396D01*
X108315877Y-123278817D01*
X107699608Y-123558988D01*
X107237466Y-124053668D01*
X107022825Y-124571878D01*
X100710000Y-124571878D01*
X100710000Y-117100000D01*
X100952560Y-117100000D01*
X100952560Y-120400000D01*
X100996838Y-120635317D01*
X101135910Y-120851441D01*
X101348110Y-120996431D01*
X101600000Y-121047440D01*
X104900000Y-121047440D01*
X105135317Y-121003162D01*
X105351441Y-120864090D01*
X105496431Y-120651890D01*
X105547440Y-120400000D01*
X105547440Y-119400000D01*
X106452560Y-119400000D01*
X106452560Y-120400000D01*
X106496838Y-120635317D01*
X106635910Y-120851441D01*
X106848110Y-120996431D01*
X107100000Y-121047440D01*
X110900000Y-121047440D01*
X111135317Y-121003162D01*
X111351441Y-120864090D01*
X111496431Y-120651890D01*
X111547440Y-120400000D01*
X111547440Y-119400000D01*
X112452560Y-119400000D01*
X112452560Y-120400000D01*
X112496838Y-120635317D01*
X112635910Y-120851441D01*
X112848110Y-120996431D01*
X113100000Y-121047440D01*
X116900000Y-121047440D01*
X117135317Y-121003162D01*
X117351441Y-120864090D01*
X117496431Y-120651890D01*
X117547440Y-120400000D01*
X117547440Y-119400000D01*
X118452560Y-119400000D01*
X118452560Y-120400000D01*
X118496838Y-120635317D01*
X118635910Y-120851441D01*
X118848110Y-120996431D01*
X119100000Y-121047440D01*
X122900000Y-121047440D01*
X123135317Y-121003162D01*
X123351441Y-120864090D01*
X123496431Y-120651890D01*
X123547440Y-120400000D01*
X123547440Y-119400000D01*
X124452560Y-119400000D01*
X124452560Y-120400000D01*
X124496838Y-120635317D01*
X124635910Y-120851441D01*
X124848110Y-120996431D01*
X125100000Y-121047440D01*
X128900000Y-121047440D01*
X129135317Y-121003162D01*
X129351441Y-120864090D01*
X129496431Y-120651890D01*
X129547440Y-120400000D01*
X129547440Y-119400000D01*
X129503162Y-119164683D01*
X129364090Y-118948559D01*
X129151890Y-118803569D01*
X128900000Y-118752560D01*
X125100000Y-118752560D01*
X124864683Y-118796838D01*
X124648559Y-118935910D01*
X124503569Y-119148110D01*
X124452560Y-119400000D01*
X123547440Y-119400000D01*
X123503162Y-119164683D01*
X123364090Y-118948559D01*
X123151890Y-118803569D01*
X122900000Y-118752560D01*
X119100000Y-118752560D01*
X118864683Y-118796838D01*
X118648559Y-118935910D01*
X118503569Y-119148110D01*
X118452560Y-119400000D01*
X117547440Y-119400000D01*
X117503162Y-119164683D01*
X117364090Y-118948559D01*
X117151890Y-118803569D01*
X116900000Y-118752560D01*
X113100000Y-118752560D01*
X112864683Y-118796838D01*
X112648559Y-118935910D01*
X112503569Y-119148110D01*
X112452560Y-119400000D01*
X111547440Y-119400000D01*
X111503162Y-119164683D01*
X111364090Y-118948559D01*
X111151890Y-118803569D01*
X110900000Y-118752560D01*
X107100000Y-118752560D01*
X106864683Y-118796838D01*
X106648559Y-118935910D01*
X106503569Y-119148110D01*
X106452560Y-119400000D01*
X105547440Y-119400000D01*
X105503162Y-119164683D01*
X105364090Y-118948559D01*
X105151890Y-118803569D01*
X104900000Y-118752560D01*
X103247440Y-118752560D01*
X103247440Y-117100000D01*
X103203162Y-116864683D01*
X103064090Y-116648559D01*
X102851890Y-116503569D01*
X102600000Y-116452560D01*
X101600000Y-116452560D01*
X101364683Y-116496838D01*
X101148559Y-116635910D01*
X101003569Y-116848110D01*
X100952560Y-117100000D01*
X100710000Y-117100000D01*
X100710000Y-111100000D01*
X100952560Y-111100000D01*
X100952560Y-114900000D01*
X100996838Y-115135317D01*
X101135910Y-115351441D01*
X101348110Y-115496431D01*
X101600000Y-115547440D01*
X102600000Y-115547440D01*
X102835317Y-115503162D01*
X103051441Y-115364090D01*
X103196431Y-115151890D01*
X103247440Y-114900000D01*
X103247440Y-111100000D01*
X103203162Y-110864683D01*
X103064090Y-110648559D01*
X102851890Y-110503569D01*
X102600000Y-110452560D01*
X101600000Y-110452560D01*
X101364683Y-110496838D01*
X101148559Y-110635910D01*
X101003569Y-110848110D01*
X100952560Y-111100000D01*
X100710000Y-111100000D01*
X100710000Y-105100000D01*
X100952560Y-105100000D01*
X100952560Y-108900000D01*
X100996838Y-109135317D01*
X101135910Y-109351441D01*
X101348110Y-109496431D01*
X101600000Y-109547440D01*
X102600000Y-109547440D01*
X102835317Y-109503162D01*
X103051441Y-109364090D01*
X103196431Y-109151890D01*
X103247440Y-108900000D01*
X103247440Y-105100000D01*
X103203162Y-104864683D01*
X103064090Y-104648559D01*
X102851890Y-104503569D01*
X102600000Y-104452560D01*
X101600000Y-104452560D01*
X101364683Y-104496838D01*
X101148559Y-104635910D01*
X101003569Y-104848110D01*
X100952560Y-105100000D01*
X100710000Y-105100000D01*
X100710000Y-99100000D01*
X100952560Y-99100000D01*
X100952560Y-102900000D01*
X100996838Y-103135317D01*
X101135910Y-103351441D01*
X101348110Y-103496431D01*
X101600000Y-103547440D01*
X102600000Y-103547440D01*
X102835317Y-103503162D01*
X103051441Y-103364090D01*
X103196431Y-103151890D01*
X103247440Y-102900000D01*
X103247440Y-99100000D01*
X103203162Y-98864683D01*
X103064090Y-98648559D01*
X102851890Y-98503569D01*
X102600000Y-98452560D01*
X101600000Y-98452560D01*
X101364683Y-98496838D01*
X101148559Y-98635910D01*
X101003569Y-98848110D01*
X100952560Y-99100000D01*
X100710000Y-99100000D01*
X100710000Y-93100000D01*
X100952560Y-93100000D01*
X100952560Y-96900000D01*
X100996838Y-97135317D01*
X101135910Y-97351441D01*
X101348110Y-97496431D01*
X101600000Y-97547440D01*
X102600000Y-97547440D01*
X102835317Y-97503162D01*
X103051441Y-97364090D01*
X103196431Y-97151890D01*
X103247440Y-96900000D01*
X103247440Y-93100000D01*
X103203162Y-92864683D01*
X103064090Y-92648559D01*
X102851890Y-92503569D01*
X102600000Y-92452560D01*
X101600000Y-92452560D01*
X101364683Y-92496838D01*
X101148559Y-92635910D01*
X101003569Y-92848110D01*
X100952560Y-93100000D01*
X100710000Y-93100000D01*
X100710000Y-87600000D01*
X100952560Y-87600000D01*
X100952560Y-90900000D01*
X100996838Y-91135317D01*
X101135910Y-91351441D01*
X101348110Y-91496431D01*
X101600000Y-91547440D01*
X102600000Y-91547440D01*
X102835317Y-91503162D01*
X103051441Y-91364090D01*
X103196431Y-91151890D01*
X103247440Y-90900000D01*
X103247440Y-89247440D01*
X104900000Y-89247440D01*
X105135317Y-89203162D01*
X105351441Y-89064090D01*
X105496431Y-88851890D01*
X105547440Y-88600000D01*
X105547440Y-87600000D01*
X106452560Y-87600000D01*
X106452560Y-88600000D01*
X106496838Y-88835317D01*
X106635910Y-89051441D01*
X106848110Y-89196431D01*
X107100000Y-89247440D01*
X110900000Y-89247440D01*
X111135317Y-89203162D01*
X111351441Y-89064090D01*
X111496431Y-88851890D01*
X111547440Y-88600000D01*
X111547440Y-87600000D01*
X112452560Y-87600000D01*
X112452560Y-88600000D01*
X112496838Y-88835317D01*
X112635910Y-89051441D01*
X112848110Y-89196431D01*
X113100000Y-89247440D01*
X116900000Y-89247440D01*
X117135317Y-89203162D01*
X117351441Y-89064090D01*
X117496431Y-88851890D01*
X117547440Y-88600000D01*
X117547440Y-87600000D01*
X118452560Y-87600000D01*
X118452560Y-88600000D01*
X118496838Y-88835317D01*
X118635910Y-89051441D01*
X118848110Y-89196431D01*
X119100000Y-89247440D01*
X122900000Y-89247440D01*
X123135317Y-89203162D01*
X123351441Y-89064090D01*
X123496431Y-88851890D01*
X123547440Y-88600000D01*
X123547440Y-87600000D01*
X124452560Y-87600000D01*
X124452560Y-88600000D01*
X124496838Y-88835317D01*
X124635910Y-89051441D01*
X124848110Y-89196431D01*
X125100000Y-89247440D01*
X128900000Y-89247440D01*
X129135317Y-89203162D01*
X129351441Y-89064090D01*
X129496431Y-88851890D01*
X129547440Y-88600000D01*
X129547440Y-87600000D01*
X129503162Y-87364683D01*
X129364090Y-87148559D01*
X129151890Y-87003569D01*
X128900000Y-86952560D01*
X125100000Y-86952560D01*
X124864683Y-86996838D01*
X124648559Y-87135910D01*
X124503569Y-87348110D01*
X124452560Y-87600000D01*
X123547440Y-87600000D01*
X123503162Y-87364683D01*
X123364090Y-87148559D01*
X123151890Y-87003569D01*
X122900000Y-86952560D01*
X119100000Y-86952560D01*
X118864683Y-86996838D01*
X118648559Y-87135910D01*
X118503569Y-87348110D01*
X118452560Y-87600000D01*
X117547440Y-87600000D01*
X117503162Y-87364683D01*
X117364090Y-87148559D01*
X117151890Y-87003569D01*
X116900000Y-86952560D01*
X113100000Y-86952560D01*
X112864683Y-86996838D01*
X112648559Y-87135910D01*
X112503569Y-87348110D01*
X112452560Y-87600000D01*
X111547440Y-87600000D01*
X111503162Y-87364683D01*
X111364090Y-87148559D01*
X111151890Y-87003569D01*
X110900000Y-86952560D01*
X107100000Y-86952560D01*
X106864683Y-86996838D01*
X106648559Y-87135910D01*
X106503569Y-87348110D01*
X106452560Y-87600000D01*
X105547440Y-87600000D01*
X105503162Y-87364683D01*
X105364090Y-87148559D01*
X105151890Y-87003569D01*
X104900000Y-86952560D01*
X101600000Y-86952560D01*
X101364683Y-86996838D01*
X101148559Y-87135910D01*
X101003569Y-87348110D01*
X100952560Y-87600000D01*
X100710000Y-87600000D01*
X100710000Y-84297600D01*
X103037100Y-86624700D01*
X103037100Y-86624700D01*
G37*
X103037100Y-86624700D02*
X103356657Y-86838221D01*
X103733600Y-86913200D01*
X133807200Y-86913200D01*
X133845508Y-86905580D01*
X134097700Y-86905580D01*
X134144680Y-86952560D01*
X131100000Y-86952560D01*
X130864683Y-86996838D01*
X130648559Y-87135910D01*
X130503569Y-87348110D01*
X130452560Y-87600000D01*
X130452560Y-88600000D01*
X130496838Y-88835317D01*
X130635910Y-89051441D01*
X130848110Y-89196431D01*
X131100000Y-89247440D01*
X132752560Y-89247440D01*
X132752560Y-90900000D01*
X132796838Y-91135317D01*
X132935910Y-91351441D01*
X133148110Y-91496431D01*
X133400000Y-91547440D01*
X134400000Y-91547440D01*
X134635317Y-91503162D01*
X134851441Y-91364090D01*
X134869440Y-91337748D01*
X134869440Y-92656873D01*
X134864090Y-92648559D01*
X134651890Y-92503569D01*
X134400000Y-92452560D01*
X133400000Y-92452560D01*
X133164683Y-92496838D01*
X132948559Y-92635910D01*
X132803569Y-92848110D01*
X132752560Y-93100000D01*
X132752560Y-96900000D01*
X132796838Y-97135317D01*
X132935910Y-97351441D01*
X133148110Y-97496431D01*
X133400000Y-97547440D01*
X134400000Y-97547440D01*
X134635317Y-97503162D01*
X134851441Y-97364090D01*
X134869440Y-97337748D01*
X134869440Y-98656873D01*
X134864090Y-98648559D01*
X134651890Y-98503569D01*
X134400000Y-98452560D01*
X133400000Y-98452560D01*
X133164683Y-98496838D01*
X132948559Y-98635910D01*
X132803569Y-98848110D01*
X132752560Y-99100000D01*
X132752560Y-102900000D01*
X132796838Y-103135317D01*
X132935910Y-103351441D01*
X133148110Y-103496431D01*
X133400000Y-103547440D01*
X134400000Y-103547440D01*
X134635317Y-103503162D01*
X134851441Y-103364090D01*
X134869440Y-103337748D01*
X134869440Y-104656873D01*
X134864090Y-104648559D01*
X134651890Y-104503569D01*
X134400000Y-104452560D01*
X133400000Y-104452560D01*
X133164683Y-104496838D01*
X132948559Y-104635910D01*
X132803569Y-104848110D01*
X132752560Y-105100000D01*
X132752560Y-108900000D01*
X132796838Y-109135317D01*
X132935910Y-109351441D01*
X133148110Y-109496431D01*
X133400000Y-109547440D01*
X134400000Y-109547440D01*
X134635317Y-109503162D01*
X134851441Y-109364090D01*
X134869440Y-109337748D01*
X134869440Y-110656873D01*
X134864090Y-110648559D01*
X134651890Y-110503569D01*
X134400000Y-110452560D01*
X133400000Y-110452560D01*
X133164683Y-110496838D01*
X132948559Y-110635910D01*
X132803569Y-110848110D01*
X132752560Y-111100000D01*
X132752560Y-114900000D01*
X132796838Y-115135317D01*
X132935910Y-115351441D01*
X133148110Y-115496431D01*
X133400000Y-115547440D01*
X134400000Y-115547440D01*
X134635317Y-115503162D01*
X134851441Y-115364090D01*
X134869440Y-115337748D01*
X134869440Y-116656873D01*
X134864090Y-116648559D01*
X134651890Y-116503569D01*
X134400000Y-116452560D01*
X133400000Y-116452560D01*
X133164683Y-116496838D01*
X132948559Y-116635910D01*
X132803569Y-116848110D01*
X132752560Y-117100000D01*
X132752560Y-118752560D01*
X131100000Y-118752560D01*
X130864683Y-118796838D01*
X130648559Y-118935910D01*
X130503569Y-119148110D01*
X130452560Y-119400000D01*
X130452560Y-120400000D01*
X130496838Y-120635317D01*
X130635910Y-120851441D01*
X130848110Y-120996431D01*
X131100000Y-121047440D01*
X134400000Y-121047440D01*
X134635317Y-121003162D01*
X134851441Y-120864090D01*
X134869440Y-120837748D01*
X134869440Y-121759980D01*
X134944419Y-122136923D01*
X135157940Y-122456480D01*
X138848560Y-126147100D01*
X139168117Y-126360621D01*
X139545060Y-126435600D01*
X150500600Y-126435600D01*
X150500600Y-136150147D01*
X150007679Y-135656364D01*
X149186519Y-135315389D01*
X148297381Y-135314613D01*
X147475628Y-135654155D01*
X146846364Y-136282321D01*
X146505389Y-137103481D01*
X146504613Y-137992619D01*
X146844155Y-138814372D01*
X147472321Y-139443636D01*
X148293481Y-139784611D01*
X148864491Y-139785109D01*
X144448200Y-144201400D01*
X140177000Y-144201400D01*
X140177000Y-140183294D01*
X140202400Y-140055600D01*
X140177000Y-139927906D01*
X140177000Y-139674653D01*
X140375629Y-139476370D01*
X140588757Y-138963100D01*
X140589242Y-138407339D01*
X140377010Y-137893697D01*
X139984370Y-137500371D01*
X139471100Y-137287243D01*
X138915339Y-137286758D01*
X138401697Y-137498990D01*
X138008371Y-137891630D01*
X137795243Y-138404900D01*
X137794758Y-138960661D01*
X138006990Y-139474303D01*
X138207000Y-139674662D01*
X138207000Y-144201400D01*
X136526600Y-144201400D01*
X133573000Y-141247800D01*
X133573000Y-134620000D01*
X133498021Y-134243057D01*
X133284500Y-133923500D01*
X130236500Y-130875500D01*
X129916943Y-130661979D01*
X129540000Y-130587000D01*
X127223000Y-130587000D01*
X127223000Y-128301750D01*
X128365000Y-128301750D01*
X128365000Y-129392310D01*
X128461673Y-129625699D01*
X128640302Y-129804327D01*
X128873691Y-129901000D01*
X130714250Y-129901000D01*
X130873000Y-129742250D01*
X130873000Y-128143000D01*
X131127000Y-128143000D01*
X131127000Y-129742250D01*
X131285750Y-129901000D01*
X133126309Y-129901000D01*
X133359698Y-129804327D01*
X133538327Y-129625699D01*
X133635000Y-129392310D01*
X133635000Y-128301750D01*
X133476250Y-128143000D01*
X131127000Y-128143000D01*
X130873000Y-128143000D01*
X128523750Y-128143000D01*
X128365000Y-128301750D01*
X127223000Y-128301750D01*
X127223000Y-126639690D01*
X128365000Y-126639690D01*
X128365000Y-127730250D01*
X128523750Y-127889000D01*
X130873000Y-127889000D01*
X130873000Y-126289750D01*
X131127000Y-126289750D01*
X131127000Y-127889000D01*
X133476250Y-127889000D01*
X133635000Y-127730250D01*
X133635000Y-126639690D01*
X133538327Y-126406301D01*
X133359698Y-126227673D01*
X133126309Y-126131000D01*
X131285750Y-126131000D01*
X131127000Y-126289750D01*
X130873000Y-126289750D01*
X130714250Y-126131000D01*
X128873691Y-126131000D01*
X128640302Y-126227673D01*
X128461673Y-126406301D01*
X128365000Y-126639690D01*
X127223000Y-126639690D01*
X127223000Y-126136400D01*
X127148021Y-125759457D01*
X126934500Y-125439900D01*
X125766100Y-124271500D01*
X125446543Y-124057979D01*
X125069600Y-123983000D01*
X118079440Y-123983000D01*
X118079440Y-123868000D01*
X118035162Y-123632683D01*
X117910144Y-123438400D01*
X131672000Y-123438400D01*
X138207000Y-129973400D01*
X138207000Y-132693347D01*
X138008371Y-132891630D01*
X137795243Y-133404900D01*
X137794758Y-133960661D01*
X138006990Y-134474303D01*
X138399630Y-134867629D01*
X138912900Y-135080757D01*
X139468661Y-135081242D01*
X139982303Y-134869010D01*
X140375629Y-134476370D01*
X140588757Y-133963100D01*
X140589242Y-133407339D01*
X140377010Y-132893697D01*
X140177000Y-132693338D01*
X140177000Y-129565400D01*
X140102021Y-129188457D01*
X139888500Y-128868900D01*
X132776500Y-121756900D01*
X132456943Y-121543379D01*
X132080000Y-121468400D01*
X113995200Y-121468400D01*
X113618257Y-121543379D01*
X113298700Y-121756900D01*
X112079500Y-122976100D01*
X111865979Y-123295657D01*
X111791000Y-123672600D01*
X111791000Y-126923800D01*
X111865979Y-127300743D01*
X112079500Y-127620300D01*
X113984500Y-129525300D01*
X113987044Y-129527000D01*
X113397691Y-129527000D01*
X113164302Y-129623673D01*
X112985673Y-129802301D01*
X112889000Y-130035690D01*
X112889000Y-130426250D01*
X113047750Y-130585000D01*
X115697000Y-130585000D01*
X115697000Y-130565000D01*
X115951000Y-130565000D01*
X115951000Y-130585000D01*
X118600250Y-130585000D01*
X118759000Y-130426250D01*
X118759000Y-130035690D01*
X118738854Y-129987054D01*
X119030000Y-130278200D01*
X119030000Y-130813000D01*
X118759000Y-131084000D01*
X118759000Y-130997750D01*
X118600250Y-130839000D01*
X115951000Y-130839000D01*
X115951000Y-130859000D01*
X115697000Y-130859000D01*
X115697000Y-130839000D01*
X113047750Y-130839000D01*
X112889000Y-130997750D01*
X112889000Y-131388310D01*
X112960755Y-131561541D01*
X112927569Y-131610110D01*
X112876560Y-131862000D01*
X112876560Y-132962000D01*
X112920838Y-133197317D01*
X112961538Y-133260567D01*
X112889000Y-133435690D01*
X112889000Y-133826250D01*
X113047750Y-133985000D01*
X115697000Y-133985000D01*
X115697000Y-133965000D01*
X115951000Y-133965000D01*
X115951000Y-133985000D01*
X118600250Y-133985000D01*
X118759000Y-133826250D01*
X118759000Y-133435690D01*
X118742974Y-133397000D01*
X118824000Y-133397000D01*
X119200943Y-133322021D01*
X119520500Y-133108500D01*
X120711500Y-131917500D01*
X120925021Y-131597943D01*
X120940286Y-131521200D01*
X121000000Y-131221000D01*
X121000000Y-129913440D01*
X125000000Y-129913440D01*
X125235317Y-129869162D01*
X125253000Y-129857783D01*
X125253000Y-133323000D01*
X123749000Y-134827000D01*
X118742974Y-134827000D01*
X118759000Y-134788310D01*
X118759000Y-134397750D01*
X118600250Y-134239000D01*
X115951000Y-134239000D01*
X115951000Y-134259000D01*
X115697000Y-134259000D01*
X115697000Y-134239000D01*
X113047750Y-134239000D01*
X112889000Y-134397750D01*
X112889000Y-134788310D01*
X112960755Y-134961541D01*
X112927569Y-135010110D01*
X112876560Y-135262000D01*
X112876560Y-136362000D01*
X112920838Y-136597317D01*
X112961481Y-136660478D01*
X112927569Y-136710110D01*
X112876560Y-136962000D01*
X112876560Y-138062000D01*
X112920838Y-138297317D01*
X113059910Y-138513441D01*
X113272110Y-138658431D01*
X113524000Y-138709440D01*
X118124000Y-138709440D01*
X118359317Y-138665162D01*
X118575441Y-138526090D01*
X118592858Y-138500600D01*
X119144300Y-138500600D01*
X119144300Y-139977380D01*
X116143500Y-142978180D01*
X115929979Y-143297737D01*
X115855000Y-143674680D01*
X115855000Y-143892921D01*
X115632200Y-143984980D01*
X115031091Y-144585041D01*
X114705372Y-145369459D01*
X114704630Y-146218815D01*
X115028980Y-147003800D01*
X115629041Y-147604909D01*
X115812770Y-147681200D01*
X113765344Y-147681200D01*
X113856431Y-147547890D01*
X113907440Y-147296000D01*
X113907440Y-144296000D01*
X113863162Y-144060683D01*
X113724090Y-143844559D01*
X113511890Y-143699569D01*
X113260000Y-143648560D01*
X110260000Y-143648560D01*
X110024683Y-143692838D01*
X109808559Y-143831910D01*
X109663569Y-144044110D01*
X109612560Y-144296000D01*
X109612560Y-147296000D01*
X109656838Y-147531317D01*
X109795910Y-147747441D01*
X110008110Y-147892431D01*
X110260000Y-147943440D01*
X110775000Y-147943440D01*
X110775000Y-147996000D01*
X110849979Y-148372943D01*
X111063500Y-148692500D01*
X111661000Y-149290000D01*
X100710000Y-149290000D01*
X100710000Y-145442619D01*
X102764613Y-145442619D01*
X103104155Y-146264372D01*
X103732321Y-146893636D01*
X104553481Y-147234611D01*
X105442619Y-147235387D01*
X106264372Y-146895845D01*
X106893636Y-146267679D01*
X107234611Y-145446519D01*
X107235387Y-144557381D01*
X106895845Y-143735628D01*
X106267679Y-143106364D01*
X105446519Y-142765389D01*
X104557381Y-142764613D01*
X103735628Y-143104155D01*
X103106364Y-143732321D01*
X102765389Y-144553481D01*
X102764613Y-145442619D01*
X100710000Y-145442619D01*
X100710000Y-128585690D01*
X101339000Y-128585690D01*
X101339000Y-134088310D01*
X101348813Y-134112000D01*
X101339000Y-134135690D01*
X101339000Y-139638310D01*
X101435673Y-139871699D01*
X101614302Y-140050327D01*
X101847691Y-140147000D01*
X106650309Y-140147000D01*
X106674000Y-140137187D01*
X106697691Y-140147000D01*
X111500309Y-140147000D01*
X111733698Y-140050327D01*
X111912327Y-139871699D01*
X112009000Y-139638310D01*
X112009000Y-134135690D01*
X111999187Y-134112000D01*
X112009000Y-134088310D01*
X112009000Y-128585690D01*
X111912327Y-128352301D01*
X111733698Y-128173673D01*
X111500309Y-128077000D01*
X106697691Y-128077000D01*
X106674000Y-128086813D01*
X106650309Y-128077000D01*
X101847691Y-128077000D01*
X101614302Y-128173673D01*
X101435673Y-128352301D01*
X101339000Y-128585690D01*
X100710000Y-128585690D01*
X100710000Y-125364122D01*
X107022825Y-125364122D01*
X107237466Y-125882332D01*
X107699608Y-126377012D01*
X108315877Y-126657183D01*
X108585000Y-126539604D01*
X108585000Y-125095000D01*
X108839000Y-125095000D01*
X108839000Y-126539604D01*
X109108123Y-126657183D01*
X109724392Y-126377012D01*
X110186534Y-125882332D01*
X110401175Y-125364122D01*
X110283125Y-125095000D01*
X108839000Y-125095000D01*
X108585000Y-125095000D01*
X107140875Y-125095000D01*
X107022825Y-125364122D01*
X100710000Y-125364122D01*
X100710000Y-124571878D01*
X107022825Y-124571878D01*
X107140875Y-124841000D01*
X108585000Y-124841000D01*
X108585000Y-123396396D01*
X108839000Y-123396396D01*
X108839000Y-124841000D01*
X110283125Y-124841000D01*
X110401175Y-124571878D01*
X110186534Y-124053668D01*
X109724392Y-123558988D01*
X109108123Y-123278817D01*
X108839000Y-123396396D01*
X108585000Y-123396396D01*
X108315877Y-123278817D01*
X107699608Y-123558988D01*
X107237466Y-124053668D01*
X107022825Y-124571878D01*
X100710000Y-124571878D01*
X100710000Y-117100000D01*
X100952560Y-117100000D01*
X100952560Y-120400000D01*
X100996838Y-120635317D01*
X101135910Y-120851441D01*
X101348110Y-120996431D01*
X101600000Y-121047440D01*
X104900000Y-121047440D01*
X105135317Y-121003162D01*
X105351441Y-120864090D01*
X105496431Y-120651890D01*
X105547440Y-120400000D01*
X105547440Y-119400000D01*
X106452560Y-119400000D01*
X106452560Y-120400000D01*
X106496838Y-120635317D01*
X106635910Y-120851441D01*
X106848110Y-120996431D01*
X107100000Y-121047440D01*
X110900000Y-121047440D01*
X111135317Y-121003162D01*
X111351441Y-120864090D01*
X111496431Y-120651890D01*
X111547440Y-120400000D01*
X111547440Y-119400000D01*
X112452560Y-119400000D01*
X112452560Y-120400000D01*
X112496838Y-120635317D01*
X112635910Y-120851441D01*
X112848110Y-120996431D01*
X113100000Y-121047440D01*
X116900000Y-121047440D01*
X117135317Y-121003162D01*
X117351441Y-120864090D01*
X117496431Y-120651890D01*
X117547440Y-120400000D01*
X117547440Y-119400000D01*
X118452560Y-119400000D01*
X118452560Y-120400000D01*
X118496838Y-120635317D01*
X118635910Y-120851441D01*
X118848110Y-120996431D01*
X119100000Y-121047440D01*
X122900000Y-121047440D01*
X123135317Y-121003162D01*
X123351441Y-120864090D01*
X123496431Y-120651890D01*
X123547440Y-120400000D01*
X123547440Y-119400000D01*
X124452560Y-119400000D01*
X124452560Y-120400000D01*
X124496838Y-120635317D01*
X124635910Y-120851441D01*
X124848110Y-120996431D01*
X125100000Y-121047440D01*
X128900000Y-121047440D01*
X129135317Y-121003162D01*
X129351441Y-120864090D01*
X129496431Y-120651890D01*
X129547440Y-120400000D01*
X129547440Y-119400000D01*
X129503162Y-119164683D01*
X129364090Y-118948559D01*
X129151890Y-118803569D01*
X128900000Y-118752560D01*
X125100000Y-118752560D01*
X124864683Y-118796838D01*
X124648559Y-118935910D01*
X124503569Y-119148110D01*
X124452560Y-119400000D01*
X123547440Y-119400000D01*
X123503162Y-119164683D01*
X123364090Y-118948559D01*
X123151890Y-118803569D01*
X122900000Y-118752560D01*
X119100000Y-118752560D01*
X118864683Y-118796838D01*
X118648559Y-118935910D01*
X118503569Y-119148110D01*
X118452560Y-119400000D01*
X117547440Y-119400000D01*
X117503162Y-119164683D01*
X117364090Y-118948559D01*
X117151890Y-118803569D01*
X116900000Y-118752560D01*
X113100000Y-118752560D01*
X112864683Y-118796838D01*
X112648559Y-118935910D01*
X112503569Y-119148110D01*
X112452560Y-119400000D01*
X111547440Y-119400000D01*
X111503162Y-119164683D01*
X111364090Y-118948559D01*
X111151890Y-118803569D01*
X110900000Y-118752560D01*
X107100000Y-118752560D01*
X106864683Y-118796838D01*
X106648559Y-118935910D01*
X106503569Y-119148110D01*
X106452560Y-119400000D01*
X105547440Y-119400000D01*
X105503162Y-119164683D01*
X105364090Y-118948559D01*
X105151890Y-118803569D01*
X104900000Y-118752560D01*
X103247440Y-118752560D01*
X103247440Y-117100000D01*
X103203162Y-116864683D01*
X103064090Y-116648559D01*
X102851890Y-116503569D01*
X102600000Y-116452560D01*
X101600000Y-116452560D01*
X101364683Y-116496838D01*
X101148559Y-116635910D01*
X101003569Y-116848110D01*
X100952560Y-117100000D01*
X100710000Y-117100000D01*
X100710000Y-111100000D01*
X100952560Y-111100000D01*
X100952560Y-114900000D01*
X100996838Y-115135317D01*
X101135910Y-115351441D01*
X101348110Y-115496431D01*
X101600000Y-115547440D01*
X102600000Y-115547440D01*
X102835317Y-115503162D01*
X103051441Y-115364090D01*
X103196431Y-115151890D01*
X103247440Y-114900000D01*
X103247440Y-111100000D01*
X103203162Y-110864683D01*
X103064090Y-110648559D01*
X102851890Y-110503569D01*
X102600000Y-110452560D01*
X101600000Y-110452560D01*
X101364683Y-110496838D01*
X101148559Y-110635910D01*
X101003569Y-110848110D01*
X100952560Y-111100000D01*
X100710000Y-111100000D01*
X100710000Y-105100000D01*
X100952560Y-105100000D01*
X100952560Y-108900000D01*
X100996838Y-109135317D01*
X101135910Y-109351441D01*
X101348110Y-109496431D01*
X101600000Y-109547440D01*
X102600000Y-109547440D01*
X102835317Y-109503162D01*
X103051441Y-109364090D01*
X103196431Y-109151890D01*
X103247440Y-108900000D01*
X103247440Y-105100000D01*
X103203162Y-104864683D01*
X103064090Y-104648559D01*
X102851890Y-104503569D01*
X102600000Y-104452560D01*
X101600000Y-104452560D01*
X101364683Y-104496838D01*
X101148559Y-104635910D01*
X101003569Y-104848110D01*
X100952560Y-105100000D01*
X100710000Y-105100000D01*
X100710000Y-99100000D01*
X100952560Y-99100000D01*
X100952560Y-102900000D01*
X100996838Y-103135317D01*
X101135910Y-103351441D01*
X101348110Y-103496431D01*
X101600000Y-103547440D01*
X102600000Y-103547440D01*
X102835317Y-103503162D01*
X103051441Y-103364090D01*
X103196431Y-103151890D01*
X103247440Y-102900000D01*
X103247440Y-99100000D01*
X103203162Y-98864683D01*
X103064090Y-98648559D01*
X102851890Y-98503569D01*
X102600000Y-98452560D01*
X101600000Y-98452560D01*
X101364683Y-98496838D01*
X101148559Y-98635910D01*
X101003569Y-98848110D01*
X100952560Y-99100000D01*
X100710000Y-99100000D01*
X100710000Y-93100000D01*
X100952560Y-93100000D01*
X100952560Y-96900000D01*
X100996838Y-97135317D01*
X101135910Y-97351441D01*
X101348110Y-97496431D01*
X101600000Y-97547440D01*
X102600000Y-97547440D01*
X102835317Y-97503162D01*
X103051441Y-97364090D01*
X103196431Y-97151890D01*
X103247440Y-96900000D01*
X103247440Y-93100000D01*
X103203162Y-92864683D01*
X103064090Y-92648559D01*
X102851890Y-92503569D01*
X102600000Y-92452560D01*
X101600000Y-92452560D01*
X101364683Y-92496838D01*
X101148559Y-92635910D01*
X101003569Y-92848110D01*
X100952560Y-93100000D01*
X100710000Y-93100000D01*
X100710000Y-87600000D01*
X100952560Y-87600000D01*
X100952560Y-90900000D01*
X100996838Y-91135317D01*
X101135910Y-91351441D01*
X101348110Y-91496431D01*
X101600000Y-91547440D01*
X102600000Y-91547440D01*
X102835317Y-91503162D01*
X103051441Y-91364090D01*
X103196431Y-91151890D01*
X103247440Y-90900000D01*
X103247440Y-89247440D01*
X104900000Y-89247440D01*
X105135317Y-89203162D01*
X105351441Y-89064090D01*
X105496431Y-88851890D01*
X105547440Y-88600000D01*
X105547440Y-87600000D01*
X106452560Y-87600000D01*
X106452560Y-88600000D01*
X106496838Y-88835317D01*
X106635910Y-89051441D01*
X106848110Y-89196431D01*
X107100000Y-89247440D01*
X110900000Y-89247440D01*
X111135317Y-89203162D01*
X111351441Y-89064090D01*
X111496431Y-88851890D01*
X111547440Y-88600000D01*
X111547440Y-87600000D01*
X112452560Y-87600000D01*
X112452560Y-88600000D01*
X112496838Y-88835317D01*
X112635910Y-89051441D01*
X112848110Y-89196431D01*
X113100000Y-89247440D01*
X116900000Y-89247440D01*
X117135317Y-89203162D01*
X117351441Y-89064090D01*
X117496431Y-88851890D01*
X117547440Y-88600000D01*
X117547440Y-87600000D01*
X118452560Y-87600000D01*
X118452560Y-88600000D01*
X118496838Y-88835317D01*
X118635910Y-89051441D01*
X118848110Y-89196431D01*
X119100000Y-89247440D01*
X122900000Y-89247440D01*
X123135317Y-89203162D01*
X123351441Y-89064090D01*
X123496431Y-88851890D01*
X123547440Y-88600000D01*
X123547440Y-87600000D01*
X124452560Y-87600000D01*
X124452560Y-88600000D01*
X124496838Y-88835317D01*
X124635910Y-89051441D01*
X124848110Y-89196431D01*
X125100000Y-89247440D01*
X128900000Y-89247440D01*
X129135317Y-89203162D01*
X129351441Y-89064090D01*
X129496431Y-88851890D01*
X129547440Y-88600000D01*
X129547440Y-87600000D01*
X129503162Y-87364683D01*
X129364090Y-87148559D01*
X129151890Y-87003569D01*
X128900000Y-86952560D01*
X125100000Y-86952560D01*
X124864683Y-86996838D01*
X124648559Y-87135910D01*
X124503569Y-87348110D01*
X124452560Y-87600000D01*
X123547440Y-87600000D01*
X123503162Y-87364683D01*
X123364090Y-87148559D01*
X123151890Y-87003569D01*
X122900000Y-86952560D01*
X119100000Y-86952560D01*
X118864683Y-86996838D01*
X118648559Y-87135910D01*
X118503569Y-87348110D01*
X118452560Y-87600000D01*
X117547440Y-87600000D01*
X117503162Y-87364683D01*
X117364090Y-87148559D01*
X117151890Y-87003569D01*
X116900000Y-86952560D01*
X113100000Y-86952560D01*
X112864683Y-86996838D01*
X112648559Y-87135910D01*
X112503569Y-87348110D01*
X112452560Y-87600000D01*
X111547440Y-87600000D01*
X111503162Y-87364683D01*
X111364090Y-87148559D01*
X111151890Y-87003569D01*
X110900000Y-86952560D01*
X107100000Y-86952560D01*
X106864683Y-86996838D01*
X106648559Y-87135910D01*
X106503569Y-87348110D01*
X106452560Y-87600000D01*
X105547440Y-87600000D01*
X105503162Y-87364683D01*
X105364090Y-87148559D01*
X105151890Y-87003569D01*
X104900000Y-86952560D01*
X101600000Y-86952560D01*
X101364683Y-86996838D01*
X101148559Y-87135910D01*
X101003569Y-87348110D01*
X100952560Y-87600000D01*
X100710000Y-87600000D01*
X100710000Y-84297600D01*
X103037100Y-86624700D01*
G36*
X147285032Y-110520973D02*
X147405531Y-110753000D01*
X148613000Y-110753000D01*
X148613000Y-110733000D01*
X148867000Y-110733000D01*
X148867000Y-110753000D01*
X148887000Y-110753000D01*
X148887000Y-111007000D01*
X148867000Y-111007000D01*
X148867000Y-111027000D01*
X148613000Y-111027000D01*
X148613000Y-111007000D01*
X147405531Y-111007000D01*
X147285032Y-111239027D01*
X147533179Y-111768490D01*
X147951161Y-112150008D01*
X147680330Y-112330971D01*
X147355474Y-112817152D01*
X147241400Y-113390641D01*
X147241400Y-113449359D01*
X147355474Y-114022848D01*
X147680330Y-114509029D01*
X147951172Y-114690000D01*
X147680330Y-114870971D01*
X147355474Y-115357152D01*
X147241400Y-115930641D01*
X147241400Y-115989359D01*
X147355474Y-116562848D01*
X147680330Y-117049029D01*
X147951172Y-117230000D01*
X147680330Y-117410971D01*
X147355474Y-117897152D01*
X147241400Y-118470641D01*
X147241400Y-118529359D01*
X147355474Y-119102848D01*
X147680330Y-119589029D01*
X147951172Y-119770000D01*
X147680330Y-119950971D01*
X147355474Y-120437152D01*
X147241400Y-121010641D01*
X147241400Y-121069359D01*
X147355474Y-121642848D01*
X147680330Y-122129029D01*
X147951172Y-122310000D01*
X147680330Y-122490971D01*
X147355474Y-122977152D01*
X147241400Y-123550641D01*
X147241400Y-123609359D01*
X147355474Y-124182848D01*
X147544403Y-124465600D01*
X139953060Y-124465600D01*
X136839440Y-121351980D01*
X136839440Y-116928380D01*
X141252584Y-116928380D01*
X141329200Y-116943620D01*
X141416163Y-116943620D01*
X141604296Y-117132081D01*
X142113158Y-117343379D01*
X142664145Y-117343860D01*
X143173375Y-117133451D01*
X143563321Y-116744184D01*
X143774619Y-116235322D01*
X143775100Y-115684335D01*
X143564691Y-115175105D01*
X143175424Y-114785159D01*
X142942990Y-114688644D01*
X143173375Y-114593451D01*
X143563321Y-114204184D01*
X143774619Y-113695322D01*
X143775100Y-113144335D01*
X143564691Y-112635105D01*
X143175424Y-112245159D01*
X142942990Y-112148644D01*
X143173375Y-112053451D01*
X143563321Y-111664184D01*
X143774619Y-111155322D01*
X143775100Y-110604335D01*
X143774867Y-110603771D01*
X143977239Y-110401399D01*
X147341074Y-110401399D01*
X147285032Y-110520973D01*
X147285032Y-110520973D01*
G37*
X147285032Y-110520973D02*
X147405531Y-110753000D01*
X148613000Y-110753000D01*
X148613000Y-110733000D01*
X148867000Y-110733000D01*
X148867000Y-110753000D01*
X148887000Y-110753000D01*
X148887000Y-111007000D01*
X148867000Y-111007000D01*
X148867000Y-111027000D01*
X148613000Y-111027000D01*
X148613000Y-111007000D01*
X147405531Y-111007000D01*
X147285032Y-111239027D01*
X147533179Y-111768490D01*
X147951161Y-112150008D01*
X147680330Y-112330971D01*
X147355474Y-112817152D01*
X147241400Y-113390641D01*
X147241400Y-113449359D01*
X147355474Y-114022848D01*
X147680330Y-114509029D01*
X147951172Y-114690000D01*
X147680330Y-114870971D01*
X147355474Y-115357152D01*
X147241400Y-115930641D01*
X147241400Y-115989359D01*
X147355474Y-116562848D01*
X147680330Y-117049029D01*
X147951172Y-117230000D01*
X147680330Y-117410971D01*
X147355474Y-117897152D01*
X147241400Y-118470641D01*
X147241400Y-118529359D01*
X147355474Y-119102848D01*
X147680330Y-119589029D01*
X147951172Y-119770000D01*
X147680330Y-119950971D01*
X147355474Y-120437152D01*
X147241400Y-121010641D01*
X147241400Y-121069359D01*
X147355474Y-121642848D01*
X147680330Y-122129029D01*
X147951172Y-122310000D01*
X147680330Y-122490971D01*
X147355474Y-122977152D01*
X147241400Y-123550641D01*
X147241400Y-123609359D01*
X147355474Y-124182848D01*
X147544403Y-124465600D01*
X139953060Y-124465600D01*
X136839440Y-121351980D01*
X136839440Y-116928380D01*
X141252584Y-116928380D01*
X141329200Y-116943620D01*
X141416163Y-116943620D01*
X141604296Y-117132081D01*
X142113158Y-117343379D01*
X142664145Y-117343860D01*
X143173375Y-117133451D01*
X143563321Y-116744184D01*
X143774619Y-116235322D01*
X143775100Y-115684335D01*
X143564691Y-115175105D01*
X143175424Y-114785159D01*
X142942990Y-114688644D01*
X143173375Y-114593451D01*
X143563321Y-114204184D01*
X143774619Y-113695322D01*
X143775100Y-113144335D01*
X143564691Y-112635105D01*
X143175424Y-112245159D01*
X142942990Y-112148644D01*
X143173375Y-112053451D01*
X143563321Y-111664184D01*
X143774619Y-111155322D01*
X143775100Y-110604335D01*
X143774867Y-110603771D01*
X143977239Y-110401399D01*
X147341074Y-110401399D01*
X147285032Y-110520973D01*
G36*
X147285032Y-107980973D02*
X147405531Y-108213000D01*
X148613000Y-108213000D01*
X148613000Y-108193000D01*
X148867000Y-108193000D01*
X148867000Y-108213000D01*
X148887000Y-108213000D01*
X148887000Y-108467000D01*
X148867000Y-108467000D01*
X148867000Y-108487000D01*
X148613000Y-108487000D01*
X148613000Y-108467000D01*
X147405531Y-108467000D01*
X147285032Y-108699027D01*
X147347072Y-108831399D01*
X143684896Y-108831399D01*
X143774619Y-108615322D01*
X143775100Y-108064335D01*
X143774867Y-108063771D01*
X143990037Y-107848601D01*
X147347072Y-107848601D01*
X147285032Y-107980973D01*
X147285032Y-107980973D01*
G37*
X147285032Y-107980973D02*
X147405531Y-108213000D01*
X148613000Y-108213000D01*
X148613000Y-108193000D01*
X148867000Y-108193000D01*
X148867000Y-108213000D01*
X148887000Y-108213000D01*
X148887000Y-108467000D01*
X148867000Y-108467000D01*
X148867000Y-108487000D01*
X148613000Y-108487000D01*
X148613000Y-108467000D01*
X147405531Y-108467000D01*
X147285032Y-108699027D01*
X147347072Y-108831399D01*
X143684896Y-108831399D01*
X143774619Y-108615322D01*
X143775100Y-108064335D01*
X143774867Y-108063771D01*
X143990037Y-107848601D01*
X147347072Y-107848601D01*
X147285032Y-107980973D01*
G36*
X138444921Y-62788941D02*
X138274755Y-63043613D01*
X138259282Y-63121400D01*
X138215000Y-63344020D01*
X138215000Y-64927962D01*
X138114683Y-64946838D01*
X137898559Y-65085910D01*
X137753569Y-65298110D01*
X137702560Y-65550000D01*
X137702560Y-67050000D01*
X137746838Y-67285317D01*
X137885910Y-67501441D01*
X138098110Y-67646431D01*
X138111197Y-67649081D01*
X137898559Y-67785910D01*
X137753569Y-67998110D01*
X137702560Y-68250000D01*
X137702560Y-69750000D01*
X137746838Y-69985317D01*
X137885910Y-70201441D01*
X138098110Y-70346431D01*
X138215000Y-70370102D01*
X138215000Y-74992000D01*
X138274755Y-75292407D01*
X138444921Y-75547079D01*
X140692921Y-77795079D01*
X140947593Y-77965245D01*
X141248000Y-78025000D01*
X141902560Y-78025000D01*
X141902560Y-78090000D01*
X141946838Y-78325317D01*
X142085910Y-78541441D01*
X142298110Y-78686431D01*
X142415000Y-78710102D01*
X142415000Y-78790000D01*
X142489979Y-79166943D01*
X142703500Y-79486500D01*
X143186900Y-79969900D01*
X143506457Y-80183421D01*
X143883400Y-80258400D01*
X145413400Y-80258400D01*
X145700000Y-80545000D01*
X145700000Y-80899885D01*
X145586810Y-80853000D01*
X144971250Y-80853000D01*
X144812500Y-81011750D01*
X144812500Y-81661000D01*
X144832500Y-81661000D01*
X144832500Y-81803000D01*
X144685500Y-81803000D01*
X144496674Y-81840560D01*
X143910500Y-81840560D01*
X143675183Y-81884838D01*
X143628310Y-81915000D01*
X143434250Y-81915000D01*
X143275500Y-82073750D01*
X143275500Y-82214309D01*
X143304370Y-82284007D01*
X143263060Y-82488000D01*
X143263060Y-83088000D01*
X143302074Y-83295342D01*
X143263060Y-83488000D01*
X143263060Y-84088000D01*
X143302074Y-84295342D01*
X143263060Y-84488000D01*
X143263060Y-85088000D01*
X143302358Y-85296850D01*
X143275500Y-85361691D01*
X143275500Y-85502250D01*
X143434250Y-85661000D01*
X143624318Y-85661000D01*
X143658610Y-85684431D01*
X143910500Y-85735440D01*
X144832500Y-85735440D01*
X144832500Y-85840560D01*
X143910500Y-85840560D01*
X143675183Y-85884838D01*
X143628310Y-85915000D01*
X143434250Y-85915000D01*
X143275500Y-86073750D01*
X143275500Y-86214309D01*
X143304370Y-86284007D01*
X143263060Y-86488000D01*
X143263060Y-87088000D01*
X143307338Y-87323317D01*
X143446410Y-87539441D01*
X143658610Y-87684431D01*
X143910500Y-87735440D01*
X145460500Y-87735440D01*
X145535113Y-87721401D01*
X145720779Y-87907067D01*
X145511808Y-88115673D01*
X145369162Y-88459201D01*
X145368838Y-88831167D01*
X145510883Y-89174943D01*
X145773673Y-89438192D01*
X146117201Y-89580838D01*
X146489167Y-89581162D01*
X146832943Y-89439117D01*
X147043069Y-89229357D01*
X147521856Y-89708143D01*
X147355474Y-89957152D01*
X147241400Y-90530641D01*
X147241400Y-90589359D01*
X147355474Y-91162848D01*
X147680330Y-91649029D01*
X147951172Y-91830000D01*
X147680330Y-92010971D01*
X147355474Y-92497152D01*
X147241400Y-93070641D01*
X147241400Y-93129359D01*
X147343251Y-93641399D01*
X138909794Y-93641399D01*
X138836400Y-93626800D01*
X137815358Y-93626800D01*
X137389450Y-93200892D01*
X137389450Y-87488000D01*
X139263060Y-87488000D01*
X139263060Y-88688000D01*
X139307338Y-88923317D01*
X139446410Y-89139441D01*
X139658610Y-89284431D01*
X139910500Y-89335440D01*
X141710500Y-89335440D01*
X141945817Y-89291162D01*
X142161941Y-89152090D01*
X142306931Y-88939890D01*
X142357940Y-88688000D01*
X142357940Y-87488000D01*
X142313662Y-87252683D01*
X142174590Y-87036559D01*
X141962390Y-86891569D01*
X141710500Y-86840560D01*
X139910500Y-86840560D01*
X139675183Y-86884838D01*
X139459059Y-87023910D01*
X139314069Y-87236110D01*
X139263060Y-87488000D01*
X137389450Y-87488000D01*
X137389449Y-86958655D01*
X137346131Y-86740882D01*
X137329694Y-86658248D01*
X137159528Y-86403576D01*
X135371443Y-84615491D01*
X135116771Y-84445325D01*
X134816364Y-84385570D01*
X132355030Y-84385570D01*
X132316722Y-84393190D01*
X112695971Y-84393190D01*
X112780792Y-84308517D01*
X112923438Y-83964989D01*
X112923762Y-83593023D01*
X112781717Y-83249247D01*
X112773600Y-83241116D01*
X112773600Y-83075719D01*
X113007298Y-83172759D01*
X113558285Y-83173240D01*
X114067515Y-82962831D01*
X114457461Y-82573564D01*
X114553976Y-82341130D01*
X114649169Y-82571515D01*
X115038436Y-82961461D01*
X115547298Y-83172759D01*
X116098285Y-83173240D01*
X116607515Y-82962831D01*
X116997461Y-82573564D01*
X117093976Y-82341130D01*
X117189169Y-82571515D01*
X117578436Y-82961461D01*
X118087298Y-83172759D01*
X118638285Y-83173240D01*
X119147515Y-82962831D01*
X119537461Y-82573564D01*
X119633976Y-82341130D01*
X119729169Y-82571515D01*
X120118436Y-82961461D01*
X120627298Y-83172759D01*
X121178285Y-83173240D01*
X121687515Y-82962831D01*
X122077461Y-82573564D01*
X122173976Y-82341130D01*
X122269169Y-82571515D01*
X122658436Y-82961461D01*
X123167298Y-83172759D01*
X123718285Y-83173240D01*
X124227515Y-82962831D01*
X124617461Y-82573564D01*
X124828759Y-82064702D01*
X124829240Y-81513715D01*
X124618831Y-81004485D01*
X124229564Y-80614539D01*
X123720702Y-80403241D01*
X123169715Y-80402760D01*
X122660485Y-80613169D01*
X122270539Y-81002436D01*
X122174024Y-81234870D01*
X122078831Y-81004485D01*
X121689564Y-80614539D01*
X121180702Y-80403241D01*
X120859198Y-80402960D01*
X121000558Y-80261600D01*
X128066800Y-80261600D01*
X128367207Y-80201845D01*
X128621879Y-80031679D01*
X128765558Y-79888000D01*
X139263060Y-79888000D01*
X139263060Y-81088000D01*
X139307338Y-81323317D01*
X139446410Y-81539441D01*
X139658610Y-81684431D01*
X139910500Y-81735440D01*
X141710500Y-81735440D01*
X141945817Y-81691162D01*
X142161941Y-81552090D01*
X142292035Y-81361691D01*
X143275500Y-81361691D01*
X143275500Y-81502250D01*
X143434250Y-81661000D01*
X144558500Y-81661000D01*
X144558500Y-81011750D01*
X144399750Y-80853000D01*
X143784190Y-80853000D01*
X143550801Y-80949673D01*
X143372173Y-81128302D01*
X143275500Y-81361691D01*
X142292035Y-81361691D01*
X142306931Y-81339890D01*
X142357940Y-81088000D01*
X142357940Y-79888000D01*
X142313662Y-79652683D01*
X142174590Y-79436559D01*
X141962390Y-79291569D01*
X141710500Y-79240560D01*
X139910500Y-79240560D01*
X139675183Y-79284838D01*
X139459059Y-79423910D01*
X139314069Y-79636110D01*
X139263060Y-79888000D01*
X128765558Y-79888000D01*
X129383879Y-79269679D01*
X129554045Y-79015006D01*
X129613800Y-78714600D01*
X129613800Y-76471325D01*
X129614587Y-76471325D01*
X129976916Y-77348229D01*
X130647242Y-78019726D01*
X131523513Y-78383585D01*
X132472325Y-78384413D01*
X133349229Y-78022084D01*
X134020726Y-77351758D01*
X134384585Y-76475487D01*
X134385413Y-75526675D01*
X134023084Y-74649771D01*
X133352758Y-73978274D01*
X132476487Y-73614415D01*
X131527675Y-73613587D01*
X130650771Y-73975916D01*
X129979274Y-74646242D01*
X129615415Y-75522513D01*
X129614587Y-76471325D01*
X129613800Y-76471325D01*
X129613800Y-69997358D01*
X130462835Y-69148322D01*
X130497860Y-69124919D01*
X138127778Y-61495001D01*
X139738861Y-61495001D01*
X138444921Y-62788941D01*
X138444921Y-62788941D01*
G37*
X138444921Y-62788941D02*
X138274755Y-63043613D01*
X138259282Y-63121400D01*
X138215000Y-63344020D01*
X138215000Y-64927962D01*
X138114683Y-64946838D01*
X137898559Y-65085910D01*
X137753569Y-65298110D01*
X137702560Y-65550000D01*
X137702560Y-67050000D01*
X137746838Y-67285317D01*
X137885910Y-67501441D01*
X138098110Y-67646431D01*
X138111197Y-67649081D01*
X137898559Y-67785910D01*
X137753569Y-67998110D01*
X137702560Y-68250000D01*
X137702560Y-69750000D01*
X137746838Y-69985317D01*
X137885910Y-70201441D01*
X138098110Y-70346431D01*
X138215000Y-70370102D01*
X138215000Y-74992000D01*
X138274755Y-75292407D01*
X138444921Y-75547079D01*
X140692921Y-77795079D01*
X140947593Y-77965245D01*
X141248000Y-78025000D01*
X141902560Y-78025000D01*
X141902560Y-78090000D01*
X141946838Y-78325317D01*
X142085910Y-78541441D01*
X142298110Y-78686431D01*
X142415000Y-78710102D01*
X142415000Y-78790000D01*
X142489979Y-79166943D01*
X142703500Y-79486500D01*
X143186900Y-79969900D01*
X143506457Y-80183421D01*
X143883400Y-80258400D01*
X145413400Y-80258400D01*
X145700000Y-80545000D01*
X145700000Y-80899885D01*
X145586810Y-80853000D01*
X144971250Y-80853000D01*
X144812500Y-81011750D01*
X144812500Y-81661000D01*
X144832500Y-81661000D01*
X144832500Y-81803000D01*
X144685500Y-81803000D01*
X144496674Y-81840560D01*
X143910500Y-81840560D01*
X143675183Y-81884838D01*
X143628310Y-81915000D01*
X143434250Y-81915000D01*
X143275500Y-82073750D01*
X143275500Y-82214309D01*
X143304370Y-82284007D01*
X143263060Y-82488000D01*
X143263060Y-83088000D01*
X143302074Y-83295342D01*
X143263060Y-83488000D01*
X143263060Y-84088000D01*
X143302074Y-84295342D01*
X143263060Y-84488000D01*
X143263060Y-85088000D01*
X143302358Y-85296850D01*
X143275500Y-85361691D01*
X143275500Y-85502250D01*
X143434250Y-85661000D01*
X143624318Y-85661000D01*
X143658610Y-85684431D01*
X143910500Y-85735440D01*
X144832500Y-85735440D01*
X144832500Y-85840560D01*
X143910500Y-85840560D01*
X143675183Y-85884838D01*
X143628310Y-85915000D01*
X143434250Y-85915000D01*
X143275500Y-86073750D01*
X143275500Y-86214309D01*
X143304370Y-86284007D01*
X143263060Y-86488000D01*
X143263060Y-87088000D01*
X143307338Y-87323317D01*
X143446410Y-87539441D01*
X143658610Y-87684431D01*
X143910500Y-87735440D01*
X145460500Y-87735440D01*
X145535113Y-87721401D01*
X145720779Y-87907067D01*
X145511808Y-88115673D01*
X145369162Y-88459201D01*
X145368838Y-88831167D01*
X145510883Y-89174943D01*
X145773673Y-89438192D01*
X146117201Y-89580838D01*
X146489167Y-89581162D01*
X146832943Y-89439117D01*
X147043069Y-89229357D01*
X147521856Y-89708143D01*
X147355474Y-89957152D01*
X147241400Y-90530641D01*
X147241400Y-90589359D01*
X147355474Y-91162848D01*
X147680330Y-91649029D01*
X147951172Y-91830000D01*
X147680330Y-92010971D01*
X147355474Y-92497152D01*
X147241400Y-93070641D01*
X147241400Y-93129359D01*
X147343251Y-93641399D01*
X138909794Y-93641399D01*
X138836400Y-93626800D01*
X137815358Y-93626800D01*
X137389450Y-93200892D01*
X137389450Y-87488000D01*
X139263060Y-87488000D01*
X139263060Y-88688000D01*
X139307338Y-88923317D01*
X139446410Y-89139441D01*
X139658610Y-89284431D01*
X139910500Y-89335440D01*
X141710500Y-89335440D01*
X141945817Y-89291162D01*
X142161941Y-89152090D01*
X142306931Y-88939890D01*
X142357940Y-88688000D01*
X142357940Y-87488000D01*
X142313662Y-87252683D01*
X142174590Y-87036559D01*
X141962390Y-86891569D01*
X141710500Y-86840560D01*
X139910500Y-86840560D01*
X139675183Y-86884838D01*
X139459059Y-87023910D01*
X139314069Y-87236110D01*
X139263060Y-87488000D01*
X137389450Y-87488000D01*
X137389449Y-86958655D01*
X137346131Y-86740882D01*
X137329694Y-86658248D01*
X137159528Y-86403576D01*
X135371443Y-84615491D01*
X135116771Y-84445325D01*
X134816364Y-84385570D01*
X132355030Y-84385570D01*
X132316722Y-84393190D01*
X112695971Y-84393190D01*
X112780792Y-84308517D01*
X112923438Y-83964989D01*
X112923762Y-83593023D01*
X112781717Y-83249247D01*
X112773600Y-83241116D01*
X112773600Y-83075719D01*
X113007298Y-83172759D01*
X113558285Y-83173240D01*
X114067515Y-82962831D01*
X114457461Y-82573564D01*
X114553976Y-82341130D01*
X114649169Y-82571515D01*
X115038436Y-82961461D01*
X115547298Y-83172759D01*
X116098285Y-83173240D01*
X116607515Y-82962831D01*
X116997461Y-82573564D01*
X117093976Y-82341130D01*
X117189169Y-82571515D01*
X117578436Y-82961461D01*
X118087298Y-83172759D01*
X118638285Y-83173240D01*
X119147515Y-82962831D01*
X119537461Y-82573564D01*
X119633976Y-82341130D01*
X119729169Y-82571515D01*
X120118436Y-82961461D01*
X120627298Y-83172759D01*
X121178285Y-83173240D01*
X121687515Y-82962831D01*
X122077461Y-82573564D01*
X122173976Y-82341130D01*
X122269169Y-82571515D01*
X122658436Y-82961461D01*
X123167298Y-83172759D01*
X123718285Y-83173240D01*
X124227515Y-82962831D01*
X124617461Y-82573564D01*
X124828759Y-82064702D01*
X124829240Y-81513715D01*
X124618831Y-81004485D01*
X124229564Y-80614539D01*
X123720702Y-80403241D01*
X123169715Y-80402760D01*
X122660485Y-80613169D01*
X122270539Y-81002436D01*
X122174024Y-81234870D01*
X122078831Y-81004485D01*
X121689564Y-80614539D01*
X121180702Y-80403241D01*
X120859198Y-80402960D01*
X121000558Y-80261600D01*
X128066800Y-80261600D01*
X128367207Y-80201845D01*
X128621879Y-80031679D01*
X128765558Y-79888000D01*
X139263060Y-79888000D01*
X139263060Y-81088000D01*
X139307338Y-81323317D01*
X139446410Y-81539441D01*
X139658610Y-81684431D01*
X139910500Y-81735440D01*
X141710500Y-81735440D01*
X141945817Y-81691162D01*
X142161941Y-81552090D01*
X142292035Y-81361691D01*
X143275500Y-81361691D01*
X143275500Y-81502250D01*
X143434250Y-81661000D01*
X144558500Y-81661000D01*
X144558500Y-81011750D01*
X144399750Y-80853000D01*
X143784190Y-80853000D01*
X143550801Y-80949673D01*
X143372173Y-81128302D01*
X143275500Y-81361691D01*
X142292035Y-81361691D01*
X142306931Y-81339890D01*
X142357940Y-81088000D01*
X142357940Y-79888000D01*
X142313662Y-79652683D01*
X142174590Y-79436559D01*
X141962390Y-79291569D01*
X141710500Y-79240560D01*
X139910500Y-79240560D01*
X139675183Y-79284838D01*
X139459059Y-79423910D01*
X139314069Y-79636110D01*
X139263060Y-79888000D01*
X128765558Y-79888000D01*
X129383879Y-79269679D01*
X129554045Y-79015006D01*
X129613800Y-78714600D01*
X129613800Y-76471325D01*
X129614587Y-76471325D01*
X129976916Y-77348229D01*
X130647242Y-78019726D01*
X131523513Y-78383585D01*
X132472325Y-78384413D01*
X133349229Y-78022084D01*
X134020726Y-77351758D01*
X134384585Y-76475487D01*
X134385413Y-75526675D01*
X134023084Y-74649771D01*
X133352758Y-73978274D01*
X132476487Y-73614415D01*
X131527675Y-73613587D01*
X130650771Y-73975916D01*
X129979274Y-74646242D01*
X129615415Y-75522513D01*
X129614587Y-76471325D01*
X129613800Y-76471325D01*
X129613800Y-69997358D01*
X130462835Y-69148322D01*
X130497860Y-69124919D01*
X138127778Y-61495001D01*
X139738861Y-61495001D01*
X138444921Y-62788941D01*
G36*
X155663458Y-83898487D02*
X155805503Y-84242263D01*
X156068293Y-84505512D01*
X156411821Y-84648158D01*
X156783787Y-84648482D01*
X157127563Y-84506437D01*
X157390812Y-84243647D01*
X157533458Y-83900119D01*
X157533611Y-83725000D01*
X180354537Y-83725000D01*
X179866364Y-84212321D01*
X179525389Y-85033481D01*
X179524613Y-85922619D01*
X179864155Y-86744372D01*
X180492321Y-87373636D01*
X181313481Y-87714611D01*
X182202619Y-87715387D01*
X183024372Y-87375845D01*
X183653636Y-86747679D01*
X183994611Y-85926519D01*
X183995387Y-85037381D01*
X183655845Y-84215628D01*
X183166073Y-83725000D01*
X195737184Y-83725000D01*
X195940330Y-84029029D01*
X196378300Y-84321672D01*
X193820418Y-86879554D01*
X193752520Y-86924922D01*
X193247094Y-87430348D01*
X193208821Y-87455921D01*
X191787742Y-88877000D01*
X177809848Y-88877000D01*
X178064526Y-88495848D01*
X178178600Y-87922359D01*
X178178600Y-87863641D01*
X178064526Y-87290152D01*
X177739670Y-86803971D01*
X177468828Y-86623000D01*
X177739670Y-86442029D01*
X178064526Y-85955848D01*
X178178600Y-85382359D01*
X178178600Y-85323641D01*
X178064526Y-84750152D01*
X177739670Y-84263971D01*
X177253489Y-83939115D01*
X176680000Y-83825041D01*
X176106511Y-83939115D01*
X175620330Y-84263971D01*
X175410000Y-84578752D01*
X175199670Y-84263971D01*
X174713489Y-83939115D01*
X174140000Y-83825041D01*
X173566511Y-83939115D01*
X173080330Y-84263971D01*
X172864336Y-84587228D01*
X172806821Y-84464510D01*
X172374947Y-84070312D01*
X171959026Y-83898042D01*
X171727000Y-84019183D01*
X171727000Y-85226000D01*
X171747000Y-85226000D01*
X171747000Y-85480000D01*
X171727000Y-85480000D01*
X171727000Y-85500000D01*
X171473000Y-85500000D01*
X171473000Y-85480000D01*
X170265531Y-85480000D01*
X170145032Y-85712027D01*
X170393179Y-86241490D01*
X170811161Y-86623008D01*
X170540330Y-86803971D01*
X170215474Y-87290152D01*
X170101400Y-87863641D01*
X170101400Y-87922359D01*
X170215474Y-88495848D01*
X170470152Y-88877000D01*
X155367156Y-88877000D01*
X154205493Y-87715337D01*
X154262619Y-87715387D01*
X155084372Y-87375845D01*
X155713636Y-86747679D01*
X156054611Y-85926519D01*
X156055387Y-85037381D01*
X156037452Y-84993973D01*
X170145032Y-84993973D01*
X170265531Y-85226000D01*
X171473000Y-85226000D01*
X171473000Y-84019183D01*
X171240974Y-83898042D01*
X170825053Y-84070312D01*
X170393179Y-84464510D01*
X170145032Y-84993973D01*
X156037452Y-84993973D01*
X155715845Y-84215628D01*
X155226073Y-83725000D01*
X155663609Y-83725000D01*
X155663458Y-83898487D01*
X155663458Y-83898487D01*
G37*
X155663458Y-83898487D02*
X155805503Y-84242263D01*
X156068293Y-84505512D01*
X156411821Y-84648158D01*
X156783787Y-84648482D01*
X157127563Y-84506437D01*
X157390812Y-84243647D01*
X157533458Y-83900119D01*
X157533611Y-83725000D01*
X180354537Y-83725000D01*
X179866364Y-84212321D01*
X179525389Y-85033481D01*
X179524613Y-85922619D01*
X179864155Y-86744372D01*
X180492321Y-87373636D01*
X181313481Y-87714611D01*
X182202619Y-87715387D01*
X183024372Y-87375845D01*
X183653636Y-86747679D01*
X183994611Y-85926519D01*
X183995387Y-85037381D01*
X183655845Y-84215628D01*
X183166073Y-83725000D01*
X195737184Y-83725000D01*
X195940330Y-84029029D01*
X196378300Y-84321672D01*
X193820418Y-86879554D01*
X193752520Y-86924922D01*
X193247094Y-87430348D01*
X193208821Y-87455921D01*
X191787742Y-88877000D01*
X177809848Y-88877000D01*
X178064526Y-88495848D01*
X178178600Y-87922359D01*
X178178600Y-87863641D01*
X178064526Y-87290152D01*
X177739670Y-86803971D01*
X177468828Y-86623000D01*
X177739670Y-86442029D01*
X178064526Y-85955848D01*
X178178600Y-85382359D01*
X178178600Y-85323641D01*
X178064526Y-84750152D01*
X177739670Y-84263971D01*
X177253489Y-83939115D01*
X176680000Y-83825041D01*
X176106511Y-83939115D01*
X175620330Y-84263971D01*
X175410000Y-84578752D01*
X175199670Y-84263971D01*
X174713489Y-83939115D01*
X174140000Y-83825041D01*
X173566511Y-83939115D01*
X173080330Y-84263971D01*
X172864336Y-84587228D01*
X172806821Y-84464510D01*
X172374947Y-84070312D01*
X171959026Y-83898042D01*
X171727000Y-84019183D01*
X171727000Y-85226000D01*
X171747000Y-85226000D01*
X171747000Y-85480000D01*
X171727000Y-85480000D01*
X171727000Y-85500000D01*
X171473000Y-85500000D01*
X171473000Y-85480000D01*
X170265531Y-85480000D01*
X170145032Y-85712027D01*
X170393179Y-86241490D01*
X170811161Y-86623008D01*
X170540330Y-86803971D01*
X170215474Y-87290152D01*
X170101400Y-87863641D01*
X170101400Y-87922359D01*
X170215474Y-88495848D01*
X170470152Y-88877000D01*
X155367156Y-88877000D01*
X154205493Y-87715337D01*
X154262619Y-87715387D01*
X155084372Y-87375845D01*
X155713636Y-86747679D01*
X156054611Y-85926519D01*
X156055387Y-85037381D01*
X156037452Y-84993973D01*
X170145032Y-84993973D01*
X170265531Y-85226000D01*
X171473000Y-85226000D01*
X171473000Y-84019183D01*
X171240974Y-83898042D01*
X170825053Y-84070312D01*
X170393179Y-84464510D01*
X170145032Y-84993973D01*
X156037452Y-84993973D01*
X155715845Y-84215628D01*
X155226073Y-83725000D01*
X155663609Y-83725000D01*
X155663458Y-83898487D01*
G36*
X142320853Y-63050054D02*
X142650026Y-63270000D01*
X142320853Y-63489946D01*
X141998946Y-63971715D01*
X141885907Y-64540000D01*
X141998946Y-65108285D01*
X142320853Y-65590054D01*
X142650026Y-65810000D01*
X142320853Y-66029946D01*
X141998946Y-66511715D01*
X141885907Y-67080000D01*
X141998946Y-67648285D01*
X142320853Y-68130054D01*
X142650026Y-68350000D01*
X142320853Y-68569946D01*
X141998946Y-69051715D01*
X141885907Y-69620000D01*
X141998946Y-70188285D01*
X142320853Y-70670054D01*
X142650026Y-70890000D01*
X142320853Y-71109946D01*
X141998946Y-71591715D01*
X141885907Y-72160000D01*
X141998946Y-72728285D01*
X142320853Y-73210054D01*
X142661553Y-73437702D01*
X142518642Y-73504817D01*
X142128355Y-73933076D01*
X141958524Y-74343110D01*
X142079845Y-74573000D01*
X143273000Y-74573000D01*
X143273000Y-74553000D01*
X143527000Y-74553000D01*
X143527000Y-74573000D01*
X144720155Y-74573000D01*
X144841476Y-74343110D01*
X144671645Y-73933076D01*
X144281358Y-73504817D01*
X144138447Y-73437702D01*
X144479147Y-73210054D01*
X144801054Y-72728285D01*
X144914093Y-72160000D01*
X144847076Y-71823082D01*
X146921557Y-69748601D01*
X147333305Y-69748601D01*
X147241400Y-70210641D01*
X147241400Y-70269359D01*
X147355474Y-70842848D01*
X147680330Y-71329029D01*
X147951172Y-71510000D01*
X147680330Y-71690971D01*
X147355474Y-72177152D01*
X147241400Y-72750641D01*
X147241400Y-72809359D01*
X147355474Y-73382848D01*
X147680330Y-73869029D01*
X147951172Y-74050000D01*
X147680330Y-74230971D01*
X147355474Y-74717152D01*
X147241400Y-75290641D01*
X147241400Y-75349359D01*
X147355474Y-75922848D01*
X147680330Y-76409029D01*
X147951172Y-76590000D01*
X147680330Y-76770971D01*
X147355474Y-77257152D01*
X147241400Y-77830641D01*
X147241400Y-77889359D01*
X147355474Y-78462848D01*
X147680330Y-78949029D01*
X148166511Y-79273885D01*
X148740000Y-79387959D01*
X149313489Y-79273885D01*
X149799670Y-78949029D01*
X150124526Y-78462848D01*
X150238600Y-77889359D01*
X150238600Y-77830641D01*
X150124526Y-77257152D01*
X149799670Y-76770971D01*
X149528828Y-76590000D01*
X149799670Y-76409029D01*
X150124526Y-75922848D01*
X150238600Y-75349359D01*
X150238600Y-75290641D01*
X150124526Y-74717152D01*
X149799670Y-74230971D01*
X149528828Y-74050000D01*
X149799670Y-73869029D01*
X150124526Y-73382848D01*
X150238600Y-72809359D01*
X150238600Y-72750641D01*
X150124526Y-72177152D01*
X149799670Y-71690971D01*
X149528828Y-71510000D01*
X149799670Y-71329029D01*
X150124526Y-70842848D01*
X150238600Y-70269359D01*
X150238600Y-70210641D01*
X150146695Y-69748601D01*
X156471242Y-69748601D01*
X156415996Y-69803847D01*
X156405833Y-69803838D01*
X156062057Y-69945883D01*
X155798808Y-70208673D01*
X155656162Y-70552201D01*
X155655838Y-70924167D01*
X155797883Y-71267943D01*
X156060673Y-71531192D01*
X156404201Y-71673838D01*
X156776167Y-71674162D01*
X157119943Y-71532117D01*
X157383192Y-71269327D01*
X157488383Y-71016000D01*
X176577354Y-71016000D01*
X176622600Y-71025000D01*
X195737184Y-71025000D01*
X195940330Y-71329029D01*
X196211172Y-71510000D01*
X195940330Y-71690971D01*
X195737184Y-71995000D01*
X191540020Y-71995000D01*
X191534188Y-71996160D01*
X185229500Y-71996160D01*
X185216731Y-71998700D01*
X157416500Y-71998700D01*
X157116093Y-72058455D01*
X156861421Y-72228621D01*
X156568395Y-72521647D01*
X156558233Y-72521638D01*
X156214457Y-72663683D01*
X155951208Y-72926473D01*
X155808562Y-73270001D01*
X155808238Y-73641967D01*
X155950283Y-73985743D01*
X156213073Y-74248992D01*
X156556601Y-74391638D01*
X156928567Y-74391962D01*
X157272343Y-74249917D01*
X157535592Y-73987127D01*
X157678238Y-73643599D01*
X157678248Y-73632110D01*
X157741658Y-73568700D01*
X185226960Y-73568700D01*
X185239729Y-73566160D01*
X191538860Y-73566160D01*
X191544692Y-73565000D01*
X195737184Y-73565000D01*
X195940330Y-73869029D01*
X196211172Y-74050000D01*
X195940330Y-74230971D01*
X195615474Y-74717152D01*
X195501400Y-75290641D01*
X195501400Y-75349359D01*
X195615474Y-75922848D01*
X195940330Y-76409029D01*
X196211172Y-76590000D01*
X195940330Y-76770971D01*
X195615474Y-77257152D01*
X195501400Y-77830641D01*
X195501400Y-77889359D01*
X195615474Y-78462848D01*
X195940330Y-78949029D01*
X196211172Y-79130000D01*
X195940330Y-79310971D01*
X195615474Y-79797152D01*
X195501400Y-80370641D01*
X195501400Y-80429359D01*
X195615474Y-81002848D01*
X195940330Y-81489029D01*
X196211172Y-81670000D01*
X195940330Y-81850971D01*
X195737184Y-82155000D01*
X177604504Y-82155000D01*
X177628095Y-82036400D01*
X178054000Y-82036400D01*
X178430943Y-81961421D01*
X178750500Y-81747900D01*
X178964021Y-81428343D01*
X179039000Y-81051400D01*
X178964021Y-80674457D01*
X178750500Y-80354900D01*
X178430943Y-80141379D01*
X178054000Y-80066400D01*
X147655957Y-80066400D01*
X147595021Y-79760057D01*
X147381500Y-79440500D01*
X146517900Y-78576900D01*
X146198343Y-78363379D01*
X145821400Y-78288400D01*
X144857263Y-78288400D01*
X144897440Y-78090000D01*
X144897440Y-76390000D01*
X144853162Y-76154683D01*
X144714090Y-75938559D01*
X144501890Y-75793569D01*
X144393893Y-75771699D01*
X144671645Y-75466924D01*
X144841476Y-75056890D01*
X144720155Y-74827000D01*
X143527000Y-74827000D01*
X143527000Y-74847000D01*
X143273000Y-74847000D01*
X143273000Y-74827000D01*
X142079845Y-74827000D01*
X141958524Y-75056890D01*
X142128355Y-75466924D01*
X142404501Y-75769937D01*
X142314683Y-75786838D01*
X142098559Y-75925910D01*
X141953569Y-76138110D01*
X141902560Y-76390000D01*
X141902560Y-76455000D01*
X141573158Y-76455000D01*
X139785000Y-74666842D01*
X139785000Y-70372038D01*
X139885317Y-70353162D01*
X140101441Y-70214090D01*
X140246431Y-70001890D01*
X140297440Y-69750000D01*
X140297440Y-68250000D01*
X140253162Y-68014683D01*
X140114090Y-67798559D01*
X139901890Y-67653569D01*
X139888803Y-67650919D01*
X140101441Y-67514090D01*
X140246431Y-67301890D01*
X140297440Y-67050000D01*
X140297440Y-65550000D01*
X140253162Y-65314683D01*
X140114090Y-65098559D01*
X139901890Y-64953569D01*
X139785000Y-64929898D01*
X139785000Y-63669178D01*
X140669178Y-62785000D01*
X142143750Y-62785000D01*
X142320853Y-63050054D01*
X142320853Y-63050054D01*
G37*
X142320853Y-63050054D02*
X142650026Y-63270000D01*
X142320853Y-63489946D01*
X141998946Y-63971715D01*
X141885907Y-64540000D01*
X141998946Y-65108285D01*
X142320853Y-65590054D01*
X142650026Y-65810000D01*
X142320853Y-66029946D01*
X141998946Y-66511715D01*
X141885907Y-67080000D01*
X141998946Y-67648285D01*
X142320853Y-68130054D01*
X142650026Y-68350000D01*
X142320853Y-68569946D01*
X141998946Y-69051715D01*
X141885907Y-69620000D01*
X141998946Y-70188285D01*
X142320853Y-70670054D01*
X142650026Y-70890000D01*
X142320853Y-71109946D01*
X141998946Y-71591715D01*
X141885907Y-72160000D01*
X141998946Y-72728285D01*
X142320853Y-73210054D01*
X142661553Y-73437702D01*
X142518642Y-73504817D01*
X142128355Y-73933076D01*
X141958524Y-74343110D01*
X142079845Y-74573000D01*
X143273000Y-74573000D01*
X143273000Y-74553000D01*
X143527000Y-74553000D01*
X143527000Y-74573000D01*
X144720155Y-74573000D01*
X144841476Y-74343110D01*
X144671645Y-73933076D01*
X144281358Y-73504817D01*
X144138447Y-73437702D01*
X144479147Y-73210054D01*
X144801054Y-72728285D01*
X144914093Y-72160000D01*
X144847076Y-71823082D01*
X146921557Y-69748601D01*
X147333305Y-69748601D01*
X147241400Y-70210641D01*
X147241400Y-70269359D01*
X147355474Y-70842848D01*
X147680330Y-71329029D01*
X147951172Y-71510000D01*
X147680330Y-71690971D01*
X147355474Y-72177152D01*
X147241400Y-72750641D01*
X147241400Y-72809359D01*
X147355474Y-73382848D01*
X147680330Y-73869029D01*
X147951172Y-74050000D01*
X147680330Y-74230971D01*
X147355474Y-74717152D01*
X147241400Y-75290641D01*
X147241400Y-75349359D01*
X147355474Y-75922848D01*
X147680330Y-76409029D01*
X147951172Y-76590000D01*
X147680330Y-76770971D01*
X147355474Y-77257152D01*
X147241400Y-77830641D01*
X147241400Y-77889359D01*
X147355474Y-78462848D01*
X147680330Y-78949029D01*
X148166511Y-79273885D01*
X148740000Y-79387959D01*
X149313489Y-79273885D01*
X149799670Y-78949029D01*
X150124526Y-78462848D01*
X150238600Y-77889359D01*
X150238600Y-77830641D01*
X150124526Y-77257152D01*
X149799670Y-76770971D01*
X149528828Y-76590000D01*
X149799670Y-76409029D01*
X150124526Y-75922848D01*
X150238600Y-75349359D01*
X150238600Y-75290641D01*
X150124526Y-74717152D01*
X149799670Y-74230971D01*
X149528828Y-74050000D01*
X149799670Y-73869029D01*
X150124526Y-73382848D01*
X150238600Y-72809359D01*
X150238600Y-72750641D01*
X150124526Y-72177152D01*
X149799670Y-71690971D01*
X149528828Y-71510000D01*
X149799670Y-71329029D01*
X150124526Y-70842848D01*
X150238600Y-70269359D01*
X150238600Y-70210641D01*
X150146695Y-69748601D01*
X156471242Y-69748601D01*
X156415996Y-69803847D01*
X156405833Y-69803838D01*
X156062057Y-69945883D01*
X155798808Y-70208673D01*
X155656162Y-70552201D01*
X155655838Y-70924167D01*
X155797883Y-71267943D01*
X156060673Y-71531192D01*
X156404201Y-71673838D01*
X156776167Y-71674162D01*
X157119943Y-71532117D01*
X157383192Y-71269327D01*
X157488383Y-71016000D01*
X176577354Y-71016000D01*
X176622600Y-71025000D01*
X195737184Y-71025000D01*
X195940330Y-71329029D01*
X196211172Y-71510000D01*
X195940330Y-71690971D01*
X195737184Y-71995000D01*
X191540020Y-71995000D01*
X191534188Y-71996160D01*
X185229500Y-71996160D01*
X185216731Y-71998700D01*
X157416500Y-71998700D01*
X157116093Y-72058455D01*
X156861421Y-72228621D01*
X156568395Y-72521647D01*
X156558233Y-72521638D01*
X156214457Y-72663683D01*
X155951208Y-72926473D01*
X155808562Y-73270001D01*
X155808238Y-73641967D01*
X155950283Y-73985743D01*
X156213073Y-74248992D01*
X156556601Y-74391638D01*
X156928567Y-74391962D01*
X157272343Y-74249917D01*
X157535592Y-73987127D01*
X157678238Y-73643599D01*
X157678248Y-73632110D01*
X157741658Y-73568700D01*
X185226960Y-73568700D01*
X185239729Y-73566160D01*
X191538860Y-73566160D01*
X191544692Y-73565000D01*
X195737184Y-73565000D01*
X195940330Y-73869029D01*
X196211172Y-74050000D01*
X195940330Y-74230971D01*
X195615474Y-74717152D01*
X195501400Y-75290641D01*
X195501400Y-75349359D01*
X195615474Y-75922848D01*
X195940330Y-76409029D01*
X196211172Y-76590000D01*
X195940330Y-76770971D01*
X195615474Y-77257152D01*
X195501400Y-77830641D01*
X195501400Y-77889359D01*
X195615474Y-78462848D01*
X195940330Y-78949029D01*
X196211172Y-79130000D01*
X195940330Y-79310971D01*
X195615474Y-79797152D01*
X195501400Y-80370641D01*
X195501400Y-80429359D01*
X195615474Y-81002848D01*
X195940330Y-81489029D01*
X196211172Y-81670000D01*
X195940330Y-81850971D01*
X195737184Y-82155000D01*
X177604504Y-82155000D01*
X177628095Y-82036400D01*
X178054000Y-82036400D01*
X178430943Y-81961421D01*
X178750500Y-81747900D01*
X178964021Y-81428343D01*
X179039000Y-81051400D01*
X178964021Y-80674457D01*
X178750500Y-80354900D01*
X178430943Y-80141379D01*
X178054000Y-80066400D01*
X147655957Y-80066400D01*
X147595021Y-79760057D01*
X147381500Y-79440500D01*
X146517900Y-78576900D01*
X146198343Y-78363379D01*
X145821400Y-78288400D01*
X144857263Y-78288400D01*
X144897440Y-78090000D01*
X144897440Y-76390000D01*
X144853162Y-76154683D01*
X144714090Y-75938559D01*
X144501890Y-75793569D01*
X144393893Y-75771699D01*
X144671645Y-75466924D01*
X144841476Y-75056890D01*
X144720155Y-74827000D01*
X143527000Y-74827000D01*
X143527000Y-74847000D01*
X143273000Y-74847000D01*
X143273000Y-74827000D01*
X142079845Y-74827000D01*
X141958524Y-75056890D01*
X142128355Y-75466924D01*
X142404501Y-75769937D01*
X142314683Y-75786838D01*
X142098559Y-75925910D01*
X141953569Y-76138110D01*
X141902560Y-76390000D01*
X141902560Y-76455000D01*
X141573158Y-76455000D01*
X139785000Y-74666842D01*
X139785000Y-70372038D01*
X139885317Y-70353162D01*
X140101441Y-70214090D01*
X140246431Y-70001890D01*
X140297440Y-69750000D01*
X140297440Y-68250000D01*
X140253162Y-68014683D01*
X140114090Y-67798559D01*
X139901890Y-67653569D01*
X139888803Y-67650919D01*
X140101441Y-67514090D01*
X140246431Y-67301890D01*
X140297440Y-67050000D01*
X140297440Y-65550000D01*
X140253162Y-65314683D01*
X140114090Y-65098559D01*
X139901890Y-64953569D01*
X139785000Y-64929898D01*
X139785000Y-63669178D01*
X140669178Y-62785000D01*
X142143750Y-62785000D01*
X142320853Y-63050054D01*
G36*
X103127000Y-77873000D02*
X104873000Y-77873000D01*
X104873000Y-77853000D01*
X105127000Y-77853000D01*
X105127000Y-77873000D01*
X105147000Y-77873000D01*
X105147000Y-78127000D01*
X105127000Y-78127000D01*
X105127000Y-78147000D01*
X104873000Y-78147000D01*
X104873000Y-78127000D01*
X103127000Y-78127000D01*
X103127000Y-79145090D01*
X103329402Y-79267920D01*
X103789540Y-79045349D01*
X104000000Y-78809024D01*
X104210460Y-79045349D01*
X104578480Y-79223362D01*
X103398603Y-80403239D01*
X102849715Y-80402760D01*
X102356400Y-80606593D01*
X102356400Y-79115941D01*
X102670598Y-79267920D01*
X102873000Y-79145090D01*
X102873000Y-78127000D01*
X102853000Y-78127000D01*
X102853000Y-77873000D01*
X102873000Y-77873000D01*
X102873000Y-77853000D01*
X103127000Y-77853000D01*
X103127000Y-77873000D01*
X103127000Y-77873000D01*
G37*
X103127000Y-77873000D02*
X104873000Y-77873000D01*
X104873000Y-77853000D01*
X105127000Y-77853000D01*
X105127000Y-77873000D01*
X105147000Y-77873000D01*
X105147000Y-78127000D01*
X105127000Y-78127000D01*
X105127000Y-78147000D01*
X104873000Y-78147000D01*
X104873000Y-78127000D01*
X103127000Y-78127000D01*
X103127000Y-79145090D01*
X103329402Y-79267920D01*
X103789540Y-79045349D01*
X104000000Y-78809024D01*
X104210460Y-79045349D01*
X104578480Y-79223362D01*
X103398603Y-80403239D01*
X102849715Y-80402760D01*
X102356400Y-80606593D01*
X102356400Y-79115941D01*
X102670598Y-79267920D01*
X102873000Y-79145090D01*
X102873000Y-78127000D01*
X102853000Y-78127000D01*
X102853000Y-77873000D01*
X102873000Y-77873000D01*
X102873000Y-77853000D01*
X103127000Y-77853000D01*
X103127000Y-77873000D01*
G36*
X111203600Y-69313758D02*
X111203600Y-80479187D01*
X111020702Y-80403241D01*
X110469715Y-80402760D01*
X110259000Y-80489825D01*
X110259000Y-68474000D01*
X110238859Y-68372743D01*
X110232967Y-68343125D01*
X111203600Y-69313758D01*
X111203600Y-69313758D01*
G37*
X111203600Y-69313758D02*
X111203600Y-80479187D01*
X111020702Y-80403241D01*
X110469715Y-80402760D01*
X110259000Y-80489825D01*
X110259000Y-68474000D01*
X110238859Y-68372743D01*
X110232967Y-68343125D01*
X111203600Y-69313758D01*
G36*
X199290000Y-63940842D02*
X198690478Y-63341320D01*
X198435806Y-63171154D01*
X198355246Y-63155130D01*
X198893636Y-62617679D01*
X199234611Y-61796519D01*
X199235387Y-60907381D01*
X198895845Y-60085628D01*
X198267679Y-59456364D01*
X197446519Y-59115389D01*
X196557381Y-59114613D01*
X195735628Y-59454155D01*
X195106364Y-60082321D01*
X194765389Y-60903481D01*
X194764613Y-61792619D01*
X195104155Y-62614372D01*
X195600315Y-63111399D01*
X191856206Y-63111399D01*
X191856201Y-63111398D01*
X191805919Y-63121400D01*
X188115001Y-63121400D01*
X187814595Y-63181155D01*
X187559922Y-63351321D01*
X185272642Y-65638601D01*
X150149240Y-65638601D01*
X150238600Y-65189359D01*
X150238600Y-65130641D01*
X150124526Y-64557152D01*
X149799670Y-64070971D01*
X149528828Y-63890000D01*
X149799670Y-63709029D01*
X150124526Y-63222848D01*
X150238600Y-62649359D01*
X150238600Y-62590641D01*
X150124526Y-62017152D01*
X149799670Y-61530971D01*
X149528828Y-61350000D01*
X149799670Y-61169029D01*
X150124526Y-60682848D01*
X150238600Y-60109359D01*
X150238600Y-60050641D01*
X150124526Y-59477152D01*
X149799670Y-58990971D01*
X149313489Y-58666115D01*
X148740000Y-58552041D01*
X148166511Y-58666115D01*
X147680330Y-58990971D01*
X147355474Y-59477152D01*
X147241400Y-60050641D01*
X147241400Y-60109359D01*
X147355474Y-60682848D01*
X147680330Y-61169029D01*
X147951172Y-61350000D01*
X147680330Y-61530971D01*
X147355474Y-62017152D01*
X147241400Y-62590641D01*
X147241400Y-62649359D01*
X147355474Y-63222848D01*
X147680330Y-63709029D01*
X147951172Y-63890000D01*
X147680330Y-64070971D01*
X147355474Y-64557152D01*
X147241400Y-65130641D01*
X147241400Y-65189359D01*
X147330760Y-65638601D01*
X146596399Y-65638601D01*
X146295993Y-65698356D01*
X146041320Y-65868522D01*
X144900115Y-67009727D01*
X144801054Y-66511715D01*
X144479147Y-66029946D01*
X144149974Y-65810000D01*
X144479147Y-65590054D01*
X144801054Y-65108285D01*
X144914093Y-64540000D01*
X144801054Y-63971715D01*
X144479147Y-63489946D01*
X144149974Y-63270000D01*
X144479147Y-63050054D01*
X144801054Y-62568285D01*
X144914093Y-62000000D01*
X144801054Y-61431715D01*
X144635786Y-61184374D01*
X145563679Y-60256481D01*
X145733845Y-60001809D01*
X145793600Y-59701402D01*
X145793600Y-55988600D01*
X145733845Y-55688194D01*
X145563679Y-55433521D01*
X144847076Y-54716918D01*
X144914093Y-54380000D01*
X144847076Y-54043082D01*
X145055159Y-53834999D01*
X146803728Y-53834999D01*
X146505389Y-54553481D01*
X146504613Y-55442619D01*
X146844155Y-56264372D01*
X147472321Y-56893636D01*
X148293481Y-57234611D01*
X149182619Y-57235387D01*
X150004372Y-56895845D01*
X150446600Y-56454389D01*
X150446600Y-56536294D01*
X150439408Y-56543473D01*
X150296762Y-56887001D01*
X150296438Y-57258967D01*
X150438483Y-57602743D01*
X150701273Y-57865992D01*
X151044801Y-58008638D01*
X151416767Y-58008962D01*
X151682830Y-57899027D01*
X152365032Y-57899027D01*
X152613179Y-58428490D01*
X153045053Y-58822688D01*
X153460974Y-58994958D01*
X153693000Y-58873817D01*
X153693000Y-57667000D01*
X152485531Y-57667000D01*
X152365032Y-57899027D01*
X151682830Y-57899027D01*
X151760543Y-57866917D01*
X152023792Y-57604127D01*
X152166438Y-57260599D01*
X152166762Y-56888633D01*
X152024717Y-56544857D01*
X152016600Y-56536726D01*
X152016600Y-55359027D01*
X152365032Y-55359027D01*
X152613179Y-55888490D01*
X153031152Y-56270000D01*
X152613179Y-56651510D01*
X152365032Y-57180973D01*
X152485531Y-57413000D01*
X153693000Y-57413000D01*
X153693000Y-55127000D01*
X152485531Y-55127000D01*
X152365032Y-55359027D01*
X152016600Y-55359027D01*
X152016600Y-54985958D01*
X152368073Y-54634485D01*
X152365032Y-54640973D01*
X152485531Y-54873000D01*
X153693000Y-54873000D01*
X153693000Y-54853000D01*
X153947000Y-54853000D01*
X153947000Y-54873000D01*
X153967000Y-54873000D01*
X153967000Y-55127000D01*
X153947000Y-55127000D01*
X153947000Y-57413000D01*
X153967000Y-57413000D01*
X153967000Y-57667000D01*
X153947000Y-57667000D01*
X153947000Y-58873817D01*
X154179026Y-58994958D01*
X154594947Y-58822688D01*
X155026821Y-58428490D01*
X155084336Y-58305772D01*
X155300330Y-58629029D01*
X155786511Y-58953885D01*
X156360000Y-59067959D01*
X156933489Y-58953885D01*
X157419670Y-58629029D01*
X157630000Y-58314248D01*
X157840330Y-58629029D01*
X158326511Y-58953885D01*
X158900000Y-59067959D01*
X159473489Y-58953885D01*
X159959670Y-58629029D01*
X160170000Y-58314248D01*
X160380330Y-58629029D01*
X160866511Y-58953885D01*
X161440000Y-59067959D01*
X162013489Y-58953885D01*
X162499670Y-58629029D01*
X162710000Y-58314248D01*
X162920330Y-58629029D01*
X163406511Y-58953885D01*
X163980000Y-59067959D01*
X164553489Y-58953885D01*
X165039670Y-58629029D01*
X165250000Y-58314248D01*
X165460330Y-58629029D01*
X165946511Y-58953885D01*
X166520000Y-59067959D01*
X167093489Y-58953885D01*
X167579670Y-58629029D01*
X167790000Y-58314248D01*
X168000330Y-58629029D01*
X168486511Y-58953885D01*
X169060000Y-59067959D01*
X169633489Y-58953885D01*
X170119670Y-58629029D01*
X170330000Y-58314248D01*
X170540330Y-58629029D01*
X171026511Y-58953885D01*
X171600000Y-59067959D01*
X172173489Y-58953885D01*
X172659670Y-58629029D01*
X172870000Y-58314248D01*
X173080330Y-58629029D01*
X173566511Y-58953885D01*
X174140000Y-59067959D01*
X174713489Y-58953885D01*
X175199670Y-58629029D01*
X175410000Y-58314248D01*
X175620330Y-58629029D01*
X176106511Y-58953885D01*
X176680000Y-59067959D01*
X177253489Y-58953885D01*
X177739670Y-58629029D01*
X177950000Y-58314248D01*
X178160330Y-58629029D01*
X178646511Y-58953885D01*
X179220000Y-59067959D01*
X179793489Y-58953885D01*
X180279670Y-58629029D01*
X180490000Y-58314248D01*
X180700330Y-58629029D01*
X181186511Y-58953885D01*
X181760000Y-59067959D01*
X182333489Y-58953885D01*
X182819670Y-58629029D01*
X183030000Y-58314248D01*
X183240330Y-58629029D01*
X183726511Y-58953885D01*
X184300000Y-59067959D01*
X184873489Y-58953885D01*
X185359670Y-58629029D01*
X185570000Y-58314248D01*
X185780330Y-58629029D01*
X186266511Y-58953885D01*
X186840000Y-59067959D01*
X187413489Y-58953885D01*
X187899670Y-58629029D01*
X188110000Y-58314248D01*
X188320330Y-58629029D01*
X188806511Y-58953885D01*
X189380000Y-59067959D01*
X189953489Y-58953885D01*
X190439670Y-58629029D01*
X190650000Y-58314248D01*
X190860330Y-58629029D01*
X191346511Y-58953885D01*
X191920000Y-59067959D01*
X192493489Y-58953885D01*
X192979670Y-58629029D01*
X193190000Y-58314248D01*
X193400330Y-58629029D01*
X193886511Y-58953885D01*
X194460000Y-59067959D01*
X195033489Y-58953885D01*
X195519670Y-58629029D01*
X195730000Y-58314248D01*
X195940330Y-58629029D01*
X196426511Y-58953885D01*
X197000000Y-59067959D01*
X197573489Y-58953885D01*
X198059670Y-58629029D01*
X198384526Y-58142848D01*
X198498600Y-57569359D01*
X198498600Y-57510641D01*
X198384526Y-56937152D01*
X198059670Y-56450971D01*
X197788828Y-56270000D01*
X198059670Y-56089029D01*
X198384526Y-55602848D01*
X198498600Y-55029359D01*
X198498600Y-54970641D01*
X198384526Y-54397152D01*
X198059670Y-53910971D01*
X197573489Y-53586115D01*
X197000000Y-53472041D01*
X196426511Y-53586115D01*
X195940330Y-53910971D01*
X195730000Y-54225752D01*
X195519670Y-53910971D01*
X195033489Y-53586115D01*
X194460000Y-53472041D01*
X194111516Y-53541359D01*
X192339079Y-51768921D01*
X192084407Y-51598755D01*
X191784000Y-51539000D01*
X142900400Y-51539000D01*
X142599993Y-51598755D01*
X142345321Y-51768921D01*
X141049921Y-53064321D01*
X140879755Y-53318993D01*
X140823857Y-53600009D01*
X140820000Y-53619400D01*
X140820000Y-57665000D01*
X140879755Y-57965407D01*
X141049921Y-58220079D01*
X141952924Y-59123082D01*
X141885907Y-59460000D01*
X141978402Y-59925001D01*
X137802620Y-59925001D01*
X137502214Y-59984756D01*
X137247541Y-60154922D01*
X129411102Y-67991361D01*
X129376081Y-68014761D01*
X129376079Y-68014764D01*
X128273721Y-69117121D01*
X128127357Y-69336170D01*
X127951974Y-69073690D01*
X127841689Y-69000000D01*
X127951974Y-68926310D01*
X128235946Y-68501315D01*
X128335664Y-68000000D01*
X128235946Y-67498685D01*
X127951974Y-67073690D01*
X127841689Y-67000000D01*
X127951974Y-66926310D01*
X128235946Y-66501315D01*
X128335664Y-66000000D01*
X128235946Y-65498685D01*
X127951974Y-65073690D01*
X127841689Y-65000000D01*
X127951974Y-64926310D01*
X128235946Y-64501315D01*
X128335664Y-64000000D01*
X128235946Y-63498685D01*
X127951974Y-63073690D01*
X127841689Y-63000000D01*
X127951974Y-62926310D01*
X128235946Y-62501315D01*
X128335664Y-62000000D01*
X128235946Y-61498685D01*
X128001372Y-61147619D01*
X129764613Y-61147619D01*
X130104155Y-61969372D01*
X130732321Y-62598636D01*
X131553481Y-62939611D01*
X132442619Y-62940387D01*
X133264372Y-62600845D01*
X133893636Y-61972679D01*
X134234611Y-61151519D01*
X134235387Y-60262381D01*
X133895845Y-59440628D01*
X133267679Y-58811364D01*
X132446519Y-58470389D01*
X131557381Y-58469613D01*
X130735628Y-58809155D01*
X130106364Y-59437321D01*
X129765389Y-60258481D01*
X129764613Y-61147619D01*
X128001372Y-61147619D01*
X127951974Y-61073690D01*
X127848160Y-61004324D01*
X128109916Y-60743024D01*
X128309772Y-60261718D01*
X128310226Y-59740568D01*
X128111211Y-59258914D01*
X127743024Y-58890084D01*
X127261718Y-58690228D01*
X126740568Y-58689774D01*
X126258914Y-58888789D01*
X126000676Y-59146577D01*
X125951974Y-59073690D01*
X125526979Y-58789718D01*
X125025664Y-58690000D01*
X124974336Y-58690000D01*
X124473021Y-58789718D01*
X124048026Y-59073690D01*
X123764054Y-59498685D01*
X123664336Y-60000000D01*
X123764054Y-60501315D01*
X124048026Y-60926310D01*
X124158311Y-61000000D01*
X124048026Y-61073690D01*
X123764054Y-61498685D01*
X123664336Y-62000000D01*
X123764054Y-62501315D01*
X124048026Y-62926310D01*
X124158311Y-63000000D01*
X124048026Y-63073690D01*
X123764054Y-63498685D01*
X123664336Y-64000000D01*
X123764054Y-64501315D01*
X124048026Y-64926310D01*
X124158311Y-65000000D01*
X124048026Y-65073690D01*
X123764054Y-65498685D01*
X123664336Y-66000000D01*
X123764054Y-66501315D01*
X124048026Y-66926310D01*
X124158311Y-67000000D01*
X124048026Y-67073690D01*
X123764054Y-67498685D01*
X123664336Y-68000000D01*
X123764054Y-68501315D01*
X124048026Y-68926310D01*
X124158311Y-69000000D01*
X124048026Y-69073690D01*
X123764054Y-69498685D01*
X123664336Y-70000000D01*
X123764054Y-70501315D01*
X124048026Y-70926310D01*
X124165686Y-71004928D01*
X123870522Y-71336367D01*
X123732090Y-71670600D01*
X123855776Y-71873000D01*
X124873000Y-71873000D01*
X124873000Y-71853000D01*
X125127000Y-71853000D01*
X125127000Y-71873000D01*
X126873000Y-71873000D01*
X126873000Y-71853000D01*
X127127000Y-71853000D01*
X127127000Y-71873000D01*
X127147000Y-71873000D01*
X127147000Y-72127000D01*
X127127000Y-72127000D01*
X127127000Y-72147000D01*
X126873000Y-72147000D01*
X126873000Y-72127000D01*
X125127000Y-72127000D01*
X125127000Y-72147000D01*
X124873000Y-72147000D01*
X124873000Y-72127000D01*
X123855776Y-72127000D01*
X123732090Y-72329400D01*
X123870522Y-72663633D01*
X124165686Y-72995072D01*
X124048026Y-73073690D01*
X123953606Y-73215000D01*
X114041280Y-73215000D01*
X113740874Y-73274755D01*
X113486201Y-73444921D01*
X112773600Y-74157522D01*
X112773600Y-68988600D01*
X112750058Y-68870246D01*
X112713845Y-68688193D01*
X112543679Y-68433521D01*
X106298250Y-62188092D01*
X106335664Y-62000000D01*
X106235946Y-61498685D01*
X106034992Y-61197936D01*
X106126441Y-61139090D01*
X106271431Y-60926890D01*
X106322440Y-60675000D01*
X106322440Y-59325000D01*
X106278162Y-59089683D01*
X106139090Y-58873559D01*
X105926890Y-58728569D01*
X105675000Y-58677560D01*
X104325000Y-58677560D01*
X104089683Y-58721838D01*
X104000772Y-58779051D01*
X103926890Y-58728569D01*
X103675000Y-58677560D01*
X102325000Y-58677560D01*
X102089683Y-58721838D01*
X101873559Y-58860910D01*
X101768274Y-59015000D01*
X101625000Y-59015000D01*
X101248057Y-59089979D01*
X100928500Y-59303500D01*
X100710000Y-59522000D01*
X100710000Y-55442619D01*
X102764613Y-55442619D01*
X103104155Y-56264372D01*
X103732321Y-56893636D01*
X104553481Y-57234611D01*
X105442619Y-57235387D01*
X106264372Y-56895845D01*
X106893636Y-56267679D01*
X107234611Y-55446519D01*
X107234759Y-55276661D01*
X110602758Y-55276661D01*
X110814990Y-55790303D01*
X111207630Y-56183629D01*
X111720900Y-56396757D01*
X112276661Y-56397242D01*
X112790303Y-56185010D01*
X112878141Y-56097325D01*
X129614587Y-56097325D01*
X129976916Y-56974229D01*
X130647242Y-57645726D01*
X131523513Y-58009585D01*
X132472325Y-58010413D01*
X133349229Y-57648084D01*
X134020726Y-56977758D01*
X134384585Y-56101487D01*
X134385413Y-55152675D01*
X134023084Y-54275771D01*
X133352758Y-53604274D01*
X132476487Y-53240415D01*
X131527675Y-53239587D01*
X130650771Y-53601916D01*
X129979274Y-54272242D01*
X129615415Y-55148513D01*
X129614587Y-56097325D01*
X112878141Y-56097325D01*
X113183629Y-55792370D01*
X113396757Y-55279100D01*
X113397242Y-54723339D01*
X113185010Y-54209697D01*
X112792370Y-53816371D01*
X112279100Y-53603243D01*
X111723339Y-53602758D01*
X111209697Y-53814990D01*
X110816371Y-54207630D01*
X110603243Y-54720900D01*
X110602758Y-55276661D01*
X107234759Y-55276661D01*
X107235387Y-54557381D01*
X106895845Y-53735628D01*
X106267679Y-53106364D01*
X105446519Y-52765389D01*
X104557381Y-52764613D01*
X103735628Y-53104155D01*
X103106364Y-53732321D01*
X102765389Y-54553481D01*
X102764613Y-55442619D01*
X100710000Y-55442619D01*
X100710000Y-50710000D01*
X199290000Y-50710000D01*
X199290000Y-63940842D01*
X199290000Y-63940842D01*
G37*
X199290000Y-63940842D02*
X198690478Y-63341320D01*
X198435806Y-63171154D01*
X198355246Y-63155130D01*
X198893636Y-62617679D01*
X199234611Y-61796519D01*
X199235387Y-60907381D01*
X198895845Y-60085628D01*
X198267679Y-59456364D01*
X197446519Y-59115389D01*
X196557381Y-59114613D01*
X195735628Y-59454155D01*
X195106364Y-60082321D01*
X194765389Y-60903481D01*
X194764613Y-61792619D01*
X195104155Y-62614372D01*
X195600315Y-63111399D01*
X191856206Y-63111399D01*
X191856201Y-63111398D01*
X191805919Y-63121400D01*
X188115001Y-63121400D01*
X187814595Y-63181155D01*
X187559922Y-63351321D01*
X185272642Y-65638601D01*
X150149240Y-65638601D01*
X150238600Y-65189359D01*
X150238600Y-65130641D01*
X150124526Y-64557152D01*
X149799670Y-64070971D01*
X149528828Y-63890000D01*
X149799670Y-63709029D01*
X150124526Y-63222848D01*
X150238600Y-62649359D01*
X150238600Y-62590641D01*
X150124526Y-62017152D01*
X149799670Y-61530971D01*
X149528828Y-61350000D01*
X149799670Y-61169029D01*
X150124526Y-60682848D01*
X150238600Y-60109359D01*
X150238600Y-60050641D01*
X150124526Y-59477152D01*
X149799670Y-58990971D01*
X149313489Y-58666115D01*
X148740000Y-58552041D01*
X148166511Y-58666115D01*
X147680330Y-58990971D01*
X147355474Y-59477152D01*
X147241400Y-60050641D01*
X147241400Y-60109359D01*
X147355474Y-60682848D01*
X147680330Y-61169029D01*
X147951172Y-61350000D01*
X147680330Y-61530971D01*
X147355474Y-62017152D01*
X147241400Y-62590641D01*
X147241400Y-62649359D01*
X147355474Y-63222848D01*
X147680330Y-63709029D01*
X147951172Y-63890000D01*
X147680330Y-64070971D01*
X147355474Y-64557152D01*
X147241400Y-65130641D01*
X147241400Y-65189359D01*
X147330760Y-65638601D01*
X146596399Y-65638601D01*
X146295993Y-65698356D01*
X146041320Y-65868522D01*
X144900115Y-67009727D01*
X144801054Y-66511715D01*
X144479147Y-66029946D01*
X144149974Y-65810000D01*
X144479147Y-65590054D01*
X144801054Y-65108285D01*
X144914093Y-64540000D01*
X144801054Y-63971715D01*
X144479147Y-63489946D01*
X144149974Y-63270000D01*
X144479147Y-63050054D01*
X144801054Y-62568285D01*
X144914093Y-62000000D01*
X144801054Y-61431715D01*
X144635786Y-61184374D01*
X145563679Y-60256481D01*
X145733845Y-60001809D01*
X145793600Y-59701402D01*
X145793600Y-55988600D01*
X145733845Y-55688194D01*
X145563679Y-55433521D01*
X144847076Y-54716918D01*
X144914093Y-54380000D01*
X144847076Y-54043082D01*
X145055159Y-53834999D01*
X146803728Y-53834999D01*
X146505389Y-54553481D01*
X146504613Y-55442619D01*
X146844155Y-56264372D01*
X147472321Y-56893636D01*
X148293481Y-57234611D01*
X149182619Y-57235387D01*
X150004372Y-56895845D01*
X150446600Y-56454389D01*
X150446600Y-56536294D01*
X150439408Y-56543473D01*
X150296762Y-56887001D01*
X150296438Y-57258967D01*
X150438483Y-57602743D01*
X150701273Y-57865992D01*
X151044801Y-58008638D01*
X151416767Y-58008962D01*
X151682830Y-57899027D01*
X152365032Y-57899027D01*
X152613179Y-58428490D01*
X153045053Y-58822688D01*
X153460974Y-58994958D01*
X153693000Y-58873817D01*
X153693000Y-57667000D01*
X152485531Y-57667000D01*
X152365032Y-57899027D01*
X151682830Y-57899027D01*
X151760543Y-57866917D01*
X152023792Y-57604127D01*
X152166438Y-57260599D01*
X152166762Y-56888633D01*
X152024717Y-56544857D01*
X152016600Y-56536726D01*
X152016600Y-55359027D01*
X152365032Y-55359027D01*
X152613179Y-55888490D01*
X153031152Y-56270000D01*
X152613179Y-56651510D01*
X152365032Y-57180973D01*
X152485531Y-57413000D01*
X153693000Y-57413000D01*
X153693000Y-55127000D01*
X152485531Y-55127000D01*
X152365032Y-55359027D01*
X152016600Y-55359027D01*
X152016600Y-54985958D01*
X152368073Y-54634485D01*
X152365032Y-54640973D01*
X152485531Y-54873000D01*
X153693000Y-54873000D01*
X153693000Y-54853000D01*
X153947000Y-54853000D01*
X153947000Y-54873000D01*
X153967000Y-54873000D01*
X153967000Y-55127000D01*
X153947000Y-55127000D01*
X153947000Y-57413000D01*
X153967000Y-57413000D01*
X153967000Y-57667000D01*
X153947000Y-57667000D01*
X153947000Y-58873817D01*
X154179026Y-58994958D01*
X154594947Y-58822688D01*
X155026821Y-58428490D01*
X155084336Y-58305772D01*
X155300330Y-58629029D01*
X155786511Y-58953885D01*
X156360000Y-59067959D01*
X156933489Y-58953885D01*
X157419670Y-58629029D01*
X157630000Y-58314248D01*
X157840330Y-58629029D01*
X158326511Y-58953885D01*
X158900000Y-59067959D01*
X159473489Y-58953885D01*
X159959670Y-58629029D01*
X160170000Y-58314248D01*
X160380330Y-58629029D01*
X160866511Y-58953885D01*
X161440000Y-59067959D01*
X162013489Y-58953885D01*
X162499670Y-58629029D01*
X162710000Y-58314248D01*
X162920330Y-58629029D01*
X163406511Y-58953885D01*
X163980000Y-59067959D01*
X164553489Y-58953885D01*
X165039670Y-58629029D01*
X165250000Y-58314248D01*
X165460330Y-58629029D01*
X165946511Y-58953885D01*
X166520000Y-59067959D01*
X167093489Y-58953885D01*
X167579670Y-58629029D01*
X167790000Y-58314248D01*
X168000330Y-58629029D01*
X168486511Y-58953885D01*
X169060000Y-59067959D01*
X169633489Y-58953885D01*
X170119670Y-58629029D01*
X170330000Y-58314248D01*
X170540330Y-58629029D01*
X171026511Y-58953885D01*
X171600000Y-59067959D01*
X172173489Y-58953885D01*
X172659670Y-58629029D01*
X172870000Y-58314248D01*
X173080330Y-58629029D01*
X173566511Y-58953885D01*
X174140000Y-59067959D01*
X174713489Y-58953885D01*
X175199670Y-58629029D01*
X175410000Y-58314248D01*
X175620330Y-58629029D01*
X176106511Y-58953885D01*
X176680000Y-59067959D01*
X177253489Y-58953885D01*
X177739670Y-58629029D01*
X177950000Y-58314248D01*
X178160330Y-58629029D01*
X178646511Y-58953885D01*
X179220000Y-59067959D01*
X179793489Y-58953885D01*
X180279670Y-58629029D01*
X180490000Y-58314248D01*
X180700330Y-58629029D01*
X181186511Y-58953885D01*
X181760000Y-59067959D01*
X182333489Y-58953885D01*
X182819670Y-58629029D01*
X183030000Y-58314248D01*
X183240330Y-58629029D01*
X183726511Y-58953885D01*
X184300000Y-59067959D01*
X184873489Y-58953885D01*
X185359670Y-58629029D01*
X185570000Y-58314248D01*
X185780330Y-58629029D01*
X186266511Y-58953885D01*
X186840000Y-59067959D01*
X187413489Y-58953885D01*
X187899670Y-58629029D01*
X188110000Y-58314248D01*
X188320330Y-58629029D01*
X188806511Y-58953885D01*
X189380000Y-59067959D01*
X189953489Y-58953885D01*
X190439670Y-58629029D01*
X190650000Y-58314248D01*
X190860330Y-58629029D01*
X191346511Y-58953885D01*
X191920000Y-59067959D01*
X192493489Y-58953885D01*
X192979670Y-58629029D01*
X193190000Y-58314248D01*
X193400330Y-58629029D01*
X193886511Y-58953885D01*
X194460000Y-59067959D01*
X195033489Y-58953885D01*
X195519670Y-58629029D01*
X195730000Y-58314248D01*
X195940330Y-58629029D01*
X196426511Y-58953885D01*
X197000000Y-59067959D01*
X197573489Y-58953885D01*
X198059670Y-58629029D01*
X198384526Y-58142848D01*
X198498600Y-57569359D01*
X198498600Y-57510641D01*
X198384526Y-56937152D01*
X198059670Y-56450971D01*
X197788828Y-56270000D01*
X198059670Y-56089029D01*
X198384526Y-55602848D01*
X198498600Y-55029359D01*
X198498600Y-54970641D01*
X198384526Y-54397152D01*
X198059670Y-53910971D01*
X197573489Y-53586115D01*
X197000000Y-53472041D01*
X196426511Y-53586115D01*
X195940330Y-53910971D01*
X195730000Y-54225752D01*
X195519670Y-53910971D01*
X195033489Y-53586115D01*
X194460000Y-53472041D01*
X194111516Y-53541359D01*
X192339079Y-51768921D01*
X192084407Y-51598755D01*
X191784000Y-51539000D01*
X142900400Y-51539000D01*
X142599993Y-51598755D01*
X142345321Y-51768921D01*
X141049921Y-53064321D01*
X140879755Y-53318993D01*
X140823857Y-53600009D01*
X140820000Y-53619400D01*
X140820000Y-57665000D01*
X140879755Y-57965407D01*
X141049921Y-58220079D01*
X141952924Y-59123082D01*
X141885907Y-59460000D01*
X141978402Y-59925001D01*
X137802620Y-59925001D01*
X137502214Y-59984756D01*
X137247541Y-60154922D01*
X129411102Y-67991361D01*
X129376081Y-68014761D01*
X129376079Y-68014764D01*
X128273721Y-69117121D01*
X128127357Y-69336170D01*
X127951974Y-69073690D01*
X127841689Y-69000000D01*
X127951974Y-68926310D01*
X128235946Y-68501315D01*
X128335664Y-68000000D01*
X128235946Y-67498685D01*
X127951974Y-67073690D01*
X127841689Y-67000000D01*
X127951974Y-66926310D01*
X128235946Y-66501315D01*
X128335664Y-66000000D01*
X128235946Y-65498685D01*
X127951974Y-65073690D01*
X127841689Y-65000000D01*
X127951974Y-64926310D01*
X128235946Y-64501315D01*
X128335664Y-64000000D01*
X128235946Y-63498685D01*
X127951974Y-63073690D01*
X127841689Y-63000000D01*
X127951974Y-62926310D01*
X128235946Y-62501315D01*
X128335664Y-62000000D01*
X128235946Y-61498685D01*
X128001372Y-61147619D01*
X129764613Y-61147619D01*
X130104155Y-61969372D01*
X130732321Y-62598636D01*
X131553481Y-62939611D01*
X132442619Y-62940387D01*
X133264372Y-62600845D01*
X133893636Y-61972679D01*
X134234611Y-61151519D01*
X134235387Y-60262381D01*
X133895845Y-59440628D01*
X133267679Y-58811364D01*
X132446519Y-58470389D01*
X131557381Y-58469613D01*
X130735628Y-58809155D01*
X130106364Y-59437321D01*
X129765389Y-60258481D01*
X129764613Y-61147619D01*
X128001372Y-61147619D01*
X127951974Y-61073690D01*
X127848160Y-61004324D01*
X128109916Y-60743024D01*
X128309772Y-60261718D01*
X128310226Y-59740568D01*
X128111211Y-59258914D01*
X127743024Y-58890084D01*
X127261718Y-58690228D01*
X126740568Y-58689774D01*
X126258914Y-58888789D01*
X126000676Y-59146577D01*
X125951974Y-59073690D01*
X125526979Y-58789718D01*
X125025664Y-58690000D01*
X124974336Y-58690000D01*
X124473021Y-58789718D01*
X124048026Y-59073690D01*
X123764054Y-59498685D01*
X123664336Y-60000000D01*
X123764054Y-60501315D01*
X124048026Y-60926310D01*
X124158311Y-61000000D01*
X124048026Y-61073690D01*
X123764054Y-61498685D01*
X123664336Y-62000000D01*
X123764054Y-62501315D01*
X124048026Y-62926310D01*
X124158311Y-63000000D01*
X124048026Y-63073690D01*
X123764054Y-63498685D01*
X123664336Y-64000000D01*
X123764054Y-64501315D01*
X124048026Y-64926310D01*
X124158311Y-65000000D01*
X124048026Y-65073690D01*
X123764054Y-65498685D01*
X123664336Y-66000000D01*
X123764054Y-66501315D01*
X124048026Y-66926310D01*
X124158311Y-67000000D01*
X124048026Y-67073690D01*
X123764054Y-67498685D01*
X123664336Y-68000000D01*
X123764054Y-68501315D01*
X124048026Y-68926310D01*
X124158311Y-69000000D01*
X124048026Y-69073690D01*
X123764054Y-69498685D01*
X123664336Y-70000000D01*
X123764054Y-70501315D01*
X124048026Y-70926310D01*
X124165686Y-71004928D01*
X123870522Y-71336367D01*
X123732090Y-71670600D01*
X123855776Y-71873000D01*
X124873000Y-71873000D01*
X124873000Y-71853000D01*
X125127000Y-71853000D01*
X125127000Y-71873000D01*
X126873000Y-71873000D01*
X126873000Y-71853000D01*
X127127000Y-71853000D01*
X127127000Y-71873000D01*
X127147000Y-71873000D01*
X127147000Y-72127000D01*
X127127000Y-72127000D01*
X127127000Y-72147000D01*
X126873000Y-72147000D01*
X126873000Y-72127000D01*
X125127000Y-72127000D01*
X125127000Y-72147000D01*
X124873000Y-72147000D01*
X124873000Y-72127000D01*
X123855776Y-72127000D01*
X123732090Y-72329400D01*
X123870522Y-72663633D01*
X124165686Y-72995072D01*
X124048026Y-73073690D01*
X123953606Y-73215000D01*
X114041280Y-73215000D01*
X113740874Y-73274755D01*
X113486201Y-73444921D01*
X112773600Y-74157522D01*
X112773600Y-68988600D01*
X112750058Y-68870246D01*
X112713845Y-68688193D01*
X112543679Y-68433521D01*
X106298250Y-62188092D01*
X106335664Y-62000000D01*
X106235946Y-61498685D01*
X106034992Y-61197936D01*
X106126441Y-61139090D01*
X106271431Y-60926890D01*
X106322440Y-60675000D01*
X106322440Y-59325000D01*
X106278162Y-59089683D01*
X106139090Y-58873559D01*
X105926890Y-58728569D01*
X105675000Y-58677560D01*
X104325000Y-58677560D01*
X104089683Y-58721838D01*
X104000772Y-58779051D01*
X103926890Y-58728569D01*
X103675000Y-58677560D01*
X102325000Y-58677560D01*
X102089683Y-58721838D01*
X101873559Y-58860910D01*
X101768274Y-59015000D01*
X101625000Y-59015000D01*
X101248057Y-59089979D01*
X100928500Y-59303500D01*
X100710000Y-59522000D01*
X100710000Y-55442619D01*
X102764613Y-55442619D01*
X103104155Y-56264372D01*
X103732321Y-56893636D01*
X104553481Y-57234611D01*
X105442619Y-57235387D01*
X106264372Y-56895845D01*
X106893636Y-56267679D01*
X107234611Y-55446519D01*
X107234759Y-55276661D01*
X110602758Y-55276661D01*
X110814990Y-55790303D01*
X111207630Y-56183629D01*
X111720900Y-56396757D01*
X112276661Y-56397242D01*
X112790303Y-56185010D01*
X112878141Y-56097325D01*
X129614587Y-56097325D01*
X129976916Y-56974229D01*
X130647242Y-57645726D01*
X131523513Y-58009585D01*
X132472325Y-58010413D01*
X133349229Y-57648084D01*
X134020726Y-56977758D01*
X134384585Y-56101487D01*
X134385413Y-55152675D01*
X134023084Y-54275771D01*
X133352758Y-53604274D01*
X132476487Y-53240415D01*
X131527675Y-53239587D01*
X130650771Y-53601916D01*
X129979274Y-54272242D01*
X129615415Y-55148513D01*
X129614587Y-56097325D01*
X112878141Y-56097325D01*
X113183629Y-55792370D01*
X113396757Y-55279100D01*
X113397242Y-54723339D01*
X113185010Y-54209697D01*
X112792370Y-53816371D01*
X112279100Y-53603243D01*
X111723339Y-53602758D01*
X111209697Y-53814990D01*
X110816371Y-54207630D01*
X110603243Y-54720900D01*
X110602758Y-55276661D01*
X107234759Y-55276661D01*
X107235387Y-54557381D01*
X106895845Y-53735628D01*
X106267679Y-53106364D01*
X105446519Y-52765389D01*
X104557381Y-52764613D01*
X103735628Y-53104155D01*
X103106364Y-53732321D01*
X102765389Y-54553481D01*
X102764613Y-55442619D01*
X100710000Y-55442619D01*
X100710000Y-50710000D01*
X199290000Y-50710000D01*
X199290000Y-63940842D01*
M02*
