G04 #@! TF.FileFunction,Soldermask,Bot*
%FSLAX46Y46*%
G04 Gerber Fmt 4.6, Leading zero omitted, Abs format (unit mm)*
G04 Created by KiCad (PCBNEW 4.0.7-e2-6376~58~ubuntu16.04.1) date Tue Oct  2 08:21:06 2018*
%MOMM*%
%LPD*%
G01*
G04 APERTURE LIST*
%ADD10C,0.100000*%
%ADD11R,1.750000X1.750000*%
%ADD12O,1.750000X1.750000*%
%ADD13C,1.750000*%
%ADD14C,1.924000*%
%ADD15O,2.127200X2.127200*%
%ADD16C,3.600000*%
%ADD17R,1.900000X3.600000*%
%ADD18R,1.650000X1.900000*%
%ADD19R,2.600000X2.600000*%
%ADD20O,2.600000X2.600000*%
%ADD21R,1.400000X1.900000*%
%ADD22R,1.100000X1.900000*%
%ADD23C,2.000000*%
%ADD24C,1.500000*%
%ADD25R,1.900000X3.200000*%
%ADD26R,1.700000X1.900000*%
%ADD27C,1.900000*%
%ADD28R,2.100000X2.100000*%
%ADD29O,2.100000X2.100000*%
%ADD30C,3.900000*%
%ADD31R,3.400000X3.400000*%
%ADD32C,3.400000*%
G04 APERTURE END LIST*
D10*
D11*
X105000000Y-60000000D03*
X103000000Y-60000000D03*
D12*
X105000000Y-62000000D03*
X103000000Y-62000000D03*
X105000000Y-64000000D03*
X103000000Y-64000000D03*
X105000000Y-66000000D03*
X103000000Y-66000000D03*
X105000000Y-68000000D03*
X103000000Y-68000000D03*
X105000000Y-70000000D03*
X103000000Y-70000000D03*
X105000000Y-72000000D03*
X103000000Y-72000000D03*
X105000000Y-74000000D03*
X103000000Y-74000000D03*
X105000000Y-76000000D03*
X103000000Y-76000000D03*
X105000000Y-78000000D03*
X103000000Y-78000000D03*
X127000000Y-64000000D03*
D13*
X127000000Y-60000000D03*
D12*
X125000000Y-60000000D03*
X127000000Y-62000000D03*
X125000000Y-62000000D03*
X125000000Y-64000000D03*
X127000000Y-66000000D03*
X125000000Y-66000000D03*
X125000000Y-68000000D03*
X127000000Y-70000000D03*
X125000000Y-70000000D03*
X127000000Y-72000000D03*
X127000000Y-68000000D03*
X127000000Y-74000000D03*
X125000000Y-72000000D03*
X125000000Y-74000000D03*
X127000000Y-78000000D03*
X125000000Y-76000000D03*
X127000000Y-76000000D03*
X125000000Y-78000000D03*
D14*
X139192000Y-133684000D03*
X139192000Y-138684000D03*
D15*
X171600000Y-87893000D03*
X171600000Y-85353000D03*
X174140000Y-85353000D03*
X174140000Y-87893000D03*
X176680000Y-85353000D03*
X148740000Y-100720000D03*
X148740000Y-105800000D03*
X148740000Y-108340000D03*
X148740000Y-110880000D03*
X148740000Y-113420000D03*
X148740000Y-115960000D03*
X148740000Y-118500000D03*
X148740000Y-121040000D03*
X197000000Y-65160000D03*
X197000000Y-67700000D03*
X197000000Y-70240000D03*
X197000000Y-72780000D03*
X197000000Y-75320000D03*
X197000000Y-77860000D03*
X197000000Y-80400000D03*
X197000000Y-82940000D03*
X197000000Y-88020000D03*
X197000000Y-90560000D03*
X197000000Y-93100000D03*
X197000000Y-95640000D03*
X197000000Y-98180000D03*
X197000000Y-100720000D03*
X197000000Y-103260000D03*
X197000000Y-105800000D03*
X197000000Y-125104000D03*
X197000000Y-109864000D03*
X197000000Y-112404000D03*
X197000000Y-114944000D03*
D16*
X153820000Y-85480000D03*
X181760000Y-85480000D03*
X197000000Y-61350000D03*
X197000000Y-136280000D03*
X148740000Y-55000000D03*
X148740000Y-137550000D03*
D15*
X197000000Y-132724000D03*
X197000000Y-130184000D03*
X197000000Y-127644000D03*
X197000000Y-122564000D03*
X197000000Y-120024000D03*
X197000000Y-117484000D03*
X148740000Y-123580000D03*
X148740000Y-98180000D03*
X148740000Y-95640000D03*
X148740000Y-93100000D03*
X148740000Y-90560000D03*
X148740000Y-88020000D03*
X148740000Y-85480000D03*
X148740000Y-82940000D03*
X148740000Y-77860000D03*
X148740000Y-75320000D03*
X148740000Y-72780000D03*
X148740000Y-70240000D03*
X148740000Y-67700000D03*
X148740000Y-65160000D03*
X148740000Y-62620000D03*
X148740000Y-60080000D03*
X197000000Y-57540000D03*
X197000000Y-55000000D03*
X194460000Y-57540000D03*
X194460000Y-55000000D03*
X191920000Y-57540000D03*
X191920000Y-55000000D03*
X189380000Y-57540000D03*
X189380000Y-55000000D03*
X186840000Y-57540000D03*
X186840000Y-55000000D03*
X184300000Y-57540000D03*
X184300000Y-55000000D03*
X181760000Y-57540000D03*
X181760000Y-55000000D03*
X179220000Y-57540000D03*
X179220000Y-55000000D03*
X176680000Y-57540000D03*
X176680000Y-55000000D03*
X174140000Y-57540000D03*
X174140000Y-55000000D03*
X171600000Y-57540000D03*
X171600000Y-55000000D03*
X169060000Y-57540000D03*
X169060000Y-55000000D03*
X166520000Y-57540000D03*
X166520000Y-55000000D03*
X163980000Y-57540000D03*
X163980000Y-55000000D03*
X161440000Y-57540000D03*
X161440000Y-55000000D03*
X158900000Y-57540000D03*
X158900000Y-55000000D03*
X156360000Y-57540000D03*
X156360000Y-55000000D03*
X153820000Y-57540000D03*
X153820000Y-55000000D03*
X176680000Y-87893000D03*
D16*
X105000000Y-145000000D03*
D17*
X189230000Y-116872000D03*
X189230000Y-120872000D03*
D18*
X185420000Y-117622000D03*
X185420000Y-120122000D03*
D19*
X116332000Y-124968000D03*
D20*
X108712000Y-124968000D03*
D21*
X165845000Y-124025000D03*
X168345000Y-124025000D03*
X170845000Y-124025000D03*
X173345000Y-124025000D03*
X175845000Y-124025000D03*
X178345000Y-124025000D03*
X180775000Y-124025000D03*
X182475000Y-124025000D03*
X163345000Y-124025000D03*
D22*
X183775000Y-124025000D03*
X184975000Y-124025000D03*
D23*
X163220000Y-126825000D03*
D24*
X184220000Y-126825000D03*
D25*
X161270000Y-125825000D03*
X159070000Y-147325000D03*
X186370000Y-147325000D03*
X186370000Y-125825000D03*
D26*
X165862000Y-114946464D03*
X165862000Y-117646464D03*
X168452800Y-114956600D03*
X168452800Y-117656600D03*
X178308000Y-114946464D03*
X178308000Y-117646464D03*
X162001200Y-114931200D03*
X162001200Y-117631200D03*
X171526200Y-114956600D03*
X171526200Y-117656600D03*
X175768000Y-117646464D03*
X175768000Y-114946464D03*
D27*
X120904000Y-81788000D03*
X123444000Y-81788000D03*
X115824000Y-81788000D03*
X118364000Y-81788000D03*
X142389860Y-100718620D03*
X142389860Y-98178620D03*
X142389860Y-95638620D03*
X110744000Y-81788000D03*
X108204000Y-81788000D03*
X113284000Y-81788000D03*
X103124000Y-81788000D03*
X105664000Y-81788000D03*
X142389860Y-108338620D03*
X142389860Y-103258620D03*
X142389860Y-105798620D03*
X142389860Y-110878620D03*
X142389860Y-113418620D03*
X142389860Y-115958620D03*
D28*
X143400000Y-77240000D03*
D29*
X143400000Y-74700000D03*
X143400000Y-72160000D03*
X143400000Y-69620000D03*
X143400000Y-67080000D03*
X143400000Y-64540000D03*
X143400000Y-62000000D03*
X143400000Y-59460000D03*
X143400000Y-56920000D03*
X143400000Y-54380000D03*
D30*
X132000000Y-75999000D03*
X132000000Y-55625000D03*
D31*
X123952000Y-145796000D03*
D32*
X129032000Y-145796000D03*
D31*
X111760000Y-145796000D03*
D32*
X116840000Y-145796000D03*
D16*
X105000000Y-55000000D03*
D26*
X159110680Y-117522000D03*
X159110680Y-120222000D03*
X182473600Y-117522000D03*
X182473600Y-120222000D03*
D16*
X132000000Y-60705000D03*
M02*
