G04 #@! TF.FileFunction,Soldermask,Top*
%FSLAX46Y46*%
G04 Gerber Fmt 4.6, Leading zero omitted, Abs format (unit mm)*
G04 Created by KiCad (PCBNEW 4.0.7-e2-6376~58~ubuntu16.04.1) date Tue Oct  2 08:21:06 2018*
%MOMM*%
%LPD*%
G01*
G04 APERTURE LIST*
%ADD10C,0.100000*%
%ADD11R,1.750000X1.750000*%
%ADD12O,1.750000X1.750000*%
%ADD13C,1.750000*%
%ADD14C,1.924000*%
%ADD15O,2.127200X2.127200*%
%ADD16C,3.600000*%
%ADD17R,3.900000X2.000000*%
%ADD18R,4.400000X2.900000*%
%ADD19R,2.600000X2.600000*%
%ADD20O,2.600000X2.600000*%
%ADD21C,2.000000*%
%ADD22C,1.500000*%
%ADD23R,1.700000X1.900000*%
%ADD24C,1.900000*%
%ADD25R,5.000000X1.500000*%
%ADD26R,9.800000X11.200000*%
%ADD27R,2.100000X2.100000*%
%ADD28O,2.100000X2.100000*%
%ADD29C,3.900000*%
%ADD30R,1.950000X1.000000*%
%ADD31R,2.200000X1.600000*%
%ADD32R,3.400000X3.400000*%
%ADD33C,3.400000*%
%ADD34R,1.400000X1.400000*%
%ADD35R,2.700000X1.400000*%
%ADD36R,4.200000X1.400000*%
%ADD37R,1.400000X2.700000*%
%ADD38R,1.400000X4.200000*%
%ADD39C,2.540000*%
G04 APERTURE END LIST*
D10*
D11*
X105000000Y-60000000D03*
X103000000Y-60000000D03*
D12*
X105000000Y-62000000D03*
X103000000Y-62000000D03*
X105000000Y-64000000D03*
X103000000Y-64000000D03*
X105000000Y-66000000D03*
X103000000Y-66000000D03*
X105000000Y-68000000D03*
X103000000Y-68000000D03*
X105000000Y-70000000D03*
X103000000Y-70000000D03*
X105000000Y-72000000D03*
X103000000Y-72000000D03*
X105000000Y-74000000D03*
X103000000Y-74000000D03*
X105000000Y-76000000D03*
X103000000Y-76000000D03*
X105000000Y-78000000D03*
X103000000Y-78000000D03*
X127000000Y-64000000D03*
D13*
X127000000Y-60000000D03*
D12*
X125000000Y-60000000D03*
X127000000Y-62000000D03*
X125000000Y-62000000D03*
X125000000Y-64000000D03*
X127000000Y-66000000D03*
X125000000Y-66000000D03*
X125000000Y-68000000D03*
X127000000Y-70000000D03*
X125000000Y-70000000D03*
X127000000Y-72000000D03*
X127000000Y-68000000D03*
X127000000Y-74000000D03*
X125000000Y-72000000D03*
X125000000Y-74000000D03*
X127000000Y-78000000D03*
X125000000Y-76000000D03*
X127000000Y-76000000D03*
X125000000Y-78000000D03*
D14*
X139192000Y-133684000D03*
X139192000Y-138684000D03*
D15*
X171600000Y-87893000D03*
X171600000Y-85353000D03*
X174140000Y-85353000D03*
X174140000Y-87893000D03*
X176680000Y-85353000D03*
X148740000Y-100720000D03*
X148740000Y-105800000D03*
X148740000Y-108340000D03*
X148740000Y-110880000D03*
X148740000Y-113420000D03*
X148740000Y-115960000D03*
X148740000Y-118500000D03*
X148740000Y-121040000D03*
X197000000Y-65160000D03*
X197000000Y-67700000D03*
X197000000Y-70240000D03*
X197000000Y-72780000D03*
X197000000Y-75320000D03*
X197000000Y-77860000D03*
X197000000Y-80400000D03*
X197000000Y-82940000D03*
X197000000Y-88020000D03*
X197000000Y-90560000D03*
X197000000Y-93100000D03*
X197000000Y-95640000D03*
X197000000Y-98180000D03*
X197000000Y-100720000D03*
X197000000Y-103260000D03*
X197000000Y-105800000D03*
X197000000Y-125104000D03*
X197000000Y-109864000D03*
X197000000Y-112404000D03*
X197000000Y-114944000D03*
D16*
X153820000Y-85480000D03*
X181760000Y-85480000D03*
X197000000Y-61350000D03*
X197000000Y-136280000D03*
X148740000Y-55000000D03*
X148740000Y-137550000D03*
D15*
X197000000Y-132724000D03*
X197000000Y-130184000D03*
X197000000Y-127644000D03*
X197000000Y-122564000D03*
X197000000Y-120024000D03*
X197000000Y-117484000D03*
X148740000Y-123580000D03*
X148740000Y-98180000D03*
X148740000Y-95640000D03*
X148740000Y-93100000D03*
X148740000Y-90560000D03*
X148740000Y-88020000D03*
X148740000Y-85480000D03*
X148740000Y-82940000D03*
X148740000Y-77860000D03*
X148740000Y-75320000D03*
X148740000Y-72780000D03*
X148740000Y-70240000D03*
X148740000Y-67700000D03*
X148740000Y-65160000D03*
X148740000Y-62620000D03*
X148740000Y-60080000D03*
X197000000Y-57540000D03*
X197000000Y-55000000D03*
X194460000Y-57540000D03*
X194460000Y-55000000D03*
X191920000Y-57540000D03*
X191920000Y-55000000D03*
X189380000Y-57540000D03*
X189380000Y-55000000D03*
X186840000Y-57540000D03*
X186840000Y-55000000D03*
X184300000Y-57540000D03*
X184300000Y-55000000D03*
X181760000Y-57540000D03*
X181760000Y-55000000D03*
X179220000Y-57540000D03*
X179220000Y-55000000D03*
X176680000Y-57540000D03*
X176680000Y-55000000D03*
X174140000Y-57540000D03*
X174140000Y-55000000D03*
X171600000Y-57540000D03*
X171600000Y-55000000D03*
X169060000Y-57540000D03*
X169060000Y-55000000D03*
X166520000Y-57540000D03*
X166520000Y-55000000D03*
X163980000Y-57540000D03*
X163980000Y-55000000D03*
X161440000Y-57540000D03*
X161440000Y-55000000D03*
X158900000Y-57540000D03*
X158900000Y-55000000D03*
X156360000Y-57540000D03*
X156360000Y-55000000D03*
X153820000Y-57540000D03*
X153820000Y-55000000D03*
X176680000Y-87893000D03*
D16*
X105000000Y-145000000D03*
D17*
X124300000Y-137515600D03*
X129700000Y-137515600D03*
D18*
X123000000Y-128016000D03*
X131000000Y-128016000D03*
D19*
X116332000Y-124968000D03*
D20*
X108712000Y-124968000D03*
D21*
X163220000Y-126825000D03*
D22*
X184220000Y-126825000D03*
D23*
X139000000Y-69000000D03*
X139000000Y-66300000D03*
D24*
X120904000Y-81788000D03*
X123444000Y-81788000D03*
X115824000Y-81788000D03*
X118364000Y-81788000D03*
X142389860Y-100718620D03*
X142389860Y-98178620D03*
X142389860Y-95638620D03*
X110744000Y-81788000D03*
X108204000Y-81788000D03*
X113284000Y-81788000D03*
X103124000Y-81788000D03*
X105664000Y-81788000D03*
X142389860Y-108338620D03*
X142389860Y-103258620D03*
X142389860Y-105798620D03*
X142389860Y-110878620D03*
X142389860Y-113418620D03*
X142389860Y-115958620D03*
D25*
X115824000Y-137512000D03*
X115824000Y-135812000D03*
X115824000Y-134112000D03*
X115824000Y-132412000D03*
X115824000Y-130712000D03*
D26*
X106674000Y-134112000D03*
D27*
X143400000Y-77240000D03*
D28*
X143400000Y-74700000D03*
X143400000Y-72160000D03*
X143400000Y-69620000D03*
X143400000Y-67080000D03*
X143400000Y-64540000D03*
X143400000Y-62000000D03*
X143400000Y-59460000D03*
X143400000Y-56920000D03*
X143400000Y-54380000D03*
D29*
X132000000Y-75999000D03*
X132000000Y-55625000D03*
D30*
X144685500Y-81788000D03*
X144685500Y-82788000D03*
X144685500Y-83788000D03*
X144685500Y-84788000D03*
X144685500Y-85788000D03*
X144685500Y-86788000D03*
D31*
X140810500Y-80488000D03*
X140810500Y-88088000D03*
D32*
X123952000Y-145796000D03*
D33*
X129032000Y-145796000D03*
D32*
X111760000Y-145796000D03*
D33*
X116840000Y-145796000D03*
D16*
X105000000Y-55000000D03*
D34*
X102100000Y-88100000D03*
X133900000Y-88100000D03*
X133900000Y-119900000D03*
X102100000Y-119900000D03*
D35*
X103750000Y-88100000D03*
X103750000Y-119900000D03*
D36*
X109000000Y-88100000D03*
X109000000Y-119900000D03*
X115000000Y-88100000D03*
X115000000Y-119900000D03*
X121000000Y-88100000D03*
X121000000Y-119900000D03*
X127000000Y-88100000D03*
X127000000Y-119900000D03*
D35*
X132250000Y-88100000D03*
X132250000Y-119900000D03*
D37*
X102100000Y-89750000D03*
X133900000Y-89750000D03*
D38*
X102100000Y-95000000D03*
X133900000Y-95000000D03*
X102100000Y-101000000D03*
X133900000Y-101000000D03*
X102100000Y-107000000D03*
X133900000Y-107000000D03*
X102100000Y-113000000D03*
X133900000Y-113000000D03*
D37*
X102100000Y-118250000D03*
X133900000Y-118250000D03*
D16*
X132000000Y-60705000D03*
D39*
X195000000Y-145000000D03*
X112000000Y-55000000D03*
M02*
