G04 #@! TF.FileFunction,Soldermask,Top*
%FSLAX46Y46*%
G04 Gerber Fmt 4.6, Leading zero omitted, Abs format (unit mm)*
G04 Created by KiCad (PCBNEW 4.0.7-e2-6376~58~ubuntu16.04.1) date Tue Oct  2 08:26:08 2018*
%MOMM*%
%LPD*%
G01*
G04 APERTURE LIST*
%ADD10C,0.100000*%
%ADD11C,2.100000*%
%ADD12O,2.100000X2.100000*%
%ADD13R,2.100000X2.100000*%
%ADD14C,2.540000*%
%ADD15R,1.900000X3.600000*%
%ADD16R,1.650000X1.900000*%
%ADD17R,1.750000X1.750000*%
%ADD18O,1.750000X1.750000*%
%ADD19C,1.750000*%
%ADD20R,1.700000X1.900000*%
%ADD21C,1.900000*%
%ADD22R,1.000000X1.950000*%
%ADD23R,1.600000X2.200000*%
%ADD24R,1.400000X1.400000*%
%ADD25R,2.700000X1.400000*%
%ADD26R,4.200000X1.400000*%
%ADD27R,1.400000X2.700000*%
%ADD28R,1.400000X4.200000*%
%ADD29C,3.600000*%
%ADD30R,1.900000X1.400000*%
%ADD31R,1.900000X1.100000*%
%ADD32C,2.000000*%
%ADD33C,1.500000*%
%ADD34R,3.200000X1.900000*%
%ADD35C,3.900000*%
G04 APERTURE END LIST*
D10*
D11*
X195072000Y-60960000D03*
D12*
X195072000Y-63500000D03*
X195072000Y-66040000D03*
X195072000Y-68580000D03*
X195072000Y-71120000D03*
X195072000Y-73660000D03*
X195072000Y-76200000D03*
X195072000Y-78740000D03*
X195072000Y-81280000D03*
X195072000Y-83820000D03*
X195072000Y-86360000D03*
X195072000Y-88900000D03*
X195072000Y-91440000D03*
X195072000Y-93980000D03*
X195072000Y-96520000D03*
X195072000Y-99060000D03*
X195072000Y-101600000D03*
X195072000Y-104140000D03*
X195072000Y-106680000D03*
X195072000Y-109220000D03*
X195072000Y-111760000D03*
X195072000Y-114300000D03*
X195072000Y-116840000D03*
X195072000Y-119380000D03*
X195072000Y-121920000D03*
X195072000Y-124460000D03*
X195072000Y-126960000D03*
X172212000Y-124460000D03*
X172212000Y-121920000D03*
X172212000Y-114300000D03*
X172212000Y-116840000D03*
X172212000Y-119380000D03*
X172212000Y-127000000D03*
X172212000Y-68580000D03*
X172212000Y-71120000D03*
X172212000Y-73660000D03*
X172212000Y-76200000D03*
X172212000Y-66040000D03*
D13*
X172212000Y-60960000D03*
D12*
X172212000Y-63500000D03*
X172212000Y-78740000D03*
X172212000Y-81280000D03*
X172212000Y-83820000D03*
X172212000Y-86360000D03*
X172212000Y-88900000D03*
X172212000Y-91440000D03*
X172212000Y-93980000D03*
X172212000Y-96520000D03*
X172212000Y-99060000D03*
X172212000Y-101600000D03*
X172212000Y-104140000D03*
X172212000Y-106680000D03*
X172212000Y-109220000D03*
X172212000Y-111760000D03*
X175712000Y-127000000D03*
X175712000Y-119380000D03*
X175712000Y-124460000D03*
X175712000Y-121920000D03*
X178252000Y-124460000D03*
X178252000Y-127000000D03*
X178252000Y-121920000D03*
X180792000Y-127000000D03*
X180792000Y-124460000D03*
X180792000Y-121920000D03*
X183332000Y-127000000D03*
X183332000Y-124460000D03*
X183332000Y-121920000D03*
X185872000Y-124460000D03*
X185872000Y-127000000D03*
X185872000Y-121920000D03*
X188412000Y-124460000D03*
X188412000Y-127000000D03*
X188412000Y-121920000D03*
D14*
X113000000Y-145000000D03*
X187000000Y-55000000D03*
D15*
X121920000Y-100584000D03*
X121920000Y-104584000D03*
D16*
X124968000Y-101366000D03*
X124968000Y-103866000D03*
D13*
X160274000Y-137160000D03*
D12*
X162814000Y-137160000D03*
X165354000Y-137160000D03*
X167894000Y-137160000D03*
D13*
X155000000Y-130000000D03*
D12*
X155000000Y-132540000D03*
X155000000Y-135080000D03*
X155000000Y-137620000D03*
D17*
X107000000Y-61000000D03*
X105000000Y-61000000D03*
D18*
X107000000Y-63000000D03*
X105000000Y-63000000D03*
X107000000Y-65000000D03*
X105000000Y-65000000D03*
X107000000Y-67000000D03*
X105000000Y-67000000D03*
X107000000Y-69000000D03*
X105000000Y-69000000D03*
X107000000Y-71000000D03*
X105000000Y-71000000D03*
X107000000Y-73000000D03*
X105000000Y-73000000D03*
X107000000Y-75000000D03*
X105000000Y-75000000D03*
X107000000Y-77000000D03*
X105000000Y-77000000D03*
X107000000Y-79000000D03*
X105000000Y-79000000D03*
X129000000Y-65000000D03*
D19*
X129000000Y-61000000D03*
D18*
X127000000Y-61000000D03*
X129000000Y-63000000D03*
X127000000Y-63000000D03*
X127000000Y-65000000D03*
X129000000Y-67000000D03*
X127000000Y-67000000D03*
X127000000Y-69000000D03*
X129000000Y-71000000D03*
X127000000Y-71000000D03*
X129000000Y-73000000D03*
X129000000Y-69000000D03*
X129000000Y-75000000D03*
X127000000Y-73000000D03*
X127000000Y-75000000D03*
X129000000Y-79000000D03*
X127000000Y-77000000D03*
X129000000Y-77000000D03*
X127000000Y-79000000D03*
D20*
X179832000Y-141130000D03*
X179832000Y-138430000D03*
X140462000Y-101266000D03*
X140462000Y-103966000D03*
X128016000Y-101266000D03*
X128016000Y-103966000D03*
X137668000Y-101266000D03*
X137668000Y-103966000D03*
X134620000Y-101266000D03*
X134620000Y-103966000D03*
X160274000Y-143035000D03*
X160274000Y-140335000D03*
X162814000Y-143035000D03*
X162814000Y-140335000D03*
D21*
X161544000Y-121920000D03*
X161544000Y-124460000D03*
X161544000Y-127000000D03*
X161544000Y-119380000D03*
X161544000Y-111760000D03*
X161544000Y-114300000D03*
X161544000Y-116840000D03*
X161544000Y-129540000D03*
X161544000Y-132080000D03*
X117856000Y-87630000D03*
X115316000Y-87630000D03*
X125476000Y-87630000D03*
X120396000Y-87630000D03*
X122936000Y-87630000D03*
X110236000Y-87630000D03*
X112776000Y-87630000D03*
X161544000Y-101600000D03*
X161544000Y-104140000D03*
X161544000Y-106680000D03*
X161544000Y-109220000D03*
D22*
X148867500Y-116745500D03*
X147867500Y-116745500D03*
X146867500Y-116745500D03*
X145867500Y-116745500D03*
X144867500Y-116745500D03*
X143867500Y-116745500D03*
D23*
X150167500Y-112870500D03*
X142567500Y-112870500D03*
D24*
X132000000Y-56000000D03*
X163800000Y-56000000D03*
X163800000Y-87800000D03*
X132000000Y-87800000D03*
D25*
X133650000Y-56000000D03*
X133650000Y-87800000D03*
D26*
X138900000Y-56000000D03*
X138900000Y-87800000D03*
X144900000Y-56000000D03*
X144900000Y-87800000D03*
X150900000Y-56000000D03*
X150900000Y-87800000D03*
X156900000Y-56000000D03*
X156900000Y-87800000D03*
D25*
X162150000Y-56000000D03*
X162150000Y-87800000D03*
D27*
X132000000Y-57650000D03*
X163800000Y-57650000D03*
D28*
X132000000Y-62900000D03*
X163800000Y-62900000D03*
X132000000Y-68900000D03*
X163800000Y-68900000D03*
X132000000Y-74900000D03*
X163800000Y-74900000D03*
X132000000Y-80900000D03*
X163800000Y-80900000D03*
D27*
X132000000Y-86150000D03*
X163800000Y-86150000D03*
D29*
X152000000Y-145000000D03*
X105000000Y-145000000D03*
X105000000Y-97000000D03*
X152000000Y-97000000D03*
X105000000Y-55000000D03*
D30*
X125792400Y-131335000D03*
X125792400Y-128835000D03*
X125792400Y-126335000D03*
X125792400Y-123835000D03*
X125792400Y-121335000D03*
X125792400Y-118835000D03*
X125792400Y-116405000D03*
X125792400Y-114705000D03*
X125792400Y-133835000D03*
D31*
X125792400Y-113405000D03*
X125792400Y-112205000D03*
D32*
X122992400Y-133960000D03*
D33*
X122992400Y-112960000D03*
D34*
X123992400Y-135910000D03*
X102492400Y-138110000D03*
X102492400Y-110810000D03*
X123992400Y-110810000D03*
D29*
X195000000Y-55000000D03*
D13*
X195072000Y-135636000D03*
D12*
X192532000Y-135636000D03*
X189992000Y-135636000D03*
X187452000Y-135636000D03*
X184912000Y-135636000D03*
X182372000Y-135636000D03*
X179832000Y-135636000D03*
X177292000Y-135636000D03*
X174752000Y-135636000D03*
X172212000Y-135636000D03*
D35*
X193831000Y-147036000D03*
X173457000Y-147036000D03*
D29*
X178534060Y-147038060D03*
M02*
