G04 #@! TF.FileFunction,Soldermask,Bot*
%FSLAX46Y46*%
G04 Gerber Fmt 4.6, Leading zero omitted, Abs format (unit mm)*
G04 Created by KiCad (PCBNEW 4.0.7-e2-6376~58~ubuntu16.04.1) date Tue Oct  2 08:26:08 2018*
%MOMM*%
%LPD*%
G01*
G04 APERTURE LIST*
%ADD10C,0.100000*%
%ADD11C,2.100000*%
%ADD12O,2.100000X2.100000*%
%ADD13R,2.100000X2.100000*%
%ADD14R,1.750000X1.750000*%
%ADD15O,1.750000X1.750000*%
%ADD16C,1.750000*%
%ADD17C,1.900000*%
%ADD18C,3.600000*%
%ADD19C,2.000000*%
%ADD20C,1.500000*%
%ADD21C,3.900000*%
G04 APERTURE END LIST*
D10*
D11*
X195072000Y-60960000D03*
D12*
X195072000Y-63500000D03*
X195072000Y-66040000D03*
X195072000Y-68580000D03*
X195072000Y-71120000D03*
X195072000Y-73660000D03*
X195072000Y-76200000D03*
X195072000Y-78740000D03*
X195072000Y-81280000D03*
X195072000Y-83820000D03*
X195072000Y-86360000D03*
X195072000Y-88900000D03*
X195072000Y-91440000D03*
X195072000Y-93980000D03*
X195072000Y-96520000D03*
X195072000Y-99060000D03*
X195072000Y-101600000D03*
X195072000Y-104140000D03*
X195072000Y-106680000D03*
X195072000Y-109220000D03*
X195072000Y-111760000D03*
X195072000Y-114300000D03*
X195072000Y-116840000D03*
X195072000Y-119380000D03*
X195072000Y-121920000D03*
X195072000Y-124460000D03*
X195072000Y-126960000D03*
X172212000Y-124460000D03*
X172212000Y-121920000D03*
X172212000Y-114300000D03*
X172212000Y-116840000D03*
X172212000Y-119380000D03*
X172212000Y-127000000D03*
X172212000Y-68580000D03*
X172212000Y-71120000D03*
X172212000Y-73660000D03*
X172212000Y-76200000D03*
X172212000Y-66040000D03*
D13*
X172212000Y-60960000D03*
D12*
X172212000Y-63500000D03*
X172212000Y-78740000D03*
X172212000Y-81280000D03*
X172212000Y-83820000D03*
X172212000Y-86360000D03*
X172212000Y-88900000D03*
X172212000Y-91440000D03*
X172212000Y-93980000D03*
X172212000Y-96520000D03*
X172212000Y-99060000D03*
X172212000Y-101600000D03*
X172212000Y-104140000D03*
X172212000Y-106680000D03*
X172212000Y-109220000D03*
X172212000Y-111760000D03*
X175712000Y-127000000D03*
X175712000Y-119380000D03*
X175712000Y-124460000D03*
X175712000Y-121920000D03*
X178252000Y-124460000D03*
X178252000Y-127000000D03*
X178252000Y-121920000D03*
X180792000Y-127000000D03*
X180792000Y-124460000D03*
X180792000Y-121920000D03*
X183332000Y-127000000D03*
X183332000Y-124460000D03*
X183332000Y-121920000D03*
X185872000Y-124460000D03*
X185872000Y-127000000D03*
X185872000Y-121920000D03*
X188412000Y-124460000D03*
X188412000Y-127000000D03*
X188412000Y-121920000D03*
D13*
X160274000Y-137160000D03*
D12*
X162814000Y-137160000D03*
X165354000Y-137160000D03*
X167894000Y-137160000D03*
D13*
X155000000Y-130000000D03*
D12*
X155000000Y-132540000D03*
X155000000Y-135080000D03*
X155000000Y-137620000D03*
D14*
X107000000Y-61000000D03*
X105000000Y-61000000D03*
D15*
X107000000Y-63000000D03*
X105000000Y-63000000D03*
X107000000Y-65000000D03*
X105000000Y-65000000D03*
X107000000Y-67000000D03*
X105000000Y-67000000D03*
X107000000Y-69000000D03*
X105000000Y-69000000D03*
X107000000Y-71000000D03*
X105000000Y-71000000D03*
X107000000Y-73000000D03*
X105000000Y-73000000D03*
X107000000Y-75000000D03*
X105000000Y-75000000D03*
X107000000Y-77000000D03*
X105000000Y-77000000D03*
X107000000Y-79000000D03*
X105000000Y-79000000D03*
X129000000Y-65000000D03*
D16*
X129000000Y-61000000D03*
D15*
X127000000Y-61000000D03*
X129000000Y-63000000D03*
X127000000Y-63000000D03*
X127000000Y-65000000D03*
X129000000Y-67000000D03*
X127000000Y-67000000D03*
X127000000Y-69000000D03*
X129000000Y-71000000D03*
X127000000Y-71000000D03*
X129000000Y-73000000D03*
X129000000Y-69000000D03*
X129000000Y-75000000D03*
X127000000Y-73000000D03*
X127000000Y-75000000D03*
X129000000Y-79000000D03*
X127000000Y-77000000D03*
X129000000Y-77000000D03*
X127000000Y-79000000D03*
D17*
X161544000Y-121920000D03*
X161544000Y-124460000D03*
X161544000Y-127000000D03*
X161544000Y-119380000D03*
X161544000Y-111760000D03*
X161544000Y-114300000D03*
X161544000Y-116840000D03*
X161544000Y-129540000D03*
X161544000Y-132080000D03*
X117856000Y-87630000D03*
X115316000Y-87630000D03*
X125476000Y-87630000D03*
X120396000Y-87630000D03*
X122936000Y-87630000D03*
X110236000Y-87630000D03*
X112776000Y-87630000D03*
X161544000Y-101600000D03*
X161544000Y-104140000D03*
X161544000Y-106680000D03*
X161544000Y-109220000D03*
D18*
X152000000Y-145000000D03*
X105000000Y-145000000D03*
X105000000Y-97000000D03*
X152000000Y-97000000D03*
X105000000Y-55000000D03*
D19*
X122992400Y-133960000D03*
D20*
X122992400Y-112960000D03*
D18*
X195000000Y-55000000D03*
D13*
X195072000Y-135636000D03*
D12*
X192532000Y-135636000D03*
X189992000Y-135636000D03*
X187452000Y-135636000D03*
X184912000Y-135636000D03*
X182372000Y-135636000D03*
X179832000Y-135636000D03*
X177292000Y-135636000D03*
X174752000Y-135636000D03*
X172212000Y-135636000D03*
D21*
X193831000Y-147036000D03*
X173457000Y-147036000D03*
D18*
X178534060Y-147038060D03*
M02*
