G04 #@! TF.FileFunction,Paste,Top*
%FSLAX46Y46*%
G04 Gerber Fmt 4.6, Leading zero omitted, Abs format (unit mm)*
G04 Created by KiCad (PCBNEW 4.0.7-e2-6376~58~ubuntu16.04.1) date Tue Oct  2 08:26:08 2018*
%MOMM*%
%LPD*%
G01*
G04 APERTURE LIST*
%ADD10C,0.100000*%
%ADD11R,1.500000X3.200000*%
%ADD12R,1.250000X1.500000*%
%ADD13R,1.300000X1.500000*%
%ADD14R,0.600000X1.550000*%
%ADD15R,1.200000X1.800000*%
%ADD16R,1.500000X1.000000*%
%ADD17R,1.500000X0.700000*%
%ADD18R,2.800000X1.500000*%
G04 APERTURE END LIST*
D10*
D11*
X121920000Y-100584000D03*
X121920000Y-104584000D03*
D12*
X124968000Y-101366000D03*
X124968000Y-103866000D03*
D13*
X179832000Y-141130000D03*
X179832000Y-138430000D03*
X140462000Y-101266000D03*
X140462000Y-103966000D03*
X128016000Y-101266000D03*
X128016000Y-103966000D03*
X137668000Y-101266000D03*
X137668000Y-103966000D03*
X134620000Y-101266000D03*
X134620000Y-103966000D03*
X160274000Y-143035000D03*
X160274000Y-140335000D03*
X162814000Y-143035000D03*
X162814000Y-140335000D03*
D14*
X148867500Y-116745500D03*
X147867500Y-116745500D03*
X146867500Y-116745500D03*
X145867500Y-116745500D03*
X144867500Y-116745500D03*
X143867500Y-116745500D03*
D15*
X150167500Y-112870500D03*
X142567500Y-112870500D03*
D16*
X125792400Y-131335000D03*
X125792400Y-128835000D03*
X125792400Y-126335000D03*
X125792400Y-123835000D03*
X125792400Y-121335000D03*
X125792400Y-118835000D03*
X125792400Y-116405000D03*
X125792400Y-114705000D03*
X125792400Y-133835000D03*
D17*
X125792400Y-113405000D03*
X125792400Y-112205000D03*
D18*
X123992400Y-135910000D03*
X102492400Y-138110000D03*
X102492400Y-110810000D03*
X123992400Y-110810000D03*
M02*
