M48
;DRILL file {KiCad 4.0.7-e2-6376~58~ubuntu16.04.1} date Tue Oct  2 08:22:46 2018
;FORMAT={-:-/ absolute / inch / decimal}
FMAT,2
INCH,TZ
T1C0.016
T2C0.020
T3C0.028
T4C0.030
T5C0.039
T6C0.040
T7C0.043
T8C0.060
T9C0.126
%
G90
G05
M72
T1
X4.31Y-3.3259
X4.345Y-2.858
X4.345Y-2.909
X4.345Y-3.025
X4.345Y-3.068
X4.409Y-3.2984
X4.44Y-2.573
X4.4546Y-2.8346
X4.455Y-2.737
X4.49Y-2.573
X5.355Y-2.786
X5.401Y-2.786
X5.505Y-2.786
X5.548Y-2.786
X5.548Y-2.8134
X5.76Y-3.49
X5.9425Y-3.4518
X5.954Y-2.247
X6.01Y-3.045
X6.07Y-3.045
X6.142Y-3.045
X6.165Y-2.785
X6.1653Y-3.2958
X6.171Y-2.892
X6.214Y-2.99
X6.214Y-3.045
X6.214Y-3.096
X6.214Y-3.3
X6.214Y-3.36
X6.2202Y-4.32
X6.2631Y-4.32
X6.2631Y-4.3664
X6.279Y-3.3604
X6.3018Y-4.121
X6.305Y-4.32
X6.49Y-4.184
X6.53Y-4.184
X6.53Y-4.22
X6.57Y-4.184
X6.6424Y-4.0788
X6.66Y-3.57
X6.77Y-4.32
X6.8245Y-4.32
X6.8246Y-4.375
X6.875Y-4.32
X6.9Y-3.191
X6.9559Y-3.2221
X6.956Y-3.191
X6.987Y-4.184
X7.01Y-3.191
X7.02Y-4.184
X7.02Y-4.219
X7.042Y-4.0408
X7.053Y-4.184
X7.1323Y-3.9907
X7.24Y-4.32
X7.268Y-4.184
X7.3Y-4.15
X7.3Y-4.184
X7.3Y-4.32
X7.3Y-4.38
T2
X4.0551Y-2.3622
X4.0551Y-2.4409
X4.0551Y-2.5197
X4.0551Y-2.5984
X4.0551Y-2.6772
X4.0551Y-2.7559
X4.0551Y-2.8346
X4.0551Y-2.9134
X4.0551Y-2.9921
X4.0551Y-3.0709
X4.1339Y-2.3622
X4.1339Y-2.4409
X4.1339Y-2.5197
X4.1339Y-2.5984
X4.1339Y-2.6772
X4.1339Y-2.7559
X4.1339Y-2.8346
X4.1339Y-2.9134
X4.1339Y-2.9921
X4.1339Y-3.0709
X4.9213Y-2.3622
X4.9213Y-2.4409
X4.9213Y-2.5197
X4.9213Y-2.5984
X4.9213Y-2.6772
X4.9213Y-2.7559
X4.9213Y-2.8346
X4.9213Y-2.9134
X4.9213Y-2.9921
X4.9213Y-3.0709
X5.Y-2.3622
X5.Y-2.4409
X5.Y-2.5197
X5.Y-2.5984
X5.Y-2.6772
X5.Y-2.7559
X5.Y-2.8346
X5.Y-2.9134
X5.Y-2.9921
X5.Y-3.0709
T3
X4.06Y-3.22
X4.16Y-3.22
X4.26Y-3.22
X4.36Y-3.22
X4.46Y-3.22
X4.56Y-3.22
X4.66Y-3.22
X4.76Y-3.22
X4.86Y-3.22
X5.6059Y-3.7653
X5.6059Y-3.8653
X5.6059Y-3.9653
X5.6059Y-4.0653
X5.6059Y-4.1653
X5.6059Y-4.2653
X5.6059Y-4.3653
X5.6059Y-4.4653
X5.6059Y-4.5653
T4
X5.48Y-5.2631
X5.48Y-5.46
T5
X5.6457Y-2.1409
X5.6457Y-2.2409
X5.6457Y-2.3409
X5.6457Y-2.4409
X5.6457Y-2.5409
X5.6457Y-2.6409
X5.6457Y-2.7409
X5.6457Y-2.8409
X5.6457Y-2.9409
X5.6457Y-3.0409
T6
X5.8559Y-2.3654
X5.8559Y-2.4654
X5.8559Y-2.5654
X5.8559Y-2.6654
X5.8559Y-2.7654
X5.8559Y-2.8654
X5.8559Y-2.9654
X5.8559Y-3.0654
X5.8559Y-3.2654
X5.8559Y-3.3654
X5.8559Y-3.4654
X5.8559Y-3.5654
X5.8559Y-3.6654
X5.8559Y-3.7654
X5.8559Y-3.8654
X5.8559Y-3.9654
X5.8559Y-4.1654
X5.8559Y-4.2654
X5.8559Y-4.3654
X5.8559Y-4.4654
X5.8559Y-4.5654
X5.8559Y-4.6654
X5.8559Y-4.7654
X5.8559Y-4.8654
X6.0559Y-2.1654
X6.0559Y-2.2654
X6.1559Y-2.1654
X6.1559Y-2.2654
X6.2559Y-2.1654
X6.2559Y-2.2654
X6.3559Y-2.1654
X6.3559Y-2.2654
X6.4559Y-2.1654
X6.4559Y-2.2654
X6.5559Y-2.1654
X6.5559Y-2.2654
X6.6559Y-2.1654
X6.6559Y-2.2654
X6.7559Y-2.1654
X6.7559Y-2.2654
X6.7559Y-3.3604
X6.7559Y-3.4604
X6.8559Y-2.1654
X6.8559Y-2.2654
X6.8559Y-3.3604
X6.8559Y-3.4604
X6.9559Y-2.1654
X6.9559Y-2.2654
X6.9559Y-3.3604
X6.9559Y-3.4604
X7.0559Y-2.1654
X7.0559Y-2.2654
X7.1559Y-2.1654
X7.1559Y-2.2654
X7.2559Y-2.1654
X7.2559Y-2.2654
X7.3559Y-2.1654
X7.3559Y-2.2654
X7.4559Y-2.1654
X7.4559Y-2.2654
X7.5559Y-2.1654
X7.5559Y-2.2654
X7.6559Y-2.1654
X7.6559Y-2.2654
X7.7559Y-2.1654
X7.7559Y-2.2654
X7.7559Y-2.5654
X7.7559Y-2.6654
X7.7559Y-2.7654
X7.7559Y-2.8654
X7.7559Y-2.9654
X7.7559Y-3.0654
X7.7559Y-3.1654
X7.7559Y-3.2654
X7.7559Y-3.4654
X7.7559Y-3.5654
X7.7559Y-3.6654
X7.7559Y-3.7654
X7.7559Y-3.8654
X7.7559Y-3.9654
X7.7559Y-4.0654
X7.7559Y-4.1654
X7.7559Y-4.3254
X7.7559Y-4.4254
X7.7559Y-4.5254
X7.7559Y-4.6254
X7.7559Y-4.7254
X7.7559Y-4.8254
X7.7559Y-4.9254
X7.7559Y-5.0254
X7.7559Y-5.1254
X7.7559Y-5.2254
T7
X4.28Y-4.92
X4.58Y-4.92
T8
X4.4Y-5.74
X4.6Y-5.74
X4.88Y-5.74
X5.08Y-5.74
T9
X5.1969Y-2.19
X5.1969Y-2.9921
T0
M30
