%FSLAX45Y45*%
G04 Gerber Fmt 4.5, Leading zero omitted, Abs format (unit mm)*
G04 Created by KiCad (PCBNEW 4.0.7-e2-6376~58~ubuntu16.04.1) date Tue Oct  2 08:30:45 2018*
%MOMM*%
%LPD*%
G01*
G04 APERTURE LIST*
%ADD10C,0.127000*%
%ADD11C,0.150000*%
%ADD12C,0.200000*%
%ADD13C,0.300000*%
G04 APERTURE END LIST*
D10*
D11*
X20000000Y-5000000D02*
X10000000Y-5000000D01*
X20000000Y-15000000D02*
X20000000Y-5000000D01*
X10000000Y-15000000D02*
X20000000Y-15000000D01*
X10000000Y-5000000D02*
X10000000Y-15000000D01*
D12*
X10927400Y-8427819D02*
X10967400Y-8467819D01*
X10967400Y-8427819D02*
X10927400Y-8467819D01*
X11016300Y-7239320D02*
X11056300Y-7279320D01*
X11056300Y-7239320D02*
X11016300Y-7279320D01*
X11016300Y-7368860D02*
X11056300Y-7408860D01*
X11056300Y-7368860D02*
X11016300Y-7408860D01*
X11016300Y-7663500D02*
X11056300Y-7703500D01*
X11056300Y-7663500D02*
X11016300Y-7703500D01*
X11016300Y-7772720D02*
X11056300Y-7812720D01*
X11056300Y-7772720D02*
X11016300Y-7812720D01*
X11178860Y-8357819D02*
X11218860Y-8397819D01*
X11218860Y-8357819D02*
X11178860Y-8397819D01*
X11257600Y-6515420D02*
X11297600Y-6555420D01*
X11297600Y-6515420D02*
X11257600Y-6555420D01*
X11294800Y-7180000D02*
X11334800Y-7220000D01*
X11334800Y-7180000D02*
X11294800Y-7220000D01*
X11295700Y-6931980D02*
X11335700Y-6971980D01*
X11335700Y-6931980D02*
X11295700Y-6971980D01*
X11384600Y-6515420D02*
X11424600Y-6555420D01*
X11424600Y-6515420D02*
X11384600Y-6555420D01*
X13581700Y-7056440D02*
X13621700Y-7096440D01*
X13621700Y-7056440D02*
X13581700Y-7096440D01*
X13698540Y-7056440D02*
X13738540Y-7096440D01*
X13738540Y-7056440D02*
X13698540Y-7096440D01*
X13962700Y-7056440D02*
X14002700Y-7096440D01*
X14002700Y-7056440D02*
X13962700Y-7096440D01*
X14071920Y-7056440D02*
X14111920Y-7096440D01*
X14111920Y-7056440D02*
X14071920Y-7096440D01*
X14071920Y-7125999D02*
X14111920Y-7165999D01*
X14111920Y-7125999D02*
X14071920Y-7165999D01*
X14610400Y-8844600D02*
X14650400Y-8884600D01*
X14650400Y-8844600D02*
X14610400Y-8884600D01*
X15073950Y-8747572D02*
X15113950Y-8787572D01*
X15113950Y-8747572D02*
X15073950Y-8787572D01*
X15103160Y-5687380D02*
X15143160Y-5727380D01*
X15143160Y-5687380D02*
X15103160Y-5727380D01*
X15245400Y-7714300D02*
X15285400Y-7754300D01*
X15285400Y-7714300D02*
X15245400Y-7754300D01*
X15397800Y-7714300D02*
X15437800Y-7754300D01*
X15437800Y-7714300D02*
X15397800Y-7754300D01*
X15580680Y-7714300D02*
X15620680Y-7754300D01*
X15620680Y-7714300D02*
X15580680Y-7754300D01*
X15639100Y-7053900D02*
X15679100Y-7093900D01*
X15679100Y-7053900D02*
X15639100Y-7093900D01*
X15639862Y-8351332D02*
X15679862Y-8391332D01*
X15679862Y-8351332D02*
X15639862Y-8391332D01*
X15654340Y-7325680D02*
X15694340Y-7365680D01*
X15694340Y-7325680D02*
X15654340Y-7365680D01*
X15763560Y-7574600D02*
X15803560Y-7614600D01*
X15803560Y-7574600D02*
X15763560Y-7614600D01*
X15763560Y-7714300D02*
X15803560Y-7754300D01*
X15803560Y-7714300D02*
X15763560Y-7754300D01*
X15763560Y-7843840D02*
X15803560Y-7883840D01*
X15803560Y-7843840D02*
X15763560Y-7883840D01*
X15763560Y-8362000D02*
X15803560Y-8402000D01*
X15803560Y-8362000D02*
X15763560Y-8402000D01*
X15763560Y-8514400D02*
X15803560Y-8554400D01*
X15803560Y-8514400D02*
X15763560Y-8554400D01*
X15779308Y-10952800D02*
X15819308Y-10992800D01*
X15819308Y-10952800D02*
X15779308Y-10992800D01*
X15888274Y-10952800D02*
X15928274Y-10992800D01*
X15928274Y-10952800D02*
X15888274Y-10992800D01*
X15888274Y-11070656D02*
X15928274Y-11110656D01*
X15928274Y-11070656D02*
X15888274Y-11110656D01*
X15928660Y-8515300D02*
X15968660Y-8555300D01*
X15968660Y-8515300D02*
X15928660Y-8555300D01*
X15986572Y-10447340D02*
X16026572Y-10487340D01*
X16026572Y-10447340D02*
X15986572Y-10487340D01*
X15994700Y-10952800D02*
X16034700Y-10992800D01*
X16034700Y-10952800D02*
X15994700Y-10992800D01*
X16464600Y-10607360D02*
X16504600Y-10647360D01*
X16504600Y-10607360D02*
X16464600Y-10647360D01*
X16566200Y-10607360D02*
X16606200Y-10647360D01*
X16606200Y-10607360D02*
X16566200Y-10647360D01*
X16566200Y-10698800D02*
X16606200Y-10738800D01*
X16606200Y-10698800D02*
X16566200Y-10738800D01*
X16667800Y-10607360D02*
X16707800Y-10647360D01*
X16707800Y-10607360D02*
X16667800Y-10647360D01*
X16851696Y-10340152D02*
X16891696Y-10380152D01*
X16891696Y-10340152D02*
X16851696Y-10380152D01*
X16896400Y-9047800D02*
X16936400Y-9087800D01*
X16936400Y-9047800D02*
X16896400Y-9087800D01*
X17175800Y-10952800D02*
X17215800Y-10992800D01*
X17215800Y-10952800D02*
X17175800Y-10992800D01*
X17314230Y-10952800D02*
X17354230Y-10992800D01*
X17354230Y-10952800D02*
X17314230Y-10992800D01*
X17314500Y-11092500D02*
X17354500Y-11132500D01*
X17354500Y-11092500D02*
X17314500Y-11132500D01*
X17442500Y-10952800D02*
X17482500Y-10992800D01*
X17482500Y-10952800D02*
X17442500Y-10992800D01*
X17506000Y-8085140D02*
X17546000Y-8125140D01*
X17546000Y-8085140D02*
X17506000Y-8125140D01*
X17648000Y-8164120D02*
X17688000Y-8204120D01*
X17688000Y-8164120D02*
X17648000Y-8204120D01*
X17648240Y-8085140D02*
X17688240Y-8125140D01*
X17688240Y-8085140D02*
X17648240Y-8125140D01*
X17726980Y-10607360D02*
X17766980Y-10647360D01*
X17766980Y-10607360D02*
X17726980Y-10647360D01*
X17785400Y-8085140D02*
X17825400Y-8125140D01*
X17825400Y-8085140D02*
X17785400Y-8125140D01*
X17810800Y-10607360D02*
X17850800Y-10647360D01*
X17850800Y-10607360D02*
X17810800Y-10647360D01*
X17810800Y-10696260D02*
X17850800Y-10736260D01*
X17850800Y-10696260D02*
X17810800Y-10736260D01*
X17866680Y-10243632D02*
X17906680Y-10283632D01*
X17906680Y-10243632D02*
X17866680Y-10283632D01*
X17894620Y-10607360D02*
X17934620Y-10647360D01*
X17934620Y-10607360D02*
X17894620Y-10647360D01*
X18096042Y-10116378D02*
X18136042Y-10156378D01*
X18136042Y-10116378D02*
X18096042Y-10156378D01*
X18369600Y-10952800D02*
X18409600Y-10992800D01*
X18409600Y-10952800D02*
X18369600Y-10992800D01*
X18440720Y-10607360D02*
X18480720Y-10647360D01*
X18480720Y-10607360D02*
X18440720Y-10647360D01*
X18522000Y-10521000D02*
X18562000Y-10561000D01*
X18562000Y-10521000D02*
X18522000Y-10561000D01*
X18522000Y-10607360D02*
X18562000Y-10647360D01*
X18562000Y-10607360D02*
X18522000Y-10647360D01*
X18522000Y-10952800D02*
X18562000Y-10992800D01*
X18562000Y-10952800D02*
X18522000Y-10992800D01*
X18522000Y-11105200D02*
X18562000Y-11145200D01*
X18562000Y-11105200D02*
X18522000Y-11145200D01*
X10325000Y-6000000D02*
G75*
G03X10325000Y-6000000I-25000J0D01*
G01*
X10325000Y-6200000D02*
G75*
G03X10325000Y-6200000I-25000J0D01*
G01*
X10325000Y-6400000D02*
G75*
G03X10325000Y-6400000I-25000J0D01*
G01*
X10325000Y-6600000D02*
G75*
G03X10325000Y-6600000I-25000J0D01*
G01*
X10325000Y-6800000D02*
G75*
G03X10325000Y-6800000I-25000J0D01*
G01*
X10325000Y-7000000D02*
G75*
G03X10325000Y-7000000I-25000J0D01*
G01*
X10325000Y-7200000D02*
G75*
G03X10325000Y-7200000I-25000J0D01*
G01*
X10325000Y-7400000D02*
G75*
G03X10325000Y-7400000I-25000J0D01*
G01*
X10325000Y-7600000D02*
G75*
G03X10325000Y-7600000I-25000J0D01*
G01*
X10325000Y-7800000D02*
G75*
G03X10325000Y-7800000I-25000J0D01*
G01*
X10525000Y-6000000D02*
G75*
G03X10525000Y-6000000I-25000J0D01*
G01*
X10525000Y-6200000D02*
G75*
G03X10525000Y-6200000I-25000J0D01*
G01*
X10525000Y-6400000D02*
G75*
G03X10525000Y-6400000I-25000J0D01*
G01*
X10525000Y-6600000D02*
G75*
G03X10525000Y-6600000I-25000J0D01*
G01*
X10525000Y-6800000D02*
G75*
G03X10525000Y-6800000I-25000J0D01*
G01*
X10525000Y-7000000D02*
G75*
G03X10525000Y-7000000I-25000J0D01*
G01*
X10525000Y-7200000D02*
G75*
G03X10525000Y-7200000I-25000J0D01*
G01*
X10525000Y-7400000D02*
G75*
G03X10525000Y-7400000I-25000J0D01*
G01*
X10525000Y-7600000D02*
G75*
G03X10525000Y-7600000I-25000J0D01*
G01*
X10525000Y-7800000D02*
G75*
G03X10525000Y-7800000I-25000J0D01*
G01*
X12525000Y-6000000D02*
G75*
G03X12525000Y-6000000I-25000J0D01*
G01*
X12525000Y-6200000D02*
G75*
G03X12525000Y-6200000I-25000J0D01*
G01*
X12525000Y-6400000D02*
G75*
G03X12525000Y-6400000I-25000J0D01*
G01*
X12525000Y-6600000D02*
G75*
G03X12525000Y-6600000I-25000J0D01*
G01*
X12525000Y-6800000D02*
G75*
G03X12525000Y-6800000I-25000J0D01*
G01*
X12525000Y-7000000D02*
G75*
G03X12525000Y-7000000I-25000J0D01*
G01*
X12525000Y-7200000D02*
G75*
G03X12525000Y-7200000I-25000J0D01*
G01*
X12525000Y-7400000D02*
G75*
G03X12525000Y-7400000I-25000J0D01*
G01*
X12525000Y-7600000D02*
G75*
G03X12525000Y-7600000I-25000J0D01*
G01*
X12525000Y-7800000D02*
G75*
G03X12525000Y-7800000I-25000J0D01*
G01*
X12725000Y-6000000D02*
G75*
G03X12725000Y-6000000I-25000J0D01*
G01*
X12725000Y-6200000D02*
G75*
G03X12725000Y-6200000I-25000J0D01*
G01*
X12725000Y-6400000D02*
G75*
G03X12725000Y-6400000I-25000J0D01*
G01*
X12725000Y-6600000D02*
G75*
G03X12725000Y-6600000I-25000J0D01*
G01*
X12725000Y-6800000D02*
G75*
G03X12725000Y-6800000I-25000J0D01*
G01*
X12725000Y-7000000D02*
G75*
G03X12725000Y-7000000I-25000J0D01*
G01*
X12725000Y-7200000D02*
G75*
G03X12725000Y-7200000I-25000J0D01*
G01*
X12725000Y-7400000D02*
G75*
G03X12725000Y-7400000I-25000J0D01*
G01*
X12725000Y-7600000D02*
G75*
G03X12725000Y-7600000I-25000J0D01*
G01*
X12725000Y-7800000D02*
G75*
G03X12725000Y-7800000I-25000J0D01*
G01*
X10312400Y-8143800D02*
X10312400Y-8213800D01*
X10277400Y-8178800D02*
X10347400Y-8178800D01*
X10566400Y-8143800D02*
X10566400Y-8213800D01*
X10531400Y-8178800D02*
X10601400Y-8178800D01*
X10820400Y-8143800D02*
X10820400Y-8213800D01*
X10785400Y-8178800D02*
X10855400Y-8178800D01*
X11074400Y-8143800D02*
X11074400Y-8213800D01*
X11039400Y-8178800D02*
X11109400Y-8178800D01*
X11328400Y-8143800D02*
X11328400Y-8213800D01*
X11293400Y-8178800D02*
X11363400Y-8178800D01*
X11582400Y-8143800D02*
X11582400Y-8213800D01*
X11547400Y-8178800D02*
X11617400Y-8178800D01*
X11836400Y-8143800D02*
X11836400Y-8213800D01*
X11801400Y-8178800D02*
X11871400Y-8178800D01*
X12090400Y-8143800D02*
X12090400Y-8213800D01*
X12055400Y-8178800D02*
X12125400Y-8178800D01*
X12344400Y-8143800D02*
X12344400Y-8213800D01*
X12309400Y-8178800D02*
X12379400Y-8178800D01*
X14238986Y-9528862D02*
X14238986Y-9598862D01*
X14203986Y-9563862D02*
X14273986Y-9563862D01*
X14238986Y-9782862D02*
X14238986Y-9852862D01*
X14203986Y-9817862D02*
X14273986Y-9817862D01*
X14238986Y-10036862D02*
X14238986Y-10106862D01*
X14203986Y-10071862D02*
X14273986Y-10071862D01*
X14238986Y-10290862D02*
X14238986Y-10360862D01*
X14203986Y-10325862D02*
X14273986Y-10325862D01*
X14238986Y-10544862D02*
X14238986Y-10614862D01*
X14203986Y-10579862D02*
X14273986Y-10579862D01*
X14238986Y-10798862D02*
X14238986Y-10868862D01*
X14203986Y-10833862D02*
X14273986Y-10833862D01*
X14238986Y-11052862D02*
X14238986Y-11122862D01*
X14203986Y-11087862D02*
X14273986Y-11087862D01*
X14238986Y-11306862D02*
X14238986Y-11376862D01*
X14203986Y-11341862D02*
X14273986Y-11341862D01*
X14238986Y-11560862D02*
X14238986Y-11630862D01*
X14203986Y-11595862D02*
X14273986Y-11595862D01*
X13946141Y-13395341D02*
X13946141Y-13341459D01*
X13892259Y-13341459D01*
X13892259Y-13395341D01*
X13946141Y-13395341D01*
X13946141Y-13895341D02*
X13946141Y-13841459D01*
X13892259Y-13841459D01*
X13892259Y-13895341D01*
X13946141Y-13895341D01*
X14340000Y-5488000D02*
X14390000Y-5438000D01*
X14340000Y-5388000D01*
X14290000Y-5438000D01*
X14340000Y-5488000D01*
X14340000Y-5742000D02*
X14390000Y-5692000D01*
X14340000Y-5642000D01*
X14290000Y-5692000D01*
X14340000Y-5742000D01*
X14340000Y-5996000D02*
X14390000Y-5946000D01*
X14340000Y-5896000D01*
X14290000Y-5946000D01*
X14340000Y-5996000D01*
X14340000Y-6250000D02*
X14390000Y-6200000D01*
X14340000Y-6150000D01*
X14290000Y-6200000D01*
X14340000Y-6250000D01*
X14340000Y-6504000D02*
X14390000Y-6454000D01*
X14340000Y-6404000D01*
X14290000Y-6454000D01*
X14340000Y-6504000D01*
X14340000Y-6758000D02*
X14390000Y-6708000D01*
X14340000Y-6658000D01*
X14290000Y-6708000D01*
X14340000Y-6758000D01*
X14340000Y-7012000D02*
X14390000Y-6962000D01*
X14340000Y-6912000D01*
X14290000Y-6962000D01*
X14340000Y-7012000D01*
X14340000Y-7266000D02*
X14390000Y-7216000D01*
X14340000Y-7166000D01*
X14290000Y-7216000D01*
X14340000Y-7266000D01*
X14340000Y-7520000D02*
X14390000Y-7470000D01*
X14340000Y-7420000D01*
X14290000Y-7470000D01*
X14340000Y-7520000D01*
X14340000Y-7774000D02*
X14390000Y-7724000D01*
X14340000Y-7674000D01*
X14290000Y-7724000D01*
X14340000Y-7774000D01*
X14823200Y-5957200D02*
X14924800Y-6058800D01*
X14924800Y-5957200D02*
X14823200Y-6058800D01*
X14924800Y-6008000D02*
G75*
G03X14924800Y-6008000I-50800J0D01*
G01*
X14823200Y-6211200D02*
X14924800Y-6312800D01*
X14924800Y-6211200D02*
X14823200Y-6312800D01*
X14924800Y-6262000D02*
G75*
G03X14924800Y-6262000I-50800J0D01*
G01*
X14823200Y-6465200D02*
X14924800Y-6566800D01*
X14924800Y-6465200D02*
X14823200Y-6566800D01*
X14924800Y-6516000D02*
G75*
G03X14924800Y-6516000I-50800J0D01*
G01*
X14823200Y-6719200D02*
X14924800Y-6820800D01*
X14924800Y-6719200D02*
X14823200Y-6820800D01*
X14924800Y-6770000D02*
G75*
G03X14924800Y-6770000I-50800J0D01*
G01*
X14823200Y-6973200D02*
X14924800Y-7074800D01*
X14924800Y-6973200D02*
X14823200Y-7074800D01*
X14924800Y-7024000D02*
G75*
G03X14924800Y-7024000I-50800J0D01*
G01*
X14823200Y-7227200D02*
X14924800Y-7328800D01*
X14924800Y-7227200D02*
X14823200Y-7328800D01*
X14924800Y-7278000D02*
G75*
G03X14924800Y-7278000I-50800J0D01*
G01*
X14823200Y-7481200D02*
X14924800Y-7582800D01*
X14924800Y-7481200D02*
X14823200Y-7582800D01*
X14924800Y-7532000D02*
G75*
G03X14924800Y-7532000I-50800J0D01*
G01*
X14823200Y-7735200D02*
X14924800Y-7836800D01*
X14924800Y-7735200D02*
X14823200Y-7836800D01*
X14924800Y-7786000D02*
G75*
G03X14924800Y-7786000I-50800J0D01*
G01*
X14823200Y-8243200D02*
X14924800Y-8344800D01*
X14924800Y-8243200D02*
X14823200Y-8344800D01*
X14924800Y-8294000D02*
G75*
G03X14924800Y-8294000I-50800J0D01*
G01*
X14823200Y-8497200D02*
X14924800Y-8598800D01*
X14924800Y-8497200D02*
X14823200Y-8598800D01*
X14924800Y-8548000D02*
G75*
G03X14924800Y-8548000I-50800J0D01*
G01*
X14823200Y-8751200D02*
X14924800Y-8852800D01*
X14924800Y-8751200D02*
X14823200Y-8852800D01*
X14924800Y-8802000D02*
G75*
G03X14924800Y-8802000I-50800J0D01*
G01*
X14823200Y-9005200D02*
X14924800Y-9106800D01*
X14924800Y-9005200D02*
X14823200Y-9106800D01*
X14924800Y-9056000D02*
G75*
G03X14924800Y-9056000I-50800J0D01*
G01*
X14823200Y-9259200D02*
X14924800Y-9360800D01*
X14924800Y-9259200D02*
X14823200Y-9360800D01*
X14924800Y-9310000D02*
G75*
G03X14924800Y-9310000I-50800J0D01*
G01*
X14823200Y-9513200D02*
X14924800Y-9614800D01*
X14924800Y-9513200D02*
X14823200Y-9614800D01*
X14924800Y-9564000D02*
G75*
G03X14924800Y-9564000I-50800J0D01*
G01*
X14823200Y-9767200D02*
X14924800Y-9868800D01*
X14924800Y-9767200D02*
X14823200Y-9868800D01*
X14924800Y-9818000D02*
G75*
G03X14924800Y-9818000I-50800J0D01*
G01*
X14823200Y-10021200D02*
X14924800Y-10122800D01*
X14924800Y-10021200D02*
X14823200Y-10122800D01*
X14924800Y-10072000D02*
G75*
G03X14924800Y-10072000I-50800J0D01*
G01*
X14823200Y-10529200D02*
X14924800Y-10630800D01*
X14924800Y-10529200D02*
X14823200Y-10630800D01*
X14924800Y-10580000D02*
G75*
G03X14924800Y-10580000I-50800J0D01*
G01*
X14823200Y-10783200D02*
X14924800Y-10884800D01*
X14924800Y-10783200D02*
X14823200Y-10884800D01*
X14924800Y-10834000D02*
G75*
G03X14924800Y-10834000I-50800J0D01*
G01*
X14823200Y-11037200D02*
X14924800Y-11138800D01*
X14924800Y-11037200D02*
X14823200Y-11138800D01*
X14924800Y-11088000D02*
G75*
G03X14924800Y-11088000I-50800J0D01*
G01*
X14823200Y-11291200D02*
X14924800Y-11392800D01*
X14924800Y-11291200D02*
X14823200Y-11392800D01*
X14924800Y-11342000D02*
G75*
G03X14924800Y-11342000I-50800J0D01*
G01*
X14823200Y-11545200D02*
X14924800Y-11646800D01*
X14924800Y-11545200D02*
X14823200Y-11646800D01*
X14924800Y-11596000D02*
G75*
G03X14924800Y-11596000I-50800J0D01*
G01*
X14823200Y-11799200D02*
X14924800Y-11900800D01*
X14924800Y-11799200D02*
X14823200Y-11900800D01*
X14924800Y-11850000D02*
G75*
G03X14924800Y-11850000I-50800J0D01*
G01*
X14823200Y-12053200D02*
X14924800Y-12154800D01*
X14924800Y-12053200D02*
X14823200Y-12154800D01*
X14924800Y-12104000D02*
G75*
G03X14924800Y-12104000I-50800J0D01*
G01*
X14823200Y-12307200D02*
X14924800Y-12408800D01*
X14924800Y-12307200D02*
X14823200Y-12408800D01*
X14924800Y-12358000D02*
G75*
G03X14924800Y-12358000I-50800J0D01*
G01*
X15331200Y-5449200D02*
X15432800Y-5550800D01*
X15432800Y-5449200D02*
X15331200Y-5550800D01*
X15432800Y-5500000D02*
G75*
G03X15432800Y-5500000I-50800J0D01*
G01*
X15331200Y-5703200D02*
X15432800Y-5804800D01*
X15432800Y-5703200D02*
X15331200Y-5804800D01*
X15432800Y-5754000D02*
G75*
G03X15432800Y-5754000I-50800J0D01*
G01*
X15585200Y-5449200D02*
X15686800Y-5550800D01*
X15686800Y-5449200D02*
X15585200Y-5550800D01*
X15686800Y-5500000D02*
G75*
G03X15686800Y-5500000I-50800J0D01*
G01*
X15585200Y-5703200D02*
X15686800Y-5804800D01*
X15686800Y-5703200D02*
X15585200Y-5804800D01*
X15686800Y-5754000D02*
G75*
G03X15686800Y-5754000I-50800J0D01*
G01*
X15839200Y-5449200D02*
X15940800Y-5550800D01*
X15940800Y-5449200D02*
X15839200Y-5550800D01*
X15940800Y-5500000D02*
G75*
G03X15940800Y-5500000I-50800J0D01*
G01*
X15839200Y-5703200D02*
X15940800Y-5804800D01*
X15940800Y-5703200D02*
X15839200Y-5804800D01*
X15940800Y-5754000D02*
G75*
G03X15940800Y-5754000I-50800J0D01*
G01*
X16093200Y-5449200D02*
X16194800Y-5550800D01*
X16194800Y-5449200D02*
X16093200Y-5550800D01*
X16194800Y-5500000D02*
G75*
G03X16194800Y-5500000I-50800J0D01*
G01*
X16093200Y-5703200D02*
X16194800Y-5804800D01*
X16194800Y-5703200D02*
X16093200Y-5804800D01*
X16194800Y-5754000D02*
G75*
G03X16194800Y-5754000I-50800J0D01*
G01*
X16347200Y-5449200D02*
X16448800Y-5550800D01*
X16448800Y-5449200D02*
X16347200Y-5550800D01*
X16448800Y-5500000D02*
G75*
G03X16448800Y-5500000I-50800J0D01*
G01*
X16347200Y-5703200D02*
X16448800Y-5804800D01*
X16448800Y-5703200D02*
X16347200Y-5804800D01*
X16448800Y-5754000D02*
G75*
G03X16448800Y-5754000I-50800J0D01*
G01*
X16601200Y-5449200D02*
X16702800Y-5550800D01*
X16702800Y-5449200D02*
X16601200Y-5550800D01*
X16702800Y-5500000D02*
G75*
G03X16702800Y-5500000I-50800J0D01*
G01*
X16601200Y-5703200D02*
X16702800Y-5804800D01*
X16702800Y-5703200D02*
X16601200Y-5804800D01*
X16702800Y-5754000D02*
G75*
G03X16702800Y-5754000I-50800J0D01*
G01*
X16855200Y-5449200D02*
X16956800Y-5550800D01*
X16956800Y-5449200D02*
X16855200Y-5550800D01*
X16956800Y-5500000D02*
G75*
G03X16956800Y-5500000I-50800J0D01*
G01*
X16855200Y-5703200D02*
X16956800Y-5804800D01*
X16956800Y-5703200D02*
X16855200Y-5804800D01*
X16956800Y-5754000D02*
G75*
G03X16956800Y-5754000I-50800J0D01*
G01*
X17109200Y-5449200D02*
X17210800Y-5550800D01*
X17210800Y-5449200D02*
X17109200Y-5550800D01*
X17210800Y-5500000D02*
G75*
G03X17210800Y-5500000I-50800J0D01*
G01*
X17109200Y-5703200D02*
X17210800Y-5804800D01*
X17210800Y-5703200D02*
X17109200Y-5804800D01*
X17210800Y-5754000D02*
G75*
G03X17210800Y-5754000I-50800J0D01*
G01*
X17109200Y-8484500D02*
X17210800Y-8586100D01*
X17210800Y-8484500D02*
X17109200Y-8586100D01*
X17210800Y-8535300D02*
G75*
G03X17210800Y-8535300I-50800J0D01*
G01*
X17109200Y-8738500D02*
X17210800Y-8840100D01*
X17210800Y-8738500D02*
X17109200Y-8840100D01*
X17210800Y-8789300D02*
G75*
G03X17210800Y-8789300I-50800J0D01*
G01*
X17363200Y-5449200D02*
X17464800Y-5550800D01*
X17464800Y-5449200D02*
X17363200Y-5550800D01*
X17464800Y-5500000D02*
G75*
G03X17464800Y-5500000I-50800J0D01*
G01*
X17363200Y-5703200D02*
X17464800Y-5804800D01*
X17464800Y-5703200D02*
X17363200Y-5804800D01*
X17464800Y-5754000D02*
G75*
G03X17464800Y-5754000I-50800J0D01*
G01*
X17363200Y-8484500D02*
X17464800Y-8586100D01*
X17464800Y-8484500D02*
X17363200Y-8586100D01*
X17464800Y-8535300D02*
G75*
G03X17464800Y-8535300I-50800J0D01*
G01*
X17363200Y-8738500D02*
X17464800Y-8840100D01*
X17464800Y-8738500D02*
X17363200Y-8840100D01*
X17464800Y-8789300D02*
G75*
G03X17464800Y-8789300I-50800J0D01*
G01*
X17617200Y-5449200D02*
X17718800Y-5550800D01*
X17718800Y-5449200D02*
X17617200Y-5550800D01*
X17718800Y-5500000D02*
G75*
G03X17718800Y-5500000I-50800J0D01*
G01*
X17617200Y-5703200D02*
X17718800Y-5804800D01*
X17718800Y-5703200D02*
X17617200Y-5804800D01*
X17718800Y-5754000D02*
G75*
G03X17718800Y-5754000I-50800J0D01*
G01*
X17617200Y-8484500D02*
X17718800Y-8586100D01*
X17718800Y-8484500D02*
X17617200Y-8586100D01*
X17718800Y-8535300D02*
G75*
G03X17718800Y-8535300I-50800J0D01*
G01*
X17617200Y-8738500D02*
X17718800Y-8840100D01*
X17718800Y-8738500D02*
X17617200Y-8840100D01*
X17718800Y-8789300D02*
G75*
G03X17718800Y-8789300I-50800J0D01*
G01*
X17871200Y-5449200D02*
X17972800Y-5550800D01*
X17972800Y-5449200D02*
X17871200Y-5550800D01*
X17972800Y-5500000D02*
G75*
G03X17972800Y-5500000I-50800J0D01*
G01*
X17871200Y-5703200D02*
X17972800Y-5804800D01*
X17972800Y-5703200D02*
X17871200Y-5804800D01*
X17972800Y-5754000D02*
G75*
G03X17972800Y-5754000I-50800J0D01*
G01*
X18125200Y-5449200D02*
X18226800Y-5550800D01*
X18226800Y-5449200D02*
X18125200Y-5550800D01*
X18226800Y-5500000D02*
G75*
G03X18226800Y-5500000I-50800J0D01*
G01*
X18125200Y-5703200D02*
X18226800Y-5804800D01*
X18226800Y-5703200D02*
X18125200Y-5804800D01*
X18226800Y-5754000D02*
G75*
G03X18226800Y-5754000I-50800J0D01*
G01*
X18379200Y-5449200D02*
X18480800Y-5550800D01*
X18480800Y-5449200D02*
X18379200Y-5550800D01*
X18480800Y-5500000D02*
G75*
G03X18480800Y-5500000I-50800J0D01*
G01*
X18379200Y-5703200D02*
X18480800Y-5804800D01*
X18480800Y-5703200D02*
X18379200Y-5804800D01*
X18480800Y-5754000D02*
G75*
G03X18480800Y-5754000I-50800J0D01*
G01*
X18633200Y-5449200D02*
X18734800Y-5550800D01*
X18734800Y-5449200D02*
X18633200Y-5550800D01*
X18734800Y-5500000D02*
G75*
G03X18734800Y-5500000I-50800J0D01*
G01*
X18633200Y-5703200D02*
X18734800Y-5804800D01*
X18734800Y-5703200D02*
X18633200Y-5804800D01*
X18734800Y-5754000D02*
G75*
G03X18734800Y-5754000I-50800J0D01*
G01*
X18887200Y-5449200D02*
X18988800Y-5550800D01*
X18988800Y-5449200D02*
X18887200Y-5550800D01*
X18988800Y-5500000D02*
G75*
G03X18988800Y-5500000I-50800J0D01*
G01*
X18887200Y-5703200D02*
X18988800Y-5804800D01*
X18988800Y-5703200D02*
X18887200Y-5804800D01*
X18988800Y-5754000D02*
G75*
G03X18988800Y-5754000I-50800J0D01*
G01*
X19141200Y-5449200D02*
X19242800Y-5550800D01*
X19242800Y-5449200D02*
X19141200Y-5550800D01*
X19242800Y-5500000D02*
G75*
G03X19242800Y-5500000I-50800J0D01*
G01*
X19141200Y-5703200D02*
X19242800Y-5804800D01*
X19242800Y-5703200D02*
X19141200Y-5804800D01*
X19242800Y-5754000D02*
G75*
G03X19242800Y-5754000I-50800J0D01*
G01*
X19395200Y-5449200D02*
X19496800Y-5550800D01*
X19496800Y-5449200D02*
X19395200Y-5550800D01*
X19496800Y-5500000D02*
G75*
G03X19496800Y-5500000I-50800J0D01*
G01*
X19395200Y-5703200D02*
X19496800Y-5804800D01*
X19496800Y-5703200D02*
X19395200Y-5804800D01*
X19496800Y-5754000D02*
G75*
G03X19496800Y-5754000I-50800J0D01*
G01*
X19649200Y-5449200D02*
X19750800Y-5550800D01*
X19750800Y-5449200D02*
X19649200Y-5550800D01*
X19750800Y-5500000D02*
G75*
G03X19750800Y-5500000I-50800J0D01*
G01*
X19649200Y-5703200D02*
X19750800Y-5804800D01*
X19750800Y-5703200D02*
X19649200Y-5804800D01*
X19750800Y-5754000D02*
G75*
G03X19750800Y-5754000I-50800J0D01*
G01*
X19649200Y-6465200D02*
X19750800Y-6566800D01*
X19750800Y-6465200D02*
X19649200Y-6566800D01*
X19750800Y-6516000D02*
G75*
G03X19750800Y-6516000I-50800J0D01*
G01*
X19649200Y-6719200D02*
X19750800Y-6820800D01*
X19750800Y-6719200D02*
X19649200Y-6820800D01*
X19750800Y-6770000D02*
G75*
G03X19750800Y-6770000I-50800J0D01*
G01*
X19649200Y-6973200D02*
X19750800Y-7074800D01*
X19750800Y-6973200D02*
X19649200Y-7074800D01*
X19750800Y-7024000D02*
G75*
G03X19750800Y-7024000I-50800J0D01*
G01*
X19649200Y-7227200D02*
X19750800Y-7328800D01*
X19750800Y-7227200D02*
X19649200Y-7328800D01*
X19750800Y-7278000D02*
G75*
G03X19750800Y-7278000I-50800J0D01*
G01*
X19649200Y-7481200D02*
X19750800Y-7582800D01*
X19750800Y-7481200D02*
X19649200Y-7582800D01*
X19750800Y-7532000D02*
G75*
G03X19750800Y-7532000I-50800J0D01*
G01*
X19649200Y-7735200D02*
X19750800Y-7836800D01*
X19750800Y-7735200D02*
X19649200Y-7836800D01*
X19750800Y-7786000D02*
G75*
G03X19750800Y-7786000I-50800J0D01*
G01*
X19649200Y-7989200D02*
X19750800Y-8090800D01*
X19750800Y-7989200D02*
X19649200Y-8090800D01*
X19750800Y-8040000D02*
G75*
G03X19750800Y-8040000I-50800J0D01*
G01*
X19649200Y-8243200D02*
X19750800Y-8344800D01*
X19750800Y-8243200D02*
X19649200Y-8344800D01*
X19750800Y-8294000D02*
G75*
G03X19750800Y-8294000I-50800J0D01*
G01*
X19649200Y-8751200D02*
X19750800Y-8852800D01*
X19750800Y-8751200D02*
X19649200Y-8852800D01*
X19750800Y-8802000D02*
G75*
G03X19750800Y-8802000I-50800J0D01*
G01*
X19649200Y-9005200D02*
X19750800Y-9106800D01*
X19750800Y-9005200D02*
X19649200Y-9106800D01*
X19750800Y-9056000D02*
G75*
G03X19750800Y-9056000I-50800J0D01*
G01*
X19649200Y-9259200D02*
X19750800Y-9360800D01*
X19750800Y-9259200D02*
X19649200Y-9360800D01*
X19750800Y-9310000D02*
G75*
G03X19750800Y-9310000I-50800J0D01*
G01*
X19649200Y-9513200D02*
X19750800Y-9614800D01*
X19750800Y-9513200D02*
X19649200Y-9614800D01*
X19750800Y-9564000D02*
G75*
G03X19750800Y-9564000I-50800J0D01*
G01*
X19649200Y-9767200D02*
X19750800Y-9868800D01*
X19750800Y-9767200D02*
X19649200Y-9868800D01*
X19750800Y-9818000D02*
G75*
G03X19750800Y-9818000I-50800J0D01*
G01*
X19649200Y-10021200D02*
X19750800Y-10122800D01*
X19750800Y-10021200D02*
X19649200Y-10122800D01*
X19750800Y-10072000D02*
G75*
G03X19750800Y-10072000I-50800J0D01*
G01*
X19649200Y-10275200D02*
X19750800Y-10376800D01*
X19750800Y-10275200D02*
X19649200Y-10376800D01*
X19750800Y-10326000D02*
G75*
G03X19750800Y-10326000I-50800J0D01*
G01*
X19649200Y-10529200D02*
X19750800Y-10630800D01*
X19750800Y-10529200D02*
X19649200Y-10630800D01*
X19750800Y-10580000D02*
G75*
G03X19750800Y-10580000I-50800J0D01*
G01*
X19649200Y-10935600D02*
X19750800Y-11037200D01*
X19750800Y-10935600D02*
X19649200Y-11037200D01*
X19750800Y-10986400D02*
G75*
G03X19750800Y-10986400I-50800J0D01*
G01*
X19649200Y-11189600D02*
X19750800Y-11291200D01*
X19750800Y-11189600D02*
X19649200Y-11291200D01*
X19750800Y-11240400D02*
G75*
G03X19750800Y-11240400I-50800J0D01*
G01*
X19649200Y-11443600D02*
X19750800Y-11545200D01*
X19750800Y-11443600D02*
X19649200Y-11545200D01*
X19750800Y-11494400D02*
G75*
G03X19750800Y-11494400I-50800J0D01*
G01*
X19649200Y-11697600D02*
X19750800Y-11799200D01*
X19750800Y-11697600D02*
X19649200Y-11799200D01*
X19750800Y-11748400D02*
G75*
G03X19750800Y-11748400I-50800J0D01*
G01*
X19649200Y-11951600D02*
X19750800Y-12053200D01*
X19750800Y-11951600D02*
X19649200Y-12053200D01*
X19750800Y-12002400D02*
G75*
G03X19750800Y-12002400I-50800J0D01*
G01*
X19649200Y-12205600D02*
X19750800Y-12307200D01*
X19750800Y-12205600D02*
X19649200Y-12307200D01*
X19750800Y-12256400D02*
G75*
G03X19750800Y-12256400I-50800J0D01*
G01*
X19649200Y-12459600D02*
X19750800Y-12561200D01*
X19750800Y-12459600D02*
X19649200Y-12561200D01*
X19750800Y-12510400D02*
G75*
G03X19750800Y-12510400I-50800J0D01*
G01*
X19649200Y-12713600D02*
X19750800Y-12815200D01*
X19750800Y-12713600D02*
X19649200Y-12815200D01*
X19750800Y-12764400D02*
G75*
G03X19750800Y-12764400I-50800J0D01*
G01*
X19649200Y-12967600D02*
X19750800Y-13069200D01*
X19750800Y-12967600D02*
X19649200Y-13069200D01*
X19750800Y-13018400D02*
G75*
G03X19750800Y-13018400I-50800J0D01*
G01*
X19649200Y-13221600D02*
X19750800Y-13323200D01*
X19750800Y-13221600D02*
X19649200Y-13323200D01*
X19750800Y-13272400D02*
G75*
G03X19750800Y-13272400I-50800J0D01*
G01*
X10816200Y-12441800D02*
X10926200Y-12551800D01*
X10926200Y-12441800D02*
X10816200Y-12551800D01*
X10871200Y-12441800D02*
X10871200Y-12551800D01*
X10816200Y-12496800D02*
X10926200Y-12496800D01*
X11578200Y-12441800D02*
X11688200Y-12551800D01*
X11688200Y-12441800D02*
X11578200Y-12551800D01*
X11633200Y-12441800D02*
X11633200Y-12551800D01*
X11578200Y-12496800D02*
X11688200Y-12496800D01*
X11100000Y-14503600D02*
X11252000Y-14655600D01*
X11252000Y-14503600D02*
X11100000Y-14655600D01*
X11229741Y-14633341D02*
X11229741Y-14525859D01*
X11122259Y-14525859D01*
X11122259Y-14633341D01*
X11229741Y-14633341D01*
X11608000Y-14503600D02*
X11760000Y-14655600D01*
X11760000Y-14503600D02*
X11608000Y-14655600D01*
X11737741Y-14633341D02*
X11737741Y-14525859D01*
X11630259Y-14525859D01*
X11630259Y-14633341D01*
X11737741Y-14633341D01*
X12319200Y-14503600D02*
X12471200Y-14655600D01*
X12471200Y-14503600D02*
X12319200Y-14655600D01*
X12448941Y-14633341D02*
X12448941Y-14525859D01*
X12341459Y-14525859D01*
X12341459Y-14633341D01*
X12448941Y-14633341D01*
X12827200Y-14503600D02*
X12979200Y-14655600D01*
X12979200Y-14503600D02*
X12827200Y-14655600D01*
X12956941Y-14633341D02*
X12956941Y-14525859D01*
X12849459Y-14525859D01*
X12849459Y-14633341D01*
X12956941Y-14633341D01*
X13040000Y-5402500D02*
X13360000Y-5722500D01*
X13360000Y-5402500D02*
X13040000Y-5722500D01*
X13200000Y-5722500D02*
X13360000Y-5562500D01*
X13200000Y-5402500D01*
X13040000Y-5562500D01*
X13200000Y-5722500D01*
X13040000Y-7439900D02*
X13360000Y-7759900D01*
X13360000Y-7439900D02*
X13040000Y-7759900D01*
X13200000Y-7759900D02*
X13360000Y-7599900D01*
X13200000Y-7439900D01*
X13040000Y-7599900D01*
X13200000Y-7759900D01*
D13*
X10263929Y-15473214D02*
X10263929Y-15173214D01*
X10335357Y-15173214D01*
X10378214Y-15187500D01*
X10406786Y-15216071D01*
X10421071Y-15244643D01*
X10435357Y-15301786D01*
X10435357Y-15344643D01*
X10421071Y-15401786D01*
X10406786Y-15430357D01*
X10378214Y-15458929D01*
X10335357Y-15473214D01*
X10263929Y-15473214D01*
X10563929Y-15473214D02*
X10563929Y-15273214D01*
X10563929Y-15330357D02*
X10578214Y-15301786D01*
X10592500Y-15287500D01*
X10621071Y-15273214D01*
X10649643Y-15273214D01*
X10749643Y-15473214D02*
X10749643Y-15273214D01*
X10749643Y-15173214D02*
X10735357Y-15187500D01*
X10749643Y-15201786D01*
X10763929Y-15187500D01*
X10749643Y-15173214D01*
X10749643Y-15201786D01*
X10935357Y-15473214D02*
X10906786Y-15458929D01*
X10892500Y-15430357D01*
X10892500Y-15173214D01*
X11092500Y-15473214D02*
X11063929Y-15458929D01*
X11049643Y-15430357D01*
X11049643Y-15173214D01*
X11435357Y-15473214D02*
X11435357Y-15173214D01*
X11535357Y-15387500D01*
X11635357Y-15173214D01*
X11635357Y-15473214D01*
X11906786Y-15473214D02*
X11906786Y-15316071D01*
X11892500Y-15287500D01*
X11863928Y-15273214D01*
X11806786Y-15273214D01*
X11778214Y-15287500D01*
X11906786Y-15458929D02*
X11878214Y-15473214D01*
X11806786Y-15473214D01*
X11778214Y-15458929D01*
X11763928Y-15430357D01*
X11763928Y-15401786D01*
X11778214Y-15373214D01*
X11806786Y-15358929D01*
X11878214Y-15358929D01*
X11906786Y-15344643D01*
X12049643Y-15273214D02*
X12049643Y-15573214D01*
X12049643Y-15287500D02*
X12078214Y-15273214D01*
X12135357Y-15273214D01*
X12163928Y-15287500D01*
X12178214Y-15301786D01*
X12192500Y-15330357D01*
X12192500Y-15416071D01*
X12178214Y-15444643D01*
X12163928Y-15458929D01*
X12135357Y-15473214D01*
X12078214Y-15473214D01*
X12049643Y-15458929D01*
X12321071Y-15444643D02*
X12335357Y-15458929D01*
X12321071Y-15473214D01*
X12306786Y-15458929D01*
X12321071Y-15444643D01*
X12321071Y-15473214D01*
X12321071Y-15287500D02*
X12335357Y-15301786D01*
X12321071Y-15316071D01*
X12306786Y-15301786D01*
X12321071Y-15287500D01*
X12321071Y-15316071D01*
X9952500Y-15947500D02*
X9992500Y-15987500D01*
X9992500Y-15947500D02*
X9952500Y-15987500D01*
X10321071Y-15803214D02*
X10349643Y-15803214D01*
X10378214Y-15817500D01*
X10392500Y-15831786D01*
X10406786Y-15860357D01*
X10421071Y-15917500D01*
X10421071Y-15988929D01*
X10406786Y-16046071D01*
X10392500Y-16074643D01*
X10378214Y-16088929D01*
X10349643Y-16103214D01*
X10321071Y-16103214D01*
X10292500Y-16088929D01*
X10278214Y-16074643D01*
X10263929Y-16046071D01*
X10249643Y-15988929D01*
X10249643Y-15917500D01*
X10263929Y-15860357D01*
X10278214Y-15831786D01*
X10292500Y-15817500D01*
X10321071Y-15803214D01*
X10549643Y-16074643D02*
X10563929Y-16088929D01*
X10549643Y-16103214D01*
X10535357Y-16088929D01*
X10549643Y-16074643D01*
X10549643Y-16103214D01*
X10821071Y-15903214D02*
X10821071Y-16103214D01*
X10749643Y-15788929D02*
X10678214Y-16003214D01*
X10863928Y-16003214D01*
X11035357Y-15803214D02*
X11063929Y-15803214D01*
X11092500Y-15817500D01*
X11106786Y-15831786D01*
X11121071Y-15860357D01*
X11135357Y-15917500D01*
X11135357Y-15988929D01*
X11121071Y-16046071D01*
X11106786Y-16074643D01*
X11092500Y-16088929D01*
X11063929Y-16103214D01*
X11035357Y-16103214D01*
X11006786Y-16088929D01*
X10992500Y-16074643D01*
X10978214Y-16046071D01*
X10963929Y-15988929D01*
X10963929Y-15917500D01*
X10978214Y-15860357D01*
X10992500Y-15831786D01*
X11006786Y-15817500D01*
X11035357Y-15803214D01*
X11263928Y-16103214D02*
X11263928Y-15903214D01*
X11263928Y-15931786D02*
X11278214Y-15917500D01*
X11306786Y-15903214D01*
X11349643Y-15903214D01*
X11378214Y-15917500D01*
X11392500Y-15946071D01*
X11392500Y-16103214D01*
X11392500Y-15946071D02*
X11406786Y-15917500D01*
X11435357Y-15903214D01*
X11478214Y-15903214D01*
X11506786Y-15917500D01*
X11521071Y-15946071D01*
X11521071Y-16103214D01*
X11663928Y-16103214D02*
X11663928Y-15903214D01*
X11663928Y-15931786D02*
X11678214Y-15917500D01*
X11706786Y-15903214D01*
X11749643Y-15903214D01*
X11778214Y-15917500D01*
X11792500Y-15946071D01*
X11792500Y-16103214D01*
X11792500Y-15946071D02*
X11806786Y-15917500D01*
X11835357Y-15903214D01*
X11878214Y-15903214D01*
X11906786Y-15917500D01*
X11921071Y-15946071D01*
X11921071Y-16103214D01*
X12506786Y-15788929D02*
X12249643Y-16174643D01*
X12892500Y-15803214D02*
X12921071Y-15803214D01*
X12949643Y-15817500D01*
X12963928Y-15831786D01*
X12978214Y-15860357D01*
X12992500Y-15917500D01*
X12992500Y-15988929D01*
X12978214Y-16046071D01*
X12963928Y-16074643D01*
X12949643Y-16088929D01*
X12921071Y-16103214D01*
X12892500Y-16103214D01*
X12863928Y-16088929D01*
X12849643Y-16074643D01*
X12835357Y-16046071D01*
X12821071Y-15988929D01*
X12821071Y-15917500D01*
X12835357Y-15860357D01*
X12849643Y-15831786D01*
X12863928Y-15817500D01*
X12892500Y-15803214D01*
X13121071Y-16074643D02*
X13135357Y-16088929D01*
X13121071Y-16103214D01*
X13106786Y-16088929D01*
X13121071Y-16074643D01*
X13121071Y-16103214D01*
X13321071Y-15803214D02*
X13349643Y-15803214D01*
X13378214Y-15817500D01*
X13392500Y-15831786D01*
X13406785Y-15860357D01*
X13421071Y-15917500D01*
X13421071Y-15988929D01*
X13406785Y-16046071D01*
X13392500Y-16074643D01*
X13378214Y-16088929D01*
X13349643Y-16103214D01*
X13321071Y-16103214D01*
X13292500Y-16088929D01*
X13278214Y-16074643D01*
X13263928Y-16046071D01*
X13249643Y-15988929D01*
X13249643Y-15917500D01*
X13263928Y-15860357D01*
X13278214Y-15831786D01*
X13292500Y-15817500D01*
X13321071Y-15803214D01*
X13706785Y-16103214D02*
X13535357Y-16103214D01*
X13621071Y-16103214D02*
X13621071Y-15803214D01*
X13592500Y-15846071D01*
X13563928Y-15874643D01*
X13535357Y-15888929D01*
X13963928Y-15803214D02*
X13906785Y-15803214D01*
X13878214Y-15817500D01*
X13863928Y-15831786D01*
X13835357Y-15874643D01*
X13821071Y-15931786D01*
X13821071Y-16046071D01*
X13835357Y-16074643D01*
X13849643Y-16088929D01*
X13878214Y-16103214D01*
X13935357Y-16103214D01*
X13963928Y-16088929D01*
X13978214Y-16074643D01*
X13992500Y-16046071D01*
X13992500Y-15974643D01*
X13978214Y-15946071D01*
X13963928Y-15931786D01*
X13935357Y-15917500D01*
X13878214Y-15917500D01*
X13849643Y-15931786D01*
X13835357Y-15946071D01*
X13821071Y-15974643D01*
X14106786Y-15803214D02*
X14106786Y-15860357D01*
X14221071Y-15803214D02*
X14221071Y-15860357D01*
X14663928Y-16217500D02*
X14649643Y-16203214D01*
X14621071Y-16160357D01*
X14606785Y-16131786D01*
X14592500Y-16088929D01*
X14578214Y-16017500D01*
X14578214Y-15960357D01*
X14592500Y-15888929D01*
X14606785Y-15846071D01*
X14621071Y-15817500D01*
X14649643Y-15774643D01*
X14663928Y-15760357D01*
X14906785Y-15803214D02*
X14849643Y-15803214D01*
X14821071Y-15817500D01*
X14806785Y-15831786D01*
X14778214Y-15874643D01*
X14763928Y-15931786D01*
X14763928Y-16046071D01*
X14778214Y-16074643D01*
X14792500Y-16088929D01*
X14821071Y-16103214D01*
X14878214Y-16103214D01*
X14906785Y-16088929D01*
X14921071Y-16074643D01*
X14935357Y-16046071D01*
X14935357Y-15974643D01*
X14921071Y-15946071D01*
X14906785Y-15931786D01*
X14878214Y-15917500D01*
X14821071Y-15917500D01*
X14792500Y-15931786D01*
X14778214Y-15946071D01*
X14763928Y-15974643D01*
X15221071Y-16103214D02*
X15049643Y-16103214D01*
X15135357Y-16103214D02*
X15135357Y-15803214D01*
X15106785Y-15846071D01*
X15078214Y-15874643D01*
X15049643Y-15888929D01*
X15578214Y-16103214D02*
X15578214Y-15803214D01*
X15706785Y-16103214D02*
X15706785Y-15946071D01*
X15692500Y-15917500D01*
X15663928Y-15903214D01*
X15621071Y-15903214D01*
X15592500Y-15917500D01*
X15578214Y-15931786D01*
X15892500Y-16103214D02*
X15863928Y-16088929D01*
X15849643Y-16074643D01*
X15835357Y-16046071D01*
X15835357Y-15960357D01*
X15849643Y-15931786D01*
X15863928Y-15917500D01*
X15892500Y-15903214D01*
X15935357Y-15903214D01*
X15963928Y-15917500D01*
X15978214Y-15931786D01*
X15992500Y-15960357D01*
X15992500Y-16046071D01*
X15978214Y-16074643D01*
X15963928Y-16088929D01*
X15935357Y-16103214D01*
X15892500Y-16103214D01*
X16163928Y-16103214D02*
X16135357Y-16088929D01*
X16121071Y-16060357D01*
X16121071Y-15803214D01*
X16392500Y-16088929D02*
X16363928Y-16103214D01*
X16306786Y-16103214D01*
X16278214Y-16088929D01*
X16263928Y-16060357D01*
X16263928Y-15946071D01*
X16278214Y-15917500D01*
X16306786Y-15903214D01*
X16363928Y-15903214D01*
X16392500Y-15917500D01*
X16406786Y-15946071D01*
X16406786Y-15974643D01*
X16263928Y-16003214D01*
X16521071Y-16088929D02*
X16549643Y-16103214D01*
X16606786Y-16103214D01*
X16635357Y-16088929D01*
X16649643Y-16060357D01*
X16649643Y-16046071D01*
X16635357Y-16017500D01*
X16606786Y-16003214D01*
X16563928Y-16003214D01*
X16535357Y-15988929D01*
X16521071Y-15960357D01*
X16521071Y-15946071D01*
X16535357Y-15917500D01*
X16563928Y-15903214D01*
X16606786Y-15903214D01*
X16635357Y-15917500D01*
X16749643Y-16217500D02*
X16763928Y-16203214D01*
X16792500Y-16160357D01*
X16806786Y-16131786D01*
X16821071Y-16088929D01*
X16835357Y-16017500D01*
X16835357Y-15960357D01*
X16821071Y-15888929D01*
X16806786Y-15846071D01*
X16792500Y-15817500D01*
X16763928Y-15774643D01*
X16749643Y-15760357D01*
X9992500Y-16363500D02*
G75*
G03X9992500Y-16363500I-25000J0D01*
G01*
X10321071Y-16199214D02*
X10349643Y-16199214D01*
X10378214Y-16213500D01*
X10392500Y-16227786D01*
X10406786Y-16256357D01*
X10421071Y-16313500D01*
X10421071Y-16384929D01*
X10406786Y-16442071D01*
X10392500Y-16470643D01*
X10378214Y-16484929D01*
X10349643Y-16499214D01*
X10321071Y-16499214D01*
X10292500Y-16484929D01*
X10278214Y-16470643D01*
X10263929Y-16442071D01*
X10249643Y-16384929D01*
X10249643Y-16313500D01*
X10263929Y-16256357D01*
X10278214Y-16227786D01*
X10292500Y-16213500D01*
X10321071Y-16199214D01*
X10549643Y-16470643D02*
X10563929Y-16484929D01*
X10549643Y-16499214D01*
X10535357Y-16484929D01*
X10549643Y-16470643D01*
X10549643Y-16499214D01*
X10835357Y-16199214D02*
X10692500Y-16199214D01*
X10678214Y-16342071D01*
X10692500Y-16327786D01*
X10721071Y-16313500D01*
X10792500Y-16313500D01*
X10821071Y-16327786D01*
X10835357Y-16342071D01*
X10849643Y-16370643D01*
X10849643Y-16442071D01*
X10835357Y-16470643D01*
X10821071Y-16484929D01*
X10792500Y-16499214D01*
X10721071Y-16499214D01*
X10692500Y-16484929D01*
X10678214Y-16470643D01*
X11035357Y-16199214D02*
X11063929Y-16199214D01*
X11092500Y-16213500D01*
X11106786Y-16227786D01*
X11121071Y-16256357D01*
X11135357Y-16313500D01*
X11135357Y-16384929D01*
X11121071Y-16442071D01*
X11106786Y-16470643D01*
X11092500Y-16484929D01*
X11063929Y-16499214D01*
X11035357Y-16499214D01*
X11006786Y-16484929D01*
X10992500Y-16470643D01*
X10978214Y-16442071D01*
X10963929Y-16384929D01*
X10963929Y-16313500D01*
X10978214Y-16256357D01*
X10992500Y-16227786D01*
X11006786Y-16213500D01*
X11035357Y-16199214D01*
X11263928Y-16499214D02*
X11263928Y-16299214D01*
X11263928Y-16327786D02*
X11278214Y-16313500D01*
X11306786Y-16299214D01*
X11349643Y-16299214D01*
X11378214Y-16313500D01*
X11392500Y-16342071D01*
X11392500Y-16499214D01*
X11392500Y-16342071D02*
X11406786Y-16313500D01*
X11435357Y-16299214D01*
X11478214Y-16299214D01*
X11506786Y-16313500D01*
X11521071Y-16342071D01*
X11521071Y-16499214D01*
X11663928Y-16499214D02*
X11663928Y-16299214D01*
X11663928Y-16327786D02*
X11678214Y-16313500D01*
X11706786Y-16299214D01*
X11749643Y-16299214D01*
X11778214Y-16313500D01*
X11792500Y-16342071D01*
X11792500Y-16499214D01*
X11792500Y-16342071D02*
X11806786Y-16313500D01*
X11835357Y-16299214D01*
X11878214Y-16299214D01*
X11906786Y-16313500D01*
X11921071Y-16342071D01*
X11921071Y-16499214D01*
X12506786Y-16184929D02*
X12249643Y-16570643D01*
X12892500Y-16199214D02*
X12921071Y-16199214D01*
X12949643Y-16213500D01*
X12963928Y-16227786D01*
X12978214Y-16256357D01*
X12992500Y-16313500D01*
X12992500Y-16384929D01*
X12978214Y-16442071D01*
X12963928Y-16470643D01*
X12949643Y-16484929D01*
X12921071Y-16499214D01*
X12892500Y-16499214D01*
X12863928Y-16484929D01*
X12849643Y-16470643D01*
X12835357Y-16442071D01*
X12821071Y-16384929D01*
X12821071Y-16313500D01*
X12835357Y-16256357D01*
X12849643Y-16227786D01*
X12863928Y-16213500D01*
X12892500Y-16199214D01*
X13121071Y-16470643D02*
X13135357Y-16484929D01*
X13121071Y-16499214D01*
X13106786Y-16484929D01*
X13121071Y-16470643D01*
X13121071Y-16499214D01*
X13321071Y-16199214D02*
X13349643Y-16199214D01*
X13378214Y-16213500D01*
X13392500Y-16227786D01*
X13406785Y-16256357D01*
X13421071Y-16313500D01*
X13421071Y-16384929D01*
X13406785Y-16442071D01*
X13392500Y-16470643D01*
X13378214Y-16484929D01*
X13349643Y-16499214D01*
X13321071Y-16499214D01*
X13292500Y-16484929D01*
X13278214Y-16470643D01*
X13263928Y-16442071D01*
X13249643Y-16384929D01*
X13249643Y-16313500D01*
X13263928Y-16256357D01*
X13278214Y-16227786D01*
X13292500Y-16213500D01*
X13321071Y-16199214D01*
X13535357Y-16227786D02*
X13549643Y-16213500D01*
X13578214Y-16199214D01*
X13649643Y-16199214D01*
X13678214Y-16213500D01*
X13692500Y-16227786D01*
X13706785Y-16256357D01*
X13706785Y-16284929D01*
X13692500Y-16327786D01*
X13521071Y-16499214D01*
X13706785Y-16499214D01*
X13892500Y-16199214D02*
X13921071Y-16199214D01*
X13949643Y-16213500D01*
X13963928Y-16227786D01*
X13978214Y-16256357D01*
X13992500Y-16313500D01*
X13992500Y-16384929D01*
X13978214Y-16442071D01*
X13963928Y-16470643D01*
X13949643Y-16484929D01*
X13921071Y-16499214D01*
X13892500Y-16499214D01*
X13863928Y-16484929D01*
X13849643Y-16470643D01*
X13835357Y-16442071D01*
X13821071Y-16384929D01*
X13821071Y-16313500D01*
X13835357Y-16256357D01*
X13849643Y-16227786D01*
X13863928Y-16213500D01*
X13892500Y-16199214D01*
X14106786Y-16199214D02*
X14106786Y-16256357D01*
X14221071Y-16199214D02*
X14221071Y-16256357D01*
X14663928Y-16613500D02*
X14649643Y-16599214D01*
X14621071Y-16556357D01*
X14606785Y-16527786D01*
X14592500Y-16484929D01*
X14578214Y-16413500D01*
X14578214Y-16356357D01*
X14592500Y-16284929D01*
X14606785Y-16242071D01*
X14621071Y-16213500D01*
X14649643Y-16170643D01*
X14663928Y-16156357D01*
X14906785Y-16299214D02*
X14906785Y-16499214D01*
X14835357Y-16184929D02*
X14763928Y-16399214D01*
X14949643Y-16399214D01*
X15121071Y-16199214D02*
X15149643Y-16199214D01*
X15178214Y-16213500D01*
X15192500Y-16227786D01*
X15206785Y-16256357D01*
X15221071Y-16313500D01*
X15221071Y-16384929D01*
X15206785Y-16442071D01*
X15192500Y-16470643D01*
X15178214Y-16484929D01*
X15149643Y-16499214D01*
X15121071Y-16499214D01*
X15092500Y-16484929D01*
X15078214Y-16470643D01*
X15063928Y-16442071D01*
X15049643Y-16384929D01*
X15049643Y-16313500D01*
X15063928Y-16256357D01*
X15078214Y-16227786D01*
X15092500Y-16213500D01*
X15121071Y-16199214D01*
X15578214Y-16499214D02*
X15578214Y-16199214D01*
X15706785Y-16499214D02*
X15706785Y-16342071D01*
X15692500Y-16313500D01*
X15663928Y-16299214D01*
X15621071Y-16299214D01*
X15592500Y-16313500D01*
X15578214Y-16327786D01*
X15892500Y-16499214D02*
X15863928Y-16484929D01*
X15849643Y-16470643D01*
X15835357Y-16442071D01*
X15835357Y-16356357D01*
X15849643Y-16327786D01*
X15863928Y-16313500D01*
X15892500Y-16299214D01*
X15935357Y-16299214D01*
X15963928Y-16313500D01*
X15978214Y-16327786D01*
X15992500Y-16356357D01*
X15992500Y-16442071D01*
X15978214Y-16470643D01*
X15963928Y-16484929D01*
X15935357Y-16499214D01*
X15892500Y-16499214D01*
X16163928Y-16499214D02*
X16135357Y-16484929D01*
X16121071Y-16456357D01*
X16121071Y-16199214D01*
X16392500Y-16484929D02*
X16363928Y-16499214D01*
X16306786Y-16499214D01*
X16278214Y-16484929D01*
X16263928Y-16456357D01*
X16263928Y-16342071D01*
X16278214Y-16313500D01*
X16306786Y-16299214D01*
X16363928Y-16299214D01*
X16392500Y-16313500D01*
X16406786Y-16342071D01*
X16406786Y-16370643D01*
X16263928Y-16399214D01*
X16521071Y-16484929D02*
X16549643Y-16499214D01*
X16606786Y-16499214D01*
X16635357Y-16484929D01*
X16649643Y-16456357D01*
X16649643Y-16442071D01*
X16635357Y-16413500D01*
X16606786Y-16399214D01*
X16563928Y-16399214D01*
X16535357Y-16384929D01*
X16521071Y-16356357D01*
X16521071Y-16342071D01*
X16535357Y-16313500D01*
X16563928Y-16299214D01*
X16606786Y-16299214D01*
X16635357Y-16313500D01*
X16749643Y-16613500D02*
X16763928Y-16599214D01*
X16792500Y-16556357D01*
X16806786Y-16527786D01*
X16821071Y-16484929D01*
X16835357Y-16413500D01*
X16835357Y-16356357D01*
X16821071Y-16284929D01*
X16806786Y-16242071D01*
X16792500Y-16213500D01*
X16763928Y-16170643D01*
X16749643Y-16156357D01*
X9957500Y-16724500D02*
X9957500Y-16794500D01*
X9922500Y-16759500D02*
X9992500Y-16759500D01*
X10321071Y-16595214D02*
X10349643Y-16595214D01*
X10378214Y-16609500D01*
X10392500Y-16623786D01*
X10406786Y-16652357D01*
X10421071Y-16709500D01*
X10421071Y-16780929D01*
X10406786Y-16838072D01*
X10392500Y-16866643D01*
X10378214Y-16880929D01*
X10349643Y-16895214D01*
X10321071Y-16895214D01*
X10292500Y-16880929D01*
X10278214Y-16866643D01*
X10263929Y-16838072D01*
X10249643Y-16780929D01*
X10249643Y-16709500D01*
X10263929Y-16652357D01*
X10278214Y-16623786D01*
X10292500Y-16609500D01*
X10321071Y-16595214D01*
X10549643Y-16866643D02*
X10563929Y-16880929D01*
X10549643Y-16895214D01*
X10535357Y-16880929D01*
X10549643Y-16866643D01*
X10549643Y-16895214D01*
X10663928Y-16595214D02*
X10863928Y-16595214D01*
X10735357Y-16895214D01*
X11035357Y-16595214D02*
X11063929Y-16595214D01*
X11092500Y-16609500D01*
X11106786Y-16623786D01*
X11121071Y-16652357D01*
X11135357Y-16709500D01*
X11135357Y-16780929D01*
X11121071Y-16838072D01*
X11106786Y-16866643D01*
X11092500Y-16880929D01*
X11063929Y-16895214D01*
X11035357Y-16895214D01*
X11006786Y-16880929D01*
X10992500Y-16866643D01*
X10978214Y-16838072D01*
X10963929Y-16780929D01*
X10963929Y-16709500D01*
X10978214Y-16652357D01*
X10992500Y-16623786D01*
X11006786Y-16609500D01*
X11035357Y-16595214D01*
X11263928Y-16895214D02*
X11263928Y-16695214D01*
X11263928Y-16723786D02*
X11278214Y-16709500D01*
X11306786Y-16695214D01*
X11349643Y-16695214D01*
X11378214Y-16709500D01*
X11392500Y-16738071D01*
X11392500Y-16895214D01*
X11392500Y-16738071D02*
X11406786Y-16709500D01*
X11435357Y-16695214D01*
X11478214Y-16695214D01*
X11506786Y-16709500D01*
X11521071Y-16738071D01*
X11521071Y-16895214D01*
X11663928Y-16895214D02*
X11663928Y-16695214D01*
X11663928Y-16723786D02*
X11678214Y-16709500D01*
X11706786Y-16695214D01*
X11749643Y-16695214D01*
X11778214Y-16709500D01*
X11792500Y-16738071D01*
X11792500Y-16895214D01*
X11792500Y-16738071D02*
X11806786Y-16709500D01*
X11835357Y-16695214D01*
X11878214Y-16695214D01*
X11906786Y-16709500D01*
X11921071Y-16738071D01*
X11921071Y-16895214D01*
X12506786Y-16580929D02*
X12249643Y-16966643D01*
X12892500Y-16595214D02*
X12921071Y-16595214D01*
X12949643Y-16609500D01*
X12963928Y-16623786D01*
X12978214Y-16652357D01*
X12992500Y-16709500D01*
X12992500Y-16780929D01*
X12978214Y-16838072D01*
X12963928Y-16866643D01*
X12949643Y-16880929D01*
X12921071Y-16895214D01*
X12892500Y-16895214D01*
X12863928Y-16880929D01*
X12849643Y-16866643D01*
X12835357Y-16838072D01*
X12821071Y-16780929D01*
X12821071Y-16709500D01*
X12835357Y-16652357D01*
X12849643Y-16623786D01*
X12863928Y-16609500D01*
X12892500Y-16595214D01*
X13121071Y-16866643D02*
X13135357Y-16880929D01*
X13121071Y-16895214D01*
X13106786Y-16880929D01*
X13121071Y-16866643D01*
X13121071Y-16895214D01*
X13321071Y-16595214D02*
X13349643Y-16595214D01*
X13378214Y-16609500D01*
X13392500Y-16623786D01*
X13406785Y-16652357D01*
X13421071Y-16709500D01*
X13421071Y-16780929D01*
X13406785Y-16838072D01*
X13392500Y-16866643D01*
X13378214Y-16880929D01*
X13349643Y-16895214D01*
X13321071Y-16895214D01*
X13292500Y-16880929D01*
X13278214Y-16866643D01*
X13263928Y-16838072D01*
X13249643Y-16780929D01*
X13249643Y-16709500D01*
X13263928Y-16652357D01*
X13278214Y-16623786D01*
X13292500Y-16609500D01*
X13321071Y-16595214D01*
X13535357Y-16623786D02*
X13549643Y-16609500D01*
X13578214Y-16595214D01*
X13649643Y-16595214D01*
X13678214Y-16609500D01*
X13692500Y-16623786D01*
X13706785Y-16652357D01*
X13706785Y-16680929D01*
X13692500Y-16723786D01*
X13521071Y-16895214D01*
X13706785Y-16895214D01*
X13878214Y-16723786D02*
X13849643Y-16709500D01*
X13835357Y-16695214D01*
X13821071Y-16666643D01*
X13821071Y-16652357D01*
X13835357Y-16623786D01*
X13849643Y-16609500D01*
X13878214Y-16595214D01*
X13935357Y-16595214D01*
X13963928Y-16609500D01*
X13978214Y-16623786D01*
X13992500Y-16652357D01*
X13992500Y-16666643D01*
X13978214Y-16695214D01*
X13963928Y-16709500D01*
X13935357Y-16723786D01*
X13878214Y-16723786D01*
X13849643Y-16738071D01*
X13835357Y-16752357D01*
X13821071Y-16780929D01*
X13821071Y-16838072D01*
X13835357Y-16866643D01*
X13849643Y-16880929D01*
X13878214Y-16895214D01*
X13935357Y-16895214D01*
X13963928Y-16880929D01*
X13978214Y-16866643D01*
X13992500Y-16838072D01*
X13992500Y-16780929D01*
X13978214Y-16752357D01*
X13963928Y-16738071D01*
X13935357Y-16723786D01*
X14106786Y-16595214D02*
X14106786Y-16652357D01*
X14221071Y-16595214D02*
X14221071Y-16652357D01*
X14663928Y-17009500D02*
X14649643Y-16995214D01*
X14621071Y-16952357D01*
X14606785Y-16923786D01*
X14592500Y-16880929D01*
X14578214Y-16809500D01*
X14578214Y-16752357D01*
X14592500Y-16680929D01*
X14606785Y-16638071D01*
X14621071Y-16609500D01*
X14649643Y-16566643D01*
X14663928Y-16552357D01*
X14935357Y-16895214D02*
X14763928Y-16895214D01*
X14849643Y-16895214D02*
X14849643Y-16595214D01*
X14821071Y-16638071D01*
X14792500Y-16666643D01*
X14763928Y-16680929D01*
X15106785Y-16723786D02*
X15078214Y-16709500D01*
X15063928Y-16695214D01*
X15049643Y-16666643D01*
X15049643Y-16652357D01*
X15063928Y-16623786D01*
X15078214Y-16609500D01*
X15106785Y-16595214D01*
X15163928Y-16595214D01*
X15192500Y-16609500D01*
X15206785Y-16623786D01*
X15221071Y-16652357D01*
X15221071Y-16666643D01*
X15206785Y-16695214D01*
X15192500Y-16709500D01*
X15163928Y-16723786D01*
X15106785Y-16723786D01*
X15078214Y-16738071D01*
X15063928Y-16752357D01*
X15049643Y-16780929D01*
X15049643Y-16838072D01*
X15063928Y-16866643D01*
X15078214Y-16880929D01*
X15106785Y-16895214D01*
X15163928Y-16895214D01*
X15192500Y-16880929D01*
X15206785Y-16866643D01*
X15221071Y-16838072D01*
X15221071Y-16780929D01*
X15206785Y-16752357D01*
X15192500Y-16738071D01*
X15163928Y-16723786D01*
X15578214Y-16895214D02*
X15578214Y-16595214D01*
X15706785Y-16895214D02*
X15706785Y-16738071D01*
X15692500Y-16709500D01*
X15663928Y-16695214D01*
X15621071Y-16695214D01*
X15592500Y-16709500D01*
X15578214Y-16723786D01*
X15892500Y-16895214D02*
X15863928Y-16880929D01*
X15849643Y-16866643D01*
X15835357Y-16838072D01*
X15835357Y-16752357D01*
X15849643Y-16723786D01*
X15863928Y-16709500D01*
X15892500Y-16695214D01*
X15935357Y-16695214D01*
X15963928Y-16709500D01*
X15978214Y-16723786D01*
X15992500Y-16752357D01*
X15992500Y-16838072D01*
X15978214Y-16866643D01*
X15963928Y-16880929D01*
X15935357Y-16895214D01*
X15892500Y-16895214D01*
X16163928Y-16895214D02*
X16135357Y-16880929D01*
X16121071Y-16852357D01*
X16121071Y-16595214D01*
X16392500Y-16880929D02*
X16363928Y-16895214D01*
X16306786Y-16895214D01*
X16278214Y-16880929D01*
X16263928Y-16852357D01*
X16263928Y-16738071D01*
X16278214Y-16709500D01*
X16306786Y-16695214D01*
X16363928Y-16695214D01*
X16392500Y-16709500D01*
X16406786Y-16738071D01*
X16406786Y-16766643D01*
X16263928Y-16795214D01*
X16521071Y-16880929D02*
X16549643Y-16895214D01*
X16606786Y-16895214D01*
X16635357Y-16880929D01*
X16649643Y-16852357D01*
X16649643Y-16838072D01*
X16635357Y-16809500D01*
X16606786Y-16795214D01*
X16563928Y-16795214D01*
X16535357Y-16780929D01*
X16521071Y-16752357D01*
X16521071Y-16738071D01*
X16535357Y-16709500D01*
X16563928Y-16695214D01*
X16606786Y-16695214D01*
X16635357Y-16709500D01*
X16749643Y-17009500D02*
X16763928Y-16995214D01*
X16792500Y-16952357D01*
X16806786Y-16923786D01*
X16821071Y-16880929D01*
X16835357Y-16809500D01*
X16835357Y-16752357D01*
X16821071Y-16680929D01*
X16806786Y-16638071D01*
X16792500Y-16609500D01*
X16763928Y-16566643D01*
X16749643Y-16552357D01*
X9981341Y-17182441D02*
X9981341Y-17128559D01*
X9927459Y-17128559D01*
X9927459Y-17182441D01*
X9981341Y-17182441D01*
X10321071Y-16991214D02*
X10349643Y-16991214D01*
X10378214Y-17005500D01*
X10392500Y-17019786D01*
X10406786Y-17048357D01*
X10421071Y-17105500D01*
X10421071Y-17176929D01*
X10406786Y-17234072D01*
X10392500Y-17262643D01*
X10378214Y-17276929D01*
X10349643Y-17291214D01*
X10321071Y-17291214D01*
X10292500Y-17276929D01*
X10278214Y-17262643D01*
X10263929Y-17234072D01*
X10249643Y-17176929D01*
X10249643Y-17105500D01*
X10263929Y-17048357D01*
X10278214Y-17019786D01*
X10292500Y-17005500D01*
X10321071Y-16991214D01*
X10549643Y-17262643D02*
X10563929Y-17276929D01*
X10549643Y-17291214D01*
X10535357Y-17276929D01*
X10549643Y-17262643D01*
X10549643Y-17291214D01*
X10663928Y-16991214D02*
X10863928Y-16991214D01*
X10735357Y-17291214D01*
X11106786Y-16991214D02*
X11049643Y-16991214D01*
X11021071Y-17005500D01*
X11006786Y-17019786D01*
X10978214Y-17062643D01*
X10963929Y-17119786D01*
X10963929Y-17234072D01*
X10978214Y-17262643D01*
X10992500Y-17276929D01*
X11021071Y-17291214D01*
X11078214Y-17291214D01*
X11106786Y-17276929D01*
X11121071Y-17262643D01*
X11135357Y-17234072D01*
X11135357Y-17162643D01*
X11121071Y-17134072D01*
X11106786Y-17119786D01*
X11078214Y-17105500D01*
X11021071Y-17105500D01*
X10992500Y-17119786D01*
X10978214Y-17134072D01*
X10963929Y-17162643D01*
X11263928Y-17291214D02*
X11263928Y-17091214D01*
X11263928Y-17119786D02*
X11278214Y-17105500D01*
X11306786Y-17091214D01*
X11349643Y-17091214D01*
X11378214Y-17105500D01*
X11392500Y-17134072D01*
X11392500Y-17291214D01*
X11392500Y-17134072D02*
X11406786Y-17105500D01*
X11435357Y-17091214D01*
X11478214Y-17091214D01*
X11506786Y-17105500D01*
X11521071Y-17134072D01*
X11521071Y-17291214D01*
X11663928Y-17291214D02*
X11663928Y-17091214D01*
X11663928Y-17119786D02*
X11678214Y-17105500D01*
X11706786Y-17091214D01*
X11749643Y-17091214D01*
X11778214Y-17105500D01*
X11792500Y-17134072D01*
X11792500Y-17291214D01*
X11792500Y-17134072D02*
X11806786Y-17105500D01*
X11835357Y-17091214D01*
X11878214Y-17091214D01*
X11906786Y-17105500D01*
X11921071Y-17134072D01*
X11921071Y-17291214D01*
X12506786Y-16976929D02*
X12249643Y-17362643D01*
X12892500Y-16991214D02*
X12921071Y-16991214D01*
X12949643Y-17005500D01*
X12963928Y-17019786D01*
X12978214Y-17048357D01*
X12992500Y-17105500D01*
X12992500Y-17176929D01*
X12978214Y-17234072D01*
X12963928Y-17262643D01*
X12949643Y-17276929D01*
X12921071Y-17291214D01*
X12892500Y-17291214D01*
X12863928Y-17276929D01*
X12849643Y-17262643D01*
X12835357Y-17234072D01*
X12821071Y-17176929D01*
X12821071Y-17105500D01*
X12835357Y-17048357D01*
X12849643Y-17019786D01*
X12863928Y-17005500D01*
X12892500Y-16991214D01*
X13121071Y-17262643D02*
X13135357Y-17276929D01*
X13121071Y-17291214D01*
X13106786Y-17276929D01*
X13121071Y-17262643D01*
X13121071Y-17291214D01*
X13321071Y-16991214D02*
X13349643Y-16991214D01*
X13378214Y-17005500D01*
X13392500Y-17019786D01*
X13406785Y-17048357D01*
X13421071Y-17105500D01*
X13421071Y-17176929D01*
X13406785Y-17234072D01*
X13392500Y-17262643D01*
X13378214Y-17276929D01*
X13349643Y-17291214D01*
X13321071Y-17291214D01*
X13292500Y-17276929D01*
X13278214Y-17262643D01*
X13263928Y-17234072D01*
X13249643Y-17176929D01*
X13249643Y-17105500D01*
X13263928Y-17048357D01*
X13278214Y-17019786D01*
X13292500Y-17005500D01*
X13321071Y-16991214D01*
X13521071Y-16991214D02*
X13706785Y-16991214D01*
X13606785Y-17105500D01*
X13649643Y-17105500D01*
X13678214Y-17119786D01*
X13692500Y-17134072D01*
X13706785Y-17162643D01*
X13706785Y-17234072D01*
X13692500Y-17262643D01*
X13678214Y-17276929D01*
X13649643Y-17291214D01*
X13563928Y-17291214D01*
X13535357Y-17276929D01*
X13521071Y-17262643D01*
X13892500Y-16991214D02*
X13921071Y-16991214D01*
X13949643Y-17005500D01*
X13963928Y-17019786D01*
X13978214Y-17048357D01*
X13992500Y-17105500D01*
X13992500Y-17176929D01*
X13978214Y-17234072D01*
X13963928Y-17262643D01*
X13949643Y-17276929D01*
X13921071Y-17291214D01*
X13892500Y-17291214D01*
X13863928Y-17276929D01*
X13849643Y-17262643D01*
X13835357Y-17234072D01*
X13821071Y-17176929D01*
X13821071Y-17105500D01*
X13835357Y-17048357D01*
X13849643Y-17019786D01*
X13863928Y-17005500D01*
X13892500Y-16991214D01*
X14106786Y-16991214D02*
X14106786Y-17048357D01*
X14221071Y-16991214D02*
X14221071Y-17048357D01*
X14663928Y-17405500D02*
X14649643Y-17391214D01*
X14621071Y-17348357D01*
X14606785Y-17319786D01*
X14592500Y-17276929D01*
X14578214Y-17205500D01*
X14578214Y-17148357D01*
X14592500Y-17076929D01*
X14606785Y-17034072D01*
X14621071Y-17005500D01*
X14649643Y-16962643D01*
X14663928Y-16948357D01*
X14763928Y-17019786D02*
X14778214Y-17005500D01*
X14806785Y-16991214D01*
X14878214Y-16991214D01*
X14906785Y-17005500D01*
X14921071Y-17019786D01*
X14935357Y-17048357D01*
X14935357Y-17076929D01*
X14921071Y-17119786D01*
X14749643Y-17291214D01*
X14935357Y-17291214D01*
X15292500Y-17291214D02*
X15292500Y-16991214D01*
X15421071Y-17291214D02*
X15421071Y-17134072D01*
X15406785Y-17105500D01*
X15378214Y-17091214D01*
X15335357Y-17091214D01*
X15306785Y-17105500D01*
X15292500Y-17119786D01*
X15606785Y-17291214D02*
X15578214Y-17276929D01*
X15563928Y-17262643D01*
X15549643Y-17234072D01*
X15549643Y-17148357D01*
X15563928Y-17119786D01*
X15578214Y-17105500D01*
X15606785Y-17091214D01*
X15649643Y-17091214D01*
X15678214Y-17105500D01*
X15692500Y-17119786D01*
X15706785Y-17148357D01*
X15706785Y-17234072D01*
X15692500Y-17262643D01*
X15678214Y-17276929D01*
X15649643Y-17291214D01*
X15606785Y-17291214D01*
X15878214Y-17291214D02*
X15849643Y-17276929D01*
X15835357Y-17248357D01*
X15835357Y-16991214D01*
X16106786Y-17276929D02*
X16078214Y-17291214D01*
X16021071Y-17291214D01*
X15992500Y-17276929D01*
X15978214Y-17248357D01*
X15978214Y-17134072D01*
X15992500Y-17105500D01*
X16021071Y-17091214D01*
X16078214Y-17091214D01*
X16106786Y-17105500D01*
X16121071Y-17134072D01*
X16121071Y-17162643D01*
X15978214Y-17191214D01*
X16235357Y-17276929D02*
X16263928Y-17291214D01*
X16321071Y-17291214D01*
X16349643Y-17276929D01*
X16363928Y-17248357D01*
X16363928Y-17234072D01*
X16349643Y-17205500D01*
X16321071Y-17191214D01*
X16278214Y-17191214D01*
X16249643Y-17176929D01*
X16235357Y-17148357D01*
X16235357Y-17134072D01*
X16249643Y-17105500D01*
X16278214Y-17091214D01*
X16321071Y-17091214D01*
X16349643Y-17105500D01*
X16463928Y-17405500D02*
X16478214Y-17391214D01*
X16506786Y-17348357D01*
X16521071Y-17319786D01*
X16535357Y-17276929D01*
X16549643Y-17205500D01*
X16549643Y-17148357D01*
X16535357Y-17076929D01*
X16521071Y-17034072D01*
X16506786Y-17005500D01*
X16478214Y-16962643D01*
X16463928Y-16948357D01*
X9942500Y-17601500D02*
X9992500Y-17551500D01*
X9942500Y-17501500D01*
X9892500Y-17551500D01*
X9942500Y-17601500D01*
X10421071Y-17687214D02*
X10249643Y-17687214D01*
X10335357Y-17687214D02*
X10335357Y-17387214D01*
X10306786Y-17430072D01*
X10278214Y-17458643D01*
X10249643Y-17472929D01*
X10549643Y-17658643D02*
X10563929Y-17672929D01*
X10549643Y-17687214D01*
X10535357Y-17672929D01*
X10549643Y-17658643D01*
X10549643Y-17687214D01*
X10749643Y-17387214D02*
X10778214Y-17387214D01*
X10806786Y-17401500D01*
X10821071Y-17415786D01*
X10835357Y-17444357D01*
X10849643Y-17501500D01*
X10849643Y-17572929D01*
X10835357Y-17630072D01*
X10821071Y-17658643D01*
X10806786Y-17672929D01*
X10778214Y-17687214D01*
X10749643Y-17687214D01*
X10721071Y-17672929D01*
X10706786Y-17658643D01*
X10692500Y-17630072D01*
X10678214Y-17572929D01*
X10678214Y-17501500D01*
X10692500Y-17444357D01*
X10706786Y-17415786D01*
X10721071Y-17401500D01*
X10749643Y-17387214D01*
X11035357Y-17387214D02*
X11063929Y-17387214D01*
X11092500Y-17401500D01*
X11106786Y-17415786D01*
X11121071Y-17444357D01*
X11135357Y-17501500D01*
X11135357Y-17572929D01*
X11121071Y-17630072D01*
X11106786Y-17658643D01*
X11092500Y-17672929D01*
X11063929Y-17687214D01*
X11035357Y-17687214D01*
X11006786Y-17672929D01*
X10992500Y-17658643D01*
X10978214Y-17630072D01*
X10963929Y-17572929D01*
X10963929Y-17501500D01*
X10978214Y-17444357D01*
X10992500Y-17415786D01*
X11006786Y-17401500D01*
X11035357Y-17387214D01*
X11263928Y-17687214D02*
X11263928Y-17487214D01*
X11263928Y-17515786D02*
X11278214Y-17501500D01*
X11306786Y-17487214D01*
X11349643Y-17487214D01*
X11378214Y-17501500D01*
X11392500Y-17530072D01*
X11392500Y-17687214D01*
X11392500Y-17530072D02*
X11406786Y-17501500D01*
X11435357Y-17487214D01*
X11478214Y-17487214D01*
X11506786Y-17501500D01*
X11521071Y-17530072D01*
X11521071Y-17687214D01*
X11663928Y-17687214D02*
X11663928Y-17487214D01*
X11663928Y-17515786D02*
X11678214Y-17501500D01*
X11706786Y-17487214D01*
X11749643Y-17487214D01*
X11778214Y-17501500D01*
X11792500Y-17530072D01*
X11792500Y-17687214D01*
X11792500Y-17530072D02*
X11806786Y-17501500D01*
X11835357Y-17487214D01*
X11878214Y-17487214D01*
X11906786Y-17501500D01*
X11921071Y-17530072D01*
X11921071Y-17687214D01*
X12506786Y-17372929D02*
X12249643Y-17758643D01*
X12892500Y-17387214D02*
X12921071Y-17387214D01*
X12949643Y-17401500D01*
X12963928Y-17415786D01*
X12978214Y-17444357D01*
X12992500Y-17501500D01*
X12992500Y-17572929D01*
X12978214Y-17630072D01*
X12963928Y-17658643D01*
X12949643Y-17672929D01*
X12921071Y-17687214D01*
X12892500Y-17687214D01*
X12863928Y-17672929D01*
X12849643Y-17658643D01*
X12835357Y-17630072D01*
X12821071Y-17572929D01*
X12821071Y-17501500D01*
X12835357Y-17444357D01*
X12849643Y-17415786D01*
X12863928Y-17401500D01*
X12892500Y-17387214D01*
X13121071Y-17658643D02*
X13135357Y-17672929D01*
X13121071Y-17687214D01*
X13106786Y-17672929D01*
X13121071Y-17658643D01*
X13121071Y-17687214D01*
X13321071Y-17387214D02*
X13349643Y-17387214D01*
X13378214Y-17401500D01*
X13392500Y-17415786D01*
X13406785Y-17444357D01*
X13421071Y-17501500D01*
X13421071Y-17572929D01*
X13406785Y-17630072D01*
X13392500Y-17658643D01*
X13378214Y-17672929D01*
X13349643Y-17687214D01*
X13321071Y-17687214D01*
X13292500Y-17672929D01*
X13278214Y-17658643D01*
X13263928Y-17630072D01*
X13249643Y-17572929D01*
X13249643Y-17501500D01*
X13263928Y-17444357D01*
X13278214Y-17415786D01*
X13292500Y-17401500D01*
X13321071Y-17387214D01*
X13521071Y-17387214D02*
X13706785Y-17387214D01*
X13606785Y-17501500D01*
X13649643Y-17501500D01*
X13678214Y-17515786D01*
X13692500Y-17530072D01*
X13706785Y-17558643D01*
X13706785Y-17630072D01*
X13692500Y-17658643D01*
X13678214Y-17672929D01*
X13649643Y-17687214D01*
X13563928Y-17687214D01*
X13535357Y-17672929D01*
X13521071Y-17658643D01*
X13849643Y-17687214D02*
X13906785Y-17687214D01*
X13935357Y-17672929D01*
X13949643Y-17658643D01*
X13978214Y-17615786D01*
X13992500Y-17558643D01*
X13992500Y-17444357D01*
X13978214Y-17415786D01*
X13963928Y-17401500D01*
X13935357Y-17387214D01*
X13878214Y-17387214D01*
X13849643Y-17401500D01*
X13835357Y-17415786D01*
X13821071Y-17444357D01*
X13821071Y-17515786D01*
X13835357Y-17544357D01*
X13849643Y-17558643D01*
X13878214Y-17572929D01*
X13935357Y-17572929D01*
X13963928Y-17558643D01*
X13978214Y-17544357D01*
X13992500Y-17515786D01*
X14106786Y-17387214D02*
X14106786Y-17444357D01*
X14221071Y-17387214D02*
X14221071Y-17444357D01*
X14663928Y-17801500D02*
X14649643Y-17787214D01*
X14621071Y-17744357D01*
X14606785Y-17715786D01*
X14592500Y-17672929D01*
X14578214Y-17601500D01*
X14578214Y-17544357D01*
X14592500Y-17472929D01*
X14606785Y-17430072D01*
X14621071Y-17401500D01*
X14649643Y-17358643D01*
X14663928Y-17344357D01*
X14935357Y-17687214D02*
X14763928Y-17687214D01*
X14849643Y-17687214D02*
X14849643Y-17387214D01*
X14821071Y-17430072D01*
X14792500Y-17458643D01*
X14763928Y-17472929D01*
X15121071Y-17387214D02*
X15149643Y-17387214D01*
X15178214Y-17401500D01*
X15192500Y-17415786D01*
X15206785Y-17444357D01*
X15221071Y-17501500D01*
X15221071Y-17572929D01*
X15206785Y-17630072D01*
X15192500Y-17658643D01*
X15178214Y-17672929D01*
X15149643Y-17687214D01*
X15121071Y-17687214D01*
X15092500Y-17672929D01*
X15078214Y-17658643D01*
X15063928Y-17630072D01*
X15049643Y-17572929D01*
X15049643Y-17501500D01*
X15063928Y-17444357D01*
X15078214Y-17415786D01*
X15092500Y-17401500D01*
X15121071Y-17387214D01*
X15578214Y-17687214D02*
X15578214Y-17387214D01*
X15706785Y-17687214D02*
X15706785Y-17530072D01*
X15692500Y-17501500D01*
X15663928Y-17487214D01*
X15621071Y-17487214D01*
X15592500Y-17501500D01*
X15578214Y-17515786D01*
X15892500Y-17687214D02*
X15863928Y-17672929D01*
X15849643Y-17658643D01*
X15835357Y-17630072D01*
X15835357Y-17544357D01*
X15849643Y-17515786D01*
X15863928Y-17501500D01*
X15892500Y-17487214D01*
X15935357Y-17487214D01*
X15963928Y-17501500D01*
X15978214Y-17515786D01*
X15992500Y-17544357D01*
X15992500Y-17630072D01*
X15978214Y-17658643D01*
X15963928Y-17672929D01*
X15935357Y-17687214D01*
X15892500Y-17687214D01*
X16163928Y-17687214D02*
X16135357Y-17672929D01*
X16121071Y-17644357D01*
X16121071Y-17387214D01*
X16392500Y-17672929D02*
X16363928Y-17687214D01*
X16306786Y-17687214D01*
X16278214Y-17672929D01*
X16263928Y-17644357D01*
X16263928Y-17530072D01*
X16278214Y-17501500D01*
X16306786Y-17487214D01*
X16363928Y-17487214D01*
X16392500Y-17501500D01*
X16406786Y-17530072D01*
X16406786Y-17558643D01*
X16263928Y-17587214D01*
X16521071Y-17672929D02*
X16549643Y-17687214D01*
X16606786Y-17687214D01*
X16635357Y-17672929D01*
X16649643Y-17644357D01*
X16649643Y-17630072D01*
X16635357Y-17601500D01*
X16606786Y-17587214D01*
X16563928Y-17587214D01*
X16535357Y-17572929D01*
X16521071Y-17544357D01*
X16521071Y-17530072D01*
X16535357Y-17501500D01*
X16563928Y-17487214D01*
X16606786Y-17487214D01*
X16635357Y-17501500D01*
X16749643Y-17801500D02*
X16763928Y-17787214D01*
X16792500Y-17744357D01*
X16806786Y-17715786D01*
X16821071Y-17672929D01*
X16835357Y-17601500D01*
X16835357Y-17544357D01*
X16821071Y-17472929D01*
X16806786Y-17430072D01*
X16792500Y-17401500D01*
X16763928Y-17358643D01*
X16749643Y-17344357D01*
X9890900Y-17896700D02*
X9992500Y-17998300D01*
X9992500Y-17896700D02*
X9890900Y-17998300D01*
X9992500Y-17947500D02*
G75*
G03X9992500Y-17947500I-50800J0D01*
G01*
X10421071Y-18083214D02*
X10249643Y-18083214D01*
X10335357Y-18083214D02*
X10335357Y-17783214D01*
X10306786Y-17826072D01*
X10278214Y-17854643D01*
X10249643Y-17868929D01*
X10549643Y-18054643D02*
X10563929Y-18068929D01*
X10549643Y-18083214D01*
X10535357Y-18068929D01*
X10549643Y-18054643D01*
X10549643Y-18083214D01*
X10749643Y-17783214D02*
X10778214Y-17783214D01*
X10806786Y-17797500D01*
X10821071Y-17811786D01*
X10835357Y-17840357D01*
X10849643Y-17897500D01*
X10849643Y-17968929D01*
X10835357Y-18026072D01*
X10821071Y-18054643D01*
X10806786Y-18068929D01*
X10778214Y-18083214D01*
X10749643Y-18083214D01*
X10721071Y-18068929D01*
X10706786Y-18054643D01*
X10692500Y-18026072D01*
X10678214Y-17968929D01*
X10678214Y-17897500D01*
X10692500Y-17840357D01*
X10706786Y-17811786D01*
X10721071Y-17797500D01*
X10749643Y-17783214D01*
X10963929Y-17811786D02*
X10978214Y-17797500D01*
X11006786Y-17783214D01*
X11078214Y-17783214D01*
X11106786Y-17797500D01*
X11121071Y-17811786D01*
X11135357Y-17840357D01*
X11135357Y-17868929D01*
X11121071Y-17911786D01*
X10949643Y-18083214D01*
X11135357Y-18083214D01*
X11263928Y-18083214D02*
X11263928Y-17883214D01*
X11263928Y-17911786D02*
X11278214Y-17897500D01*
X11306786Y-17883214D01*
X11349643Y-17883214D01*
X11378214Y-17897500D01*
X11392500Y-17926072D01*
X11392500Y-18083214D01*
X11392500Y-17926072D02*
X11406786Y-17897500D01*
X11435357Y-17883214D01*
X11478214Y-17883214D01*
X11506786Y-17897500D01*
X11521071Y-17926072D01*
X11521071Y-18083214D01*
X11663928Y-18083214D02*
X11663928Y-17883214D01*
X11663928Y-17911786D02*
X11678214Y-17897500D01*
X11706786Y-17883214D01*
X11749643Y-17883214D01*
X11778214Y-17897500D01*
X11792500Y-17926072D01*
X11792500Y-18083214D01*
X11792500Y-17926072D02*
X11806786Y-17897500D01*
X11835357Y-17883214D01*
X11878214Y-17883214D01*
X11906786Y-17897500D01*
X11921071Y-17926072D01*
X11921071Y-18083214D01*
X12506786Y-17768929D02*
X12249643Y-18154643D01*
X12892500Y-17783214D02*
X12921071Y-17783214D01*
X12949643Y-17797500D01*
X12963928Y-17811786D01*
X12978214Y-17840357D01*
X12992500Y-17897500D01*
X12992500Y-17968929D01*
X12978214Y-18026072D01*
X12963928Y-18054643D01*
X12949643Y-18068929D01*
X12921071Y-18083214D01*
X12892500Y-18083214D01*
X12863928Y-18068929D01*
X12849643Y-18054643D01*
X12835357Y-18026072D01*
X12821071Y-17968929D01*
X12821071Y-17897500D01*
X12835357Y-17840357D01*
X12849643Y-17811786D01*
X12863928Y-17797500D01*
X12892500Y-17783214D01*
X13121071Y-18054643D02*
X13135357Y-18068929D01*
X13121071Y-18083214D01*
X13106786Y-18068929D01*
X13121071Y-18054643D01*
X13121071Y-18083214D01*
X13321071Y-17783214D02*
X13349643Y-17783214D01*
X13378214Y-17797500D01*
X13392500Y-17811786D01*
X13406785Y-17840357D01*
X13421071Y-17897500D01*
X13421071Y-17968929D01*
X13406785Y-18026072D01*
X13392500Y-18054643D01*
X13378214Y-18068929D01*
X13349643Y-18083214D01*
X13321071Y-18083214D01*
X13292500Y-18068929D01*
X13278214Y-18054643D01*
X13263928Y-18026072D01*
X13249643Y-17968929D01*
X13249643Y-17897500D01*
X13263928Y-17840357D01*
X13278214Y-17811786D01*
X13292500Y-17797500D01*
X13321071Y-17783214D01*
X13678214Y-17883214D02*
X13678214Y-18083214D01*
X13606785Y-17768929D02*
X13535357Y-17983214D01*
X13721071Y-17983214D01*
X13892500Y-17783214D02*
X13921071Y-17783214D01*
X13949643Y-17797500D01*
X13963928Y-17811786D01*
X13978214Y-17840357D01*
X13992500Y-17897500D01*
X13992500Y-17968929D01*
X13978214Y-18026072D01*
X13963928Y-18054643D01*
X13949643Y-18068929D01*
X13921071Y-18083214D01*
X13892500Y-18083214D01*
X13863928Y-18068929D01*
X13849643Y-18054643D01*
X13835357Y-18026072D01*
X13821071Y-17968929D01*
X13821071Y-17897500D01*
X13835357Y-17840357D01*
X13849643Y-17811786D01*
X13863928Y-17797500D01*
X13892500Y-17783214D01*
X14106786Y-17783214D02*
X14106786Y-17840357D01*
X14221071Y-17783214D02*
X14221071Y-17840357D01*
X14663928Y-18197500D02*
X14649643Y-18183214D01*
X14621071Y-18140357D01*
X14606785Y-18111786D01*
X14592500Y-18068929D01*
X14578214Y-17997500D01*
X14578214Y-17940357D01*
X14592500Y-17868929D01*
X14606785Y-17826072D01*
X14621071Y-17797500D01*
X14649643Y-17754643D01*
X14663928Y-17740357D01*
X14792500Y-18083214D02*
X14849643Y-18083214D01*
X14878214Y-18068929D01*
X14892500Y-18054643D01*
X14921071Y-18011786D01*
X14935357Y-17954643D01*
X14935357Y-17840357D01*
X14921071Y-17811786D01*
X14906785Y-17797500D01*
X14878214Y-17783214D01*
X14821071Y-17783214D01*
X14792500Y-17797500D01*
X14778214Y-17811786D01*
X14763928Y-17840357D01*
X14763928Y-17911786D01*
X14778214Y-17940357D01*
X14792500Y-17954643D01*
X14821071Y-17968929D01*
X14878214Y-17968929D01*
X14906785Y-17954643D01*
X14921071Y-17940357D01*
X14935357Y-17911786D01*
X15049643Y-17811786D02*
X15063928Y-17797500D01*
X15092500Y-17783214D01*
X15163928Y-17783214D01*
X15192500Y-17797500D01*
X15206785Y-17811786D01*
X15221071Y-17840357D01*
X15221071Y-17868929D01*
X15206785Y-17911786D01*
X15035357Y-18083214D01*
X15221071Y-18083214D01*
X15578214Y-18083214D02*
X15578214Y-17783214D01*
X15706785Y-18083214D02*
X15706785Y-17926072D01*
X15692500Y-17897500D01*
X15663928Y-17883214D01*
X15621071Y-17883214D01*
X15592500Y-17897500D01*
X15578214Y-17911786D01*
X15892500Y-18083214D02*
X15863928Y-18068929D01*
X15849643Y-18054643D01*
X15835357Y-18026072D01*
X15835357Y-17940357D01*
X15849643Y-17911786D01*
X15863928Y-17897500D01*
X15892500Y-17883214D01*
X15935357Y-17883214D01*
X15963928Y-17897500D01*
X15978214Y-17911786D01*
X15992500Y-17940357D01*
X15992500Y-18026072D01*
X15978214Y-18054643D01*
X15963928Y-18068929D01*
X15935357Y-18083214D01*
X15892500Y-18083214D01*
X16163928Y-18083214D02*
X16135357Y-18068929D01*
X16121071Y-18040357D01*
X16121071Y-17783214D01*
X16392500Y-18068929D02*
X16363928Y-18083214D01*
X16306786Y-18083214D01*
X16278214Y-18068929D01*
X16263928Y-18040357D01*
X16263928Y-17926072D01*
X16278214Y-17897500D01*
X16306786Y-17883214D01*
X16363928Y-17883214D01*
X16392500Y-17897500D01*
X16406786Y-17926072D01*
X16406786Y-17954643D01*
X16263928Y-17983214D01*
X16521071Y-18068929D02*
X16549643Y-18083214D01*
X16606786Y-18083214D01*
X16635357Y-18068929D01*
X16649643Y-18040357D01*
X16649643Y-18026072D01*
X16635357Y-17997500D01*
X16606786Y-17983214D01*
X16563928Y-17983214D01*
X16535357Y-17968929D01*
X16521071Y-17940357D01*
X16521071Y-17926072D01*
X16535357Y-17897500D01*
X16563928Y-17883214D01*
X16606786Y-17883214D01*
X16635357Y-17897500D01*
X16749643Y-18197500D02*
X16763928Y-18183214D01*
X16792500Y-18140357D01*
X16806786Y-18111786D01*
X16821071Y-18068929D01*
X16835357Y-17997500D01*
X16835357Y-17940357D01*
X16821071Y-17868929D01*
X16806786Y-17826072D01*
X16792500Y-17797500D01*
X16763928Y-17754643D01*
X16749643Y-17740357D01*
X9882500Y-18288500D02*
X9992500Y-18398500D01*
X9992500Y-18288500D02*
X9882500Y-18398500D01*
X9937500Y-18288500D02*
X9937500Y-18398500D01*
X9882500Y-18343500D02*
X9992500Y-18343500D01*
X10421071Y-18479214D02*
X10249643Y-18479214D01*
X10335357Y-18479214D02*
X10335357Y-18179214D01*
X10306786Y-18222072D01*
X10278214Y-18250643D01*
X10249643Y-18264929D01*
X10549643Y-18450643D02*
X10563929Y-18464929D01*
X10549643Y-18479214D01*
X10535357Y-18464929D01*
X10549643Y-18450643D01*
X10549643Y-18479214D01*
X10849643Y-18479214D02*
X10678214Y-18479214D01*
X10763928Y-18479214D02*
X10763928Y-18179214D01*
X10735357Y-18222072D01*
X10706786Y-18250643D01*
X10678214Y-18264929D01*
X11035357Y-18179214D02*
X11063929Y-18179214D01*
X11092500Y-18193500D01*
X11106786Y-18207786D01*
X11121071Y-18236357D01*
X11135357Y-18293500D01*
X11135357Y-18364929D01*
X11121071Y-18422072D01*
X11106786Y-18450643D01*
X11092500Y-18464929D01*
X11063929Y-18479214D01*
X11035357Y-18479214D01*
X11006786Y-18464929D01*
X10992500Y-18450643D01*
X10978214Y-18422072D01*
X10963929Y-18364929D01*
X10963929Y-18293500D01*
X10978214Y-18236357D01*
X10992500Y-18207786D01*
X11006786Y-18193500D01*
X11035357Y-18179214D01*
X11263928Y-18479214D02*
X11263928Y-18279214D01*
X11263928Y-18307786D02*
X11278214Y-18293500D01*
X11306786Y-18279214D01*
X11349643Y-18279214D01*
X11378214Y-18293500D01*
X11392500Y-18322072D01*
X11392500Y-18479214D01*
X11392500Y-18322072D02*
X11406786Y-18293500D01*
X11435357Y-18279214D01*
X11478214Y-18279214D01*
X11506786Y-18293500D01*
X11521071Y-18322072D01*
X11521071Y-18479214D01*
X11663928Y-18479214D02*
X11663928Y-18279214D01*
X11663928Y-18307786D02*
X11678214Y-18293500D01*
X11706786Y-18279214D01*
X11749643Y-18279214D01*
X11778214Y-18293500D01*
X11792500Y-18322072D01*
X11792500Y-18479214D01*
X11792500Y-18322072D02*
X11806786Y-18293500D01*
X11835357Y-18279214D01*
X11878214Y-18279214D01*
X11906786Y-18293500D01*
X11921071Y-18322072D01*
X11921071Y-18479214D01*
X12506786Y-18164929D02*
X12249643Y-18550643D01*
X12892500Y-18179214D02*
X12921071Y-18179214D01*
X12949643Y-18193500D01*
X12963928Y-18207786D01*
X12978214Y-18236357D01*
X12992500Y-18293500D01*
X12992500Y-18364929D01*
X12978214Y-18422072D01*
X12963928Y-18450643D01*
X12949643Y-18464929D01*
X12921071Y-18479214D01*
X12892500Y-18479214D01*
X12863928Y-18464929D01*
X12849643Y-18450643D01*
X12835357Y-18422072D01*
X12821071Y-18364929D01*
X12821071Y-18293500D01*
X12835357Y-18236357D01*
X12849643Y-18207786D01*
X12863928Y-18193500D01*
X12892500Y-18179214D01*
X13121071Y-18450643D02*
X13135357Y-18464929D01*
X13121071Y-18479214D01*
X13106786Y-18464929D01*
X13121071Y-18450643D01*
X13121071Y-18479214D01*
X13321071Y-18179214D02*
X13349643Y-18179214D01*
X13378214Y-18193500D01*
X13392500Y-18207786D01*
X13406785Y-18236357D01*
X13421071Y-18293500D01*
X13421071Y-18364929D01*
X13406785Y-18422072D01*
X13392500Y-18450643D01*
X13378214Y-18464929D01*
X13349643Y-18479214D01*
X13321071Y-18479214D01*
X13292500Y-18464929D01*
X13278214Y-18450643D01*
X13263928Y-18422072D01*
X13249643Y-18364929D01*
X13249643Y-18293500D01*
X13263928Y-18236357D01*
X13278214Y-18207786D01*
X13292500Y-18193500D01*
X13321071Y-18179214D01*
X13678214Y-18279214D02*
X13678214Y-18479214D01*
X13606785Y-18164929D02*
X13535357Y-18379214D01*
X13721071Y-18379214D01*
X13806785Y-18179214D02*
X13992500Y-18179214D01*
X13892500Y-18293500D01*
X13935357Y-18293500D01*
X13963928Y-18307786D01*
X13978214Y-18322072D01*
X13992500Y-18350643D01*
X13992500Y-18422072D01*
X13978214Y-18450643D01*
X13963928Y-18464929D01*
X13935357Y-18479214D01*
X13849643Y-18479214D01*
X13821071Y-18464929D01*
X13806785Y-18450643D01*
X14106786Y-18179214D02*
X14106786Y-18236357D01*
X14221071Y-18179214D02*
X14221071Y-18236357D01*
X14663928Y-18593500D02*
X14649643Y-18579214D01*
X14621071Y-18536357D01*
X14606785Y-18507786D01*
X14592500Y-18464929D01*
X14578214Y-18393500D01*
X14578214Y-18336357D01*
X14592500Y-18264929D01*
X14606785Y-18222072D01*
X14621071Y-18193500D01*
X14649643Y-18150643D01*
X14663928Y-18136357D01*
X14763928Y-18207786D02*
X14778214Y-18193500D01*
X14806785Y-18179214D01*
X14878214Y-18179214D01*
X14906785Y-18193500D01*
X14921071Y-18207786D01*
X14935357Y-18236357D01*
X14935357Y-18264929D01*
X14921071Y-18307786D01*
X14749643Y-18479214D01*
X14935357Y-18479214D01*
X15292500Y-18479214D02*
X15292500Y-18179214D01*
X15421071Y-18479214D02*
X15421071Y-18322072D01*
X15406785Y-18293500D01*
X15378214Y-18279214D01*
X15335357Y-18279214D01*
X15306785Y-18293500D01*
X15292500Y-18307786D01*
X15606785Y-18479214D02*
X15578214Y-18464929D01*
X15563928Y-18450643D01*
X15549643Y-18422072D01*
X15549643Y-18336357D01*
X15563928Y-18307786D01*
X15578214Y-18293500D01*
X15606785Y-18279214D01*
X15649643Y-18279214D01*
X15678214Y-18293500D01*
X15692500Y-18307786D01*
X15706785Y-18336357D01*
X15706785Y-18422072D01*
X15692500Y-18450643D01*
X15678214Y-18464929D01*
X15649643Y-18479214D01*
X15606785Y-18479214D01*
X15878214Y-18479214D02*
X15849643Y-18464929D01*
X15835357Y-18436357D01*
X15835357Y-18179214D01*
X16106786Y-18464929D02*
X16078214Y-18479214D01*
X16021071Y-18479214D01*
X15992500Y-18464929D01*
X15978214Y-18436357D01*
X15978214Y-18322072D01*
X15992500Y-18293500D01*
X16021071Y-18279214D01*
X16078214Y-18279214D01*
X16106786Y-18293500D01*
X16121071Y-18322072D01*
X16121071Y-18350643D01*
X15978214Y-18379214D01*
X16235357Y-18464929D02*
X16263928Y-18479214D01*
X16321071Y-18479214D01*
X16349643Y-18464929D01*
X16363928Y-18436357D01*
X16363928Y-18422072D01*
X16349643Y-18393500D01*
X16321071Y-18379214D01*
X16278214Y-18379214D01*
X16249643Y-18364929D01*
X16235357Y-18336357D01*
X16235357Y-18322072D01*
X16249643Y-18293500D01*
X16278214Y-18279214D01*
X16321071Y-18279214D01*
X16349643Y-18293500D01*
X16463928Y-18593500D02*
X16478214Y-18579214D01*
X16506786Y-18536357D01*
X16521071Y-18507786D01*
X16535357Y-18464929D01*
X16549643Y-18393500D01*
X16549643Y-18336357D01*
X16535357Y-18264929D01*
X16521071Y-18222072D01*
X16506786Y-18193500D01*
X16478214Y-18150643D01*
X16463928Y-18136357D01*
X9840500Y-18663500D02*
X9992500Y-18815500D01*
X9992500Y-18663500D02*
X9840500Y-18815500D01*
X9970241Y-18793241D02*
X9970241Y-18685760D01*
X9862759Y-18685760D01*
X9862759Y-18793241D01*
X9970241Y-18793241D01*
X10421071Y-18875214D02*
X10249643Y-18875214D01*
X10335357Y-18875214D02*
X10335357Y-18575214D01*
X10306786Y-18618072D01*
X10278214Y-18646643D01*
X10249643Y-18660929D01*
X10549643Y-18846643D02*
X10563929Y-18860929D01*
X10549643Y-18875214D01*
X10535357Y-18860929D01*
X10549643Y-18846643D01*
X10549643Y-18875214D01*
X10835357Y-18575214D02*
X10692500Y-18575214D01*
X10678214Y-18718072D01*
X10692500Y-18703786D01*
X10721071Y-18689500D01*
X10792500Y-18689500D01*
X10821071Y-18703786D01*
X10835357Y-18718072D01*
X10849643Y-18746643D01*
X10849643Y-18818072D01*
X10835357Y-18846643D01*
X10821071Y-18860929D01*
X10792500Y-18875214D01*
X10721071Y-18875214D01*
X10692500Y-18860929D01*
X10678214Y-18846643D01*
X10963929Y-18603786D02*
X10978214Y-18589500D01*
X11006786Y-18575214D01*
X11078214Y-18575214D01*
X11106786Y-18589500D01*
X11121071Y-18603786D01*
X11135357Y-18632357D01*
X11135357Y-18660929D01*
X11121071Y-18703786D01*
X10949643Y-18875214D01*
X11135357Y-18875214D01*
X11263928Y-18875214D02*
X11263928Y-18675214D01*
X11263928Y-18703786D02*
X11278214Y-18689500D01*
X11306786Y-18675214D01*
X11349643Y-18675214D01*
X11378214Y-18689500D01*
X11392500Y-18718072D01*
X11392500Y-18875214D01*
X11392500Y-18718072D02*
X11406786Y-18689500D01*
X11435357Y-18675214D01*
X11478214Y-18675214D01*
X11506786Y-18689500D01*
X11521071Y-18718072D01*
X11521071Y-18875214D01*
X11663928Y-18875214D02*
X11663928Y-18675214D01*
X11663928Y-18703786D02*
X11678214Y-18689500D01*
X11706786Y-18675214D01*
X11749643Y-18675214D01*
X11778214Y-18689500D01*
X11792500Y-18718072D01*
X11792500Y-18875214D01*
X11792500Y-18718072D02*
X11806786Y-18689500D01*
X11835357Y-18675214D01*
X11878214Y-18675214D01*
X11906786Y-18689500D01*
X11921071Y-18718072D01*
X11921071Y-18875214D01*
X12506786Y-18560929D02*
X12249643Y-18946643D01*
X12892500Y-18575214D02*
X12921071Y-18575214D01*
X12949643Y-18589500D01*
X12963928Y-18603786D01*
X12978214Y-18632357D01*
X12992500Y-18689500D01*
X12992500Y-18760929D01*
X12978214Y-18818072D01*
X12963928Y-18846643D01*
X12949643Y-18860929D01*
X12921071Y-18875214D01*
X12892500Y-18875214D01*
X12863928Y-18860929D01*
X12849643Y-18846643D01*
X12835357Y-18818072D01*
X12821071Y-18760929D01*
X12821071Y-18689500D01*
X12835357Y-18632357D01*
X12849643Y-18603786D01*
X12863928Y-18589500D01*
X12892500Y-18575214D01*
X13121071Y-18846643D02*
X13135357Y-18860929D01*
X13121071Y-18875214D01*
X13106786Y-18860929D01*
X13121071Y-18846643D01*
X13121071Y-18875214D01*
X13321071Y-18575214D02*
X13349643Y-18575214D01*
X13378214Y-18589500D01*
X13392500Y-18603786D01*
X13406785Y-18632357D01*
X13421071Y-18689500D01*
X13421071Y-18760929D01*
X13406785Y-18818072D01*
X13392500Y-18846643D01*
X13378214Y-18860929D01*
X13349643Y-18875214D01*
X13321071Y-18875214D01*
X13292500Y-18860929D01*
X13278214Y-18846643D01*
X13263928Y-18818072D01*
X13249643Y-18760929D01*
X13249643Y-18689500D01*
X13263928Y-18632357D01*
X13278214Y-18603786D01*
X13292500Y-18589500D01*
X13321071Y-18575214D01*
X13678214Y-18575214D02*
X13621071Y-18575214D01*
X13592500Y-18589500D01*
X13578214Y-18603786D01*
X13549643Y-18646643D01*
X13535357Y-18703786D01*
X13535357Y-18818072D01*
X13549643Y-18846643D01*
X13563928Y-18860929D01*
X13592500Y-18875214D01*
X13649643Y-18875214D01*
X13678214Y-18860929D01*
X13692500Y-18846643D01*
X13706785Y-18818072D01*
X13706785Y-18746643D01*
X13692500Y-18718072D01*
X13678214Y-18703786D01*
X13649643Y-18689500D01*
X13592500Y-18689500D01*
X13563928Y-18703786D01*
X13549643Y-18718072D01*
X13535357Y-18746643D01*
X13892500Y-18575214D02*
X13921071Y-18575214D01*
X13949643Y-18589500D01*
X13963928Y-18603786D01*
X13978214Y-18632357D01*
X13992500Y-18689500D01*
X13992500Y-18760929D01*
X13978214Y-18818072D01*
X13963928Y-18846643D01*
X13949643Y-18860929D01*
X13921071Y-18875214D01*
X13892500Y-18875214D01*
X13863928Y-18860929D01*
X13849643Y-18846643D01*
X13835357Y-18818072D01*
X13821071Y-18760929D01*
X13821071Y-18689500D01*
X13835357Y-18632357D01*
X13849643Y-18603786D01*
X13863928Y-18589500D01*
X13892500Y-18575214D01*
X14106786Y-18575214D02*
X14106786Y-18632357D01*
X14221071Y-18575214D02*
X14221071Y-18632357D01*
X14663928Y-18989500D02*
X14649643Y-18975214D01*
X14621071Y-18932357D01*
X14606785Y-18903786D01*
X14592500Y-18860929D01*
X14578214Y-18789500D01*
X14578214Y-18732357D01*
X14592500Y-18660929D01*
X14606785Y-18618072D01*
X14621071Y-18589500D01*
X14649643Y-18546643D01*
X14663928Y-18532357D01*
X14906785Y-18675214D02*
X14906785Y-18875214D01*
X14835357Y-18560929D02*
X14763928Y-18775214D01*
X14949643Y-18775214D01*
X15292500Y-18875214D02*
X15292500Y-18575214D01*
X15421071Y-18875214D02*
X15421071Y-18718072D01*
X15406785Y-18689500D01*
X15378214Y-18675214D01*
X15335357Y-18675214D01*
X15306785Y-18689500D01*
X15292500Y-18703786D01*
X15606785Y-18875214D02*
X15578214Y-18860929D01*
X15563928Y-18846643D01*
X15549643Y-18818072D01*
X15549643Y-18732357D01*
X15563928Y-18703786D01*
X15578214Y-18689500D01*
X15606785Y-18675214D01*
X15649643Y-18675214D01*
X15678214Y-18689500D01*
X15692500Y-18703786D01*
X15706785Y-18732357D01*
X15706785Y-18818072D01*
X15692500Y-18846643D01*
X15678214Y-18860929D01*
X15649643Y-18875214D01*
X15606785Y-18875214D01*
X15878214Y-18875214D02*
X15849643Y-18860929D01*
X15835357Y-18832357D01*
X15835357Y-18575214D01*
X16106786Y-18860929D02*
X16078214Y-18875214D01*
X16021071Y-18875214D01*
X15992500Y-18860929D01*
X15978214Y-18832357D01*
X15978214Y-18718072D01*
X15992500Y-18689500D01*
X16021071Y-18675214D01*
X16078214Y-18675214D01*
X16106786Y-18689500D01*
X16121071Y-18718072D01*
X16121071Y-18746643D01*
X15978214Y-18775214D01*
X16235357Y-18860929D02*
X16263928Y-18875214D01*
X16321071Y-18875214D01*
X16349643Y-18860929D01*
X16363928Y-18832357D01*
X16363928Y-18818072D01*
X16349643Y-18789500D01*
X16321071Y-18775214D01*
X16278214Y-18775214D01*
X16249643Y-18760929D01*
X16235357Y-18732357D01*
X16235357Y-18718072D01*
X16249643Y-18689500D01*
X16278214Y-18675214D01*
X16321071Y-18675214D01*
X16349643Y-18689500D01*
X16463928Y-18989500D02*
X16478214Y-18975214D01*
X16506786Y-18932357D01*
X16521071Y-18903786D01*
X16535357Y-18860929D01*
X16549643Y-18789500D01*
X16549643Y-18732357D01*
X16535357Y-18660929D01*
X16521071Y-18618072D01*
X16506786Y-18589500D01*
X16478214Y-18546643D01*
X16463928Y-18532357D01*
X9672500Y-18975500D02*
X9992500Y-19295500D01*
X9992500Y-18975500D02*
X9672500Y-19295500D01*
X9832500Y-19295500D02*
X9992500Y-19135500D01*
X9832500Y-18975500D01*
X9672500Y-19135500D01*
X9832500Y-19295500D01*
X10235357Y-18971214D02*
X10421071Y-18971214D01*
X10321071Y-19085500D01*
X10363929Y-19085500D01*
X10392500Y-19099786D01*
X10406786Y-19114072D01*
X10421071Y-19142643D01*
X10421071Y-19214072D01*
X10406786Y-19242643D01*
X10392500Y-19256929D01*
X10363929Y-19271214D01*
X10278214Y-19271214D01*
X10249643Y-19256929D01*
X10235357Y-19242643D01*
X10549643Y-19242643D02*
X10563929Y-19256929D01*
X10549643Y-19271214D01*
X10535357Y-19256929D01*
X10549643Y-19242643D01*
X10549643Y-19271214D01*
X10678214Y-18999786D02*
X10692500Y-18985500D01*
X10721071Y-18971214D01*
X10792500Y-18971214D01*
X10821071Y-18985500D01*
X10835357Y-18999786D01*
X10849643Y-19028357D01*
X10849643Y-19056929D01*
X10835357Y-19099786D01*
X10663928Y-19271214D01*
X10849643Y-19271214D01*
X11035357Y-18971214D02*
X11063929Y-18971214D01*
X11092500Y-18985500D01*
X11106786Y-18999786D01*
X11121071Y-19028357D01*
X11135357Y-19085500D01*
X11135357Y-19156929D01*
X11121071Y-19214072D01*
X11106786Y-19242643D01*
X11092500Y-19256929D01*
X11063929Y-19271214D01*
X11035357Y-19271214D01*
X11006786Y-19256929D01*
X10992500Y-19242643D01*
X10978214Y-19214072D01*
X10963929Y-19156929D01*
X10963929Y-19085500D01*
X10978214Y-19028357D01*
X10992500Y-18999786D01*
X11006786Y-18985500D01*
X11035357Y-18971214D01*
X11263928Y-19271214D02*
X11263928Y-19071214D01*
X11263928Y-19099786D02*
X11278214Y-19085500D01*
X11306786Y-19071214D01*
X11349643Y-19071214D01*
X11378214Y-19085500D01*
X11392500Y-19114072D01*
X11392500Y-19271214D01*
X11392500Y-19114072D02*
X11406786Y-19085500D01*
X11435357Y-19071214D01*
X11478214Y-19071214D01*
X11506786Y-19085500D01*
X11521071Y-19114072D01*
X11521071Y-19271214D01*
X11663928Y-19271214D02*
X11663928Y-19071214D01*
X11663928Y-19099786D02*
X11678214Y-19085500D01*
X11706786Y-19071214D01*
X11749643Y-19071214D01*
X11778214Y-19085500D01*
X11792500Y-19114072D01*
X11792500Y-19271214D01*
X11792500Y-19114072D02*
X11806786Y-19085500D01*
X11835357Y-19071214D01*
X11878214Y-19071214D01*
X11906786Y-19085500D01*
X11921071Y-19114072D01*
X11921071Y-19271214D01*
X12506786Y-18956929D02*
X12249643Y-19342643D01*
X12892500Y-18971214D02*
X12921071Y-18971214D01*
X12949643Y-18985500D01*
X12963928Y-18999786D01*
X12978214Y-19028357D01*
X12992500Y-19085500D01*
X12992500Y-19156929D01*
X12978214Y-19214072D01*
X12963928Y-19242643D01*
X12949643Y-19256929D01*
X12921071Y-19271214D01*
X12892500Y-19271214D01*
X12863928Y-19256929D01*
X12849643Y-19242643D01*
X12835357Y-19214072D01*
X12821071Y-19156929D01*
X12821071Y-19085500D01*
X12835357Y-19028357D01*
X12849643Y-18999786D01*
X12863928Y-18985500D01*
X12892500Y-18971214D01*
X13121071Y-19242643D02*
X13135357Y-19256929D01*
X13121071Y-19271214D01*
X13106786Y-19256929D01*
X13121071Y-19242643D01*
X13121071Y-19271214D01*
X13421071Y-19271214D02*
X13249643Y-19271214D01*
X13335357Y-19271214D02*
X13335357Y-18971214D01*
X13306785Y-19014072D01*
X13278214Y-19042643D01*
X13249643Y-19056929D01*
X13535357Y-18999786D02*
X13549643Y-18985500D01*
X13578214Y-18971214D01*
X13649643Y-18971214D01*
X13678214Y-18985500D01*
X13692500Y-18999786D01*
X13706785Y-19028357D01*
X13706785Y-19056929D01*
X13692500Y-19099786D01*
X13521071Y-19271214D01*
X13706785Y-19271214D01*
X13963928Y-18971214D02*
X13906785Y-18971214D01*
X13878214Y-18985500D01*
X13863928Y-18999786D01*
X13835357Y-19042643D01*
X13821071Y-19099786D01*
X13821071Y-19214072D01*
X13835357Y-19242643D01*
X13849643Y-19256929D01*
X13878214Y-19271214D01*
X13935357Y-19271214D01*
X13963928Y-19256929D01*
X13978214Y-19242643D01*
X13992500Y-19214072D01*
X13992500Y-19142643D01*
X13978214Y-19114072D01*
X13963928Y-19099786D01*
X13935357Y-19085500D01*
X13878214Y-19085500D01*
X13849643Y-19099786D01*
X13835357Y-19114072D01*
X13821071Y-19142643D01*
X14106786Y-18971214D02*
X14106786Y-19028357D01*
X14221071Y-18971214D02*
X14221071Y-19028357D01*
X14663928Y-19385500D02*
X14649643Y-19371214D01*
X14621071Y-19328357D01*
X14606785Y-19299786D01*
X14592500Y-19256929D01*
X14578214Y-19185500D01*
X14578214Y-19128357D01*
X14592500Y-19056929D01*
X14606785Y-19014072D01*
X14621071Y-18985500D01*
X14649643Y-18942643D01*
X14663928Y-18928357D01*
X14763928Y-18999786D02*
X14778214Y-18985500D01*
X14806785Y-18971214D01*
X14878214Y-18971214D01*
X14906785Y-18985500D01*
X14921071Y-18999786D01*
X14935357Y-19028357D01*
X14935357Y-19056929D01*
X14921071Y-19099786D01*
X14749643Y-19271214D01*
X14935357Y-19271214D01*
X15292500Y-19271214D02*
X15292500Y-18971214D01*
X15421071Y-19271214D02*
X15421071Y-19114072D01*
X15406785Y-19085500D01*
X15378214Y-19071214D01*
X15335357Y-19071214D01*
X15306785Y-19085500D01*
X15292500Y-19099786D01*
X15606785Y-19271214D02*
X15578214Y-19256929D01*
X15563928Y-19242643D01*
X15549643Y-19214072D01*
X15549643Y-19128357D01*
X15563928Y-19099786D01*
X15578214Y-19085500D01*
X15606785Y-19071214D01*
X15649643Y-19071214D01*
X15678214Y-19085500D01*
X15692500Y-19099786D01*
X15706785Y-19128357D01*
X15706785Y-19214072D01*
X15692500Y-19242643D01*
X15678214Y-19256929D01*
X15649643Y-19271214D01*
X15606785Y-19271214D01*
X15878214Y-19271214D02*
X15849643Y-19256929D01*
X15835357Y-19228357D01*
X15835357Y-18971214D01*
X16106786Y-19256929D02*
X16078214Y-19271214D01*
X16021071Y-19271214D01*
X15992500Y-19256929D01*
X15978214Y-19228357D01*
X15978214Y-19114072D01*
X15992500Y-19085500D01*
X16021071Y-19071214D01*
X16078214Y-19071214D01*
X16106786Y-19085500D01*
X16121071Y-19114072D01*
X16121071Y-19142643D01*
X15978214Y-19171214D01*
X16235357Y-19256929D02*
X16263928Y-19271214D01*
X16321071Y-19271214D01*
X16349643Y-19256929D01*
X16363928Y-19228357D01*
X16363928Y-19214072D01*
X16349643Y-19185500D01*
X16321071Y-19171214D01*
X16278214Y-19171214D01*
X16249643Y-19156929D01*
X16235357Y-19128357D01*
X16235357Y-19114072D01*
X16249643Y-19085500D01*
X16278214Y-19071214D01*
X16321071Y-19071214D01*
X16349643Y-19085500D01*
X16463928Y-19385500D02*
X16478214Y-19371214D01*
X16506786Y-19328357D01*
X16521071Y-19299786D01*
X16535357Y-19256929D01*
X16549643Y-19185500D01*
X16549643Y-19128357D01*
X16535357Y-19056929D01*
X16521071Y-19014072D01*
X16506786Y-18985500D01*
X16478214Y-18942643D01*
X16463928Y-18928357D01*
M02*
