G04 #@! TF.FileFunction,Copper,L1,Top,Signal*
%FSLAX46Y46*%
G04 Gerber Fmt 4.6, Leading zero omitted, Abs format (unit mm)*
G04 Created by KiCad (PCBNEW 4.0.7) date 10/02/18 03:54:40*
%MOMM*%
%LPD*%
G01*
G04 APERTURE LIST*
%ADD10C,0.100000*%
%ADD11R,3.500000X3.500000*%
%ADD12R,1.700000X1.700000*%
%ADD13O,1.700000X1.700000*%
%ADD14R,2.200000X2.200000*%
%ADD15O,2.200000X2.200000*%
%ADD16R,1.600000X3.500000*%
%ADD17C,1.524000*%
%ADD18R,3.200000X1.500000*%
%ADD19R,1.500000X1.250000*%
%ADD20R,3.750000X2.500000*%
%ADD21R,1.700000X2.000000*%
%ADD22R,1.500000X1.300000*%
%ADD23R,1.300000X1.500000*%
%ADD24C,1.600000*%
%ADD25O,1.600000X1.600000*%
%ADD26R,0.800000X1.300000*%
%ADD27R,1.800000X1.300000*%
%ADD28R,1.450000X0.450000*%
%ADD29R,2.000000X3.800000*%
%ADD30R,2.000000X1.500000*%
%ADD31R,1.100000X4.600000*%
%ADD32R,10.800000X9.400000*%
%ADD33R,5.250000X4.550000*%
%ADD34R,2.700000X3.200000*%
%ADD35R,3.000000X3.000000*%
%ADD36C,3.000000*%
%ADD37C,1.270000*%
%ADD38C,0.300000*%
%ADD39C,0.400000*%
%ADD40C,0.254000*%
G04 APERTURE END LIST*
D10*
D11*
X100330000Y-83820000D03*
X94330000Y-83820000D03*
X97330000Y-88520000D03*
D12*
X114300000Y-105410000D03*
D13*
X114300000Y-102870000D03*
D14*
X129540000Y-93472000D03*
D15*
X137160000Y-93472000D03*
D16*
X120904000Y-89248000D03*
X120904000Y-94648000D03*
D17*
X141732000Y-102068000D03*
X141732000Y-97068000D03*
D18*
X101060000Y-102616000D03*
X97060000Y-102616000D03*
D19*
X101834000Y-99568000D03*
X99334000Y-99568000D03*
X111526000Y-115824000D03*
X114026000Y-115824000D03*
X121450000Y-118700000D03*
X123950000Y-118700000D03*
D18*
X134588000Y-121412000D03*
X130588000Y-121412000D03*
D20*
X137745000Y-106680000D03*
X131495000Y-106680000D03*
D16*
X140970000Y-87790000D03*
X140970000Y-82390000D03*
D21*
X120396000Y-100616000D03*
X120396000Y-104616000D03*
D12*
X145000000Y-108000000D03*
D13*
X145000000Y-110540000D03*
X145000000Y-113080000D03*
X145000000Y-115620000D03*
D22*
X108030000Y-113284000D03*
X105330000Y-113284000D03*
X105330000Y-115824000D03*
X108030000Y-115824000D03*
D23*
X120396000Y-110570000D03*
X120396000Y-107870000D03*
D24*
X111252000Y-123444000D03*
D25*
X108712000Y-123444000D03*
D26*
X112044000Y-91380000D03*
D27*
X110744000Y-96580000D03*
X110744000Y-95280000D03*
X110744000Y-91380000D03*
X110744000Y-92680000D03*
D28*
X107794000Y-91060000D03*
X107794000Y-91710000D03*
X107794000Y-92360000D03*
X107794000Y-93010000D03*
X107794000Y-93650000D03*
X107794000Y-94310000D03*
X107794000Y-94950000D03*
X107794000Y-95600000D03*
X107794000Y-96250000D03*
X107794000Y-96900000D03*
X113694000Y-96900000D03*
X113694000Y-96250000D03*
X113694000Y-95600000D03*
X113694000Y-94950000D03*
X113694000Y-94310000D03*
X113694000Y-93650000D03*
X113694000Y-93010000D03*
X113694000Y-92360000D03*
X113694000Y-91710000D03*
X113694000Y-91060000D03*
D27*
X110744000Y-93980000D03*
D26*
X109444000Y-91380000D03*
X109444000Y-92680000D03*
X109444000Y-93980000D03*
X109444000Y-95280000D03*
X109444000Y-96580000D03*
X112044000Y-96580000D03*
X112044000Y-95280000D03*
X112044000Y-93980000D03*
X112044000Y-92680000D03*
D29*
X130962000Y-114300000D03*
D30*
X137262000Y-114300000D03*
X137262000Y-112000000D03*
X137262000Y-116600000D03*
D31*
X127410000Y-87055000D03*
X129110000Y-87055000D03*
X130810000Y-87055000D03*
X132510000Y-87055000D03*
X134210000Y-87055000D03*
D32*
X130810000Y-77905000D03*
D33*
X133585000Y-75480000D03*
X128035000Y-80330000D03*
X128035000Y-75480000D03*
X133585000Y-80330000D03*
D19*
X114026000Y-113284000D03*
X111526000Y-113284000D03*
D12*
X106680000Y-105410000D03*
D13*
X106680000Y-102870000D03*
D12*
X110490000Y-105410000D03*
D13*
X110490000Y-102870000D03*
D34*
X106794000Y-87884000D03*
X114694000Y-87884000D03*
D35*
X116840000Y-124460000D03*
D36*
X121920000Y-124460000D03*
D12*
X119380000Y-74930000D03*
D13*
X121920000Y-74930000D03*
D36*
X127000000Y-104140000D03*
X127000000Y-114300000D03*
X127000000Y-109220000D03*
D37*
X101092000Y-90932000D03*
X102616000Y-90932000D03*
X101092000Y-89408000D03*
X101092000Y-92456000D03*
X98044000Y-94996000D03*
X98044000Y-115824000D03*
X116332000Y-110236000D03*
X116332000Y-98044000D03*
D38*
X107794000Y-96900000D02*
X105792000Y-96900000D01*
X110490000Y-100838000D02*
X110490000Y-102870000D01*
X109728000Y-100076000D02*
X110490000Y-100838000D01*
X106172000Y-100076000D02*
X109728000Y-100076000D01*
X105156000Y-99060000D02*
X106172000Y-100076000D01*
X105156000Y-97536000D02*
X105156000Y-99060000D01*
X105792000Y-96900000D02*
X105156000Y-97536000D01*
X120396000Y-97536000D02*
X120904000Y-97028000D01*
X120904000Y-94648000D02*
X120904000Y-97028000D01*
X116002000Y-93650000D02*
X113694000Y-93650000D01*
X119888000Y-97536000D02*
X116002000Y-93650000D01*
X120396000Y-97536000D02*
X119888000Y-97536000D01*
X130810000Y-77905000D02*
X130810000Y-87055000D01*
D39*
X118364000Y-89916000D02*
X118364000Y-75946000D01*
X118364000Y-75946000D02*
X119380000Y-74930000D01*
X113694000Y-91710000D02*
X115554000Y-91710000D01*
X117348000Y-89916000D02*
X118364000Y-89916000D01*
X115554000Y-91710000D02*
X117348000Y-89916000D01*
X113694000Y-92360000D02*
X115920000Y-92360000D01*
X117348000Y-90932000D02*
X118364000Y-90932000D01*
X115920000Y-92360000D02*
X117348000Y-90932000D01*
X113694000Y-93010000D02*
X117064000Y-93010000D01*
X118364000Y-91440000D02*
X118364000Y-90932000D01*
X118364000Y-91710000D02*
X118364000Y-91440000D01*
X117064000Y-93010000D02*
X118364000Y-91710000D01*
X118364000Y-90424000D02*
X118364000Y-89916000D01*
X118364000Y-90932000D02*
X118364000Y-90424000D01*
X116840000Y-124460000D02*
X116840000Y-121412000D01*
X119552000Y-118700000D02*
X121450000Y-118700000D01*
X116840000Y-121412000D02*
X119552000Y-118700000D01*
X116840000Y-124460000D02*
X116840000Y-123444000D01*
X113717000Y-92337000D02*
X113694000Y-92360000D01*
X103632000Y-102616000D02*
X106426000Y-102616000D01*
X106426000Y-102616000D02*
X106680000Y-102870000D01*
X103124000Y-90932000D02*
X105202000Y-93010000D01*
X102616000Y-90932000D02*
X103124000Y-90932000D01*
X114554000Y-119126000D02*
X115316000Y-118364000D01*
X115316000Y-118364000D02*
X119380000Y-114300000D01*
X101092000Y-90932000D02*
X101092000Y-89408000D01*
X101092000Y-92456000D02*
X101092000Y-90932000D01*
X101092000Y-92456000D02*
X101092000Y-91948000D01*
X101092000Y-91948000D02*
X101092000Y-90932000D01*
X101092000Y-89408000D02*
X101092000Y-90932000D01*
X102616000Y-90932000D02*
X101092000Y-90932000D01*
X105202000Y-93010000D02*
X107794000Y-93010000D01*
X100330000Y-83820000D02*
X115824000Y-83820000D01*
X115824000Y-83820000D02*
X117348000Y-85344000D01*
X117348000Y-85344000D02*
X117348000Y-86868000D01*
X117348000Y-86868000D02*
X116332000Y-87884000D01*
X116332000Y-87884000D02*
X114694000Y-87884000D01*
X104140000Y-102616000D02*
X103632000Y-102616000D01*
X103632000Y-102616000D02*
X101060000Y-102616000D01*
X104140000Y-102616000D02*
X104140000Y-99568000D01*
X115824000Y-87884000D02*
X114186000Y-87884000D01*
X120396000Y-112268000D02*
X121920000Y-112268000D01*
X119380000Y-114300000D02*
X120396000Y-113284000D01*
X120396000Y-113284000D02*
X120396000Y-112776000D01*
X120396000Y-112776000D02*
X120396000Y-112268000D01*
X120396000Y-112268000D02*
X120396000Y-110570000D01*
X121920000Y-112268000D02*
X123444000Y-110744000D01*
X124968000Y-104140000D02*
X127000000Y-104140000D01*
X123444000Y-105664000D02*
X124968000Y-104140000D01*
X123444000Y-110744000D02*
X123444000Y-105664000D01*
X97790000Y-119126000D02*
X114554000Y-119126000D01*
X93980000Y-101092000D02*
X93980000Y-101600000D01*
X97790000Y-119126000D02*
X93980000Y-115316000D01*
X93980000Y-115316000D02*
X93980000Y-101600000D01*
X104140000Y-95600000D02*
X102616000Y-95600000D01*
X98552000Y-96520000D02*
X99472000Y-95600000D01*
X99472000Y-95600000D02*
X102616000Y-95600000D01*
X98552000Y-96520000D02*
X93980000Y-101092000D01*
X100584000Y-83820000D02*
X100330000Y-83820000D01*
X101834000Y-99568000D02*
X104140000Y-99568000D01*
X107794000Y-96250000D02*
X104140000Y-96250000D01*
X104140000Y-96250000D02*
X104140000Y-96520000D01*
X104140000Y-95600000D02*
X104140000Y-96520000D01*
X104140000Y-96520000D02*
X104140000Y-99568000D01*
X104140000Y-95600000D02*
X107794000Y-95600000D01*
D38*
X141224000Y-112000000D02*
X141732000Y-112000000D01*
X141732000Y-112000000D02*
X141732000Y-111760000D01*
X141732000Y-111760000D02*
X141732000Y-112776000D01*
X141732000Y-112776000D02*
X142036000Y-113080000D01*
X142036000Y-113080000D02*
X145000000Y-113080000D01*
X137745000Y-106680000D02*
X140208000Y-106680000D01*
X141224000Y-112000000D02*
X137262000Y-112000000D01*
X141732000Y-108204000D02*
X141732000Y-111760000D01*
X140208000Y-106680000D02*
X141732000Y-108204000D01*
X132510000Y-87055000D02*
X132510000Y-92886000D01*
X136692000Y-97068000D02*
X141732000Y-97068000D01*
X132510000Y-92886000D02*
X136692000Y-97068000D01*
X141732000Y-97068000D02*
X141732000Y-91440000D01*
X140970000Y-90678000D02*
X140970000Y-87790000D01*
X141732000Y-91440000D02*
X140970000Y-90678000D01*
X120396000Y-100616000D02*
X120396000Y-99060000D01*
X116286000Y-94950000D02*
X113694000Y-94950000D01*
X120396000Y-99060000D02*
X116286000Y-94950000D01*
X113740000Y-94996000D02*
X113694000Y-94950000D01*
X120396000Y-107870000D02*
X120396000Y-104616000D01*
X129110000Y-87055000D02*
X129110000Y-93042000D01*
X129110000Y-93042000D02*
X129540000Y-93472000D01*
X107794000Y-91710000D02*
X106442000Y-91710000D01*
X105664000Y-90932000D02*
X104648000Y-90932000D01*
X106442000Y-91710000D02*
X105664000Y-90932000D01*
X106172000Y-92360000D02*
X105568000Y-92360000D01*
X105568000Y-92360000D02*
X104648000Y-91440000D01*
X104648000Y-91440000D02*
X104648000Y-90932000D01*
X104648000Y-90932000D02*
X104648000Y-90424000D01*
X100076000Y-89408000D02*
X100076000Y-88900000D01*
X104648000Y-87884000D02*
X104648000Y-87884000D01*
X101092000Y-87884000D02*
X104648000Y-87884000D01*
X100076000Y-88900000D02*
X101092000Y-87884000D01*
X100762000Y-93650000D02*
X107794000Y-93650000D01*
X100076000Y-92964000D02*
X100762000Y-93650000D01*
X100076000Y-89408000D02*
X100076000Y-92964000D01*
X104648000Y-90424000D02*
X104648000Y-87884000D01*
X104648000Y-87884000D02*
X106286000Y-87884000D01*
X106172000Y-92360000D02*
X106680000Y-92360000D01*
X106270000Y-92360000D02*
X106172000Y-92360000D01*
X106680000Y-92360000D02*
X107794000Y-92360000D01*
X106172000Y-93650000D02*
X107794000Y-93650000D01*
X106270000Y-93650000D02*
X106172000Y-93650000D01*
X98090000Y-94950000D02*
X98044000Y-94996000D01*
X107794000Y-94950000D02*
X98090000Y-94950000D01*
X102616000Y-115824000D02*
X98044000Y-115824000D01*
X105330000Y-113284000D02*
X103632000Y-113284000D01*
X102616000Y-115824000D02*
X105330000Y-115824000D01*
X102616000Y-114300000D02*
X102616000Y-115824000D01*
X103632000Y-113284000D02*
X102616000Y-114300000D01*
X108712000Y-123444000D02*
X108712000Y-121412000D01*
X127000000Y-110744000D02*
X127000000Y-109220000D01*
X125984000Y-111760000D02*
X127000000Y-110744000D01*
X124968000Y-111760000D02*
X125984000Y-111760000D01*
X116332000Y-120396000D02*
X124968000Y-111760000D01*
X109728000Y-120396000D02*
X116332000Y-120396000D01*
X108712000Y-121412000D02*
X109728000Y-120396000D01*
X108712000Y-123444000D02*
X108712000Y-122936000D01*
X113694000Y-96250000D02*
X115554000Y-96250000D01*
X109728000Y-111760000D02*
X109728000Y-113284000D01*
X111252000Y-110236000D02*
X109728000Y-111760000D01*
X116332000Y-110236000D02*
X111252000Y-110236000D01*
X116332000Y-97028000D02*
X116332000Y-98044000D01*
X115554000Y-96250000D02*
X116332000Y-97028000D01*
X109728000Y-113284000D02*
X109728000Y-115316000D01*
X110236000Y-115824000D02*
X111526000Y-115824000D01*
X109728000Y-115316000D02*
X110236000Y-115824000D01*
X108030000Y-113284000D02*
X109728000Y-113284000D01*
X109728000Y-113284000D02*
X111526000Y-113284000D01*
X114300000Y-102870000D02*
X116078000Y-102870000D01*
X115824000Y-113284000D02*
X114026000Y-113284000D01*
X117348000Y-111760000D02*
X115824000Y-113284000D01*
X117348000Y-104140000D02*
X117348000Y-111760000D01*
X116078000Y-102870000D02*
X117348000Y-104140000D01*
X112268000Y-105410000D02*
X112268000Y-104648000D01*
X114300000Y-105410000D02*
X112268000Y-105410000D01*
X112268000Y-105410000D02*
X110490000Y-105410000D01*
X106680000Y-105410000D02*
X110490000Y-105410000D01*
X115920000Y-95600000D02*
X113694000Y-95600000D01*
X112268000Y-104648000D02*
X112268000Y-100584000D01*
X112268000Y-100584000D02*
X113284000Y-99568000D01*
X113284000Y-99568000D02*
X116840000Y-99568000D01*
X116840000Y-99568000D02*
X117856000Y-98552000D01*
X117856000Y-98552000D02*
X117856000Y-97536000D01*
X117856000Y-97536000D02*
X115920000Y-95600000D01*
D39*
X134588000Y-121412000D02*
X137160000Y-121412000D01*
X137160000Y-121412000D02*
X137668000Y-120904000D01*
X137668000Y-120904000D02*
X137668000Y-119380000D01*
X137668000Y-119380000D02*
X138684000Y-119380000D01*
X138444000Y-116600000D02*
X137262000Y-116600000D01*
X139192000Y-117348000D02*
X138444000Y-116600000D01*
X139192000Y-118872000D02*
X139192000Y-117348000D01*
X138684000Y-119380000D02*
X139192000Y-118872000D01*
X134620000Y-117856000D02*
X136144000Y-119380000D01*
X136144000Y-119380000D02*
X137668000Y-119380000D01*
X127410000Y-93472000D02*
X127410000Y-96930000D01*
X127410000Y-96930000D02*
X134620000Y-104140000D01*
X134620000Y-104140000D02*
X134620000Y-117856000D01*
X127410000Y-93472000D02*
X127410000Y-87055000D01*
X120904000Y-84836000D02*
X122936000Y-84836000D01*
X126492000Y-93472000D02*
X127410000Y-93472000D01*
X125476000Y-92456000D02*
X126492000Y-93472000D01*
X125476000Y-87376000D02*
X125476000Y-92456000D01*
X122936000Y-84836000D02*
X125476000Y-87376000D01*
X121920000Y-74930000D02*
X121920000Y-79248000D01*
X120904000Y-80264000D02*
X120904000Y-84836000D01*
X120904000Y-84836000D02*
X120904000Y-89248000D01*
X121920000Y-79248000D02*
X120904000Y-80264000D01*
D38*
X137668000Y-119380000D02*
X137668000Y-120904000D01*
X137668000Y-120904000D02*
X137160000Y-121412000D01*
X127410000Y-96930000D02*
X134620000Y-104140000D01*
X134620000Y-104140000D02*
X134620000Y-117856000D01*
X136144000Y-119380000D02*
X137668000Y-119380000D01*
X137530000Y-116332000D02*
X137262000Y-116600000D01*
D39*
X127508000Y-87153000D02*
X127410000Y-87055000D01*
D40*
G36*
X146290000Y-106682099D02*
X146101890Y-106553569D01*
X145850000Y-106502560D01*
X144150000Y-106502560D01*
X143914683Y-106546838D01*
X143698559Y-106685910D01*
X143553569Y-106898110D01*
X143502560Y-107150000D01*
X143502560Y-108850000D01*
X143546838Y-109085317D01*
X143685910Y-109301441D01*
X143898110Y-109446431D01*
X144006107Y-109468301D01*
X143728355Y-109773076D01*
X143558524Y-110183110D01*
X143679845Y-110413000D01*
X144873000Y-110413000D01*
X144873000Y-110393000D01*
X145127000Y-110393000D01*
X145127000Y-110413000D01*
X145147000Y-110413000D01*
X145147000Y-110667000D01*
X145127000Y-110667000D01*
X145127000Y-110687000D01*
X144873000Y-110687000D01*
X144873000Y-110667000D01*
X143679845Y-110667000D01*
X143558524Y-110896890D01*
X143728355Y-111306924D01*
X144118642Y-111735183D01*
X144261553Y-111802298D01*
X143920853Y-112029946D01*
X143743750Y-112295000D01*
X142517000Y-112295000D01*
X142517000Y-108204000D01*
X142457245Y-107903594D01*
X142287079Y-107648921D01*
X142287076Y-107648919D01*
X140763079Y-106124921D01*
X140508407Y-105954755D01*
X140267440Y-105906823D01*
X140267440Y-105430000D01*
X140223162Y-105194683D01*
X140084090Y-104978559D01*
X139871890Y-104833569D01*
X139620000Y-104782560D01*
X135870000Y-104782560D01*
X135634683Y-104826838D01*
X135455000Y-104942461D01*
X135455000Y-104140000D01*
X135419906Y-103963569D01*
X135391440Y-103820460D01*
X135210434Y-103549566D01*
X134005529Y-102344661D01*
X140334758Y-102344661D01*
X140546990Y-102858303D01*
X140939630Y-103251629D01*
X141452900Y-103464757D01*
X142008661Y-103465242D01*
X142522303Y-103253010D01*
X142915629Y-102860370D01*
X143128757Y-102347100D01*
X143129242Y-101791339D01*
X142917010Y-101277697D01*
X142524370Y-100884371D01*
X142011100Y-100671243D01*
X141455339Y-100670758D01*
X140941697Y-100882990D01*
X140548371Y-101275630D01*
X140335243Y-101788900D01*
X140334758Y-102344661D01*
X134005529Y-102344661D01*
X128245000Y-96584132D01*
X128245000Y-95179952D01*
X128440000Y-95219440D01*
X130640000Y-95219440D01*
X130875317Y-95175162D01*
X131091441Y-95036090D01*
X131236431Y-94823890D01*
X131287440Y-94572000D01*
X131287440Y-92372000D01*
X131243162Y-92136683D01*
X131104090Y-91920559D01*
X130891890Y-91775569D01*
X130640000Y-91724560D01*
X129895000Y-91724560D01*
X129895000Y-89958222D01*
X129895317Y-89958162D01*
X129958567Y-89917462D01*
X130133690Y-89990000D01*
X130524250Y-89990000D01*
X130683000Y-89831250D01*
X130683000Y-87182000D01*
X130663000Y-87182000D01*
X130663000Y-86928000D01*
X130683000Y-86928000D01*
X130683000Y-84278750D01*
X130937000Y-84278750D01*
X130937000Y-86928000D01*
X130957000Y-86928000D01*
X130957000Y-87182000D01*
X130937000Y-87182000D01*
X130937000Y-89831250D01*
X131095750Y-89990000D01*
X131486310Y-89990000D01*
X131659541Y-89918245D01*
X131708110Y-89951431D01*
X131725000Y-89954851D01*
X131725000Y-92886000D01*
X131784755Y-93186407D01*
X131954921Y-93441079D01*
X136136921Y-97623079D01*
X136391593Y-97793245D01*
X136692000Y-97853000D01*
X140544799Y-97853000D01*
X140546990Y-97858303D01*
X140939630Y-98251629D01*
X141452900Y-98464757D01*
X142008661Y-98465242D01*
X142522303Y-98253010D01*
X142915629Y-97860370D01*
X143128757Y-97347100D01*
X143129242Y-96791339D01*
X142917010Y-96277697D01*
X142524370Y-95884371D01*
X142517000Y-95881311D01*
X142517000Y-91440000D01*
X142457245Y-91139594D01*
X142287079Y-90884921D01*
X141755000Y-90352842D01*
X141755000Y-90187440D01*
X141770000Y-90187440D01*
X142005317Y-90143162D01*
X142221441Y-90004090D01*
X142366431Y-89791890D01*
X142417440Y-89540000D01*
X142417440Y-86040000D01*
X142373162Y-85804683D01*
X142234090Y-85588559D01*
X142021890Y-85443569D01*
X141770000Y-85392560D01*
X140170000Y-85392560D01*
X139934683Y-85436838D01*
X139718559Y-85575910D01*
X139573569Y-85788110D01*
X139522560Y-86040000D01*
X139522560Y-89540000D01*
X139566838Y-89775317D01*
X139705910Y-89991441D01*
X139918110Y-90136431D01*
X140170000Y-90187440D01*
X140185000Y-90187440D01*
X140185000Y-90678000D01*
X140244755Y-90978407D01*
X140414921Y-91233079D01*
X140947000Y-91765158D01*
X140947000Y-95880799D01*
X140941697Y-95882990D01*
X140548371Y-96275630D01*
X140545311Y-96283000D01*
X137017158Y-96283000D01*
X134602280Y-93868122D01*
X135470825Y-93868122D01*
X135685466Y-94386332D01*
X136147608Y-94881012D01*
X136763877Y-95161183D01*
X137033000Y-95043604D01*
X137033000Y-93599000D01*
X137287000Y-93599000D01*
X137287000Y-95043604D01*
X137556123Y-95161183D01*
X138172392Y-94881012D01*
X138634534Y-94386332D01*
X138849175Y-93868122D01*
X138731125Y-93599000D01*
X137287000Y-93599000D01*
X137033000Y-93599000D01*
X135588875Y-93599000D01*
X135470825Y-93868122D01*
X134602280Y-93868122D01*
X133810036Y-93075878D01*
X135470825Y-93075878D01*
X135588875Y-93345000D01*
X137033000Y-93345000D01*
X137033000Y-91900396D01*
X137287000Y-91900396D01*
X137287000Y-93345000D01*
X138731125Y-93345000D01*
X138849175Y-93075878D01*
X138634534Y-92557668D01*
X138172392Y-92062988D01*
X137556123Y-91782817D01*
X137287000Y-91900396D01*
X137033000Y-91900396D01*
X136763877Y-91782817D01*
X136147608Y-92062988D01*
X135685466Y-92557668D01*
X135470825Y-93075878D01*
X133810036Y-93075878D01*
X133295000Y-92560842D01*
X133295000Y-89958222D01*
X133295317Y-89958162D01*
X133358567Y-89917462D01*
X133533690Y-89990000D01*
X133924250Y-89990000D01*
X134083000Y-89831250D01*
X134083000Y-87182000D01*
X134337000Y-87182000D01*
X134337000Y-89831250D01*
X134495750Y-89990000D01*
X134886310Y-89990000D01*
X135119699Y-89893327D01*
X135298327Y-89714698D01*
X135395000Y-89481309D01*
X135395000Y-87340750D01*
X135236250Y-87182000D01*
X134337000Y-87182000D01*
X134083000Y-87182000D01*
X134063000Y-87182000D01*
X134063000Y-86928000D01*
X134083000Y-86928000D01*
X134083000Y-84278750D01*
X134337000Y-84278750D01*
X134337000Y-86928000D01*
X135236250Y-86928000D01*
X135395000Y-86769250D01*
X135395000Y-84628691D01*
X135298327Y-84395302D01*
X135119699Y-84216673D01*
X134886310Y-84120000D01*
X134495750Y-84120000D01*
X134337000Y-84278750D01*
X134083000Y-84278750D01*
X133924250Y-84120000D01*
X133533690Y-84120000D01*
X133360459Y-84191755D01*
X133311890Y-84158569D01*
X133060000Y-84107560D01*
X131960000Y-84107560D01*
X131724683Y-84151838D01*
X131661433Y-84192538D01*
X131486310Y-84120000D01*
X131095750Y-84120000D01*
X130937000Y-84278750D01*
X130683000Y-84278750D01*
X130524250Y-84120000D01*
X130133690Y-84120000D01*
X129960459Y-84191755D01*
X129911890Y-84158569D01*
X129660000Y-84107560D01*
X128560000Y-84107560D01*
X128324683Y-84151838D01*
X128261522Y-84192481D01*
X128211890Y-84158569D01*
X127960000Y-84107560D01*
X126860000Y-84107560D01*
X126624683Y-84151838D01*
X126408559Y-84290910D01*
X126263569Y-84503110D01*
X126212560Y-84755000D01*
X126212560Y-87004259D01*
X126066434Y-86785566D01*
X123526434Y-84245566D01*
X123255541Y-84064561D01*
X122936000Y-84001000D01*
X121739000Y-84001000D01*
X121739000Y-80609868D01*
X122510434Y-79838434D01*
X122620595Y-79673566D01*
X122691439Y-79567541D01*
X122755000Y-79248000D01*
X122755000Y-76152841D01*
X122970054Y-76009147D01*
X123291961Y-75527378D01*
X123405000Y-74959093D01*
X123405000Y-74900907D01*
X123291961Y-74332622D01*
X122970054Y-73850853D01*
X122488285Y-73528946D01*
X121920000Y-73415907D01*
X121351715Y-73528946D01*
X120869946Y-73850853D01*
X120842150Y-73892452D01*
X120833162Y-73844683D01*
X120694090Y-73628559D01*
X120481890Y-73483569D01*
X120230000Y-73432560D01*
X118530000Y-73432560D01*
X118294683Y-73476838D01*
X118078559Y-73615910D01*
X117933569Y-73828110D01*
X117882560Y-74080000D01*
X117882560Y-75246572D01*
X117773566Y-75355566D01*
X117592561Y-75626459D01*
X117529000Y-75946000D01*
X117529000Y-84344132D01*
X116414434Y-83229566D01*
X116285368Y-83143327D01*
X116143541Y-83048561D01*
X115824000Y-82985000D01*
X102727440Y-82985000D01*
X102727440Y-82070000D01*
X102683162Y-81834683D01*
X102544090Y-81618559D01*
X102331890Y-81473569D01*
X102080000Y-81422560D01*
X98580000Y-81422560D01*
X98344683Y-81466838D01*
X98128559Y-81605910D01*
X97983569Y-81818110D01*
X97932560Y-82070000D01*
X97932560Y-85570000D01*
X97976838Y-85805317D01*
X98115910Y-86021441D01*
X98282109Y-86135000D01*
X97615750Y-86135000D01*
X97457000Y-86293750D01*
X97457000Y-88393000D01*
X97477000Y-88393000D01*
X97477000Y-88647000D01*
X97457000Y-88647000D01*
X97457000Y-90746250D01*
X97615750Y-90905000D01*
X99206309Y-90905000D01*
X99291000Y-90869920D01*
X99291000Y-92964000D01*
X99350755Y-93264407D01*
X99520921Y-93519079D01*
X100166843Y-94165000D01*
X99008936Y-94165000D01*
X98764337Y-93919974D01*
X98297727Y-93726221D01*
X97792490Y-93725780D01*
X97325542Y-93918718D01*
X96967974Y-94275663D01*
X96774221Y-94742273D01*
X96773780Y-95247510D01*
X96966718Y-95714458D01*
X97323663Y-96072026D01*
X97673741Y-96217391D01*
X93389566Y-100501566D01*
X93208561Y-100772459D01*
X93145000Y-101092000D01*
X93145000Y-115316000D01*
X93208561Y-115635541D01*
X93337533Y-115828561D01*
X93389566Y-115906434D01*
X97199566Y-119716434D01*
X97470460Y-119897440D01*
X97790000Y-119961000D01*
X109052842Y-119961000D01*
X108156921Y-120856921D01*
X107986755Y-121111593D01*
X107986755Y-121111594D01*
X107927000Y-121412000D01*
X107927000Y-122257038D01*
X107669189Y-122429302D01*
X107358120Y-122894849D01*
X107248887Y-123444000D01*
X107358120Y-123993151D01*
X107669189Y-124458698D01*
X108134736Y-124769767D01*
X108683887Y-124879000D01*
X108740113Y-124879000D01*
X109289264Y-124769767D01*
X109754811Y-124458698D01*
X109759456Y-124451745D01*
X110423861Y-124451745D01*
X110497995Y-124697864D01*
X111035223Y-124890965D01*
X111605454Y-124863778D01*
X112006005Y-124697864D01*
X112080139Y-124451745D01*
X111252000Y-123623605D01*
X110423861Y-124451745D01*
X109759456Y-124451745D01*
X109971679Y-124134132D01*
X109998136Y-124198005D01*
X110244255Y-124272139D01*
X111072395Y-123444000D01*
X111431605Y-123444000D01*
X112259745Y-124272139D01*
X112505864Y-124198005D01*
X112698965Y-123660777D01*
X112671778Y-123090546D01*
X112505864Y-122689995D01*
X112259745Y-122615861D01*
X111431605Y-123444000D01*
X111072395Y-123444000D01*
X110244255Y-122615861D01*
X109998136Y-122689995D01*
X109973954Y-122757272D01*
X109759457Y-122436255D01*
X110423861Y-122436255D01*
X111252000Y-123264395D01*
X112080139Y-122436255D01*
X112006005Y-122190136D01*
X111468777Y-121997035D01*
X110898546Y-122024222D01*
X110497995Y-122190136D01*
X110423861Y-122436255D01*
X109759457Y-122436255D01*
X109754811Y-122429302D01*
X109497000Y-122257038D01*
X109497000Y-121737158D01*
X110053158Y-121181000D01*
X116050949Y-121181000D01*
X116005000Y-121412000D01*
X116005000Y-122312560D01*
X115340000Y-122312560D01*
X115104683Y-122356838D01*
X114888559Y-122495910D01*
X114743569Y-122708110D01*
X114692560Y-122960000D01*
X114692560Y-125960000D01*
X114736838Y-126195317D01*
X114875910Y-126411441D01*
X115088110Y-126556431D01*
X115340000Y-126607440D01*
X118340000Y-126607440D01*
X118575317Y-126563162D01*
X118791441Y-126424090D01*
X118936431Y-126211890D01*
X118984611Y-125973970D01*
X120585635Y-125973970D01*
X120745418Y-126292739D01*
X121536187Y-126602723D01*
X122385387Y-126586497D01*
X123094582Y-126292739D01*
X123254365Y-125973970D01*
X121920000Y-124639605D01*
X120585635Y-125973970D01*
X118984611Y-125973970D01*
X118987440Y-125960000D01*
X118987440Y-124076187D01*
X119777277Y-124076187D01*
X119793503Y-124925387D01*
X120087261Y-125634582D01*
X120406030Y-125794365D01*
X121740395Y-124460000D01*
X122099605Y-124460000D01*
X123433970Y-125794365D01*
X123752739Y-125634582D01*
X124062723Y-124843813D01*
X124046497Y-123994613D01*
X123817854Y-123442619D01*
X139764613Y-123442619D01*
X140104155Y-124264372D01*
X140732321Y-124893636D01*
X141553481Y-125234611D01*
X142442619Y-125235387D01*
X143264372Y-124895845D01*
X143893636Y-124267679D01*
X144234611Y-123446519D01*
X144235387Y-122557381D01*
X143895845Y-121735628D01*
X143267679Y-121106364D01*
X142446519Y-120765389D01*
X141557381Y-120764613D01*
X140735628Y-121104155D01*
X140106364Y-121732321D01*
X139765389Y-122553481D01*
X139764613Y-123442619D01*
X123817854Y-123442619D01*
X123752739Y-123285418D01*
X123433970Y-123125635D01*
X122099605Y-124460000D01*
X121740395Y-124460000D01*
X120406030Y-123125635D01*
X120087261Y-123285418D01*
X119777277Y-124076187D01*
X118987440Y-124076187D01*
X118987440Y-122960000D01*
X118984812Y-122946030D01*
X120585635Y-122946030D01*
X121920000Y-124280395D01*
X123254365Y-122946030D01*
X123094582Y-122627261D01*
X122303813Y-122317277D01*
X121454613Y-122333503D01*
X120745418Y-122627261D01*
X120585635Y-122946030D01*
X118984812Y-122946030D01*
X118943162Y-122724683D01*
X118804090Y-122508559D01*
X118591890Y-122363569D01*
X118340000Y-122312560D01*
X117675000Y-122312560D01*
X117675000Y-121757868D01*
X117735118Y-121697750D01*
X128353000Y-121697750D01*
X128353000Y-122288310D01*
X128449673Y-122521699D01*
X128628302Y-122700327D01*
X128861691Y-122797000D01*
X130302250Y-122797000D01*
X130461000Y-122638250D01*
X130461000Y-121539000D01*
X128511750Y-121539000D01*
X128353000Y-121697750D01*
X117735118Y-121697750D01*
X118897178Y-120535690D01*
X128353000Y-120535690D01*
X128353000Y-121126250D01*
X128511750Y-121285000D01*
X130461000Y-121285000D01*
X130461000Y-120185750D01*
X130302250Y-120027000D01*
X128861691Y-120027000D01*
X128628302Y-120123673D01*
X128449673Y-120302301D01*
X128353000Y-120535690D01*
X118897178Y-120535690D01*
X119897868Y-119535000D01*
X120092074Y-119535000D01*
X120096838Y-119560317D01*
X120235910Y-119776441D01*
X120448110Y-119921431D01*
X120700000Y-119972440D01*
X122200000Y-119972440D01*
X122435317Y-119928162D01*
X122651441Y-119789090D01*
X122697969Y-119720994D01*
X122840302Y-119863327D01*
X123073691Y-119960000D01*
X123664250Y-119960000D01*
X123823000Y-119801250D01*
X123823000Y-118827000D01*
X124077000Y-118827000D01*
X124077000Y-119801250D01*
X124235750Y-119960000D01*
X124826309Y-119960000D01*
X125059698Y-119863327D01*
X125238327Y-119684699D01*
X125335000Y-119451310D01*
X125335000Y-118985750D01*
X125176250Y-118827000D01*
X124077000Y-118827000D01*
X123823000Y-118827000D01*
X123803000Y-118827000D01*
X123803000Y-118573000D01*
X123823000Y-118573000D01*
X123823000Y-117598750D01*
X124077000Y-117598750D01*
X124077000Y-118573000D01*
X125176250Y-118573000D01*
X125335000Y-118414250D01*
X125335000Y-117948690D01*
X125238327Y-117715301D01*
X125059698Y-117536673D01*
X124826309Y-117440000D01*
X124235750Y-117440000D01*
X124077000Y-117598750D01*
X123823000Y-117598750D01*
X123664250Y-117440000D01*
X123073691Y-117440000D01*
X122840302Y-117536673D01*
X122699064Y-117677910D01*
X122664090Y-117623559D01*
X122451890Y-117478569D01*
X122200000Y-117427560D01*
X120700000Y-117427560D01*
X120464683Y-117471838D01*
X120248559Y-117610910D01*
X120103569Y-117823110D01*
X120095086Y-117865000D01*
X119973158Y-117865000D01*
X125293158Y-112545000D01*
X125736082Y-112545000D01*
X125191091Y-113089041D01*
X124865372Y-113873459D01*
X124864630Y-114722815D01*
X125188980Y-115507800D01*
X125789041Y-116108909D01*
X126573459Y-116434628D01*
X127422815Y-116435370D01*
X128207800Y-116111020D01*
X128808909Y-115510959D01*
X129134628Y-114726541D01*
X129134750Y-114585750D01*
X129327000Y-114585750D01*
X129327000Y-116326310D01*
X129423673Y-116559699D01*
X129602302Y-116738327D01*
X129835691Y-116835000D01*
X130676250Y-116835000D01*
X130835000Y-116676250D01*
X130835000Y-114427000D01*
X131089000Y-114427000D01*
X131089000Y-116676250D01*
X131247750Y-116835000D01*
X132088309Y-116835000D01*
X132321698Y-116738327D01*
X132500327Y-116559699D01*
X132597000Y-116326310D01*
X132597000Y-114585750D01*
X132438250Y-114427000D01*
X131089000Y-114427000D01*
X130835000Y-114427000D01*
X129485750Y-114427000D01*
X129327000Y-114585750D01*
X129134750Y-114585750D01*
X129135370Y-113877185D01*
X128811020Y-113092200D01*
X128210959Y-112491091D01*
X127687400Y-112273690D01*
X129327000Y-112273690D01*
X129327000Y-114014250D01*
X129485750Y-114173000D01*
X130835000Y-114173000D01*
X130835000Y-111923750D01*
X131089000Y-111923750D01*
X131089000Y-114173000D01*
X132438250Y-114173000D01*
X132597000Y-114014250D01*
X132597000Y-112273690D01*
X132500327Y-112040301D01*
X132321698Y-111861673D01*
X132088309Y-111765000D01*
X131247750Y-111765000D01*
X131089000Y-111923750D01*
X130835000Y-111923750D01*
X130676250Y-111765000D01*
X129835691Y-111765000D01*
X129602302Y-111861673D01*
X129423673Y-112040301D01*
X129327000Y-112273690D01*
X127687400Y-112273690D01*
X127426541Y-112165372D01*
X126689430Y-112164728D01*
X127552283Y-111301875D01*
X128207800Y-111031020D01*
X128808909Y-110430959D01*
X129134628Y-109646541D01*
X129135370Y-108797185D01*
X128811020Y-108012200D01*
X128210959Y-107411091D01*
X127426541Y-107085372D01*
X126577185Y-107084630D01*
X125792200Y-107408980D01*
X125191091Y-108009041D01*
X124865372Y-108793459D01*
X124864630Y-109642815D01*
X125188980Y-110427800D01*
X125697067Y-110936775D01*
X125658842Y-110975000D01*
X124968000Y-110975000D01*
X124667593Y-111034755D01*
X124412921Y-111204921D01*
X116006842Y-119611000D01*
X115249868Y-119611000D01*
X120986434Y-113874434D01*
X121010057Y-113839079D01*
X121167439Y-113603541D01*
X121231000Y-113284000D01*
X121231000Y-113103000D01*
X121920000Y-113103000D01*
X122239541Y-113039439D01*
X122510434Y-112858434D01*
X124034434Y-111334434D01*
X124048567Y-111313282D01*
X124215439Y-111063541D01*
X124279000Y-110744000D01*
X124279000Y-106965750D01*
X128985000Y-106965750D01*
X128985000Y-108056310D01*
X129081673Y-108289699D01*
X129260302Y-108468327D01*
X129493691Y-108565000D01*
X131209250Y-108565000D01*
X131368000Y-108406250D01*
X131368000Y-106807000D01*
X129143750Y-106807000D01*
X128985000Y-106965750D01*
X124279000Y-106965750D01*
X124279000Y-106009868D01*
X125116495Y-105172373D01*
X125188980Y-105347800D01*
X125789041Y-105948909D01*
X126573459Y-106274628D01*
X127422815Y-106275370D01*
X128207800Y-105951020D01*
X128808909Y-105350959D01*
X128828536Y-105303690D01*
X128985000Y-105303690D01*
X128985000Y-106394250D01*
X129143750Y-106553000D01*
X131368000Y-106553000D01*
X131368000Y-104953750D01*
X131209250Y-104795000D01*
X129493691Y-104795000D01*
X129260302Y-104891673D01*
X129081673Y-105070301D01*
X128985000Y-105303690D01*
X128828536Y-105303690D01*
X129134628Y-104566541D01*
X129135370Y-103717185D01*
X128811020Y-102932200D01*
X128210959Y-102331091D01*
X127426541Y-102005372D01*
X126577185Y-102004630D01*
X125792200Y-102328980D01*
X125191091Y-102929041D01*
X125034979Y-103305000D01*
X124968000Y-103305000D01*
X124648459Y-103368561D01*
X124504492Y-103464757D01*
X124377566Y-103549566D01*
X122853566Y-105073566D01*
X122672561Y-105344459D01*
X122609000Y-105664000D01*
X122609000Y-110398132D01*
X121693440Y-111313692D01*
X121693440Y-109820000D01*
X121649162Y-109584683D01*
X121510090Y-109368559D01*
X121297890Y-109223569D01*
X121284803Y-109220919D01*
X121497441Y-109084090D01*
X121642431Y-108871890D01*
X121693440Y-108620000D01*
X121693440Y-107120000D01*
X121649162Y-106884683D01*
X121510090Y-106668559D01*
X121297890Y-106523569D01*
X121181000Y-106499898D01*
X121181000Y-106263440D01*
X121246000Y-106263440D01*
X121481317Y-106219162D01*
X121697441Y-106080090D01*
X121842431Y-105867890D01*
X121893440Y-105616000D01*
X121893440Y-103616000D01*
X121849162Y-103380683D01*
X121710090Y-103164559D01*
X121497890Y-103019569D01*
X121246000Y-102968560D01*
X119546000Y-102968560D01*
X119310683Y-103012838D01*
X119094559Y-103151910D01*
X118949569Y-103364110D01*
X118898560Y-103616000D01*
X118898560Y-105616000D01*
X118942838Y-105851317D01*
X119081910Y-106067441D01*
X119294110Y-106212431D01*
X119546000Y-106263440D01*
X119611000Y-106263440D01*
X119611000Y-106497962D01*
X119510683Y-106516838D01*
X119294559Y-106655910D01*
X119149569Y-106868110D01*
X119098560Y-107120000D01*
X119098560Y-108620000D01*
X119142838Y-108855317D01*
X119281910Y-109071441D01*
X119494110Y-109216431D01*
X119507197Y-109219081D01*
X119294559Y-109355910D01*
X119149569Y-109568110D01*
X119098560Y-109820000D01*
X119098560Y-111320000D01*
X119142838Y-111555317D01*
X119281910Y-111771441D01*
X119494110Y-111916431D01*
X119561000Y-111929977D01*
X119561000Y-112938132D01*
X114208132Y-118291000D01*
X98135868Y-118291000D01*
X94815000Y-114970132D01*
X94815000Y-102901750D01*
X94825000Y-102901750D01*
X94825000Y-103492310D01*
X94921673Y-103725699D01*
X95100302Y-103904327D01*
X95333691Y-104001000D01*
X96774250Y-104001000D01*
X96933000Y-103842250D01*
X96933000Y-102743000D01*
X94983750Y-102743000D01*
X94825000Y-102901750D01*
X94815000Y-102901750D01*
X94815000Y-101739690D01*
X94825000Y-101739690D01*
X94825000Y-102330250D01*
X94983750Y-102489000D01*
X96933000Y-102489000D01*
X96933000Y-101389750D01*
X96774250Y-101231000D01*
X95333691Y-101231000D01*
X95100302Y-101327673D01*
X94921673Y-101506301D01*
X94825000Y-101739690D01*
X94815000Y-101739690D01*
X94815000Y-101437868D01*
X96399118Y-99853750D01*
X97949000Y-99853750D01*
X97949000Y-100319310D01*
X98045673Y-100552699D01*
X98224302Y-100731327D01*
X98457691Y-100828000D01*
X99048250Y-100828000D01*
X99207000Y-100669250D01*
X99207000Y-99695000D01*
X98107750Y-99695000D01*
X97949000Y-99853750D01*
X96399118Y-99853750D01*
X97436178Y-98816690D01*
X97949000Y-98816690D01*
X97949000Y-99282250D01*
X98107750Y-99441000D01*
X99207000Y-99441000D01*
X99207000Y-98466750D01*
X99048250Y-98308000D01*
X98457691Y-98308000D01*
X98224302Y-98404673D01*
X98045673Y-98583301D01*
X97949000Y-98816690D01*
X97436178Y-98816690D01*
X99817868Y-96435000D01*
X103305000Y-96435000D01*
X103305000Y-98733000D01*
X103191926Y-98733000D01*
X103187162Y-98707683D01*
X103048090Y-98491559D01*
X102835890Y-98346569D01*
X102584000Y-98295560D01*
X101084000Y-98295560D01*
X100848683Y-98339838D01*
X100632559Y-98478910D01*
X100586031Y-98547006D01*
X100443698Y-98404673D01*
X100210309Y-98308000D01*
X99619750Y-98308000D01*
X99461000Y-98466750D01*
X99461000Y-99441000D01*
X99481000Y-99441000D01*
X99481000Y-99695000D01*
X99461000Y-99695000D01*
X99461000Y-100669250D01*
X99619750Y-100828000D01*
X100210309Y-100828000D01*
X100443698Y-100731327D01*
X100584936Y-100590090D01*
X100619910Y-100644441D01*
X100832110Y-100789431D01*
X101084000Y-100840440D01*
X102584000Y-100840440D01*
X102819317Y-100796162D01*
X103035441Y-100657090D01*
X103180431Y-100444890D01*
X103188914Y-100403000D01*
X103305000Y-100403000D01*
X103305000Y-101781000D01*
X103291446Y-101781000D01*
X103263162Y-101630683D01*
X103124090Y-101414559D01*
X102911890Y-101269569D01*
X102660000Y-101218560D01*
X99460000Y-101218560D01*
X99224683Y-101262838D01*
X99060507Y-101368482D01*
X99019698Y-101327673D01*
X98786309Y-101231000D01*
X97345750Y-101231000D01*
X97187000Y-101389750D01*
X97187000Y-102489000D01*
X97207000Y-102489000D01*
X97207000Y-102743000D01*
X97187000Y-102743000D01*
X97187000Y-103842250D01*
X97345750Y-104001000D01*
X98786309Y-104001000D01*
X99019698Y-103904327D01*
X99061660Y-103862366D01*
X99208110Y-103962431D01*
X99460000Y-104013440D01*
X102660000Y-104013440D01*
X102895317Y-103969162D01*
X103111441Y-103830090D01*
X103256431Y-103617890D01*
X103290227Y-103451000D01*
X105287442Y-103451000D01*
X105600853Y-103920054D01*
X105642452Y-103947850D01*
X105594683Y-103956838D01*
X105378559Y-104095910D01*
X105233569Y-104308110D01*
X105182560Y-104560000D01*
X105182560Y-106260000D01*
X105226838Y-106495317D01*
X105365910Y-106711441D01*
X105578110Y-106856431D01*
X105830000Y-106907440D01*
X107530000Y-106907440D01*
X107765317Y-106863162D01*
X107981441Y-106724090D01*
X108126431Y-106511890D01*
X108177440Y-106260000D01*
X108177440Y-106195000D01*
X108992560Y-106195000D01*
X108992560Y-106260000D01*
X109036838Y-106495317D01*
X109175910Y-106711441D01*
X109388110Y-106856431D01*
X109640000Y-106907440D01*
X111340000Y-106907440D01*
X111575317Y-106863162D01*
X111791441Y-106724090D01*
X111936431Y-106511890D01*
X111987440Y-106260000D01*
X111987440Y-106195000D01*
X112802560Y-106195000D01*
X112802560Y-106260000D01*
X112846838Y-106495317D01*
X112985910Y-106711441D01*
X113198110Y-106856431D01*
X113450000Y-106907440D01*
X115150000Y-106907440D01*
X115385317Y-106863162D01*
X115601441Y-106724090D01*
X115746431Y-106511890D01*
X115797440Y-106260000D01*
X115797440Y-104560000D01*
X115753162Y-104324683D01*
X115614090Y-104108559D01*
X115401890Y-103963569D01*
X115334459Y-103949914D01*
X115379147Y-103920054D01*
X115556250Y-103655000D01*
X115752842Y-103655000D01*
X116563000Y-104465158D01*
X116563000Y-108966201D01*
X116080490Y-108965780D01*
X115613542Y-109158718D01*
X115320750Y-109451000D01*
X111252000Y-109451000D01*
X110951594Y-109510755D01*
X110696921Y-109680921D01*
X110696919Y-109680924D01*
X109172921Y-111204921D01*
X109002755Y-111459593D01*
X108988949Y-111529000D01*
X108943000Y-111760000D01*
X108943000Y-112019568D01*
X108780000Y-111986560D01*
X107280000Y-111986560D01*
X107044683Y-112030838D01*
X106828559Y-112169910D01*
X106683569Y-112382110D01*
X106680919Y-112395197D01*
X106544090Y-112182559D01*
X106331890Y-112037569D01*
X106080000Y-111986560D01*
X104580000Y-111986560D01*
X104344683Y-112030838D01*
X104128559Y-112169910D01*
X103983569Y-112382110D01*
X103959898Y-112499000D01*
X103632000Y-112499000D01*
X103331593Y-112558755D01*
X103076921Y-112728921D01*
X102060921Y-113744921D01*
X101890755Y-113999593D01*
X101858671Y-114160890D01*
X101831000Y-114300000D01*
X101831000Y-115039000D01*
X99054856Y-115039000D01*
X98764337Y-114747974D01*
X98297727Y-114554221D01*
X97792490Y-114553780D01*
X97325542Y-114746718D01*
X96967974Y-115103663D01*
X96774221Y-115570273D01*
X96773780Y-116075510D01*
X96966718Y-116542458D01*
X97323663Y-116900026D01*
X97790273Y-117093779D01*
X98295510Y-117094220D01*
X98762458Y-116901282D01*
X99055250Y-116609000D01*
X103957962Y-116609000D01*
X103976838Y-116709317D01*
X104115910Y-116925441D01*
X104328110Y-117070431D01*
X104580000Y-117121440D01*
X106080000Y-117121440D01*
X106315317Y-117077162D01*
X106531441Y-116938090D01*
X106676431Y-116725890D01*
X106683191Y-116692510D01*
X106741673Y-116833699D01*
X106920302Y-117012327D01*
X107153691Y-117109000D01*
X107744250Y-117109000D01*
X107903000Y-116950250D01*
X107903000Y-115951000D01*
X107883000Y-115951000D01*
X107883000Y-115697000D01*
X107903000Y-115697000D01*
X107903000Y-115677000D01*
X108157000Y-115677000D01*
X108157000Y-115697000D01*
X108177000Y-115697000D01*
X108177000Y-115951000D01*
X108157000Y-115951000D01*
X108157000Y-116950250D01*
X108315750Y-117109000D01*
X108906309Y-117109000D01*
X109139698Y-117012327D01*
X109318327Y-116833699D01*
X109415000Y-116600310D01*
X109415000Y-116113158D01*
X109680919Y-116379076D01*
X109680921Y-116379079D01*
X109935594Y-116549245D01*
X110155659Y-116593019D01*
X110172838Y-116684317D01*
X110311910Y-116900441D01*
X110524110Y-117045431D01*
X110776000Y-117096440D01*
X112276000Y-117096440D01*
X112511317Y-117052162D01*
X112727441Y-116913090D01*
X112773969Y-116844994D01*
X112916302Y-116987327D01*
X113149691Y-117084000D01*
X113740250Y-117084000D01*
X113899000Y-116925250D01*
X113899000Y-115951000D01*
X114153000Y-115951000D01*
X114153000Y-116925250D01*
X114311750Y-117084000D01*
X114902309Y-117084000D01*
X115135698Y-116987327D01*
X115314327Y-116808699D01*
X115411000Y-116575310D01*
X115411000Y-116109750D01*
X115252250Y-115951000D01*
X114153000Y-115951000D01*
X113899000Y-115951000D01*
X113879000Y-115951000D01*
X113879000Y-115697000D01*
X113899000Y-115697000D01*
X113899000Y-114722750D01*
X114153000Y-114722750D01*
X114153000Y-115697000D01*
X115252250Y-115697000D01*
X115411000Y-115538250D01*
X115411000Y-115072690D01*
X115314327Y-114839301D01*
X115135698Y-114660673D01*
X114902309Y-114564000D01*
X114311750Y-114564000D01*
X114153000Y-114722750D01*
X113899000Y-114722750D01*
X113740250Y-114564000D01*
X113149691Y-114564000D01*
X112916302Y-114660673D01*
X112775064Y-114801910D01*
X112740090Y-114747559D01*
X112527890Y-114602569D01*
X112288491Y-114554090D01*
X112511317Y-114512162D01*
X112727441Y-114373090D01*
X112775134Y-114303289D01*
X112811910Y-114360441D01*
X113024110Y-114505431D01*
X113276000Y-114556440D01*
X114776000Y-114556440D01*
X115011317Y-114512162D01*
X115227441Y-114373090D01*
X115372431Y-114160890D01*
X115391039Y-114069000D01*
X115824000Y-114069000D01*
X116124407Y-114009245D01*
X116379079Y-113839079D01*
X117903076Y-112315081D01*
X117903079Y-112315079D01*
X118073245Y-112060406D01*
X118133000Y-111760000D01*
X118133000Y-104140000D01*
X118117270Y-104060921D01*
X118073245Y-103839593D01*
X117903079Y-103584921D01*
X116633079Y-102314921D01*
X116378407Y-102144755D01*
X116078000Y-102085000D01*
X115556250Y-102085000D01*
X115379147Y-101819946D01*
X114897378Y-101498039D01*
X114329093Y-101385000D01*
X114270907Y-101385000D01*
X113702622Y-101498039D01*
X113220853Y-101819946D01*
X113053000Y-102071156D01*
X113053000Y-100909158D01*
X113609158Y-100353000D01*
X116840000Y-100353000D01*
X117140407Y-100293245D01*
X117395079Y-100123079D01*
X118411079Y-99107079D01*
X118581245Y-98852407D01*
X118641000Y-98552000D01*
X118641000Y-98415158D01*
X119266872Y-99041030D01*
X119094559Y-99151910D01*
X118949569Y-99364110D01*
X118898560Y-99616000D01*
X118898560Y-101616000D01*
X118942838Y-101851317D01*
X119081910Y-102067441D01*
X119294110Y-102212431D01*
X119546000Y-102263440D01*
X121246000Y-102263440D01*
X121481317Y-102219162D01*
X121697441Y-102080090D01*
X121842431Y-101867890D01*
X121893440Y-101616000D01*
X121893440Y-99616000D01*
X121849162Y-99380683D01*
X121710090Y-99164559D01*
X121497890Y-99019569D01*
X121246000Y-98968560D01*
X121162811Y-98968560D01*
X121121245Y-98759594D01*
X120951079Y-98504921D01*
X117379908Y-94933750D01*
X119469000Y-94933750D01*
X119469000Y-96524309D01*
X119565673Y-96757698D01*
X119744301Y-96936327D01*
X119977690Y-97033000D01*
X120618250Y-97033000D01*
X120777000Y-96874250D01*
X120777000Y-94775000D01*
X121031000Y-94775000D01*
X121031000Y-96874250D01*
X121189750Y-97033000D01*
X121830310Y-97033000D01*
X122063699Y-96936327D01*
X122242327Y-96757698D01*
X122339000Y-96524309D01*
X122339000Y-94933750D01*
X122180250Y-94775000D01*
X121031000Y-94775000D01*
X120777000Y-94775000D01*
X119627750Y-94775000D01*
X119469000Y-94933750D01*
X117379908Y-94933750D01*
X116841079Y-94394921D01*
X116586407Y-94224755D01*
X116286000Y-94165000D01*
X115066440Y-94165000D01*
X115066440Y-94085000D01*
X115051726Y-94006801D01*
X115054000Y-94001310D01*
X115054000Y-93921250D01*
X115031370Y-93898620D01*
X115022162Y-93849683D01*
X115019149Y-93845000D01*
X117064000Y-93845000D01*
X117383541Y-93781439D01*
X117654434Y-93600434D01*
X118483177Y-92771691D01*
X119469000Y-92771691D01*
X119469000Y-94362250D01*
X119627750Y-94521000D01*
X120777000Y-94521000D01*
X120777000Y-92421750D01*
X121031000Y-92421750D01*
X121031000Y-94521000D01*
X122180250Y-94521000D01*
X122339000Y-94362250D01*
X122339000Y-92771691D01*
X122242327Y-92538302D01*
X122063699Y-92359673D01*
X121830310Y-92263000D01*
X121189750Y-92263000D01*
X121031000Y-92421750D01*
X120777000Y-92421750D01*
X120618250Y-92263000D01*
X119977690Y-92263000D01*
X119744301Y-92359673D01*
X119565673Y-92538302D01*
X119469000Y-92771691D01*
X118483177Y-92771691D01*
X118954434Y-92300434D01*
X119135440Y-92029540D01*
X119199000Y-91710000D01*
X119199000Y-76427440D01*
X120230000Y-76427440D01*
X120465317Y-76383162D01*
X120681441Y-76244090D01*
X120826431Y-76031890D01*
X120840086Y-75964459D01*
X120869946Y-76009147D01*
X121085000Y-76152841D01*
X121085000Y-78902132D01*
X120313566Y-79673566D01*
X120132561Y-79944459D01*
X120069000Y-80264000D01*
X120069000Y-86857146D01*
X119868683Y-86894838D01*
X119652559Y-87033910D01*
X119507569Y-87246110D01*
X119456560Y-87498000D01*
X119456560Y-90998000D01*
X119500838Y-91233317D01*
X119639910Y-91449441D01*
X119852110Y-91594431D01*
X120104000Y-91645440D01*
X121704000Y-91645440D01*
X121939317Y-91601162D01*
X122155441Y-91462090D01*
X122300431Y-91249890D01*
X122351440Y-90998000D01*
X122351440Y-87498000D01*
X122307162Y-87262683D01*
X122168090Y-87046559D01*
X121955890Y-86901569D01*
X121739000Y-86857648D01*
X121739000Y-85671000D01*
X122590132Y-85671000D01*
X124641000Y-87721868D01*
X124641000Y-92456000D01*
X124704561Y-92775541D01*
X124861222Y-93010000D01*
X124885566Y-93046434D01*
X125901566Y-94062434D01*
X126172459Y-94243439D01*
X126492000Y-94307000D01*
X126575000Y-94307000D01*
X126575000Y-96930000D01*
X126638561Y-97249541D01*
X126717984Y-97368406D01*
X126819566Y-97520434D01*
X133785000Y-104485868D01*
X133785000Y-104946975D01*
X133729698Y-104891673D01*
X133496309Y-104795000D01*
X131780750Y-104795000D01*
X131622000Y-104953750D01*
X131622000Y-106553000D01*
X131642000Y-106553000D01*
X131642000Y-106807000D01*
X131622000Y-106807000D01*
X131622000Y-108406250D01*
X131780750Y-108565000D01*
X133496309Y-108565000D01*
X133729698Y-108468327D01*
X133785000Y-108413025D01*
X133785000Y-117856000D01*
X133848561Y-118175541D01*
X133985483Y-118380459D01*
X134029566Y-118446434D01*
X135553566Y-119970434D01*
X135619605Y-120014560D01*
X132988000Y-120014560D01*
X132752683Y-120058838D01*
X132588507Y-120164482D01*
X132547698Y-120123673D01*
X132314309Y-120027000D01*
X130873750Y-120027000D01*
X130715000Y-120185750D01*
X130715000Y-121285000D01*
X130735000Y-121285000D01*
X130735000Y-121539000D01*
X130715000Y-121539000D01*
X130715000Y-122638250D01*
X130873750Y-122797000D01*
X132314309Y-122797000D01*
X132547698Y-122700327D01*
X132589660Y-122658366D01*
X132736110Y-122758431D01*
X132988000Y-122809440D01*
X136188000Y-122809440D01*
X136423317Y-122765162D01*
X136639441Y-122626090D01*
X136784431Y-122413890D01*
X136818227Y-122247000D01*
X137160000Y-122247000D01*
X137479541Y-122183439D01*
X137750434Y-122002434D01*
X138258434Y-121494435D01*
X138398373Y-121285000D01*
X138439439Y-121223541D01*
X138503000Y-120904000D01*
X138503000Y-120215000D01*
X138684000Y-120215000D01*
X139003541Y-120151439D01*
X139274434Y-119970434D01*
X139782434Y-119462435D01*
X139872937Y-119326987D01*
X139963439Y-119191541D01*
X140027000Y-118872000D01*
X140027000Y-117348000D01*
X139995658Y-117190434D01*
X139963440Y-117028460D01*
X139782434Y-116757566D01*
X139034434Y-116009566D01*
X138985531Y-115976890D01*
X143558524Y-115976890D01*
X143728355Y-116386924D01*
X144118642Y-116815183D01*
X144643108Y-117061486D01*
X144873000Y-116940819D01*
X144873000Y-115747000D01*
X143679845Y-115747000D01*
X143558524Y-115976890D01*
X138985531Y-115976890D01*
X138909440Y-115926048D01*
X138909440Y-115850000D01*
X138865162Y-115614683D01*
X138759518Y-115450508D01*
X138800327Y-115409699D01*
X138897000Y-115176310D01*
X138897000Y-114585750D01*
X138738250Y-114427000D01*
X137389000Y-114427000D01*
X137389000Y-114447000D01*
X137135000Y-114447000D01*
X137135000Y-114427000D01*
X135785750Y-114427000D01*
X135627000Y-114585750D01*
X135627000Y-115176310D01*
X135723673Y-115409699D01*
X135765634Y-115451660D01*
X135665569Y-115598110D01*
X135614560Y-115850000D01*
X135614560Y-117350000D01*
X135658838Y-117585317D01*
X135797910Y-117801441D01*
X136010110Y-117946431D01*
X136262000Y-117997440D01*
X138262000Y-117997440D01*
X138357000Y-117979564D01*
X138357000Y-118526131D01*
X138338132Y-118545000D01*
X136489868Y-118545000D01*
X135455000Y-117510132D01*
X135455000Y-108414983D01*
X135618110Y-108526431D01*
X135870000Y-108577440D01*
X139620000Y-108577440D01*
X139855317Y-108533162D01*
X140071441Y-108394090D01*
X140216431Y-108181890D01*
X140267440Y-107930000D01*
X140267440Y-107849598D01*
X140947000Y-108529157D01*
X140947000Y-111215000D01*
X138902854Y-111215000D01*
X138865162Y-111014683D01*
X138726090Y-110798559D01*
X138513890Y-110653569D01*
X138262000Y-110602560D01*
X136262000Y-110602560D01*
X136026683Y-110646838D01*
X135810559Y-110785910D01*
X135665569Y-110998110D01*
X135614560Y-111250000D01*
X135614560Y-112750000D01*
X135658838Y-112985317D01*
X135764482Y-113149492D01*
X135723673Y-113190301D01*
X135627000Y-113423690D01*
X135627000Y-114014250D01*
X135785750Y-114173000D01*
X137135000Y-114173000D01*
X137135000Y-114153000D01*
X137389000Y-114153000D01*
X137389000Y-114173000D01*
X138738250Y-114173000D01*
X138897000Y-114014250D01*
X138897000Y-113423690D01*
X138800327Y-113190301D01*
X138758366Y-113148340D01*
X138858431Y-113001890D01*
X138902352Y-112785000D01*
X140948790Y-112785000D01*
X141006755Y-113076407D01*
X141176921Y-113331079D01*
X141480921Y-113635079D01*
X141735594Y-113805245D01*
X142036000Y-113865000D01*
X143743750Y-113865000D01*
X143920853Y-114130054D01*
X144261553Y-114357702D01*
X144118642Y-114424817D01*
X143728355Y-114853076D01*
X143558524Y-115263110D01*
X143679845Y-115493000D01*
X144873000Y-115493000D01*
X144873000Y-115473000D01*
X145127000Y-115473000D01*
X145127000Y-115493000D01*
X145147000Y-115493000D01*
X145147000Y-115747000D01*
X145127000Y-115747000D01*
X145127000Y-116940819D01*
X145356892Y-117061486D01*
X145881358Y-116815183D01*
X146271645Y-116386924D01*
X146290000Y-116342608D01*
X146290000Y-127290000D01*
X90710000Y-127290000D01*
X90710000Y-123442619D01*
X92764613Y-123442619D01*
X93104155Y-124264372D01*
X93732321Y-124893636D01*
X94553481Y-125234611D01*
X95442619Y-125235387D01*
X96264372Y-124895845D01*
X96893636Y-124267679D01*
X97234611Y-123446519D01*
X97235387Y-122557381D01*
X96895845Y-121735628D01*
X96267679Y-121106364D01*
X95446519Y-120765389D01*
X94557381Y-120764613D01*
X93735628Y-121104155D01*
X93106364Y-121732321D01*
X92765389Y-122553481D01*
X92764613Y-123442619D01*
X90710000Y-123442619D01*
X90710000Y-88805750D01*
X94945000Y-88805750D01*
X94945000Y-90396310D01*
X95041673Y-90629699D01*
X95220302Y-90808327D01*
X95453691Y-90905000D01*
X97044250Y-90905000D01*
X97203000Y-90746250D01*
X97203000Y-88647000D01*
X95103750Y-88647000D01*
X94945000Y-88805750D01*
X90710000Y-88805750D01*
X90710000Y-84105750D01*
X91945000Y-84105750D01*
X91945000Y-85696310D01*
X92041673Y-85929699D01*
X92220302Y-86108327D01*
X92453691Y-86205000D01*
X94044250Y-86205000D01*
X94203000Y-86046250D01*
X94203000Y-83947000D01*
X94457000Y-83947000D01*
X94457000Y-86046250D01*
X94615750Y-86205000D01*
X95284696Y-86205000D01*
X95220302Y-86231673D01*
X95041673Y-86410301D01*
X94945000Y-86643690D01*
X94945000Y-88234250D01*
X95103750Y-88393000D01*
X97203000Y-88393000D01*
X97203000Y-86293750D01*
X97044250Y-86135000D01*
X96375304Y-86135000D01*
X96439698Y-86108327D01*
X96618327Y-85929699D01*
X96715000Y-85696310D01*
X96715000Y-84105750D01*
X96556250Y-83947000D01*
X94457000Y-83947000D01*
X94203000Y-83947000D01*
X92103750Y-83947000D01*
X91945000Y-84105750D01*
X90710000Y-84105750D01*
X90710000Y-81943690D01*
X91945000Y-81943690D01*
X91945000Y-83534250D01*
X92103750Y-83693000D01*
X94203000Y-83693000D01*
X94203000Y-81593750D01*
X94457000Y-81593750D01*
X94457000Y-83693000D01*
X96556250Y-83693000D01*
X96715000Y-83534250D01*
X96715000Y-81943690D01*
X96618327Y-81710301D01*
X96439698Y-81531673D01*
X96206309Y-81435000D01*
X94615750Y-81435000D01*
X94457000Y-81593750D01*
X94203000Y-81593750D01*
X94044250Y-81435000D01*
X92453691Y-81435000D01*
X92220302Y-81531673D01*
X92041673Y-81710301D01*
X91945000Y-81943690D01*
X90710000Y-81943690D01*
X90710000Y-75442619D01*
X92764613Y-75442619D01*
X93104155Y-76264372D01*
X93732321Y-76893636D01*
X94553481Y-77234611D01*
X95442619Y-77235387D01*
X96264372Y-76895845D01*
X96893636Y-76267679D01*
X97234611Y-75446519D01*
X97235387Y-74557381D01*
X96895845Y-73735628D01*
X96267679Y-73106364D01*
X96201035Y-73078691D01*
X124775000Y-73078691D01*
X124775000Y-77881309D01*
X124784813Y-77905000D01*
X124775000Y-77928691D01*
X124775000Y-82731309D01*
X124871673Y-82964698D01*
X125050301Y-83143327D01*
X125283690Y-83240000D01*
X130786310Y-83240000D01*
X130810000Y-83230187D01*
X130833690Y-83240000D01*
X136336310Y-83240000D01*
X136569699Y-83143327D01*
X136748327Y-82964698D01*
X136845000Y-82731309D01*
X136845000Y-82675750D01*
X139535000Y-82675750D01*
X139535000Y-84266309D01*
X139631673Y-84499698D01*
X139810301Y-84678327D01*
X140043690Y-84775000D01*
X140684250Y-84775000D01*
X140843000Y-84616250D01*
X140843000Y-82517000D01*
X141097000Y-82517000D01*
X141097000Y-84616250D01*
X141255750Y-84775000D01*
X141896310Y-84775000D01*
X142129699Y-84678327D01*
X142308327Y-84499698D01*
X142405000Y-84266309D01*
X142405000Y-82675750D01*
X142246250Y-82517000D01*
X141097000Y-82517000D01*
X140843000Y-82517000D01*
X139693750Y-82517000D01*
X139535000Y-82675750D01*
X136845000Y-82675750D01*
X136845000Y-80513691D01*
X139535000Y-80513691D01*
X139535000Y-82104250D01*
X139693750Y-82263000D01*
X140843000Y-82263000D01*
X140843000Y-80163750D01*
X141097000Y-80163750D01*
X141097000Y-82263000D01*
X142246250Y-82263000D01*
X142405000Y-82104250D01*
X142405000Y-80513691D01*
X142308327Y-80280302D01*
X142129699Y-80101673D01*
X141896310Y-80005000D01*
X141255750Y-80005000D01*
X141097000Y-80163750D01*
X140843000Y-80163750D01*
X140684250Y-80005000D01*
X140043690Y-80005000D01*
X139810301Y-80101673D01*
X139631673Y-80280302D01*
X139535000Y-80513691D01*
X136845000Y-80513691D01*
X136845000Y-77928691D01*
X136835187Y-77905000D01*
X136845000Y-77881309D01*
X136845000Y-75442619D01*
X139764613Y-75442619D01*
X140104155Y-76264372D01*
X140732321Y-76893636D01*
X141553481Y-77234611D01*
X142442619Y-77235387D01*
X143264372Y-76895845D01*
X143893636Y-76267679D01*
X144234611Y-75446519D01*
X144235387Y-74557381D01*
X143895845Y-73735628D01*
X143267679Y-73106364D01*
X142446519Y-72765389D01*
X141557381Y-72764613D01*
X140735628Y-73104155D01*
X140106364Y-73732321D01*
X139765389Y-74553481D01*
X139764613Y-75442619D01*
X136845000Y-75442619D01*
X136845000Y-73078691D01*
X136748327Y-72845302D01*
X136569699Y-72666673D01*
X136336310Y-72570000D01*
X130833690Y-72570000D01*
X130810000Y-72579813D01*
X130786310Y-72570000D01*
X125283690Y-72570000D01*
X125050301Y-72666673D01*
X124871673Y-72845302D01*
X124775000Y-73078691D01*
X96201035Y-73078691D01*
X95446519Y-72765389D01*
X94557381Y-72764613D01*
X93735628Y-73104155D01*
X93106364Y-73732321D01*
X92765389Y-74553481D01*
X92764613Y-75442619D01*
X90710000Y-75442619D01*
X90710000Y-70710000D01*
X146290000Y-70710000D01*
X146290000Y-106682099D01*
X146290000Y-106682099D01*
G37*
X146290000Y-106682099D02*
X146101890Y-106553569D01*
X145850000Y-106502560D01*
X144150000Y-106502560D01*
X143914683Y-106546838D01*
X143698559Y-106685910D01*
X143553569Y-106898110D01*
X143502560Y-107150000D01*
X143502560Y-108850000D01*
X143546838Y-109085317D01*
X143685910Y-109301441D01*
X143898110Y-109446431D01*
X144006107Y-109468301D01*
X143728355Y-109773076D01*
X143558524Y-110183110D01*
X143679845Y-110413000D01*
X144873000Y-110413000D01*
X144873000Y-110393000D01*
X145127000Y-110393000D01*
X145127000Y-110413000D01*
X145147000Y-110413000D01*
X145147000Y-110667000D01*
X145127000Y-110667000D01*
X145127000Y-110687000D01*
X144873000Y-110687000D01*
X144873000Y-110667000D01*
X143679845Y-110667000D01*
X143558524Y-110896890D01*
X143728355Y-111306924D01*
X144118642Y-111735183D01*
X144261553Y-111802298D01*
X143920853Y-112029946D01*
X143743750Y-112295000D01*
X142517000Y-112295000D01*
X142517000Y-108204000D01*
X142457245Y-107903594D01*
X142287079Y-107648921D01*
X142287076Y-107648919D01*
X140763079Y-106124921D01*
X140508407Y-105954755D01*
X140267440Y-105906823D01*
X140267440Y-105430000D01*
X140223162Y-105194683D01*
X140084090Y-104978559D01*
X139871890Y-104833569D01*
X139620000Y-104782560D01*
X135870000Y-104782560D01*
X135634683Y-104826838D01*
X135455000Y-104942461D01*
X135455000Y-104140000D01*
X135419906Y-103963569D01*
X135391440Y-103820460D01*
X135210434Y-103549566D01*
X134005529Y-102344661D01*
X140334758Y-102344661D01*
X140546990Y-102858303D01*
X140939630Y-103251629D01*
X141452900Y-103464757D01*
X142008661Y-103465242D01*
X142522303Y-103253010D01*
X142915629Y-102860370D01*
X143128757Y-102347100D01*
X143129242Y-101791339D01*
X142917010Y-101277697D01*
X142524370Y-100884371D01*
X142011100Y-100671243D01*
X141455339Y-100670758D01*
X140941697Y-100882990D01*
X140548371Y-101275630D01*
X140335243Y-101788900D01*
X140334758Y-102344661D01*
X134005529Y-102344661D01*
X128245000Y-96584132D01*
X128245000Y-95179952D01*
X128440000Y-95219440D01*
X130640000Y-95219440D01*
X130875317Y-95175162D01*
X131091441Y-95036090D01*
X131236431Y-94823890D01*
X131287440Y-94572000D01*
X131287440Y-92372000D01*
X131243162Y-92136683D01*
X131104090Y-91920559D01*
X130891890Y-91775569D01*
X130640000Y-91724560D01*
X129895000Y-91724560D01*
X129895000Y-89958222D01*
X129895317Y-89958162D01*
X129958567Y-89917462D01*
X130133690Y-89990000D01*
X130524250Y-89990000D01*
X130683000Y-89831250D01*
X130683000Y-87182000D01*
X130663000Y-87182000D01*
X130663000Y-86928000D01*
X130683000Y-86928000D01*
X130683000Y-84278750D01*
X130937000Y-84278750D01*
X130937000Y-86928000D01*
X130957000Y-86928000D01*
X130957000Y-87182000D01*
X130937000Y-87182000D01*
X130937000Y-89831250D01*
X131095750Y-89990000D01*
X131486310Y-89990000D01*
X131659541Y-89918245D01*
X131708110Y-89951431D01*
X131725000Y-89954851D01*
X131725000Y-92886000D01*
X131784755Y-93186407D01*
X131954921Y-93441079D01*
X136136921Y-97623079D01*
X136391593Y-97793245D01*
X136692000Y-97853000D01*
X140544799Y-97853000D01*
X140546990Y-97858303D01*
X140939630Y-98251629D01*
X141452900Y-98464757D01*
X142008661Y-98465242D01*
X142522303Y-98253010D01*
X142915629Y-97860370D01*
X143128757Y-97347100D01*
X143129242Y-96791339D01*
X142917010Y-96277697D01*
X142524370Y-95884371D01*
X142517000Y-95881311D01*
X142517000Y-91440000D01*
X142457245Y-91139594D01*
X142287079Y-90884921D01*
X141755000Y-90352842D01*
X141755000Y-90187440D01*
X141770000Y-90187440D01*
X142005317Y-90143162D01*
X142221441Y-90004090D01*
X142366431Y-89791890D01*
X142417440Y-89540000D01*
X142417440Y-86040000D01*
X142373162Y-85804683D01*
X142234090Y-85588559D01*
X142021890Y-85443569D01*
X141770000Y-85392560D01*
X140170000Y-85392560D01*
X139934683Y-85436838D01*
X139718559Y-85575910D01*
X139573569Y-85788110D01*
X139522560Y-86040000D01*
X139522560Y-89540000D01*
X139566838Y-89775317D01*
X139705910Y-89991441D01*
X139918110Y-90136431D01*
X140170000Y-90187440D01*
X140185000Y-90187440D01*
X140185000Y-90678000D01*
X140244755Y-90978407D01*
X140414921Y-91233079D01*
X140947000Y-91765158D01*
X140947000Y-95880799D01*
X140941697Y-95882990D01*
X140548371Y-96275630D01*
X140545311Y-96283000D01*
X137017158Y-96283000D01*
X134602280Y-93868122D01*
X135470825Y-93868122D01*
X135685466Y-94386332D01*
X136147608Y-94881012D01*
X136763877Y-95161183D01*
X137033000Y-95043604D01*
X137033000Y-93599000D01*
X137287000Y-93599000D01*
X137287000Y-95043604D01*
X137556123Y-95161183D01*
X138172392Y-94881012D01*
X138634534Y-94386332D01*
X138849175Y-93868122D01*
X138731125Y-93599000D01*
X137287000Y-93599000D01*
X137033000Y-93599000D01*
X135588875Y-93599000D01*
X135470825Y-93868122D01*
X134602280Y-93868122D01*
X133810036Y-93075878D01*
X135470825Y-93075878D01*
X135588875Y-93345000D01*
X137033000Y-93345000D01*
X137033000Y-91900396D01*
X137287000Y-91900396D01*
X137287000Y-93345000D01*
X138731125Y-93345000D01*
X138849175Y-93075878D01*
X138634534Y-92557668D01*
X138172392Y-92062988D01*
X137556123Y-91782817D01*
X137287000Y-91900396D01*
X137033000Y-91900396D01*
X136763877Y-91782817D01*
X136147608Y-92062988D01*
X135685466Y-92557668D01*
X135470825Y-93075878D01*
X133810036Y-93075878D01*
X133295000Y-92560842D01*
X133295000Y-89958222D01*
X133295317Y-89958162D01*
X133358567Y-89917462D01*
X133533690Y-89990000D01*
X133924250Y-89990000D01*
X134083000Y-89831250D01*
X134083000Y-87182000D01*
X134337000Y-87182000D01*
X134337000Y-89831250D01*
X134495750Y-89990000D01*
X134886310Y-89990000D01*
X135119699Y-89893327D01*
X135298327Y-89714698D01*
X135395000Y-89481309D01*
X135395000Y-87340750D01*
X135236250Y-87182000D01*
X134337000Y-87182000D01*
X134083000Y-87182000D01*
X134063000Y-87182000D01*
X134063000Y-86928000D01*
X134083000Y-86928000D01*
X134083000Y-84278750D01*
X134337000Y-84278750D01*
X134337000Y-86928000D01*
X135236250Y-86928000D01*
X135395000Y-86769250D01*
X135395000Y-84628691D01*
X135298327Y-84395302D01*
X135119699Y-84216673D01*
X134886310Y-84120000D01*
X134495750Y-84120000D01*
X134337000Y-84278750D01*
X134083000Y-84278750D01*
X133924250Y-84120000D01*
X133533690Y-84120000D01*
X133360459Y-84191755D01*
X133311890Y-84158569D01*
X133060000Y-84107560D01*
X131960000Y-84107560D01*
X131724683Y-84151838D01*
X131661433Y-84192538D01*
X131486310Y-84120000D01*
X131095750Y-84120000D01*
X130937000Y-84278750D01*
X130683000Y-84278750D01*
X130524250Y-84120000D01*
X130133690Y-84120000D01*
X129960459Y-84191755D01*
X129911890Y-84158569D01*
X129660000Y-84107560D01*
X128560000Y-84107560D01*
X128324683Y-84151838D01*
X128261522Y-84192481D01*
X128211890Y-84158569D01*
X127960000Y-84107560D01*
X126860000Y-84107560D01*
X126624683Y-84151838D01*
X126408559Y-84290910D01*
X126263569Y-84503110D01*
X126212560Y-84755000D01*
X126212560Y-87004259D01*
X126066434Y-86785566D01*
X123526434Y-84245566D01*
X123255541Y-84064561D01*
X122936000Y-84001000D01*
X121739000Y-84001000D01*
X121739000Y-80609868D01*
X122510434Y-79838434D01*
X122620595Y-79673566D01*
X122691439Y-79567541D01*
X122755000Y-79248000D01*
X122755000Y-76152841D01*
X122970054Y-76009147D01*
X123291961Y-75527378D01*
X123405000Y-74959093D01*
X123405000Y-74900907D01*
X123291961Y-74332622D01*
X122970054Y-73850853D01*
X122488285Y-73528946D01*
X121920000Y-73415907D01*
X121351715Y-73528946D01*
X120869946Y-73850853D01*
X120842150Y-73892452D01*
X120833162Y-73844683D01*
X120694090Y-73628559D01*
X120481890Y-73483569D01*
X120230000Y-73432560D01*
X118530000Y-73432560D01*
X118294683Y-73476838D01*
X118078559Y-73615910D01*
X117933569Y-73828110D01*
X117882560Y-74080000D01*
X117882560Y-75246572D01*
X117773566Y-75355566D01*
X117592561Y-75626459D01*
X117529000Y-75946000D01*
X117529000Y-84344132D01*
X116414434Y-83229566D01*
X116285368Y-83143327D01*
X116143541Y-83048561D01*
X115824000Y-82985000D01*
X102727440Y-82985000D01*
X102727440Y-82070000D01*
X102683162Y-81834683D01*
X102544090Y-81618559D01*
X102331890Y-81473569D01*
X102080000Y-81422560D01*
X98580000Y-81422560D01*
X98344683Y-81466838D01*
X98128559Y-81605910D01*
X97983569Y-81818110D01*
X97932560Y-82070000D01*
X97932560Y-85570000D01*
X97976838Y-85805317D01*
X98115910Y-86021441D01*
X98282109Y-86135000D01*
X97615750Y-86135000D01*
X97457000Y-86293750D01*
X97457000Y-88393000D01*
X97477000Y-88393000D01*
X97477000Y-88647000D01*
X97457000Y-88647000D01*
X97457000Y-90746250D01*
X97615750Y-90905000D01*
X99206309Y-90905000D01*
X99291000Y-90869920D01*
X99291000Y-92964000D01*
X99350755Y-93264407D01*
X99520921Y-93519079D01*
X100166843Y-94165000D01*
X99008936Y-94165000D01*
X98764337Y-93919974D01*
X98297727Y-93726221D01*
X97792490Y-93725780D01*
X97325542Y-93918718D01*
X96967974Y-94275663D01*
X96774221Y-94742273D01*
X96773780Y-95247510D01*
X96966718Y-95714458D01*
X97323663Y-96072026D01*
X97673741Y-96217391D01*
X93389566Y-100501566D01*
X93208561Y-100772459D01*
X93145000Y-101092000D01*
X93145000Y-115316000D01*
X93208561Y-115635541D01*
X93337533Y-115828561D01*
X93389566Y-115906434D01*
X97199566Y-119716434D01*
X97470460Y-119897440D01*
X97790000Y-119961000D01*
X109052842Y-119961000D01*
X108156921Y-120856921D01*
X107986755Y-121111593D01*
X107986755Y-121111594D01*
X107927000Y-121412000D01*
X107927000Y-122257038D01*
X107669189Y-122429302D01*
X107358120Y-122894849D01*
X107248887Y-123444000D01*
X107358120Y-123993151D01*
X107669189Y-124458698D01*
X108134736Y-124769767D01*
X108683887Y-124879000D01*
X108740113Y-124879000D01*
X109289264Y-124769767D01*
X109754811Y-124458698D01*
X109759456Y-124451745D01*
X110423861Y-124451745D01*
X110497995Y-124697864D01*
X111035223Y-124890965D01*
X111605454Y-124863778D01*
X112006005Y-124697864D01*
X112080139Y-124451745D01*
X111252000Y-123623605D01*
X110423861Y-124451745D01*
X109759456Y-124451745D01*
X109971679Y-124134132D01*
X109998136Y-124198005D01*
X110244255Y-124272139D01*
X111072395Y-123444000D01*
X111431605Y-123444000D01*
X112259745Y-124272139D01*
X112505864Y-124198005D01*
X112698965Y-123660777D01*
X112671778Y-123090546D01*
X112505864Y-122689995D01*
X112259745Y-122615861D01*
X111431605Y-123444000D01*
X111072395Y-123444000D01*
X110244255Y-122615861D01*
X109998136Y-122689995D01*
X109973954Y-122757272D01*
X109759457Y-122436255D01*
X110423861Y-122436255D01*
X111252000Y-123264395D01*
X112080139Y-122436255D01*
X112006005Y-122190136D01*
X111468777Y-121997035D01*
X110898546Y-122024222D01*
X110497995Y-122190136D01*
X110423861Y-122436255D01*
X109759457Y-122436255D01*
X109754811Y-122429302D01*
X109497000Y-122257038D01*
X109497000Y-121737158D01*
X110053158Y-121181000D01*
X116050949Y-121181000D01*
X116005000Y-121412000D01*
X116005000Y-122312560D01*
X115340000Y-122312560D01*
X115104683Y-122356838D01*
X114888559Y-122495910D01*
X114743569Y-122708110D01*
X114692560Y-122960000D01*
X114692560Y-125960000D01*
X114736838Y-126195317D01*
X114875910Y-126411441D01*
X115088110Y-126556431D01*
X115340000Y-126607440D01*
X118340000Y-126607440D01*
X118575317Y-126563162D01*
X118791441Y-126424090D01*
X118936431Y-126211890D01*
X118984611Y-125973970D01*
X120585635Y-125973970D01*
X120745418Y-126292739D01*
X121536187Y-126602723D01*
X122385387Y-126586497D01*
X123094582Y-126292739D01*
X123254365Y-125973970D01*
X121920000Y-124639605D01*
X120585635Y-125973970D01*
X118984611Y-125973970D01*
X118987440Y-125960000D01*
X118987440Y-124076187D01*
X119777277Y-124076187D01*
X119793503Y-124925387D01*
X120087261Y-125634582D01*
X120406030Y-125794365D01*
X121740395Y-124460000D01*
X122099605Y-124460000D01*
X123433970Y-125794365D01*
X123752739Y-125634582D01*
X124062723Y-124843813D01*
X124046497Y-123994613D01*
X123817854Y-123442619D01*
X139764613Y-123442619D01*
X140104155Y-124264372D01*
X140732321Y-124893636D01*
X141553481Y-125234611D01*
X142442619Y-125235387D01*
X143264372Y-124895845D01*
X143893636Y-124267679D01*
X144234611Y-123446519D01*
X144235387Y-122557381D01*
X143895845Y-121735628D01*
X143267679Y-121106364D01*
X142446519Y-120765389D01*
X141557381Y-120764613D01*
X140735628Y-121104155D01*
X140106364Y-121732321D01*
X139765389Y-122553481D01*
X139764613Y-123442619D01*
X123817854Y-123442619D01*
X123752739Y-123285418D01*
X123433970Y-123125635D01*
X122099605Y-124460000D01*
X121740395Y-124460000D01*
X120406030Y-123125635D01*
X120087261Y-123285418D01*
X119777277Y-124076187D01*
X118987440Y-124076187D01*
X118987440Y-122960000D01*
X118984812Y-122946030D01*
X120585635Y-122946030D01*
X121920000Y-124280395D01*
X123254365Y-122946030D01*
X123094582Y-122627261D01*
X122303813Y-122317277D01*
X121454613Y-122333503D01*
X120745418Y-122627261D01*
X120585635Y-122946030D01*
X118984812Y-122946030D01*
X118943162Y-122724683D01*
X118804090Y-122508559D01*
X118591890Y-122363569D01*
X118340000Y-122312560D01*
X117675000Y-122312560D01*
X117675000Y-121757868D01*
X117735118Y-121697750D01*
X128353000Y-121697750D01*
X128353000Y-122288310D01*
X128449673Y-122521699D01*
X128628302Y-122700327D01*
X128861691Y-122797000D01*
X130302250Y-122797000D01*
X130461000Y-122638250D01*
X130461000Y-121539000D01*
X128511750Y-121539000D01*
X128353000Y-121697750D01*
X117735118Y-121697750D01*
X118897178Y-120535690D01*
X128353000Y-120535690D01*
X128353000Y-121126250D01*
X128511750Y-121285000D01*
X130461000Y-121285000D01*
X130461000Y-120185750D01*
X130302250Y-120027000D01*
X128861691Y-120027000D01*
X128628302Y-120123673D01*
X128449673Y-120302301D01*
X128353000Y-120535690D01*
X118897178Y-120535690D01*
X119897868Y-119535000D01*
X120092074Y-119535000D01*
X120096838Y-119560317D01*
X120235910Y-119776441D01*
X120448110Y-119921431D01*
X120700000Y-119972440D01*
X122200000Y-119972440D01*
X122435317Y-119928162D01*
X122651441Y-119789090D01*
X122697969Y-119720994D01*
X122840302Y-119863327D01*
X123073691Y-119960000D01*
X123664250Y-119960000D01*
X123823000Y-119801250D01*
X123823000Y-118827000D01*
X124077000Y-118827000D01*
X124077000Y-119801250D01*
X124235750Y-119960000D01*
X124826309Y-119960000D01*
X125059698Y-119863327D01*
X125238327Y-119684699D01*
X125335000Y-119451310D01*
X125335000Y-118985750D01*
X125176250Y-118827000D01*
X124077000Y-118827000D01*
X123823000Y-118827000D01*
X123803000Y-118827000D01*
X123803000Y-118573000D01*
X123823000Y-118573000D01*
X123823000Y-117598750D01*
X124077000Y-117598750D01*
X124077000Y-118573000D01*
X125176250Y-118573000D01*
X125335000Y-118414250D01*
X125335000Y-117948690D01*
X125238327Y-117715301D01*
X125059698Y-117536673D01*
X124826309Y-117440000D01*
X124235750Y-117440000D01*
X124077000Y-117598750D01*
X123823000Y-117598750D01*
X123664250Y-117440000D01*
X123073691Y-117440000D01*
X122840302Y-117536673D01*
X122699064Y-117677910D01*
X122664090Y-117623559D01*
X122451890Y-117478569D01*
X122200000Y-117427560D01*
X120700000Y-117427560D01*
X120464683Y-117471838D01*
X120248559Y-117610910D01*
X120103569Y-117823110D01*
X120095086Y-117865000D01*
X119973158Y-117865000D01*
X125293158Y-112545000D01*
X125736082Y-112545000D01*
X125191091Y-113089041D01*
X124865372Y-113873459D01*
X124864630Y-114722815D01*
X125188980Y-115507800D01*
X125789041Y-116108909D01*
X126573459Y-116434628D01*
X127422815Y-116435370D01*
X128207800Y-116111020D01*
X128808909Y-115510959D01*
X129134628Y-114726541D01*
X129134750Y-114585750D01*
X129327000Y-114585750D01*
X129327000Y-116326310D01*
X129423673Y-116559699D01*
X129602302Y-116738327D01*
X129835691Y-116835000D01*
X130676250Y-116835000D01*
X130835000Y-116676250D01*
X130835000Y-114427000D01*
X131089000Y-114427000D01*
X131089000Y-116676250D01*
X131247750Y-116835000D01*
X132088309Y-116835000D01*
X132321698Y-116738327D01*
X132500327Y-116559699D01*
X132597000Y-116326310D01*
X132597000Y-114585750D01*
X132438250Y-114427000D01*
X131089000Y-114427000D01*
X130835000Y-114427000D01*
X129485750Y-114427000D01*
X129327000Y-114585750D01*
X129134750Y-114585750D01*
X129135370Y-113877185D01*
X128811020Y-113092200D01*
X128210959Y-112491091D01*
X127687400Y-112273690D01*
X129327000Y-112273690D01*
X129327000Y-114014250D01*
X129485750Y-114173000D01*
X130835000Y-114173000D01*
X130835000Y-111923750D01*
X131089000Y-111923750D01*
X131089000Y-114173000D01*
X132438250Y-114173000D01*
X132597000Y-114014250D01*
X132597000Y-112273690D01*
X132500327Y-112040301D01*
X132321698Y-111861673D01*
X132088309Y-111765000D01*
X131247750Y-111765000D01*
X131089000Y-111923750D01*
X130835000Y-111923750D01*
X130676250Y-111765000D01*
X129835691Y-111765000D01*
X129602302Y-111861673D01*
X129423673Y-112040301D01*
X129327000Y-112273690D01*
X127687400Y-112273690D01*
X127426541Y-112165372D01*
X126689430Y-112164728D01*
X127552283Y-111301875D01*
X128207800Y-111031020D01*
X128808909Y-110430959D01*
X129134628Y-109646541D01*
X129135370Y-108797185D01*
X128811020Y-108012200D01*
X128210959Y-107411091D01*
X127426541Y-107085372D01*
X126577185Y-107084630D01*
X125792200Y-107408980D01*
X125191091Y-108009041D01*
X124865372Y-108793459D01*
X124864630Y-109642815D01*
X125188980Y-110427800D01*
X125697067Y-110936775D01*
X125658842Y-110975000D01*
X124968000Y-110975000D01*
X124667593Y-111034755D01*
X124412921Y-111204921D01*
X116006842Y-119611000D01*
X115249868Y-119611000D01*
X120986434Y-113874434D01*
X121010057Y-113839079D01*
X121167439Y-113603541D01*
X121231000Y-113284000D01*
X121231000Y-113103000D01*
X121920000Y-113103000D01*
X122239541Y-113039439D01*
X122510434Y-112858434D01*
X124034434Y-111334434D01*
X124048567Y-111313282D01*
X124215439Y-111063541D01*
X124279000Y-110744000D01*
X124279000Y-106965750D01*
X128985000Y-106965750D01*
X128985000Y-108056310D01*
X129081673Y-108289699D01*
X129260302Y-108468327D01*
X129493691Y-108565000D01*
X131209250Y-108565000D01*
X131368000Y-108406250D01*
X131368000Y-106807000D01*
X129143750Y-106807000D01*
X128985000Y-106965750D01*
X124279000Y-106965750D01*
X124279000Y-106009868D01*
X125116495Y-105172373D01*
X125188980Y-105347800D01*
X125789041Y-105948909D01*
X126573459Y-106274628D01*
X127422815Y-106275370D01*
X128207800Y-105951020D01*
X128808909Y-105350959D01*
X128828536Y-105303690D01*
X128985000Y-105303690D01*
X128985000Y-106394250D01*
X129143750Y-106553000D01*
X131368000Y-106553000D01*
X131368000Y-104953750D01*
X131209250Y-104795000D01*
X129493691Y-104795000D01*
X129260302Y-104891673D01*
X129081673Y-105070301D01*
X128985000Y-105303690D01*
X128828536Y-105303690D01*
X129134628Y-104566541D01*
X129135370Y-103717185D01*
X128811020Y-102932200D01*
X128210959Y-102331091D01*
X127426541Y-102005372D01*
X126577185Y-102004630D01*
X125792200Y-102328980D01*
X125191091Y-102929041D01*
X125034979Y-103305000D01*
X124968000Y-103305000D01*
X124648459Y-103368561D01*
X124504492Y-103464757D01*
X124377566Y-103549566D01*
X122853566Y-105073566D01*
X122672561Y-105344459D01*
X122609000Y-105664000D01*
X122609000Y-110398132D01*
X121693440Y-111313692D01*
X121693440Y-109820000D01*
X121649162Y-109584683D01*
X121510090Y-109368559D01*
X121297890Y-109223569D01*
X121284803Y-109220919D01*
X121497441Y-109084090D01*
X121642431Y-108871890D01*
X121693440Y-108620000D01*
X121693440Y-107120000D01*
X121649162Y-106884683D01*
X121510090Y-106668559D01*
X121297890Y-106523569D01*
X121181000Y-106499898D01*
X121181000Y-106263440D01*
X121246000Y-106263440D01*
X121481317Y-106219162D01*
X121697441Y-106080090D01*
X121842431Y-105867890D01*
X121893440Y-105616000D01*
X121893440Y-103616000D01*
X121849162Y-103380683D01*
X121710090Y-103164559D01*
X121497890Y-103019569D01*
X121246000Y-102968560D01*
X119546000Y-102968560D01*
X119310683Y-103012838D01*
X119094559Y-103151910D01*
X118949569Y-103364110D01*
X118898560Y-103616000D01*
X118898560Y-105616000D01*
X118942838Y-105851317D01*
X119081910Y-106067441D01*
X119294110Y-106212431D01*
X119546000Y-106263440D01*
X119611000Y-106263440D01*
X119611000Y-106497962D01*
X119510683Y-106516838D01*
X119294559Y-106655910D01*
X119149569Y-106868110D01*
X119098560Y-107120000D01*
X119098560Y-108620000D01*
X119142838Y-108855317D01*
X119281910Y-109071441D01*
X119494110Y-109216431D01*
X119507197Y-109219081D01*
X119294559Y-109355910D01*
X119149569Y-109568110D01*
X119098560Y-109820000D01*
X119098560Y-111320000D01*
X119142838Y-111555317D01*
X119281910Y-111771441D01*
X119494110Y-111916431D01*
X119561000Y-111929977D01*
X119561000Y-112938132D01*
X114208132Y-118291000D01*
X98135868Y-118291000D01*
X94815000Y-114970132D01*
X94815000Y-102901750D01*
X94825000Y-102901750D01*
X94825000Y-103492310D01*
X94921673Y-103725699D01*
X95100302Y-103904327D01*
X95333691Y-104001000D01*
X96774250Y-104001000D01*
X96933000Y-103842250D01*
X96933000Y-102743000D01*
X94983750Y-102743000D01*
X94825000Y-102901750D01*
X94815000Y-102901750D01*
X94815000Y-101739690D01*
X94825000Y-101739690D01*
X94825000Y-102330250D01*
X94983750Y-102489000D01*
X96933000Y-102489000D01*
X96933000Y-101389750D01*
X96774250Y-101231000D01*
X95333691Y-101231000D01*
X95100302Y-101327673D01*
X94921673Y-101506301D01*
X94825000Y-101739690D01*
X94815000Y-101739690D01*
X94815000Y-101437868D01*
X96399118Y-99853750D01*
X97949000Y-99853750D01*
X97949000Y-100319310D01*
X98045673Y-100552699D01*
X98224302Y-100731327D01*
X98457691Y-100828000D01*
X99048250Y-100828000D01*
X99207000Y-100669250D01*
X99207000Y-99695000D01*
X98107750Y-99695000D01*
X97949000Y-99853750D01*
X96399118Y-99853750D01*
X97436178Y-98816690D01*
X97949000Y-98816690D01*
X97949000Y-99282250D01*
X98107750Y-99441000D01*
X99207000Y-99441000D01*
X99207000Y-98466750D01*
X99048250Y-98308000D01*
X98457691Y-98308000D01*
X98224302Y-98404673D01*
X98045673Y-98583301D01*
X97949000Y-98816690D01*
X97436178Y-98816690D01*
X99817868Y-96435000D01*
X103305000Y-96435000D01*
X103305000Y-98733000D01*
X103191926Y-98733000D01*
X103187162Y-98707683D01*
X103048090Y-98491559D01*
X102835890Y-98346569D01*
X102584000Y-98295560D01*
X101084000Y-98295560D01*
X100848683Y-98339838D01*
X100632559Y-98478910D01*
X100586031Y-98547006D01*
X100443698Y-98404673D01*
X100210309Y-98308000D01*
X99619750Y-98308000D01*
X99461000Y-98466750D01*
X99461000Y-99441000D01*
X99481000Y-99441000D01*
X99481000Y-99695000D01*
X99461000Y-99695000D01*
X99461000Y-100669250D01*
X99619750Y-100828000D01*
X100210309Y-100828000D01*
X100443698Y-100731327D01*
X100584936Y-100590090D01*
X100619910Y-100644441D01*
X100832110Y-100789431D01*
X101084000Y-100840440D01*
X102584000Y-100840440D01*
X102819317Y-100796162D01*
X103035441Y-100657090D01*
X103180431Y-100444890D01*
X103188914Y-100403000D01*
X103305000Y-100403000D01*
X103305000Y-101781000D01*
X103291446Y-101781000D01*
X103263162Y-101630683D01*
X103124090Y-101414559D01*
X102911890Y-101269569D01*
X102660000Y-101218560D01*
X99460000Y-101218560D01*
X99224683Y-101262838D01*
X99060507Y-101368482D01*
X99019698Y-101327673D01*
X98786309Y-101231000D01*
X97345750Y-101231000D01*
X97187000Y-101389750D01*
X97187000Y-102489000D01*
X97207000Y-102489000D01*
X97207000Y-102743000D01*
X97187000Y-102743000D01*
X97187000Y-103842250D01*
X97345750Y-104001000D01*
X98786309Y-104001000D01*
X99019698Y-103904327D01*
X99061660Y-103862366D01*
X99208110Y-103962431D01*
X99460000Y-104013440D01*
X102660000Y-104013440D01*
X102895317Y-103969162D01*
X103111441Y-103830090D01*
X103256431Y-103617890D01*
X103290227Y-103451000D01*
X105287442Y-103451000D01*
X105600853Y-103920054D01*
X105642452Y-103947850D01*
X105594683Y-103956838D01*
X105378559Y-104095910D01*
X105233569Y-104308110D01*
X105182560Y-104560000D01*
X105182560Y-106260000D01*
X105226838Y-106495317D01*
X105365910Y-106711441D01*
X105578110Y-106856431D01*
X105830000Y-106907440D01*
X107530000Y-106907440D01*
X107765317Y-106863162D01*
X107981441Y-106724090D01*
X108126431Y-106511890D01*
X108177440Y-106260000D01*
X108177440Y-106195000D01*
X108992560Y-106195000D01*
X108992560Y-106260000D01*
X109036838Y-106495317D01*
X109175910Y-106711441D01*
X109388110Y-106856431D01*
X109640000Y-106907440D01*
X111340000Y-106907440D01*
X111575317Y-106863162D01*
X111791441Y-106724090D01*
X111936431Y-106511890D01*
X111987440Y-106260000D01*
X111987440Y-106195000D01*
X112802560Y-106195000D01*
X112802560Y-106260000D01*
X112846838Y-106495317D01*
X112985910Y-106711441D01*
X113198110Y-106856431D01*
X113450000Y-106907440D01*
X115150000Y-106907440D01*
X115385317Y-106863162D01*
X115601441Y-106724090D01*
X115746431Y-106511890D01*
X115797440Y-106260000D01*
X115797440Y-104560000D01*
X115753162Y-104324683D01*
X115614090Y-104108559D01*
X115401890Y-103963569D01*
X115334459Y-103949914D01*
X115379147Y-103920054D01*
X115556250Y-103655000D01*
X115752842Y-103655000D01*
X116563000Y-104465158D01*
X116563000Y-108966201D01*
X116080490Y-108965780D01*
X115613542Y-109158718D01*
X115320750Y-109451000D01*
X111252000Y-109451000D01*
X110951594Y-109510755D01*
X110696921Y-109680921D01*
X110696919Y-109680924D01*
X109172921Y-111204921D01*
X109002755Y-111459593D01*
X108988949Y-111529000D01*
X108943000Y-111760000D01*
X108943000Y-112019568D01*
X108780000Y-111986560D01*
X107280000Y-111986560D01*
X107044683Y-112030838D01*
X106828559Y-112169910D01*
X106683569Y-112382110D01*
X106680919Y-112395197D01*
X106544090Y-112182559D01*
X106331890Y-112037569D01*
X106080000Y-111986560D01*
X104580000Y-111986560D01*
X104344683Y-112030838D01*
X104128559Y-112169910D01*
X103983569Y-112382110D01*
X103959898Y-112499000D01*
X103632000Y-112499000D01*
X103331593Y-112558755D01*
X103076921Y-112728921D01*
X102060921Y-113744921D01*
X101890755Y-113999593D01*
X101858671Y-114160890D01*
X101831000Y-114300000D01*
X101831000Y-115039000D01*
X99054856Y-115039000D01*
X98764337Y-114747974D01*
X98297727Y-114554221D01*
X97792490Y-114553780D01*
X97325542Y-114746718D01*
X96967974Y-115103663D01*
X96774221Y-115570273D01*
X96773780Y-116075510D01*
X96966718Y-116542458D01*
X97323663Y-116900026D01*
X97790273Y-117093779D01*
X98295510Y-117094220D01*
X98762458Y-116901282D01*
X99055250Y-116609000D01*
X103957962Y-116609000D01*
X103976838Y-116709317D01*
X104115910Y-116925441D01*
X104328110Y-117070431D01*
X104580000Y-117121440D01*
X106080000Y-117121440D01*
X106315317Y-117077162D01*
X106531441Y-116938090D01*
X106676431Y-116725890D01*
X106683191Y-116692510D01*
X106741673Y-116833699D01*
X106920302Y-117012327D01*
X107153691Y-117109000D01*
X107744250Y-117109000D01*
X107903000Y-116950250D01*
X107903000Y-115951000D01*
X107883000Y-115951000D01*
X107883000Y-115697000D01*
X107903000Y-115697000D01*
X107903000Y-115677000D01*
X108157000Y-115677000D01*
X108157000Y-115697000D01*
X108177000Y-115697000D01*
X108177000Y-115951000D01*
X108157000Y-115951000D01*
X108157000Y-116950250D01*
X108315750Y-117109000D01*
X108906309Y-117109000D01*
X109139698Y-117012327D01*
X109318327Y-116833699D01*
X109415000Y-116600310D01*
X109415000Y-116113158D01*
X109680919Y-116379076D01*
X109680921Y-116379079D01*
X109935594Y-116549245D01*
X110155659Y-116593019D01*
X110172838Y-116684317D01*
X110311910Y-116900441D01*
X110524110Y-117045431D01*
X110776000Y-117096440D01*
X112276000Y-117096440D01*
X112511317Y-117052162D01*
X112727441Y-116913090D01*
X112773969Y-116844994D01*
X112916302Y-116987327D01*
X113149691Y-117084000D01*
X113740250Y-117084000D01*
X113899000Y-116925250D01*
X113899000Y-115951000D01*
X114153000Y-115951000D01*
X114153000Y-116925250D01*
X114311750Y-117084000D01*
X114902309Y-117084000D01*
X115135698Y-116987327D01*
X115314327Y-116808699D01*
X115411000Y-116575310D01*
X115411000Y-116109750D01*
X115252250Y-115951000D01*
X114153000Y-115951000D01*
X113899000Y-115951000D01*
X113879000Y-115951000D01*
X113879000Y-115697000D01*
X113899000Y-115697000D01*
X113899000Y-114722750D01*
X114153000Y-114722750D01*
X114153000Y-115697000D01*
X115252250Y-115697000D01*
X115411000Y-115538250D01*
X115411000Y-115072690D01*
X115314327Y-114839301D01*
X115135698Y-114660673D01*
X114902309Y-114564000D01*
X114311750Y-114564000D01*
X114153000Y-114722750D01*
X113899000Y-114722750D01*
X113740250Y-114564000D01*
X113149691Y-114564000D01*
X112916302Y-114660673D01*
X112775064Y-114801910D01*
X112740090Y-114747559D01*
X112527890Y-114602569D01*
X112288491Y-114554090D01*
X112511317Y-114512162D01*
X112727441Y-114373090D01*
X112775134Y-114303289D01*
X112811910Y-114360441D01*
X113024110Y-114505431D01*
X113276000Y-114556440D01*
X114776000Y-114556440D01*
X115011317Y-114512162D01*
X115227441Y-114373090D01*
X115372431Y-114160890D01*
X115391039Y-114069000D01*
X115824000Y-114069000D01*
X116124407Y-114009245D01*
X116379079Y-113839079D01*
X117903076Y-112315081D01*
X117903079Y-112315079D01*
X118073245Y-112060406D01*
X118133000Y-111760000D01*
X118133000Y-104140000D01*
X118117270Y-104060921D01*
X118073245Y-103839593D01*
X117903079Y-103584921D01*
X116633079Y-102314921D01*
X116378407Y-102144755D01*
X116078000Y-102085000D01*
X115556250Y-102085000D01*
X115379147Y-101819946D01*
X114897378Y-101498039D01*
X114329093Y-101385000D01*
X114270907Y-101385000D01*
X113702622Y-101498039D01*
X113220853Y-101819946D01*
X113053000Y-102071156D01*
X113053000Y-100909158D01*
X113609158Y-100353000D01*
X116840000Y-100353000D01*
X117140407Y-100293245D01*
X117395079Y-100123079D01*
X118411079Y-99107079D01*
X118581245Y-98852407D01*
X118641000Y-98552000D01*
X118641000Y-98415158D01*
X119266872Y-99041030D01*
X119094559Y-99151910D01*
X118949569Y-99364110D01*
X118898560Y-99616000D01*
X118898560Y-101616000D01*
X118942838Y-101851317D01*
X119081910Y-102067441D01*
X119294110Y-102212431D01*
X119546000Y-102263440D01*
X121246000Y-102263440D01*
X121481317Y-102219162D01*
X121697441Y-102080090D01*
X121842431Y-101867890D01*
X121893440Y-101616000D01*
X121893440Y-99616000D01*
X121849162Y-99380683D01*
X121710090Y-99164559D01*
X121497890Y-99019569D01*
X121246000Y-98968560D01*
X121162811Y-98968560D01*
X121121245Y-98759594D01*
X120951079Y-98504921D01*
X117379908Y-94933750D01*
X119469000Y-94933750D01*
X119469000Y-96524309D01*
X119565673Y-96757698D01*
X119744301Y-96936327D01*
X119977690Y-97033000D01*
X120618250Y-97033000D01*
X120777000Y-96874250D01*
X120777000Y-94775000D01*
X121031000Y-94775000D01*
X121031000Y-96874250D01*
X121189750Y-97033000D01*
X121830310Y-97033000D01*
X122063699Y-96936327D01*
X122242327Y-96757698D01*
X122339000Y-96524309D01*
X122339000Y-94933750D01*
X122180250Y-94775000D01*
X121031000Y-94775000D01*
X120777000Y-94775000D01*
X119627750Y-94775000D01*
X119469000Y-94933750D01*
X117379908Y-94933750D01*
X116841079Y-94394921D01*
X116586407Y-94224755D01*
X116286000Y-94165000D01*
X115066440Y-94165000D01*
X115066440Y-94085000D01*
X115051726Y-94006801D01*
X115054000Y-94001310D01*
X115054000Y-93921250D01*
X115031370Y-93898620D01*
X115022162Y-93849683D01*
X115019149Y-93845000D01*
X117064000Y-93845000D01*
X117383541Y-93781439D01*
X117654434Y-93600434D01*
X118483177Y-92771691D01*
X119469000Y-92771691D01*
X119469000Y-94362250D01*
X119627750Y-94521000D01*
X120777000Y-94521000D01*
X120777000Y-92421750D01*
X121031000Y-92421750D01*
X121031000Y-94521000D01*
X122180250Y-94521000D01*
X122339000Y-94362250D01*
X122339000Y-92771691D01*
X122242327Y-92538302D01*
X122063699Y-92359673D01*
X121830310Y-92263000D01*
X121189750Y-92263000D01*
X121031000Y-92421750D01*
X120777000Y-92421750D01*
X120618250Y-92263000D01*
X119977690Y-92263000D01*
X119744301Y-92359673D01*
X119565673Y-92538302D01*
X119469000Y-92771691D01*
X118483177Y-92771691D01*
X118954434Y-92300434D01*
X119135440Y-92029540D01*
X119199000Y-91710000D01*
X119199000Y-76427440D01*
X120230000Y-76427440D01*
X120465317Y-76383162D01*
X120681441Y-76244090D01*
X120826431Y-76031890D01*
X120840086Y-75964459D01*
X120869946Y-76009147D01*
X121085000Y-76152841D01*
X121085000Y-78902132D01*
X120313566Y-79673566D01*
X120132561Y-79944459D01*
X120069000Y-80264000D01*
X120069000Y-86857146D01*
X119868683Y-86894838D01*
X119652559Y-87033910D01*
X119507569Y-87246110D01*
X119456560Y-87498000D01*
X119456560Y-90998000D01*
X119500838Y-91233317D01*
X119639910Y-91449441D01*
X119852110Y-91594431D01*
X120104000Y-91645440D01*
X121704000Y-91645440D01*
X121939317Y-91601162D01*
X122155441Y-91462090D01*
X122300431Y-91249890D01*
X122351440Y-90998000D01*
X122351440Y-87498000D01*
X122307162Y-87262683D01*
X122168090Y-87046559D01*
X121955890Y-86901569D01*
X121739000Y-86857648D01*
X121739000Y-85671000D01*
X122590132Y-85671000D01*
X124641000Y-87721868D01*
X124641000Y-92456000D01*
X124704561Y-92775541D01*
X124861222Y-93010000D01*
X124885566Y-93046434D01*
X125901566Y-94062434D01*
X126172459Y-94243439D01*
X126492000Y-94307000D01*
X126575000Y-94307000D01*
X126575000Y-96930000D01*
X126638561Y-97249541D01*
X126717984Y-97368406D01*
X126819566Y-97520434D01*
X133785000Y-104485868D01*
X133785000Y-104946975D01*
X133729698Y-104891673D01*
X133496309Y-104795000D01*
X131780750Y-104795000D01*
X131622000Y-104953750D01*
X131622000Y-106553000D01*
X131642000Y-106553000D01*
X131642000Y-106807000D01*
X131622000Y-106807000D01*
X131622000Y-108406250D01*
X131780750Y-108565000D01*
X133496309Y-108565000D01*
X133729698Y-108468327D01*
X133785000Y-108413025D01*
X133785000Y-117856000D01*
X133848561Y-118175541D01*
X133985483Y-118380459D01*
X134029566Y-118446434D01*
X135553566Y-119970434D01*
X135619605Y-120014560D01*
X132988000Y-120014560D01*
X132752683Y-120058838D01*
X132588507Y-120164482D01*
X132547698Y-120123673D01*
X132314309Y-120027000D01*
X130873750Y-120027000D01*
X130715000Y-120185750D01*
X130715000Y-121285000D01*
X130735000Y-121285000D01*
X130735000Y-121539000D01*
X130715000Y-121539000D01*
X130715000Y-122638250D01*
X130873750Y-122797000D01*
X132314309Y-122797000D01*
X132547698Y-122700327D01*
X132589660Y-122658366D01*
X132736110Y-122758431D01*
X132988000Y-122809440D01*
X136188000Y-122809440D01*
X136423317Y-122765162D01*
X136639441Y-122626090D01*
X136784431Y-122413890D01*
X136818227Y-122247000D01*
X137160000Y-122247000D01*
X137479541Y-122183439D01*
X137750434Y-122002434D01*
X138258434Y-121494435D01*
X138398373Y-121285000D01*
X138439439Y-121223541D01*
X138503000Y-120904000D01*
X138503000Y-120215000D01*
X138684000Y-120215000D01*
X139003541Y-120151439D01*
X139274434Y-119970434D01*
X139782434Y-119462435D01*
X139872937Y-119326987D01*
X139963439Y-119191541D01*
X140027000Y-118872000D01*
X140027000Y-117348000D01*
X139995658Y-117190434D01*
X139963440Y-117028460D01*
X139782434Y-116757566D01*
X139034434Y-116009566D01*
X138985531Y-115976890D01*
X143558524Y-115976890D01*
X143728355Y-116386924D01*
X144118642Y-116815183D01*
X144643108Y-117061486D01*
X144873000Y-116940819D01*
X144873000Y-115747000D01*
X143679845Y-115747000D01*
X143558524Y-115976890D01*
X138985531Y-115976890D01*
X138909440Y-115926048D01*
X138909440Y-115850000D01*
X138865162Y-115614683D01*
X138759518Y-115450508D01*
X138800327Y-115409699D01*
X138897000Y-115176310D01*
X138897000Y-114585750D01*
X138738250Y-114427000D01*
X137389000Y-114427000D01*
X137389000Y-114447000D01*
X137135000Y-114447000D01*
X137135000Y-114427000D01*
X135785750Y-114427000D01*
X135627000Y-114585750D01*
X135627000Y-115176310D01*
X135723673Y-115409699D01*
X135765634Y-115451660D01*
X135665569Y-115598110D01*
X135614560Y-115850000D01*
X135614560Y-117350000D01*
X135658838Y-117585317D01*
X135797910Y-117801441D01*
X136010110Y-117946431D01*
X136262000Y-117997440D01*
X138262000Y-117997440D01*
X138357000Y-117979564D01*
X138357000Y-118526131D01*
X138338132Y-118545000D01*
X136489868Y-118545000D01*
X135455000Y-117510132D01*
X135455000Y-108414983D01*
X135618110Y-108526431D01*
X135870000Y-108577440D01*
X139620000Y-108577440D01*
X139855317Y-108533162D01*
X140071441Y-108394090D01*
X140216431Y-108181890D01*
X140267440Y-107930000D01*
X140267440Y-107849598D01*
X140947000Y-108529157D01*
X140947000Y-111215000D01*
X138902854Y-111215000D01*
X138865162Y-111014683D01*
X138726090Y-110798559D01*
X138513890Y-110653569D01*
X138262000Y-110602560D01*
X136262000Y-110602560D01*
X136026683Y-110646838D01*
X135810559Y-110785910D01*
X135665569Y-110998110D01*
X135614560Y-111250000D01*
X135614560Y-112750000D01*
X135658838Y-112985317D01*
X135764482Y-113149492D01*
X135723673Y-113190301D01*
X135627000Y-113423690D01*
X135627000Y-114014250D01*
X135785750Y-114173000D01*
X137135000Y-114173000D01*
X137135000Y-114153000D01*
X137389000Y-114153000D01*
X137389000Y-114173000D01*
X138738250Y-114173000D01*
X138897000Y-114014250D01*
X138897000Y-113423690D01*
X138800327Y-113190301D01*
X138758366Y-113148340D01*
X138858431Y-113001890D01*
X138902352Y-112785000D01*
X140948790Y-112785000D01*
X141006755Y-113076407D01*
X141176921Y-113331079D01*
X141480921Y-113635079D01*
X141735594Y-113805245D01*
X142036000Y-113865000D01*
X143743750Y-113865000D01*
X143920853Y-114130054D01*
X144261553Y-114357702D01*
X144118642Y-114424817D01*
X143728355Y-114853076D01*
X143558524Y-115263110D01*
X143679845Y-115493000D01*
X144873000Y-115493000D01*
X144873000Y-115473000D01*
X145127000Y-115473000D01*
X145127000Y-115493000D01*
X145147000Y-115493000D01*
X145147000Y-115747000D01*
X145127000Y-115747000D01*
X145127000Y-116940819D01*
X145356892Y-117061486D01*
X145881358Y-116815183D01*
X146271645Y-116386924D01*
X146290000Y-116342608D01*
X146290000Y-127290000D01*
X90710000Y-127290000D01*
X90710000Y-123442619D01*
X92764613Y-123442619D01*
X93104155Y-124264372D01*
X93732321Y-124893636D01*
X94553481Y-125234611D01*
X95442619Y-125235387D01*
X96264372Y-124895845D01*
X96893636Y-124267679D01*
X97234611Y-123446519D01*
X97235387Y-122557381D01*
X96895845Y-121735628D01*
X96267679Y-121106364D01*
X95446519Y-120765389D01*
X94557381Y-120764613D01*
X93735628Y-121104155D01*
X93106364Y-121732321D01*
X92765389Y-122553481D01*
X92764613Y-123442619D01*
X90710000Y-123442619D01*
X90710000Y-88805750D01*
X94945000Y-88805750D01*
X94945000Y-90396310D01*
X95041673Y-90629699D01*
X95220302Y-90808327D01*
X95453691Y-90905000D01*
X97044250Y-90905000D01*
X97203000Y-90746250D01*
X97203000Y-88647000D01*
X95103750Y-88647000D01*
X94945000Y-88805750D01*
X90710000Y-88805750D01*
X90710000Y-84105750D01*
X91945000Y-84105750D01*
X91945000Y-85696310D01*
X92041673Y-85929699D01*
X92220302Y-86108327D01*
X92453691Y-86205000D01*
X94044250Y-86205000D01*
X94203000Y-86046250D01*
X94203000Y-83947000D01*
X94457000Y-83947000D01*
X94457000Y-86046250D01*
X94615750Y-86205000D01*
X95284696Y-86205000D01*
X95220302Y-86231673D01*
X95041673Y-86410301D01*
X94945000Y-86643690D01*
X94945000Y-88234250D01*
X95103750Y-88393000D01*
X97203000Y-88393000D01*
X97203000Y-86293750D01*
X97044250Y-86135000D01*
X96375304Y-86135000D01*
X96439698Y-86108327D01*
X96618327Y-85929699D01*
X96715000Y-85696310D01*
X96715000Y-84105750D01*
X96556250Y-83947000D01*
X94457000Y-83947000D01*
X94203000Y-83947000D01*
X92103750Y-83947000D01*
X91945000Y-84105750D01*
X90710000Y-84105750D01*
X90710000Y-81943690D01*
X91945000Y-81943690D01*
X91945000Y-83534250D01*
X92103750Y-83693000D01*
X94203000Y-83693000D01*
X94203000Y-81593750D01*
X94457000Y-81593750D01*
X94457000Y-83693000D01*
X96556250Y-83693000D01*
X96715000Y-83534250D01*
X96715000Y-81943690D01*
X96618327Y-81710301D01*
X96439698Y-81531673D01*
X96206309Y-81435000D01*
X94615750Y-81435000D01*
X94457000Y-81593750D01*
X94203000Y-81593750D01*
X94044250Y-81435000D01*
X92453691Y-81435000D01*
X92220302Y-81531673D01*
X92041673Y-81710301D01*
X91945000Y-81943690D01*
X90710000Y-81943690D01*
X90710000Y-75442619D01*
X92764613Y-75442619D01*
X93104155Y-76264372D01*
X93732321Y-76893636D01*
X94553481Y-77234611D01*
X95442619Y-77235387D01*
X96264372Y-76895845D01*
X96893636Y-76267679D01*
X97234611Y-75446519D01*
X97235387Y-74557381D01*
X96895845Y-73735628D01*
X96267679Y-73106364D01*
X96201035Y-73078691D01*
X124775000Y-73078691D01*
X124775000Y-77881309D01*
X124784813Y-77905000D01*
X124775000Y-77928691D01*
X124775000Y-82731309D01*
X124871673Y-82964698D01*
X125050301Y-83143327D01*
X125283690Y-83240000D01*
X130786310Y-83240000D01*
X130810000Y-83230187D01*
X130833690Y-83240000D01*
X136336310Y-83240000D01*
X136569699Y-83143327D01*
X136748327Y-82964698D01*
X136845000Y-82731309D01*
X136845000Y-82675750D01*
X139535000Y-82675750D01*
X139535000Y-84266309D01*
X139631673Y-84499698D01*
X139810301Y-84678327D01*
X140043690Y-84775000D01*
X140684250Y-84775000D01*
X140843000Y-84616250D01*
X140843000Y-82517000D01*
X141097000Y-82517000D01*
X141097000Y-84616250D01*
X141255750Y-84775000D01*
X141896310Y-84775000D01*
X142129699Y-84678327D01*
X142308327Y-84499698D01*
X142405000Y-84266309D01*
X142405000Y-82675750D01*
X142246250Y-82517000D01*
X141097000Y-82517000D01*
X140843000Y-82517000D01*
X139693750Y-82517000D01*
X139535000Y-82675750D01*
X136845000Y-82675750D01*
X136845000Y-80513691D01*
X139535000Y-80513691D01*
X139535000Y-82104250D01*
X139693750Y-82263000D01*
X140843000Y-82263000D01*
X140843000Y-80163750D01*
X141097000Y-80163750D01*
X141097000Y-82263000D01*
X142246250Y-82263000D01*
X142405000Y-82104250D01*
X142405000Y-80513691D01*
X142308327Y-80280302D01*
X142129699Y-80101673D01*
X141896310Y-80005000D01*
X141255750Y-80005000D01*
X141097000Y-80163750D01*
X140843000Y-80163750D01*
X140684250Y-80005000D01*
X140043690Y-80005000D01*
X139810301Y-80101673D01*
X139631673Y-80280302D01*
X139535000Y-80513691D01*
X136845000Y-80513691D01*
X136845000Y-77928691D01*
X136835187Y-77905000D01*
X136845000Y-77881309D01*
X136845000Y-75442619D01*
X139764613Y-75442619D01*
X140104155Y-76264372D01*
X140732321Y-76893636D01*
X141553481Y-77234611D01*
X142442619Y-77235387D01*
X143264372Y-76895845D01*
X143893636Y-76267679D01*
X144234611Y-75446519D01*
X144235387Y-74557381D01*
X143895845Y-73735628D01*
X143267679Y-73106364D01*
X142446519Y-72765389D01*
X141557381Y-72764613D01*
X140735628Y-73104155D01*
X140106364Y-73732321D01*
X139765389Y-74553481D01*
X139764613Y-75442619D01*
X136845000Y-75442619D01*
X136845000Y-73078691D01*
X136748327Y-72845302D01*
X136569699Y-72666673D01*
X136336310Y-72570000D01*
X130833690Y-72570000D01*
X130810000Y-72579813D01*
X130786310Y-72570000D01*
X125283690Y-72570000D01*
X125050301Y-72666673D01*
X124871673Y-72845302D01*
X124775000Y-73078691D01*
X96201035Y-73078691D01*
X95446519Y-72765389D01*
X94557381Y-72764613D01*
X93735628Y-73104155D01*
X93106364Y-73732321D01*
X92765389Y-74553481D01*
X92764613Y-75442619D01*
X90710000Y-75442619D01*
X90710000Y-70710000D01*
X146290000Y-70710000D01*
X146290000Y-106682099D01*
G36*
X115386854Y-97193012D02*
X115255974Y-97323663D01*
X115062221Y-97790273D01*
X115061780Y-98295510D01*
X115254718Y-98762458D01*
X115275224Y-98783000D01*
X113284000Y-98783000D01*
X112983593Y-98842755D01*
X112728921Y-99012921D01*
X111712921Y-100028921D01*
X111542755Y-100283593D01*
X111510671Y-100444890D01*
X111483000Y-100584000D01*
X111483000Y-101797321D01*
X111371358Y-101674817D01*
X110846892Y-101428514D01*
X110617000Y-101549181D01*
X110617000Y-102743000D01*
X110637000Y-102743000D01*
X110637000Y-102997000D01*
X110617000Y-102997000D01*
X110617000Y-103017000D01*
X110363000Y-103017000D01*
X110363000Y-102997000D01*
X109169845Y-102997000D01*
X109048524Y-103226890D01*
X109218355Y-103636924D01*
X109494501Y-103939937D01*
X109404683Y-103956838D01*
X109188559Y-104095910D01*
X109043569Y-104308110D01*
X108992560Y-104560000D01*
X108992560Y-104625000D01*
X108177440Y-104625000D01*
X108177440Y-104560000D01*
X108133162Y-104324683D01*
X107994090Y-104108559D01*
X107781890Y-103963569D01*
X107714459Y-103949914D01*
X107759147Y-103920054D01*
X108081054Y-103438285D01*
X108194093Y-102870000D01*
X108123104Y-102513110D01*
X109048524Y-102513110D01*
X109169845Y-102743000D01*
X110363000Y-102743000D01*
X110363000Y-101549181D01*
X110133108Y-101428514D01*
X109608642Y-101674817D01*
X109218355Y-102103076D01*
X109048524Y-102513110D01*
X108123104Y-102513110D01*
X108081054Y-102301715D01*
X107759147Y-101819946D01*
X107277378Y-101498039D01*
X106709093Y-101385000D01*
X106650907Y-101385000D01*
X106082622Y-101498039D01*
X105659140Y-101781000D01*
X104975000Y-101781000D01*
X104975000Y-97085000D01*
X106520250Y-97085000D01*
X106434000Y-97171250D01*
X106434000Y-97251310D01*
X106530673Y-97484699D01*
X106709302Y-97663327D01*
X106942691Y-97760000D01*
X107508250Y-97760000D01*
X107667000Y-97601250D01*
X107667000Y-97122440D01*
X107921000Y-97122440D01*
X107921000Y-97601250D01*
X108079750Y-97760000D01*
X108645309Y-97760000D01*
X108676174Y-97747215D01*
X108792110Y-97826431D01*
X109044000Y-97877440D01*
X112444000Y-97877440D01*
X112679317Y-97833162D01*
X112820435Y-97742355D01*
X112969000Y-97772440D01*
X114419000Y-97772440D01*
X114654317Y-97728162D01*
X114870441Y-97589090D01*
X115015431Y-97376890D01*
X115066440Y-97125000D01*
X115066440Y-97035000D01*
X115228842Y-97035000D01*
X115386854Y-97193012D01*
X115386854Y-97193012D01*
G37*
X115386854Y-97193012D02*
X115255974Y-97323663D01*
X115062221Y-97790273D01*
X115061780Y-98295510D01*
X115254718Y-98762458D01*
X115275224Y-98783000D01*
X113284000Y-98783000D01*
X112983593Y-98842755D01*
X112728921Y-99012921D01*
X111712921Y-100028921D01*
X111542755Y-100283593D01*
X111510671Y-100444890D01*
X111483000Y-100584000D01*
X111483000Y-101797321D01*
X111371358Y-101674817D01*
X110846892Y-101428514D01*
X110617000Y-101549181D01*
X110617000Y-102743000D01*
X110637000Y-102743000D01*
X110637000Y-102997000D01*
X110617000Y-102997000D01*
X110617000Y-103017000D01*
X110363000Y-103017000D01*
X110363000Y-102997000D01*
X109169845Y-102997000D01*
X109048524Y-103226890D01*
X109218355Y-103636924D01*
X109494501Y-103939937D01*
X109404683Y-103956838D01*
X109188559Y-104095910D01*
X109043569Y-104308110D01*
X108992560Y-104560000D01*
X108992560Y-104625000D01*
X108177440Y-104625000D01*
X108177440Y-104560000D01*
X108133162Y-104324683D01*
X107994090Y-104108559D01*
X107781890Y-103963569D01*
X107714459Y-103949914D01*
X107759147Y-103920054D01*
X108081054Y-103438285D01*
X108194093Y-102870000D01*
X108123104Y-102513110D01*
X109048524Y-102513110D01*
X109169845Y-102743000D01*
X110363000Y-102743000D01*
X110363000Y-101549181D01*
X110133108Y-101428514D01*
X109608642Y-101674817D01*
X109218355Y-102103076D01*
X109048524Y-102513110D01*
X108123104Y-102513110D01*
X108081054Y-102301715D01*
X107759147Y-101819946D01*
X107277378Y-101498039D01*
X106709093Y-101385000D01*
X106650907Y-101385000D01*
X106082622Y-101498039D01*
X105659140Y-101781000D01*
X104975000Y-101781000D01*
X104975000Y-97085000D01*
X106520250Y-97085000D01*
X106434000Y-97171250D01*
X106434000Y-97251310D01*
X106530673Y-97484699D01*
X106709302Y-97663327D01*
X106942691Y-97760000D01*
X107508250Y-97760000D01*
X107667000Y-97601250D01*
X107667000Y-97122440D01*
X107921000Y-97122440D01*
X107921000Y-97601250D01*
X108079750Y-97760000D01*
X108645309Y-97760000D01*
X108676174Y-97747215D01*
X108792110Y-97826431D01*
X109044000Y-97877440D01*
X112444000Y-97877440D01*
X112679317Y-97833162D01*
X112820435Y-97742355D01*
X112969000Y-97772440D01*
X114419000Y-97772440D01*
X114654317Y-97728162D01*
X114870441Y-97589090D01*
X115015431Y-97376890D01*
X115066440Y-97125000D01*
X115066440Y-97035000D01*
X115228842Y-97035000D01*
X115386854Y-97193012D01*
M02*
