G04 #@! TF.FileFunction,Copper,L2,Bot,Signal*
%FSLAX46Y46*%
G04 Gerber Fmt 4.6, Leading zero omitted, Abs format (unit mm)*
G04 Created by KiCad (PCBNEW 4.0.7) date 10/02/18 03:43:02*
%MOMM*%
%LPD*%
G01*
G04 APERTURE LIST*
%ADD10C,0.100000*%
%ADD11C,0.300000*%
%ADD12C,0.010000*%
%ADD13R,3.500000X3.500000*%
%ADD14R,1.700000X1.700000*%
%ADD15O,1.700000X1.700000*%
%ADD16R,2.200000X2.200000*%
%ADD17O,2.200000X2.200000*%
%ADD18C,1.524000*%
%ADD19C,1.600000*%
%ADD20O,1.600000X1.600000*%
%ADD21R,0.800000X1.300000*%
%ADD22R,1.800000X1.300000*%
%ADD23R,3.000000X3.000000*%
%ADD24C,3.000000*%
%ADD25C,1.270000*%
%ADD26C,0.400000*%
%ADD27C,0.254000*%
G04 APERTURE END LIST*
D10*
D11*
X112969999Y-113016000D02*
X112255713Y-113016000D01*
X113112856Y-113444571D02*
X112612856Y-111944571D01*
X112112856Y-113444571D01*
X111398570Y-113444571D02*
X111541428Y-113373143D01*
X111612856Y-113230286D01*
X111612856Y-111944571D01*
X110255714Y-113373143D02*
X110398571Y-113444571D01*
X110684285Y-113444571D01*
X110827142Y-113373143D01*
X110898571Y-113230286D01*
X110898571Y-112658857D01*
X110827142Y-112516000D01*
X110684285Y-112444571D01*
X110398571Y-112444571D01*
X110255714Y-112516000D01*
X110184285Y-112658857D01*
X110184285Y-112801714D01*
X110898571Y-112944571D01*
X108898571Y-112444571D02*
X108898571Y-113658857D01*
X108970000Y-113801714D01*
X109041428Y-113873143D01*
X109184285Y-113944571D01*
X109398571Y-113944571D01*
X109541428Y-113873143D01*
X108898571Y-113373143D02*
X109041428Y-113444571D01*
X109327142Y-113444571D01*
X109470000Y-113373143D01*
X109541428Y-113301714D01*
X109612857Y-113158857D01*
X109612857Y-112730286D01*
X109541428Y-112587429D01*
X109470000Y-112516000D01*
X109327142Y-112444571D01*
X109041428Y-112444571D01*
X108898571Y-112516000D01*
X108184285Y-113444571D02*
X108184285Y-112444571D01*
X108184285Y-112730286D02*
X108112857Y-112587429D01*
X108041428Y-112516000D01*
X107898571Y-112444571D01*
X107755714Y-112444571D01*
X106684286Y-113373143D02*
X106827143Y-113444571D01*
X107112857Y-113444571D01*
X107255714Y-113373143D01*
X107327143Y-113230286D01*
X107327143Y-112658857D01*
X107255714Y-112516000D01*
X107112857Y-112444571D01*
X106827143Y-112444571D01*
X106684286Y-112516000D01*
X106612857Y-112658857D01*
X106612857Y-112801714D01*
X107327143Y-112944571D01*
X112970000Y-115208857D02*
X112755714Y-115280286D01*
X112684286Y-115351714D01*
X112612857Y-115494571D01*
X112612857Y-115708857D01*
X112684286Y-115851714D01*
X112755714Y-115923143D01*
X112898572Y-115994571D01*
X113470000Y-115994571D01*
X113470000Y-114494571D01*
X112970000Y-114494571D01*
X112827143Y-114566000D01*
X112755714Y-114637429D01*
X112684286Y-114780286D01*
X112684286Y-114923143D01*
X112755714Y-115066000D01*
X112827143Y-115137429D01*
X112970000Y-115208857D01*
X113470000Y-115208857D01*
X111327143Y-115994571D02*
X111327143Y-115208857D01*
X111398572Y-115066000D01*
X111541429Y-114994571D01*
X111827143Y-114994571D01*
X111970000Y-115066000D01*
X111327143Y-115923143D02*
X111470000Y-115994571D01*
X111827143Y-115994571D01*
X111970000Y-115923143D01*
X112041429Y-115780286D01*
X112041429Y-115637429D01*
X111970000Y-115494571D01*
X111827143Y-115423143D01*
X111470000Y-115423143D01*
X111327143Y-115351714D01*
X109970000Y-114994571D02*
X109970000Y-115994571D01*
X110612857Y-114994571D02*
X110612857Y-115780286D01*
X110541429Y-115923143D01*
X110398571Y-115994571D01*
X110184286Y-115994571D01*
X110041429Y-115923143D01*
X109970000Y-115851714D01*
X109470000Y-114994571D02*
X108898571Y-114994571D01*
X109255714Y-114494571D02*
X109255714Y-115780286D01*
X109184286Y-115923143D01*
X109041428Y-115994571D01*
X108898571Y-115994571D01*
X108398571Y-115994571D02*
X108398571Y-114994571D01*
X108398571Y-114494571D02*
X108470000Y-114566000D01*
X108398571Y-114637429D01*
X108327143Y-114566000D01*
X108398571Y-114494571D01*
X108398571Y-114637429D01*
X107755714Y-115923143D02*
X107612857Y-115994571D01*
X107327142Y-115994571D01*
X107184285Y-115923143D01*
X107112857Y-115780286D01*
X107112857Y-115708857D01*
X107184285Y-115566000D01*
X107327142Y-115494571D01*
X107541428Y-115494571D01*
X107684285Y-115423143D01*
X107755714Y-115280286D01*
X107755714Y-115208857D01*
X107684285Y-115066000D01*
X107541428Y-114994571D01*
X107327142Y-114994571D01*
X107184285Y-115066000D01*
X106684285Y-114994571D02*
X106112856Y-114994571D01*
X106469999Y-114494571D02*
X106469999Y-115780286D01*
X106398571Y-115923143D01*
X106255713Y-115994571D01*
X106112856Y-115994571D01*
X104969999Y-115994571D02*
X104969999Y-115208857D01*
X105041428Y-115066000D01*
X105184285Y-114994571D01*
X105469999Y-114994571D01*
X105612856Y-115066000D01*
X104969999Y-115923143D02*
X105112856Y-115994571D01*
X105469999Y-115994571D01*
X105612856Y-115923143D01*
X105684285Y-115780286D01*
X105684285Y-115637429D01*
X105612856Y-115494571D01*
X105469999Y-115423143D01*
X105112856Y-115423143D01*
X104969999Y-115351714D01*
X114112857Y-117044571D02*
X113255714Y-117044571D01*
X113684285Y-118544571D02*
X113684285Y-117044571D01*
X112112857Y-118544571D02*
X112112857Y-117758857D01*
X112184286Y-117616000D01*
X112327143Y-117544571D01*
X112612857Y-117544571D01*
X112755714Y-117616000D01*
X112112857Y-118473143D02*
X112255714Y-118544571D01*
X112612857Y-118544571D01*
X112755714Y-118473143D01*
X112827143Y-118330286D01*
X112827143Y-118187429D01*
X112755714Y-118044571D01*
X112612857Y-117973143D01*
X112255714Y-117973143D01*
X112112857Y-117901714D01*
X111398571Y-118544571D02*
X111398571Y-117544571D01*
X111398571Y-117830286D02*
X111327143Y-117687429D01*
X111255714Y-117616000D01*
X111112857Y-117544571D01*
X110970000Y-117544571D01*
X109827143Y-118544571D02*
X109827143Y-117758857D01*
X109898572Y-117616000D01*
X110041429Y-117544571D01*
X110327143Y-117544571D01*
X110470000Y-117616000D01*
X109827143Y-118473143D02*
X109970000Y-118544571D01*
X110327143Y-118544571D01*
X110470000Y-118473143D01*
X110541429Y-118330286D01*
X110541429Y-118187429D01*
X110470000Y-118044571D01*
X110327143Y-117973143D01*
X109970000Y-117973143D01*
X109827143Y-117901714D01*
X109255714Y-117544571D02*
X108470000Y-117544571D01*
X109255714Y-118544571D01*
X108470000Y-118544571D01*
X107684285Y-118544571D02*
X107827143Y-118473143D01*
X107898571Y-118401714D01*
X107970000Y-118258857D01*
X107970000Y-117830286D01*
X107898571Y-117687429D01*
X107827143Y-117616000D01*
X107684285Y-117544571D01*
X107470000Y-117544571D01*
X107327143Y-117616000D01*
X107255714Y-117687429D01*
X107184285Y-117830286D01*
X107184285Y-118258857D01*
X107255714Y-118401714D01*
X107327143Y-118473143D01*
X107470000Y-118544571D01*
X107684285Y-118544571D01*
X106541428Y-117544571D02*
X106541428Y-118544571D01*
X106541428Y-117687429D02*
X106470000Y-117616000D01*
X106327142Y-117544571D01*
X106112857Y-117544571D01*
X105970000Y-117616000D01*
X105898571Y-117758857D01*
X105898571Y-118544571D01*
X104541428Y-118544571D02*
X104541428Y-117758857D01*
X104612857Y-117616000D01*
X104755714Y-117544571D01*
X105041428Y-117544571D01*
X105184285Y-117616000D01*
X104541428Y-118473143D02*
X104684285Y-118544571D01*
X105041428Y-118544571D01*
X105184285Y-118473143D01*
X105255714Y-118330286D01*
X105255714Y-118187429D01*
X105184285Y-118044571D01*
X105041428Y-117973143D01*
X104684285Y-117973143D01*
X104541428Y-117901714D01*
D12*
G36*
X104394000Y-83972400D02*
X116586000Y-83972400D01*
X116586000Y-81788000D01*
X113139280Y-81788000D01*
X113122740Y-82495263D01*
X113115180Y-82778068D01*
X113105803Y-82978250D01*
X113091383Y-83114778D01*
X113068693Y-83206618D01*
X113034507Y-83272740D01*
X112985596Y-83332110D01*
X112979200Y-83339019D01*
X112864607Y-83446334D01*
X112744965Y-83512833D01*
X112591107Y-83548023D01*
X112373865Y-83561414D01*
X112293400Y-83562590D01*
X112063397Y-83554976D01*
X111898843Y-83523081D01*
X111769644Y-83463097D01*
X111648675Y-83370255D01*
X111561811Y-83250913D01*
X111504124Y-83088398D01*
X111470685Y-82866033D01*
X111456565Y-82567145D01*
X111455200Y-82399231D01*
X111455200Y-81788000D01*
X111252000Y-81788000D01*
X111252000Y-82245200D01*
X110693200Y-82245200D01*
X110693200Y-83566000D01*
X110134400Y-83566000D01*
X109372400Y-83566000D01*
X108868213Y-83566000D01*
X108853607Y-83096100D01*
X108839000Y-82626200D01*
X108201380Y-83566000D01*
X107696000Y-83566000D01*
X107696000Y-81788000D01*
X108200188Y-81788000D01*
X108229400Y-82709650D01*
X108844968Y-81813400D01*
X109372400Y-81782690D01*
X109372400Y-83566000D01*
X110134400Y-83566000D01*
X110134400Y-82245200D01*
X109575600Y-82245200D01*
X109575600Y-81788000D01*
X111252000Y-81788000D01*
X111455200Y-81788000D01*
X112014000Y-81788000D01*
X112014000Y-82393971D01*
X112016727Y-82667494D01*
X112026271Y-82857102D01*
X112044677Y-82980368D01*
X112073991Y-83054866D01*
X112093829Y-83079771D01*
X112211058Y-83142415D01*
X112356793Y-83155820D01*
X112482754Y-83118838D01*
X112516680Y-83089811D01*
X112542993Y-83007935D01*
X112564701Y-82840806D01*
X112580146Y-82604730D01*
X112586400Y-82404202D01*
X112598200Y-81788382D01*
X113139280Y-81788000D01*
X116586000Y-81788000D01*
X116586000Y-76301600D01*
X113997717Y-76301600D01*
X113983759Y-77118943D01*
X113969800Y-77936286D01*
X113068100Y-77929683D01*
X112778474Y-77929702D01*
X112527857Y-77933806D01*
X112332303Y-77941396D01*
X112207868Y-77951872D01*
X112169949Y-77963240D01*
X112209876Y-78010417D01*
X112312262Y-78098640D01*
X112456534Y-78210403D01*
X112485814Y-78232000D01*
X112883694Y-78583875D01*
X113228503Y-79012286D01*
X113513131Y-79503159D01*
X113730467Y-80042420D01*
X113873403Y-80615995D01*
X113929369Y-81089500D01*
X113959175Y-81584800D01*
X112426626Y-81584800D01*
X112394054Y-81343500D01*
X112288454Y-80866444D01*
X112109588Y-80420225D01*
X111867834Y-80026376D01*
X111629689Y-79757361D01*
X111490901Y-79632631D01*
X111376532Y-79541678D01*
X111309277Y-79502398D01*
X111305841Y-79502000D01*
X111285109Y-79550322D01*
X111269443Y-79696035D01*
X111258785Y-79940254D01*
X111253080Y-80284097D01*
X111252000Y-80568800D01*
X111252000Y-81635600D01*
X109628382Y-81635600D01*
X109601000Y-79425800D01*
X109244477Y-79781400D01*
X108956954Y-80106231D01*
X108747686Y-80439055D01*
X108600046Y-80811367D01*
X108513894Y-81165170D01*
X108432600Y-81584466D01*
X107654788Y-81584633D01*
X106876975Y-81584800D01*
X106903392Y-81368900D01*
X106922913Y-81197451D01*
X106945684Y-80980595D01*
X106961099Y-80824264D01*
X107015481Y-80497509D01*
X107114415Y-80126739D01*
X107244825Y-79751614D01*
X107393634Y-79411794D01*
X107478867Y-79253834D01*
X107642820Y-79008658D01*
X107847255Y-78750585D01*
X108069935Y-78504046D01*
X108288620Y-78293471D01*
X108481072Y-78143292D01*
X108501494Y-78130400D01*
X108623494Y-78048290D01*
X108698934Y-77983026D01*
X108710634Y-77963083D01*
X108662974Y-77950993D01*
X108529737Y-77941999D01*
X108326916Y-77936545D01*
X108070498Y-77935076D01*
X107797540Y-77937683D01*
X106883079Y-77952600D01*
X106883140Y-77127100D01*
X106883200Y-76301600D01*
X108786844Y-76301600D01*
X108529346Y-76128190D01*
X108282952Y-75932734D01*
X108019671Y-75674331D01*
X107765883Y-75381960D01*
X107547972Y-75084599D01*
X107478867Y-74974310D01*
X107325529Y-74671411D01*
X107183328Y-74311030D01*
X107065373Y-73932912D01*
X106984773Y-73576801D01*
X106961099Y-73404535D01*
X106939714Y-73189918D01*
X106917224Y-72979595D01*
X106903392Y-72859900D01*
X106876975Y-72644000D01*
X107654788Y-72644166D01*
X108432600Y-72644333D01*
X108517828Y-73083706D01*
X108640767Y-73545614D01*
X108822122Y-73939242D01*
X109073630Y-74286550D01*
X109266943Y-74485446D01*
X109601000Y-74797998D01*
X109614711Y-73720999D01*
X109628421Y-72644000D01*
X111252000Y-72644000D01*
X111252000Y-73685400D01*
X111254515Y-74091126D01*
X111262091Y-74396365D01*
X111274781Y-74602105D01*
X111292636Y-74709335D01*
X111305841Y-74726800D01*
X111366768Y-74694049D01*
X111477217Y-74607728D01*
X111614491Y-74485733D01*
X111629689Y-74471438D01*
X111915309Y-74136670D01*
X112146559Y-73731855D01*
X112313062Y-73278527D01*
X112394054Y-72885300D01*
X112426626Y-72644000D01*
X113944400Y-72644000D01*
X113944401Y-72976341D01*
X113896316Y-73561193D01*
X113757201Y-74137662D01*
X113534765Y-74690231D01*
X113236714Y-75203382D01*
X112870758Y-75661594D01*
X112444605Y-76049351D01*
X112402112Y-76081336D01*
X112104424Y-76301600D01*
X113997717Y-76301600D01*
X116586000Y-76301600D01*
X116586000Y-71475600D01*
X104394000Y-71475600D01*
X104394000Y-83972400D01*
X104394000Y-83972400D01*
G37*
X104394000Y-83972400D02*
X116586000Y-83972400D01*
X116586000Y-81788000D01*
X113139280Y-81788000D01*
X113122740Y-82495263D01*
X113115180Y-82778068D01*
X113105803Y-82978250D01*
X113091383Y-83114778D01*
X113068693Y-83206618D01*
X113034507Y-83272740D01*
X112985596Y-83332110D01*
X112979200Y-83339019D01*
X112864607Y-83446334D01*
X112744965Y-83512833D01*
X112591107Y-83548023D01*
X112373865Y-83561414D01*
X112293400Y-83562590D01*
X112063397Y-83554976D01*
X111898843Y-83523081D01*
X111769644Y-83463097D01*
X111648675Y-83370255D01*
X111561811Y-83250913D01*
X111504124Y-83088398D01*
X111470685Y-82866033D01*
X111456565Y-82567145D01*
X111455200Y-82399231D01*
X111455200Y-81788000D01*
X111252000Y-81788000D01*
X111252000Y-82245200D01*
X110693200Y-82245200D01*
X110693200Y-83566000D01*
X110134400Y-83566000D01*
X109372400Y-83566000D01*
X108868213Y-83566000D01*
X108853607Y-83096100D01*
X108839000Y-82626200D01*
X108201380Y-83566000D01*
X107696000Y-83566000D01*
X107696000Y-81788000D01*
X108200188Y-81788000D01*
X108229400Y-82709650D01*
X108844968Y-81813400D01*
X109372400Y-81782690D01*
X109372400Y-83566000D01*
X110134400Y-83566000D01*
X110134400Y-82245200D01*
X109575600Y-82245200D01*
X109575600Y-81788000D01*
X111252000Y-81788000D01*
X111455200Y-81788000D01*
X112014000Y-81788000D01*
X112014000Y-82393971D01*
X112016727Y-82667494D01*
X112026271Y-82857102D01*
X112044677Y-82980368D01*
X112073991Y-83054866D01*
X112093829Y-83079771D01*
X112211058Y-83142415D01*
X112356793Y-83155820D01*
X112482754Y-83118838D01*
X112516680Y-83089811D01*
X112542993Y-83007935D01*
X112564701Y-82840806D01*
X112580146Y-82604730D01*
X112586400Y-82404202D01*
X112598200Y-81788382D01*
X113139280Y-81788000D01*
X116586000Y-81788000D01*
X116586000Y-76301600D01*
X113997717Y-76301600D01*
X113983759Y-77118943D01*
X113969800Y-77936286D01*
X113068100Y-77929683D01*
X112778474Y-77929702D01*
X112527857Y-77933806D01*
X112332303Y-77941396D01*
X112207868Y-77951872D01*
X112169949Y-77963240D01*
X112209876Y-78010417D01*
X112312262Y-78098640D01*
X112456534Y-78210403D01*
X112485814Y-78232000D01*
X112883694Y-78583875D01*
X113228503Y-79012286D01*
X113513131Y-79503159D01*
X113730467Y-80042420D01*
X113873403Y-80615995D01*
X113929369Y-81089500D01*
X113959175Y-81584800D01*
X112426626Y-81584800D01*
X112394054Y-81343500D01*
X112288454Y-80866444D01*
X112109588Y-80420225D01*
X111867834Y-80026376D01*
X111629689Y-79757361D01*
X111490901Y-79632631D01*
X111376532Y-79541678D01*
X111309277Y-79502398D01*
X111305841Y-79502000D01*
X111285109Y-79550322D01*
X111269443Y-79696035D01*
X111258785Y-79940254D01*
X111253080Y-80284097D01*
X111252000Y-80568800D01*
X111252000Y-81635600D01*
X109628382Y-81635600D01*
X109601000Y-79425800D01*
X109244477Y-79781400D01*
X108956954Y-80106231D01*
X108747686Y-80439055D01*
X108600046Y-80811367D01*
X108513894Y-81165170D01*
X108432600Y-81584466D01*
X107654788Y-81584633D01*
X106876975Y-81584800D01*
X106903392Y-81368900D01*
X106922913Y-81197451D01*
X106945684Y-80980595D01*
X106961099Y-80824264D01*
X107015481Y-80497509D01*
X107114415Y-80126739D01*
X107244825Y-79751614D01*
X107393634Y-79411794D01*
X107478867Y-79253834D01*
X107642820Y-79008658D01*
X107847255Y-78750585D01*
X108069935Y-78504046D01*
X108288620Y-78293471D01*
X108481072Y-78143292D01*
X108501494Y-78130400D01*
X108623494Y-78048290D01*
X108698934Y-77983026D01*
X108710634Y-77963083D01*
X108662974Y-77950993D01*
X108529737Y-77941999D01*
X108326916Y-77936545D01*
X108070498Y-77935076D01*
X107797540Y-77937683D01*
X106883079Y-77952600D01*
X106883140Y-77127100D01*
X106883200Y-76301600D01*
X108786844Y-76301600D01*
X108529346Y-76128190D01*
X108282952Y-75932734D01*
X108019671Y-75674331D01*
X107765883Y-75381960D01*
X107547972Y-75084599D01*
X107478867Y-74974310D01*
X107325529Y-74671411D01*
X107183328Y-74311030D01*
X107065373Y-73932912D01*
X106984773Y-73576801D01*
X106961099Y-73404535D01*
X106939714Y-73189918D01*
X106917224Y-72979595D01*
X106903392Y-72859900D01*
X106876975Y-72644000D01*
X107654788Y-72644166D01*
X108432600Y-72644333D01*
X108517828Y-73083706D01*
X108640767Y-73545614D01*
X108822122Y-73939242D01*
X109073630Y-74286550D01*
X109266943Y-74485446D01*
X109601000Y-74797998D01*
X109614711Y-73720999D01*
X109628421Y-72644000D01*
X111252000Y-72644000D01*
X111252000Y-73685400D01*
X111254515Y-74091126D01*
X111262091Y-74396365D01*
X111274781Y-74602105D01*
X111292636Y-74709335D01*
X111305841Y-74726800D01*
X111366768Y-74694049D01*
X111477217Y-74607728D01*
X111614491Y-74485733D01*
X111629689Y-74471438D01*
X111915309Y-74136670D01*
X112146559Y-73731855D01*
X112313062Y-73278527D01*
X112394054Y-72885300D01*
X112426626Y-72644000D01*
X113944400Y-72644000D01*
X113944401Y-72976341D01*
X113896316Y-73561193D01*
X113757201Y-74137662D01*
X113534765Y-74690231D01*
X113236714Y-75203382D01*
X112870758Y-75661594D01*
X112444605Y-76049351D01*
X112402112Y-76081336D01*
X112104424Y-76301600D01*
X113997717Y-76301600D01*
X116586000Y-76301600D01*
X116586000Y-71475600D01*
X104394000Y-71475600D01*
X104394000Y-83972400D01*
D13*
X100330000Y-83820000D03*
X94330000Y-83820000D03*
X97330000Y-88520000D03*
D14*
X114300000Y-105410000D03*
D15*
X114300000Y-102870000D03*
D16*
X129540000Y-93472000D03*
D17*
X137160000Y-93472000D03*
D18*
X141732000Y-102068000D03*
X141732000Y-97068000D03*
D14*
X145000000Y-108000000D03*
D15*
X145000000Y-110540000D03*
X145000000Y-113080000D03*
X145000000Y-115620000D03*
D19*
X111252000Y-123444000D03*
D20*
X108712000Y-123444000D03*
D21*
X112044000Y-91380000D03*
D22*
X110744000Y-96580000D03*
X110744000Y-95280000D03*
X110744000Y-91380000D03*
X110744000Y-92680000D03*
X110744000Y-93980000D03*
D21*
X109444000Y-91380000D03*
X109444000Y-92680000D03*
X109444000Y-93980000D03*
X109444000Y-95280000D03*
X109444000Y-96580000D03*
X112044000Y-96580000D03*
X112044000Y-95280000D03*
X112044000Y-93980000D03*
X112044000Y-92680000D03*
D14*
X106680000Y-105410000D03*
D15*
X106680000Y-102870000D03*
D14*
X110490000Y-105410000D03*
D15*
X110490000Y-102870000D03*
D23*
X116840000Y-124460000D03*
D24*
X121920000Y-124460000D03*
D14*
X119380000Y-74930000D03*
D15*
X121920000Y-74930000D03*
D24*
X127000000Y-104140000D03*
X127000000Y-114300000D03*
X127000000Y-109220000D03*
D25*
X101092000Y-90932000D03*
X102616000Y-90932000D03*
X101092000Y-89408000D03*
X101092000Y-92456000D03*
X98044000Y-94996000D03*
X98044000Y-115824000D03*
X116332000Y-110236000D03*
X116332000Y-98044000D03*
D26*
X119380000Y-74930000D02*
X119380000Y-73660000D01*
X119380000Y-73660000D02*
X120650000Y-72390000D01*
X120650000Y-72390000D02*
X123190000Y-72390000D01*
X123190000Y-72390000D02*
X124460000Y-73660000D01*
X124460000Y-73660000D02*
X124460000Y-114300000D01*
X116840000Y-124460000D02*
X116840000Y-122428000D01*
X122428000Y-120396000D02*
X124460000Y-118364000D01*
X118872000Y-120396000D02*
X122428000Y-120396000D01*
X116840000Y-122428000D02*
X118872000Y-120396000D01*
X124460000Y-114300000D02*
X127000000Y-114300000D01*
X124460000Y-118364000D02*
X124460000Y-113792000D01*
X124460000Y-113792000D02*
X124460000Y-114300000D01*
X101092000Y-92456000D02*
X101092000Y-100076000D01*
X103886000Y-102870000D02*
X106680000Y-102870000D01*
X101092000Y-100076000D02*
X103886000Y-102870000D01*
X101092000Y-89408000D02*
X101092000Y-87376000D01*
X100330000Y-86614000D02*
X100330000Y-83820000D01*
X101092000Y-87376000D02*
X100330000Y-86614000D01*
X101092000Y-90932000D02*
X102616000Y-90932000D01*
X101092000Y-89408000D02*
X101092000Y-90932000D01*
X101092000Y-90932000D02*
X101092000Y-92456000D01*
D11*
X141732000Y-97068000D02*
X141772000Y-97068000D01*
X141772000Y-97068000D02*
X145000000Y-100296000D01*
X145000000Y-100296000D02*
X145000000Y-108000000D01*
X129540000Y-93472000D02*
X129540000Y-99568000D01*
X132040000Y-102068000D02*
X141732000Y-102068000D01*
X129540000Y-99568000D02*
X132040000Y-102068000D01*
X98044000Y-114808000D02*
X98044000Y-115824000D01*
X98044000Y-111252000D02*
X98044000Y-114808000D01*
X98044000Y-104140000D02*
X98044000Y-111252000D01*
X98044000Y-94996000D02*
X98044000Y-104140000D01*
X98044000Y-115824000D02*
X98044000Y-118364000D01*
X103124000Y-123444000D02*
X108712000Y-123444000D01*
X98044000Y-118364000D02*
X103124000Y-123444000D01*
X116332000Y-109220000D02*
X116332000Y-110236000D01*
X116332000Y-98044000D02*
X116332000Y-109220000D01*
D27*
G36*
X146290000Y-106682099D02*
X146101890Y-106553569D01*
X145850000Y-106502560D01*
X145785000Y-106502560D01*
X145785000Y-100296000D01*
X145725245Y-99995594D01*
X145725245Y-99995593D01*
X145555079Y-99740921D01*
X143128785Y-97314627D01*
X143129242Y-96791339D01*
X142917010Y-96277697D01*
X142524370Y-95884371D01*
X142011100Y-95671243D01*
X141455339Y-95670758D01*
X140941697Y-95882990D01*
X140548371Y-96275630D01*
X140335243Y-96788900D01*
X140334758Y-97344661D01*
X140546990Y-97858303D01*
X140939630Y-98251629D01*
X141452900Y-98464757D01*
X142008661Y-98465242D01*
X142044341Y-98450499D01*
X144215000Y-100621158D01*
X144215000Y-106502560D01*
X144150000Y-106502560D01*
X143914683Y-106546838D01*
X143698559Y-106685910D01*
X143553569Y-106898110D01*
X143502560Y-107150000D01*
X143502560Y-108850000D01*
X143546838Y-109085317D01*
X143685910Y-109301441D01*
X143898110Y-109446431D01*
X144006107Y-109468301D01*
X143728355Y-109773076D01*
X143558524Y-110183110D01*
X143679845Y-110413000D01*
X144873000Y-110413000D01*
X144873000Y-110393000D01*
X145127000Y-110393000D01*
X145127000Y-110413000D01*
X145147000Y-110413000D01*
X145147000Y-110667000D01*
X145127000Y-110667000D01*
X145127000Y-110687000D01*
X144873000Y-110687000D01*
X144873000Y-110667000D01*
X143679845Y-110667000D01*
X143558524Y-110896890D01*
X143728355Y-111306924D01*
X144118642Y-111735183D01*
X144261553Y-111802298D01*
X143920853Y-112029946D01*
X143598946Y-112511715D01*
X143485907Y-113080000D01*
X143598946Y-113648285D01*
X143920853Y-114130054D01*
X144261553Y-114357702D01*
X144118642Y-114424817D01*
X143728355Y-114853076D01*
X143558524Y-115263110D01*
X143679845Y-115493000D01*
X144873000Y-115493000D01*
X144873000Y-115473000D01*
X145127000Y-115473000D01*
X145127000Y-115493000D01*
X145147000Y-115493000D01*
X145147000Y-115747000D01*
X145127000Y-115747000D01*
X145127000Y-116940819D01*
X145356892Y-117061486D01*
X145881358Y-116815183D01*
X146271645Y-116386924D01*
X146290000Y-116342608D01*
X146290000Y-127290000D01*
X90710000Y-127290000D01*
X90710000Y-123442619D01*
X92764613Y-123442619D01*
X93104155Y-124264372D01*
X93732321Y-124893636D01*
X94553481Y-125234611D01*
X95442619Y-125235387D01*
X96264372Y-124895845D01*
X96893636Y-124267679D01*
X97234611Y-123446519D01*
X97235387Y-122557381D01*
X96895845Y-121735628D01*
X96267679Y-121106364D01*
X95446519Y-120765389D01*
X94557381Y-120764613D01*
X93735628Y-121104155D01*
X93106364Y-121732321D01*
X92765389Y-122553481D01*
X92764613Y-123442619D01*
X90710000Y-123442619D01*
X90710000Y-95247510D01*
X96773780Y-95247510D01*
X96966718Y-95714458D01*
X97259000Y-96007250D01*
X97259000Y-114813144D01*
X96967974Y-115103663D01*
X96774221Y-115570273D01*
X96773780Y-116075510D01*
X96966718Y-116542458D01*
X97259000Y-116835250D01*
X97259000Y-118364000D01*
X97318755Y-118664407D01*
X97488921Y-118919079D01*
X102568921Y-123999079D01*
X102823594Y-124169245D01*
X103124000Y-124229000D01*
X107515709Y-124229000D01*
X107669189Y-124458698D01*
X108134736Y-124769767D01*
X108683887Y-124879000D01*
X108740113Y-124879000D01*
X109289264Y-124769767D01*
X109754811Y-124458698D01*
X109759456Y-124451745D01*
X110423861Y-124451745D01*
X110497995Y-124697864D01*
X111035223Y-124890965D01*
X111605454Y-124863778D01*
X112006005Y-124697864D01*
X112080139Y-124451745D01*
X111252000Y-123623605D01*
X110423861Y-124451745D01*
X109759456Y-124451745D01*
X109971679Y-124134132D01*
X109998136Y-124198005D01*
X110244255Y-124272139D01*
X111072395Y-123444000D01*
X111431605Y-123444000D01*
X112259745Y-124272139D01*
X112505864Y-124198005D01*
X112698965Y-123660777D01*
X112671778Y-123090546D01*
X112617704Y-122960000D01*
X114692560Y-122960000D01*
X114692560Y-125960000D01*
X114736838Y-126195317D01*
X114875910Y-126411441D01*
X115088110Y-126556431D01*
X115340000Y-126607440D01*
X118340000Y-126607440D01*
X118575317Y-126563162D01*
X118791441Y-126424090D01*
X118936431Y-126211890D01*
X118984611Y-125973970D01*
X120585635Y-125973970D01*
X120745418Y-126292739D01*
X121536187Y-126602723D01*
X122385387Y-126586497D01*
X123094582Y-126292739D01*
X123254365Y-125973970D01*
X121920000Y-124639605D01*
X120585635Y-125973970D01*
X118984611Y-125973970D01*
X118987440Y-125960000D01*
X118987440Y-124076187D01*
X119777277Y-124076187D01*
X119793503Y-124925387D01*
X120087261Y-125634582D01*
X120406030Y-125794365D01*
X121740395Y-124460000D01*
X122099605Y-124460000D01*
X123433970Y-125794365D01*
X123752739Y-125634582D01*
X124062723Y-124843813D01*
X124046497Y-123994613D01*
X123817854Y-123442619D01*
X139764613Y-123442619D01*
X140104155Y-124264372D01*
X140732321Y-124893636D01*
X141553481Y-125234611D01*
X142442619Y-125235387D01*
X143264372Y-124895845D01*
X143893636Y-124267679D01*
X144234611Y-123446519D01*
X144235387Y-122557381D01*
X143895845Y-121735628D01*
X143267679Y-121106364D01*
X142446519Y-120765389D01*
X141557381Y-120764613D01*
X140735628Y-121104155D01*
X140106364Y-121732321D01*
X139765389Y-122553481D01*
X139764613Y-123442619D01*
X123817854Y-123442619D01*
X123752739Y-123285418D01*
X123433970Y-123125635D01*
X122099605Y-124460000D01*
X121740395Y-124460000D01*
X120406030Y-123125635D01*
X120087261Y-123285418D01*
X119777277Y-124076187D01*
X118987440Y-124076187D01*
X118987440Y-122960000D01*
X118984812Y-122946030D01*
X120585635Y-122946030D01*
X121920000Y-124280395D01*
X123254365Y-122946030D01*
X123094582Y-122627261D01*
X122303813Y-122317277D01*
X121454613Y-122333503D01*
X120745418Y-122627261D01*
X120585635Y-122946030D01*
X118984812Y-122946030D01*
X118943162Y-122724683D01*
X118804090Y-122508559D01*
X118591890Y-122363569D01*
X118340000Y-122312560D01*
X118136308Y-122312560D01*
X119217868Y-121231000D01*
X122428000Y-121231000D01*
X122747541Y-121167439D01*
X123018434Y-120986434D01*
X125050434Y-118954434D01*
X125074057Y-118919079D01*
X125231439Y-118683541D01*
X125295000Y-118364000D01*
X125295000Y-115614005D01*
X125789041Y-116108909D01*
X126573459Y-116434628D01*
X127422815Y-116435370D01*
X128207800Y-116111020D01*
X128342164Y-115976890D01*
X143558524Y-115976890D01*
X143728355Y-116386924D01*
X144118642Y-116815183D01*
X144643108Y-117061486D01*
X144873000Y-116940819D01*
X144873000Y-115747000D01*
X143679845Y-115747000D01*
X143558524Y-115976890D01*
X128342164Y-115976890D01*
X128808909Y-115510959D01*
X129134628Y-114726541D01*
X129135370Y-113877185D01*
X128811020Y-113092200D01*
X128210959Y-112491091D01*
X127426541Y-112165372D01*
X126577185Y-112164630D01*
X125792200Y-112488980D01*
X125295000Y-112985313D01*
X125295000Y-110534005D01*
X125789041Y-111028909D01*
X126573459Y-111354628D01*
X127422815Y-111355370D01*
X128207800Y-111031020D01*
X128808909Y-110430959D01*
X129134628Y-109646541D01*
X129135370Y-108797185D01*
X128811020Y-108012200D01*
X128210959Y-107411091D01*
X127426541Y-107085372D01*
X126577185Y-107084630D01*
X125792200Y-107408980D01*
X125295000Y-107905313D01*
X125295000Y-105454005D01*
X125789041Y-105948909D01*
X126573459Y-106274628D01*
X127422815Y-106275370D01*
X128207800Y-105951020D01*
X128808909Y-105350959D01*
X129134628Y-104566541D01*
X129135370Y-103717185D01*
X128811020Y-102932200D01*
X128210959Y-102331091D01*
X127426541Y-102005372D01*
X126577185Y-102004630D01*
X125792200Y-102328980D01*
X125295000Y-102825313D01*
X125295000Y-92372000D01*
X127792560Y-92372000D01*
X127792560Y-94572000D01*
X127836838Y-94807317D01*
X127975910Y-95023441D01*
X128188110Y-95168431D01*
X128440000Y-95219440D01*
X128755000Y-95219440D01*
X128755000Y-99568000D01*
X128814755Y-99868407D01*
X128984921Y-100123079D01*
X131484921Y-102623079D01*
X131739594Y-102793245D01*
X132040000Y-102853000D01*
X140544799Y-102853000D01*
X140546990Y-102858303D01*
X140939630Y-103251629D01*
X141452900Y-103464757D01*
X142008661Y-103465242D01*
X142522303Y-103253010D01*
X142915629Y-102860370D01*
X143128757Y-102347100D01*
X143129242Y-101791339D01*
X142917010Y-101277697D01*
X142524370Y-100884371D01*
X142011100Y-100671243D01*
X141455339Y-100670758D01*
X140941697Y-100882990D01*
X140548371Y-101275630D01*
X140545311Y-101283000D01*
X132365158Y-101283000D01*
X130325000Y-99242842D01*
X130325000Y-95219440D01*
X130640000Y-95219440D01*
X130875317Y-95175162D01*
X131091441Y-95036090D01*
X131236431Y-94823890D01*
X131287440Y-94572000D01*
X131287440Y-93868122D01*
X135470825Y-93868122D01*
X135685466Y-94386332D01*
X136147608Y-94881012D01*
X136763877Y-95161183D01*
X137033000Y-95043604D01*
X137033000Y-93599000D01*
X137287000Y-93599000D01*
X137287000Y-95043604D01*
X137556123Y-95161183D01*
X138172392Y-94881012D01*
X138634534Y-94386332D01*
X138849175Y-93868122D01*
X138731125Y-93599000D01*
X137287000Y-93599000D01*
X137033000Y-93599000D01*
X135588875Y-93599000D01*
X135470825Y-93868122D01*
X131287440Y-93868122D01*
X131287440Y-93075878D01*
X135470825Y-93075878D01*
X135588875Y-93345000D01*
X137033000Y-93345000D01*
X137033000Y-91900396D01*
X137287000Y-91900396D01*
X137287000Y-93345000D01*
X138731125Y-93345000D01*
X138849175Y-93075878D01*
X138634534Y-92557668D01*
X138172392Y-92062988D01*
X137556123Y-91782817D01*
X137287000Y-91900396D01*
X137033000Y-91900396D01*
X136763877Y-91782817D01*
X136147608Y-92062988D01*
X135685466Y-92557668D01*
X135470825Y-93075878D01*
X131287440Y-93075878D01*
X131287440Y-92372000D01*
X131243162Y-92136683D01*
X131104090Y-91920559D01*
X130891890Y-91775569D01*
X130640000Y-91724560D01*
X128440000Y-91724560D01*
X128204683Y-91768838D01*
X127988559Y-91907910D01*
X127843569Y-92120110D01*
X127792560Y-92372000D01*
X125295000Y-92372000D01*
X125295000Y-75442619D01*
X139764613Y-75442619D01*
X140104155Y-76264372D01*
X140732321Y-76893636D01*
X141553481Y-77234611D01*
X142442619Y-77235387D01*
X143264372Y-76895845D01*
X143893636Y-76267679D01*
X144234611Y-75446519D01*
X144235387Y-74557381D01*
X143895845Y-73735628D01*
X143267679Y-73106364D01*
X142446519Y-72765389D01*
X141557381Y-72764613D01*
X140735628Y-73104155D01*
X140106364Y-73732321D01*
X139765389Y-74553481D01*
X139764613Y-75442619D01*
X125295000Y-75442619D01*
X125295000Y-73660000D01*
X125231439Y-73340459D01*
X125050434Y-73069566D01*
X123780434Y-71799566D01*
X123509541Y-71618561D01*
X123190000Y-71555000D01*
X120650000Y-71555000D01*
X120330459Y-71618561D01*
X120059566Y-71799566D01*
X118789566Y-73069566D01*
X118608561Y-73340459D01*
X118590241Y-73432560D01*
X118530000Y-73432560D01*
X118294683Y-73476838D01*
X118078559Y-73615910D01*
X117933569Y-73828110D01*
X117882560Y-74080000D01*
X117882560Y-75780000D01*
X117926838Y-76015317D01*
X118065910Y-76231441D01*
X118278110Y-76376431D01*
X118530000Y-76427440D01*
X120230000Y-76427440D01*
X120465317Y-76383162D01*
X120681441Y-76244090D01*
X120826431Y-76031890D01*
X120840086Y-75964459D01*
X120869946Y-76009147D01*
X121351715Y-76331054D01*
X121920000Y-76444093D01*
X122488285Y-76331054D01*
X122970054Y-76009147D01*
X123291961Y-75527378D01*
X123405000Y-74959093D01*
X123405000Y-74900907D01*
X123291961Y-74332622D01*
X122970054Y-73850853D01*
X122488285Y-73528946D01*
X121920000Y-73415907D01*
X121351715Y-73528946D01*
X120869946Y-73850853D01*
X120842150Y-73892452D01*
X120833162Y-73844683D01*
X120694090Y-73628559D01*
X120633624Y-73587244D01*
X120995868Y-73225000D01*
X122844132Y-73225000D01*
X123625000Y-74005868D01*
X123625000Y-118018132D01*
X122082132Y-119561000D01*
X118872000Y-119561000D01*
X118552459Y-119624561D01*
X118281566Y-119805566D01*
X116249566Y-121837566D01*
X116068561Y-122108459D01*
X116027963Y-122312560D01*
X115340000Y-122312560D01*
X115104683Y-122356838D01*
X114888559Y-122495910D01*
X114743569Y-122708110D01*
X114692560Y-122960000D01*
X112617704Y-122960000D01*
X112505864Y-122689995D01*
X112259745Y-122615861D01*
X111431605Y-123444000D01*
X111072395Y-123444000D01*
X110244255Y-122615861D01*
X109998136Y-122689995D01*
X109973954Y-122757272D01*
X109759457Y-122436255D01*
X110423861Y-122436255D01*
X111252000Y-123264395D01*
X112080139Y-122436255D01*
X112006005Y-122190136D01*
X111468777Y-121997035D01*
X110898546Y-122024222D01*
X110497995Y-122190136D01*
X110423861Y-122436255D01*
X109759457Y-122436255D01*
X109754811Y-122429302D01*
X109289264Y-122118233D01*
X108740113Y-122009000D01*
X108683887Y-122009000D01*
X108134736Y-122118233D01*
X107669189Y-122429302D01*
X107515709Y-122659000D01*
X103449158Y-122659000D01*
X98829000Y-118038842D01*
X98829000Y-116834856D01*
X99120026Y-116544337D01*
X99313779Y-116077727D01*
X99314220Y-115572490D01*
X99121282Y-115105542D01*
X98829000Y-114812750D01*
X98829000Y-110931000D01*
X103549286Y-110931000D01*
X103549286Y-119851000D01*
X114890715Y-119851000D01*
X114890715Y-110931000D01*
X103549286Y-110931000D01*
X98829000Y-110931000D01*
X98829000Y-96006856D01*
X99120026Y-95716337D01*
X99313779Y-95249727D01*
X99314220Y-94744490D01*
X99121282Y-94277542D01*
X98764337Y-93919974D01*
X98297727Y-93726221D01*
X97792490Y-93725780D01*
X97325542Y-93918718D01*
X96967974Y-94275663D01*
X96774221Y-94742273D01*
X96773780Y-95247510D01*
X90710000Y-95247510D01*
X90710000Y-88805750D01*
X94945000Y-88805750D01*
X94945000Y-90396310D01*
X95041673Y-90629699D01*
X95220302Y-90808327D01*
X95453691Y-90905000D01*
X97044250Y-90905000D01*
X97203000Y-90746250D01*
X97203000Y-88647000D01*
X97457000Y-88647000D01*
X97457000Y-90746250D01*
X97615750Y-90905000D01*
X99206309Y-90905000D01*
X99439698Y-90808327D01*
X99618327Y-90629699D01*
X99715000Y-90396310D01*
X99715000Y-88805750D01*
X99556250Y-88647000D01*
X97457000Y-88647000D01*
X97203000Y-88647000D01*
X95103750Y-88647000D01*
X94945000Y-88805750D01*
X90710000Y-88805750D01*
X90710000Y-84105750D01*
X91945000Y-84105750D01*
X91945000Y-85696310D01*
X92041673Y-85929699D01*
X92220302Y-86108327D01*
X92453691Y-86205000D01*
X94044250Y-86205000D01*
X94203000Y-86046250D01*
X94203000Y-83947000D01*
X94457000Y-83947000D01*
X94457000Y-86046250D01*
X94615750Y-86205000D01*
X95284696Y-86205000D01*
X95220302Y-86231673D01*
X95041673Y-86410301D01*
X94945000Y-86643690D01*
X94945000Y-88234250D01*
X95103750Y-88393000D01*
X97203000Y-88393000D01*
X97203000Y-86293750D01*
X97457000Y-86293750D01*
X97457000Y-88393000D01*
X99556250Y-88393000D01*
X99715000Y-88234250D01*
X99715000Y-87167668D01*
X99739566Y-87204434D01*
X100257000Y-87721868D01*
X100257000Y-88447057D01*
X100015974Y-88687663D01*
X99822221Y-89154273D01*
X99821780Y-89659510D01*
X100014718Y-90126458D01*
X100057947Y-90169763D01*
X100015974Y-90211663D01*
X99822221Y-90678273D01*
X99821780Y-91183510D01*
X100014718Y-91650458D01*
X100057947Y-91693763D01*
X100015974Y-91735663D01*
X99822221Y-92202273D01*
X99821780Y-92707510D01*
X100014718Y-93174458D01*
X100257000Y-93417163D01*
X100257000Y-100076000D01*
X100320561Y-100395541D01*
X100454775Y-100596406D01*
X100501566Y-100666434D01*
X103295566Y-103460434D01*
X103566460Y-103641440D01*
X103886000Y-103705000D01*
X105457159Y-103705000D01*
X105600853Y-103920054D01*
X105642452Y-103947850D01*
X105594683Y-103956838D01*
X105378559Y-104095910D01*
X105233569Y-104308110D01*
X105182560Y-104560000D01*
X105182560Y-106260000D01*
X105226838Y-106495317D01*
X105365910Y-106711441D01*
X105578110Y-106856431D01*
X105830000Y-106907440D01*
X107530000Y-106907440D01*
X107765317Y-106863162D01*
X107981441Y-106724090D01*
X108126431Y-106511890D01*
X108177440Y-106260000D01*
X108177440Y-104560000D01*
X108992560Y-104560000D01*
X108992560Y-106260000D01*
X109036838Y-106495317D01*
X109175910Y-106711441D01*
X109388110Y-106856431D01*
X109640000Y-106907440D01*
X111340000Y-106907440D01*
X111575317Y-106863162D01*
X111791441Y-106724090D01*
X111936431Y-106511890D01*
X111987440Y-106260000D01*
X111987440Y-104560000D01*
X111943162Y-104324683D01*
X111804090Y-104108559D01*
X111591890Y-103963569D01*
X111483893Y-103941699D01*
X111761645Y-103636924D01*
X111931476Y-103226890D01*
X111810155Y-102997000D01*
X110617000Y-102997000D01*
X110617000Y-103017000D01*
X110363000Y-103017000D01*
X110363000Y-102997000D01*
X109169845Y-102997000D01*
X109048524Y-103226890D01*
X109218355Y-103636924D01*
X109494501Y-103939937D01*
X109404683Y-103956838D01*
X109188559Y-104095910D01*
X109043569Y-104308110D01*
X108992560Y-104560000D01*
X108177440Y-104560000D01*
X108133162Y-104324683D01*
X107994090Y-104108559D01*
X107781890Y-103963569D01*
X107714459Y-103949914D01*
X107759147Y-103920054D01*
X108081054Y-103438285D01*
X108194093Y-102870000D01*
X112785907Y-102870000D01*
X112898946Y-103438285D01*
X113220853Y-103920054D01*
X113262452Y-103947850D01*
X113214683Y-103956838D01*
X112998559Y-104095910D01*
X112853569Y-104308110D01*
X112802560Y-104560000D01*
X112802560Y-106260000D01*
X112846838Y-106495317D01*
X112985910Y-106711441D01*
X113198110Y-106856431D01*
X113450000Y-106907440D01*
X115150000Y-106907440D01*
X115385317Y-106863162D01*
X115547000Y-106759122D01*
X115547000Y-109225144D01*
X115255974Y-109515663D01*
X115062221Y-109982273D01*
X115061780Y-110487510D01*
X115254718Y-110954458D01*
X115611663Y-111312026D01*
X116078273Y-111505779D01*
X116583510Y-111506220D01*
X117050458Y-111313282D01*
X117408026Y-110956337D01*
X117601779Y-110489727D01*
X117602220Y-109984490D01*
X117409282Y-109517542D01*
X117117000Y-109224750D01*
X117117000Y-99054856D01*
X117408026Y-98764337D01*
X117601779Y-98297727D01*
X117602220Y-97792490D01*
X117409282Y-97325542D01*
X117052337Y-96967974D01*
X116585727Y-96774221D01*
X116080490Y-96773780D01*
X115613542Y-96966718D01*
X115255974Y-97323663D01*
X115062221Y-97790273D01*
X115061780Y-98295510D01*
X115254718Y-98762458D01*
X115547000Y-99055250D01*
X115547000Y-102071156D01*
X115379147Y-101819946D01*
X114897378Y-101498039D01*
X114329093Y-101385000D01*
X114270907Y-101385000D01*
X113702622Y-101498039D01*
X113220853Y-101819946D01*
X112898946Y-102301715D01*
X112785907Y-102870000D01*
X108194093Y-102870000D01*
X108123104Y-102513110D01*
X109048524Y-102513110D01*
X109169845Y-102743000D01*
X110363000Y-102743000D01*
X110363000Y-101549181D01*
X110617000Y-101549181D01*
X110617000Y-102743000D01*
X111810155Y-102743000D01*
X111931476Y-102513110D01*
X111761645Y-102103076D01*
X111371358Y-101674817D01*
X110846892Y-101428514D01*
X110617000Y-101549181D01*
X110363000Y-101549181D01*
X110133108Y-101428514D01*
X109608642Y-101674817D01*
X109218355Y-102103076D01*
X109048524Y-102513110D01*
X108123104Y-102513110D01*
X108081054Y-102301715D01*
X107759147Y-101819946D01*
X107277378Y-101498039D01*
X106709093Y-101385000D01*
X106650907Y-101385000D01*
X106082622Y-101498039D01*
X105600853Y-101819946D01*
X105457159Y-102035000D01*
X104231868Y-102035000D01*
X101927000Y-99730132D01*
X101927000Y-93416943D01*
X102168026Y-93176337D01*
X102361779Y-92709727D01*
X102362220Y-92204490D01*
X102360857Y-92201191D01*
X102362273Y-92201779D01*
X102867510Y-92202220D01*
X103334458Y-92009282D01*
X103692026Y-91652337D01*
X103885779Y-91185727D01*
X103886176Y-90730000D01*
X108396560Y-90730000D01*
X108396560Y-97230000D01*
X108440838Y-97465317D01*
X108579910Y-97681441D01*
X108792110Y-97826431D01*
X109044000Y-97877440D01*
X112444000Y-97877440D01*
X112679317Y-97833162D01*
X112895441Y-97694090D01*
X113040431Y-97481890D01*
X113091440Y-97230000D01*
X113091440Y-90730000D01*
X113047162Y-90494683D01*
X112908090Y-90278559D01*
X112695890Y-90133569D01*
X112444000Y-90082560D01*
X109044000Y-90082560D01*
X108808683Y-90126838D01*
X108592559Y-90265910D01*
X108447569Y-90478110D01*
X108396560Y-90730000D01*
X103886176Y-90730000D01*
X103886220Y-90680490D01*
X103693282Y-90213542D01*
X103336337Y-89855974D01*
X102869727Y-89662221D01*
X102364490Y-89661780D01*
X102361191Y-89663143D01*
X102361779Y-89661727D01*
X102362220Y-89156490D01*
X102169282Y-88689542D01*
X101927000Y-88446837D01*
X101927000Y-87376000D01*
X101863440Y-87056460D01*
X101682434Y-86785566D01*
X101165000Y-86268132D01*
X101165000Y-86217440D01*
X102080000Y-86217440D01*
X102315317Y-86173162D01*
X102531441Y-86034090D01*
X102676431Y-85821890D01*
X102727440Y-85570000D01*
X102727440Y-82070000D01*
X102683162Y-81834683D01*
X102544090Y-81618559D01*
X102331890Y-81473569D01*
X102080000Y-81422560D01*
X98580000Y-81422560D01*
X98344683Y-81466838D01*
X98128559Y-81605910D01*
X97983569Y-81818110D01*
X97932560Y-82070000D01*
X97932560Y-85570000D01*
X97976838Y-85805317D01*
X98115910Y-86021441D01*
X98282109Y-86135000D01*
X97615750Y-86135000D01*
X97457000Y-86293750D01*
X97203000Y-86293750D01*
X97044250Y-86135000D01*
X96375304Y-86135000D01*
X96439698Y-86108327D01*
X96618327Y-85929699D01*
X96715000Y-85696310D01*
X96715000Y-84105750D01*
X96556250Y-83947000D01*
X94457000Y-83947000D01*
X94203000Y-83947000D01*
X92103750Y-83947000D01*
X91945000Y-84105750D01*
X90710000Y-84105750D01*
X90710000Y-81943690D01*
X91945000Y-81943690D01*
X91945000Y-83534250D01*
X92103750Y-83693000D01*
X94203000Y-83693000D01*
X94203000Y-81593750D01*
X94457000Y-81593750D01*
X94457000Y-83693000D01*
X96556250Y-83693000D01*
X96715000Y-83534250D01*
X96715000Y-81943690D01*
X96618327Y-81710301D01*
X96439698Y-81531673D01*
X96206309Y-81435000D01*
X94615750Y-81435000D01*
X94457000Y-81593750D01*
X94203000Y-81593750D01*
X94044250Y-81435000D01*
X92453691Y-81435000D01*
X92220302Y-81531673D01*
X92041673Y-81710301D01*
X91945000Y-81943690D01*
X90710000Y-81943690D01*
X90710000Y-75442619D01*
X92764613Y-75442619D01*
X93104155Y-76264372D01*
X93732321Y-76893636D01*
X94553481Y-77234611D01*
X95442619Y-77235387D01*
X96264372Y-76895845D01*
X96893636Y-76267679D01*
X97234611Y-75446519D01*
X97235387Y-74557381D01*
X96895845Y-73735628D01*
X96267679Y-73106364D01*
X95446519Y-72765389D01*
X94557381Y-72764613D01*
X93735628Y-73104155D01*
X93106364Y-73732321D01*
X92765389Y-74553481D01*
X92764613Y-75442619D01*
X90710000Y-75442619D01*
X90710000Y-71475600D01*
X103754000Y-71475600D01*
X103754000Y-83972400D01*
X103802717Y-84217317D01*
X103941452Y-84424948D01*
X104149083Y-84563683D01*
X104394000Y-84612400D01*
X116586000Y-84612400D01*
X116830917Y-84563683D01*
X117038548Y-84424948D01*
X117177283Y-84217317D01*
X117226000Y-83972400D01*
X117226000Y-71475600D01*
X117177283Y-71230683D01*
X117038548Y-71023052D01*
X116830917Y-70884317D01*
X116586000Y-70835600D01*
X104394000Y-70835600D01*
X104149083Y-70884317D01*
X103941452Y-71023052D01*
X103802717Y-71230683D01*
X103754000Y-71475600D01*
X90710000Y-71475600D01*
X90710000Y-70710000D01*
X146290000Y-70710000D01*
X146290000Y-106682099D01*
X146290000Y-106682099D01*
G37*
X146290000Y-106682099D02*
X146101890Y-106553569D01*
X145850000Y-106502560D01*
X145785000Y-106502560D01*
X145785000Y-100296000D01*
X145725245Y-99995594D01*
X145725245Y-99995593D01*
X145555079Y-99740921D01*
X143128785Y-97314627D01*
X143129242Y-96791339D01*
X142917010Y-96277697D01*
X142524370Y-95884371D01*
X142011100Y-95671243D01*
X141455339Y-95670758D01*
X140941697Y-95882990D01*
X140548371Y-96275630D01*
X140335243Y-96788900D01*
X140334758Y-97344661D01*
X140546990Y-97858303D01*
X140939630Y-98251629D01*
X141452900Y-98464757D01*
X142008661Y-98465242D01*
X142044341Y-98450499D01*
X144215000Y-100621158D01*
X144215000Y-106502560D01*
X144150000Y-106502560D01*
X143914683Y-106546838D01*
X143698559Y-106685910D01*
X143553569Y-106898110D01*
X143502560Y-107150000D01*
X143502560Y-108850000D01*
X143546838Y-109085317D01*
X143685910Y-109301441D01*
X143898110Y-109446431D01*
X144006107Y-109468301D01*
X143728355Y-109773076D01*
X143558524Y-110183110D01*
X143679845Y-110413000D01*
X144873000Y-110413000D01*
X144873000Y-110393000D01*
X145127000Y-110393000D01*
X145127000Y-110413000D01*
X145147000Y-110413000D01*
X145147000Y-110667000D01*
X145127000Y-110667000D01*
X145127000Y-110687000D01*
X144873000Y-110687000D01*
X144873000Y-110667000D01*
X143679845Y-110667000D01*
X143558524Y-110896890D01*
X143728355Y-111306924D01*
X144118642Y-111735183D01*
X144261553Y-111802298D01*
X143920853Y-112029946D01*
X143598946Y-112511715D01*
X143485907Y-113080000D01*
X143598946Y-113648285D01*
X143920853Y-114130054D01*
X144261553Y-114357702D01*
X144118642Y-114424817D01*
X143728355Y-114853076D01*
X143558524Y-115263110D01*
X143679845Y-115493000D01*
X144873000Y-115493000D01*
X144873000Y-115473000D01*
X145127000Y-115473000D01*
X145127000Y-115493000D01*
X145147000Y-115493000D01*
X145147000Y-115747000D01*
X145127000Y-115747000D01*
X145127000Y-116940819D01*
X145356892Y-117061486D01*
X145881358Y-116815183D01*
X146271645Y-116386924D01*
X146290000Y-116342608D01*
X146290000Y-127290000D01*
X90710000Y-127290000D01*
X90710000Y-123442619D01*
X92764613Y-123442619D01*
X93104155Y-124264372D01*
X93732321Y-124893636D01*
X94553481Y-125234611D01*
X95442619Y-125235387D01*
X96264372Y-124895845D01*
X96893636Y-124267679D01*
X97234611Y-123446519D01*
X97235387Y-122557381D01*
X96895845Y-121735628D01*
X96267679Y-121106364D01*
X95446519Y-120765389D01*
X94557381Y-120764613D01*
X93735628Y-121104155D01*
X93106364Y-121732321D01*
X92765389Y-122553481D01*
X92764613Y-123442619D01*
X90710000Y-123442619D01*
X90710000Y-95247510D01*
X96773780Y-95247510D01*
X96966718Y-95714458D01*
X97259000Y-96007250D01*
X97259000Y-114813144D01*
X96967974Y-115103663D01*
X96774221Y-115570273D01*
X96773780Y-116075510D01*
X96966718Y-116542458D01*
X97259000Y-116835250D01*
X97259000Y-118364000D01*
X97318755Y-118664407D01*
X97488921Y-118919079D01*
X102568921Y-123999079D01*
X102823594Y-124169245D01*
X103124000Y-124229000D01*
X107515709Y-124229000D01*
X107669189Y-124458698D01*
X108134736Y-124769767D01*
X108683887Y-124879000D01*
X108740113Y-124879000D01*
X109289264Y-124769767D01*
X109754811Y-124458698D01*
X109759456Y-124451745D01*
X110423861Y-124451745D01*
X110497995Y-124697864D01*
X111035223Y-124890965D01*
X111605454Y-124863778D01*
X112006005Y-124697864D01*
X112080139Y-124451745D01*
X111252000Y-123623605D01*
X110423861Y-124451745D01*
X109759456Y-124451745D01*
X109971679Y-124134132D01*
X109998136Y-124198005D01*
X110244255Y-124272139D01*
X111072395Y-123444000D01*
X111431605Y-123444000D01*
X112259745Y-124272139D01*
X112505864Y-124198005D01*
X112698965Y-123660777D01*
X112671778Y-123090546D01*
X112617704Y-122960000D01*
X114692560Y-122960000D01*
X114692560Y-125960000D01*
X114736838Y-126195317D01*
X114875910Y-126411441D01*
X115088110Y-126556431D01*
X115340000Y-126607440D01*
X118340000Y-126607440D01*
X118575317Y-126563162D01*
X118791441Y-126424090D01*
X118936431Y-126211890D01*
X118984611Y-125973970D01*
X120585635Y-125973970D01*
X120745418Y-126292739D01*
X121536187Y-126602723D01*
X122385387Y-126586497D01*
X123094582Y-126292739D01*
X123254365Y-125973970D01*
X121920000Y-124639605D01*
X120585635Y-125973970D01*
X118984611Y-125973970D01*
X118987440Y-125960000D01*
X118987440Y-124076187D01*
X119777277Y-124076187D01*
X119793503Y-124925387D01*
X120087261Y-125634582D01*
X120406030Y-125794365D01*
X121740395Y-124460000D01*
X122099605Y-124460000D01*
X123433970Y-125794365D01*
X123752739Y-125634582D01*
X124062723Y-124843813D01*
X124046497Y-123994613D01*
X123817854Y-123442619D01*
X139764613Y-123442619D01*
X140104155Y-124264372D01*
X140732321Y-124893636D01*
X141553481Y-125234611D01*
X142442619Y-125235387D01*
X143264372Y-124895845D01*
X143893636Y-124267679D01*
X144234611Y-123446519D01*
X144235387Y-122557381D01*
X143895845Y-121735628D01*
X143267679Y-121106364D01*
X142446519Y-120765389D01*
X141557381Y-120764613D01*
X140735628Y-121104155D01*
X140106364Y-121732321D01*
X139765389Y-122553481D01*
X139764613Y-123442619D01*
X123817854Y-123442619D01*
X123752739Y-123285418D01*
X123433970Y-123125635D01*
X122099605Y-124460000D01*
X121740395Y-124460000D01*
X120406030Y-123125635D01*
X120087261Y-123285418D01*
X119777277Y-124076187D01*
X118987440Y-124076187D01*
X118987440Y-122960000D01*
X118984812Y-122946030D01*
X120585635Y-122946030D01*
X121920000Y-124280395D01*
X123254365Y-122946030D01*
X123094582Y-122627261D01*
X122303813Y-122317277D01*
X121454613Y-122333503D01*
X120745418Y-122627261D01*
X120585635Y-122946030D01*
X118984812Y-122946030D01*
X118943162Y-122724683D01*
X118804090Y-122508559D01*
X118591890Y-122363569D01*
X118340000Y-122312560D01*
X118136308Y-122312560D01*
X119217868Y-121231000D01*
X122428000Y-121231000D01*
X122747541Y-121167439D01*
X123018434Y-120986434D01*
X125050434Y-118954434D01*
X125074057Y-118919079D01*
X125231439Y-118683541D01*
X125295000Y-118364000D01*
X125295000Y-115614005D01*
X125789041Y-116108909D01*
X126573459Y-116434628D01*
X127422815Y-116435370D01*
X128207800Y-116111020D01*
X128342164Y-115976890D01*
X143558524Y-115976890D01*
X143728355Y-116386924D01*
X144118642Y-116815183D01*
X144643108Y-117061486D01*
X144873000Y-116940819D01*
X144873000Y-115747000D01*
X143679845Y-115747000D01*
X143558524Y-115976890D01*
X128342164Y-115976890D01*
X128808909Y-115510959D01*
X129134628Y-114726541D01*
X129135370Y-113877185D01*
X128811020Y-113092200D01*
X128210959Y-112491091D01*
X127426541Y-112165372D01*
X126577185Y-112164630D01*
X125792200Y-112488980D01*
X125295000Y-112985313D01*
X125295000Y-110534005D01*
X125789041Y-111028909D01*
X126573459Y-111354628D01*
X127422815Y-111355370D01*
X128207800Y-111031020D01*
X128808909Y-110430959D01*
X129134628Y-109646541D01*
X129135370Y-108797185D01*
X128811020Y-108012200D01*
X128210959Y-107411091D01*
X127426541Y-107085372D01*
X126577185Y-107084630D01*
X125792200Y-107408980D01*
X125295000Y-107905313D01*
X125295000Y-105454005D01*
X125789041Y-105948909D01*
X126573459Y-106274628D01*
X127422815Y-106275370D01*
X128207800Y-105951020D01*
X128808909Y-105350959D01*
X129134628Y-104566541D01*
X129135370Y-103717185D01*
X128811020Y-102932200D01*
X128210959Y-102331091D01*
X127426541Y-102005372D01*
X126577185Y-102004630D01*
X125792200Y-102328980D01*
X125295000Y-102825313D01*
X125295000Y-92372000D01*
X127792560Y-92372000D01*
X127792560Y-94572000D01*
X127836838Y-94807317D01*
X127975910Y-95023441D01*
X128188110Y-95168431D01*
X128440000Y-95219440D01*
X128755000Y-95219440D01*
X128755000Y-99568000D01*
X128814755Y-99868407D01*
X128984921Y-100123079D01*
X131484921Y-102623079D01*
X131739594Y-102793245D01*
X132040000Y-102853000D01*
X140544799Y-102853000D01*
X140546990Y-102858303D01*
X140939630Y-103251629D01*
X141452900Y-103464757D01*
X142008661Y-103465242D01*
X142522303Y-103253010D01*
X142915629Y-102860370D01*
X143128757Y-102347100D01*
X143129242Y-101791339D01*
X142917010Y-101277697D01*
X142524370Y-100884371D01*
X142011100Y-100671243D01*
X141455339Y-100670758D01*
X140941697Y-100882990D01*
X140548371Y-101275630D01*
X140545311Y-101283000D01*
X132365158Y-101283000D01*
X130325000Y-99242842D01*
X130325000Y-95219440D01*
X130640000Y-95219440D01*
X130875317Y-95175162D01*
X131091441Y-95036090D01*
X131236431Y-94823890D01*
X131287440Y-94572000D01*
X131287440Y-93868122D01*
X135470825Y-93868122D01*
X135685466Y-94386332D01*
X136147608Y-94881012D01*
X136763877Y-95161183D01*
X137033000Y-95043604D01*
X137033000Y-93599000D01*
X137287000Y-93599000D01*
X137287000Y-95043604D01*
X137556123Y-95161183D01*
X138172392Y-94881012D01*
X138634534Y-94386332D01*
X138849175Y-93868122D01*
X138731125Y-93599000D01*
X137287000Y-93599000D01*
X137033000Y-93599000D01*
X135588875Y-93599000D01*
X135470825Y-93868122D01*
X131287440Y-93868122D01*
X131287440Y-93075878D01*
X135470825Y-93075878D01*
X135588875Y-93345000D01*
X137033000Y-93345000D01*
X137033000Y-91900396D01*
X137287000Y-91900396D01*
X137287000Y-93345000D01*
X138731125Y-93345000D01*
X138849175Y-93075878D01*
X138634534Y-92557668D01*
X138172392Y-92062988D01*
X137556123Y-91782817D01*
X137287000Y-91900396D01*
X137033000Y-91900396D01*
X136763877Y-91782817D01*
X136147608Y-92062988D01*
X135685466Y-92557668D01*
X135470825Y-93075878D01*
X131287440Y-93075878D01*
X131287440Y-92372000D01*
X131243162Y-92136683D01*
X131104090Y-91920559D01*
X130891890Y-91775569D01*
X130640000Y-91724560D01*
X128440000Y-91724560D01*
X128204683Y-91768838D01*
X127988559Y-91907910D01*
X127843569Y-92120110D01*
X127792560Y-92372000D01*
X125295000Y-92372000D01*
X125295000Y-75442619D01*
X139764613Y-75442619D01*
X140104155Y-76264372D01*
X140732321Y-76893636D01*
X141553481Y-77234611D01*
X142442619Y-77235387D01*
X143264372Y-76895845D01*
X143893636Y-76267679D01*
X144234611Y-75446519D01*
X144235387Y-74557381D01*
X143895845Y-73735628D01*
X143267679Y-73106364D01*
X142446519Y-72765389D01*
X141557381Y-72764613D01*
X140735628Y-73104155D01*
X140106364Y-73732321D01*
X139765389Y-74553481D01*
X139764613Y-75442619D01*
X125295000Y-75442619D01*
X125295000Y-73660000D01*
X125231439Y-73340459D01*
X125050434Y-73069566D01*
X123780434Y-71799566D01*
X123509541Y-71618561D01*
X123190000Y-71555000D01*
X120650000Y-71555000D01*
X120330459Y-71618561D01*
X120059566Y-71799566D01*
X118789566Y-73069566D01*
X118608561Y-73340459D01*
X118590241Y-73432560D01*
X118530000Y-73432560D01*
X118294683Y-73476838D01*
X118078559Y-73615910D01*
X117933569Y-73828110D01*
X117882560Y-74080000D01*
X117882560Y-75780000D01*
X117926838Y-76015317D01*
X118065910Y-76231441D01*
X118278110Y-76376431D01*
X118530000Y-76427440D01*
X120230000Y-76427440D01*
X120465317Y-76383162D01*
X120681441Y-76244090D01*
X120826431Y-76031890D01*
X120840086Y-75964459D01*
X120869946Y-76009147D01*
X121351715Y-76331054D01*
X121920000Y-76444093D01*
X122488285Y-76331054D01*
X122970054Y-76009147D01*
X123291961Y-75527378D01*
X123405000Y-74959093D01*
X123405000Y-74900907D01*
X123291961Y-74332622D01*
X122970054Y-73850853D01*
X122488285Y-73528946D01*
X121920000Y-73415907D01*
X121351715Y-73528946D01*
X120869946Y-73850853D01*
X120842150Y-73892452D01*
X120833162Y-73844683D01*
X120694090Y-73628559D01*
X120633624Y-73587244D01*
X120995868Y-73225000D01*
X122844132Y-73225000D01*
X123625000Y-74005868D01*
X123625000Y-118018132D01*
X122082132Y-119561000D01*
X118872000Y-119561000D01*
X118552459Y-119624561D01*
X118281566Y-119805566D01*
X116249566Y-121837566D01*
X116068561Y-122108459D01*
X116027963Y-122312560D01*
X115340000Y-122312560D01*
X115104683Y-122356838D01*
X114888559Y-122495910D01*
X114743569Y-122708110D01*
X114692560Y-122960000D01*
X112617704Y-122960000D01*
X112505864Y-122689995D01*
X112259745Y-122615861D01*
X111431605Y-123444000D01*
X111072395Y-123444000D01*
X110244255Y-122615861D01*
X109998136Y-122689995D01*
X109973954Y-122757272D01*
X109759457Y-122436255D01*
X110423861Y-122436255D01*
X111252000Y-123264395D01*
X112080139Y-122436255D01*
X112006005Y-122190136D01*
X111468777Y-121997035D01*
X110898546Y-122024222D01*
X110497995Y-122190136D01*
X110423861Y-122436255D01*
X109759457Y-122436255D01*
X109754811Y-122429302D01*
X109289264Y-122118233D01*
X108740113Y-122009000D01*
X108683887Y-122009000D01*
X108134736Y-122118233D01*
X107669189Y-122429302D01*
X107515709Y-122659000D01*
X103449158Y-122659000D01*
X98829000Y-118038842D01*
X98829000Y-116834856D01*
X99120026Y-116544337D01*
X99313779Y-116077727D01*
X99314220Y-115572490D01*
X99121282Y-115105542D01*
X98829000Y-114812750D01*
X98829000Y-110931000D01*
X103549286Y-110931000D01*
X103549286Y-119851000D01*
X114890715Y-119851000D01*
X114890715Y-110931000D01*
X103549286Y-110931000D01*
X98829000Y-110931000D01*
X98829000Y-96006856D01*
X99120026Y-95716337D01*
X99313779Y-95249727D01*
X99314220Y-94744490D01*
X99121282Y-94277542D01*
X98764337Y-93919974D01*
X98297727Y-93726221D01*
X97792490Y-93725780D01*
X97325542Y-93918718D01*
X96967974Y-94275663D01*
X96774221Y-94742273D01*
X96773780Y-95247510D01*
X90710000Y-95247510D01*
X90710000Y-88805750D01*
X94945000Y-88805750D01*
X94945000Y-90396310D01*
X95041673Y-90629699D01*
X95220302Y-90808327D01*
X95453691Y-90905000D01*
X97044250Y-90905000D01*
X97203000Y-90746250D01*
X97203000Y-88647000D01*
X97457000Y-88647000D01*
X97457000Y-90746250D01*
X97615750Y-90905000D01*
X99206309Y-90905000D01*
X99439698Y-90808327D01*
X99618327Y-90629699D01*
X99715000Y-90396310D01*
X99715000Y-88805750D01*
X99556250Y-88647000D01*
X97457000Y-88647000D01*
X97203000Y-88647000D01*
X95103750Y-88647000D01*
X94945000Y-88805750D01*
X90710000Y-88805750D01*
X90710000Y-84105750D01*
X91945000Y-84105750D01*
X91945000Y-85696310D01*
X92041673Y-85929699D01*
X92220302Y-86108327D01*
X92453691Y-86205000D01*
X94044250Y-86205000D01*
X94203000Y-86046250D01*
X94203000Y-83947000D01*
X94457000Y-83947000D01*
X94457000Y-86046250D01*
X94615750Y-86205000D01*
X95284696Y-86205000D01*
X95220302Y-86231673D01*
X95041673Y-86410301D01*
X94945000Y-86643690D01*
X94945000Y-88234250D01*
X95103750Y-88393000D01*
X97203000Y-88393000D01*
X97203000Y-86293750D01*
X97457000Y-86293750D01*
X97457000Y-88393000D01*
X99556250Y-88393000D01*
X99715000Y-88234250D01*
X99715000Y-87167668D01*
X99739566Y-87204434D01*
X100257000Y-87721868D01*
X100257000Y-88447057D01*
X100015974Y-88687663D01*
X99822221Y-89154273D01*
X99821780Y-89659510D01*
X100014718Y-90126458D01*
X100057947Y-90169763D01*
X100015974Y-90211663D01*
X99822221Y-90678273D01*
X99821780Y-91183510D01*
X100014718Y-91650458D01*
X100057947Y-91693763D01*
X100015974Y-91735663D01*
X99822221Y-92202273D01*
X99821780Y-92707510D01*
X100014718Y-93174458D01*
X100257000Y-93417163D01*
X100257000Y-100076000D01*
X100320561Y-100395541D01*
X100454775Y-100596406D01*
X100501566Y-100666434D01*
X103295566Y-103460434D01*
X103566460Y-103641440D01*
X103886000Y-103705000D01*
X105457159Y-103705000D01*
X105600853Y-103920054D01*
X105642452Y-103947850D01*
X105594683Y-103956838D01*
X105378559Y-104095910D01*
X105233569Y-104308110D01*
X105182560Y-104560000D01*
X105182560Y-106260000D01*
X105226838Y-106495317D01*
X105365910Y-106711441D01*
X105578110Y-106856431D01*
X105830000Y-106907440D01*
X107530000Y-106907440D01*
X107765317Y-106863162D01*
X107981441Y-106724090D01*
X108126431Y-106511890D01*
X108177440Y-106260000D01*
X108177440Y-104560000D01*
X108992560Y-104560000D01*
X108992560Y-106260000D01*
X109036838Y-106495317D01*
X109175910Y-106711441D01*
X109388110Y-106856431D01*
X109640000Y-106907440D01*
X111340000Y-106907440D01*
X111575317Y-106863162D01*
X111791441Y-106724090D01*
X111936431Y-106511890D01*
X111987440Y-106260000D01*
X111987440Y-104560000D01*
X111943162Y-104324683D01*
X111804090Y-104108559D01*
X111591890Y-103963569D01*
X111483893Y-103941699D01*
X111761645Y-103636924D01*
X111931476Y-103226890D01*
X111810155Y-102997000D01*
X110617000Y-102997000D01*
X110617000Y-103017000D01*
X110363000Y-103017000D01*
X110363000Y-102997000D01*
X109169845Y-102997000D01*
X109048524Y-103226890D01*
X109218355Y-103636924D01*
X109494501Y-103939937D01*
X109404683Y-103956838D01*
X109188559Y-104095910D01*
X109043569Y-104308110D01*
X108992560Y-104560000D01*
X108177440Y-104560000D01*
X108133162Y-104324683D01*
X107994090Y-104108559D01*
X107781890Y-103963569D01*
X107714459Y-103949914D01*
X107759147Y-103920054D01*
X108081054Y-103438285D01*
X108194093Y-102870000D01*
X112785907Y-102870000D01*
X112898946Y-103438285D01*
X113220853Y-103920054D01*
X113262452Y-103947850D01*
X113214683Y-103956838D01*
X112998559Y-104095910D01*
X112853569Y-104308110D01*
X112802560Y-104560000D01*
X112802560Y-106260000D01*
X112846838Y-106495317D01*
X112985910Y-106711441D01*
X113198110Y-106856431D01*
X113450000Y-106907440D01*
X115150000Y-106907440D01*
X115385317Y-106863162D01*
X115547000Y-106759122D01*
X115547000Y-109225144D01*
X115255974Y-109515663D01*
X115062221Y-109982273D01*
X115061780Y-110487510D01*
X115254718Y-110954458D01*
X115611663Y-111312026D01*
X116078273Y-111505779D01*
X116583510Y-111506220D01*
X117050458Y-111313282D01*
X117408026Y-110956337D01*
X117601779Y-110489727D01*
X117602220Y-109984490D01*
X117409282Y-109517542D01*
X117117000Y-109224750D01*
X117117000Y-99054856D01*
X117408026Y-98764337D01*
X117601779Y-98297727D01*
X117602220Y-97792490D01*
X117409282Y-97325542D01*
X117052337Y-96967974D01*
X116585727Y-96774221D01*
X116080490Y-96773780D01*
X115613542Y-96966718D01*
X115255974Y-97323663D01*
X115062221Y-97790273D01*
X115061780Y-98295510D01*
X115254718Y-98762458D01*
X115547000Y-99055250D01*
X115547000Y-102071156D01*
X115379147Y-101819946D01*
X114897378Y-101498039D01*
X114329093Y-101385000D01*
X114270907Y-101385000D01*
X113702622Y-101498039D01*
X113220853Y-101819946D01*
X112898946Y-102301715D01*
X112785907Y-102870000D01*
X108194093Y-102870000D01*
X108123104Y-102513110D01*
X109048524Y-102513110D01*
X109169845Y-102743000D01*
X110363000Y-102743000D01*
X110363000Y-101549181D01*
X110617000Y-101549181D01*
X110617000Y-102743000D01*
X111810155Y-102743000D01*
X111931476Y-102513110D01*
X111761645Y-102103076D01*
X111371358Y-101674817D01*
X110846892Y-101428514D01*
X110617000Y-101549181D01*
X110363000Y-101549181D01*
X110133108Y-101428514D01*
X109608642Y-101674817D01*
X109218355Y-102103076D01*
X109048524Y-102513110D01*
X108123104Y-102513110D01*
X108081054Y-102301715D01*
X107759147Y-101819946D01*
X107277378Y-101498039D01*
X106709093Y-101385000D01*
X106650907Y-101385000D01*
X106082622Y-101498039D01*
X105600853Y-101819946D01*
X105457159Y-102035000D01*
X104231868Y-102035000D01*
X101927000Y-99730132D01*
X101927000Y-93416943D01*
X102168026Y-93176337D01*
X102361779Y-92709727D01*
X102362220Y-92204490D01*
X102360857Y-92201191D01*
X102362273Y-92201779D01*
X102867510Y-92202220D01*
X103334458Y-92009282D01*
X103692026Y-91652337D01*
X103885779Y-91185727D01*
X103886176Y-90730000D01*
X108396560Y-90730000D01*
X108396560Y-97230000D01*
X108440838Y-97465317D01*
X108579910Y-97681441D01*
X108792110Y-97826431D01*
X109044000Y-97877440D01*
X112444000Y-97877440D01*
X112679317Y-97833162D01*
X112895441Y-97694090D01*
X113040431Y-97481890D01*
X113091440Y-97230000D01*
X113091440Y-90730000D01*
X113047162Y-90494683D01*
X112908090Y-90278559D01*
X112695890Y-90133569D01*
X112444000Y-90082560D01*
X109044000Y-90082560D01*
X108808683Y-90126838D01*
X108592559Y-90265910D01*
X108447569Y-90478110D01*
X108396560Y-90730000D01*
X103886176Y-90730000D01*
X103886220Y-90680490D01*
X103693282Y-90213542D01*
X103336337Y-89855974D01*
X102869727Y-89662221D01*
X102364490Y-89661780D01*
X102361191Y-89663143D01*
X102361779Y-89661727D01*
X102362220Y-89156490D01*
X102169282Y-88689542D01*
X101927000Y-88446837D01*
X101927000Y-87376000D01*
X101863440Y-87056460D01*
X101682434Y-86785566D01*
X101165000Y-86268132D01*
X101165000Y-86217440D01*
X102080000Y-86217440D01*
X102315317Y-86173162D01*
X102531441Y-86034090D01*
X102676431Y-85821890D01*
X102727440Y-85570000D01*
X102727440Y-82070000D01*
X102683162Y-81834683D01*
X102544090Y-81618559D01*
X102331890Y-81473569D01*
X102080000Y-81422560D01*
X98580000Y-81422560D01*
X98344683Y-81466838D01*
X98128559Y-81605910D01*
X97983569Y-81818110D01*
X97932560Y-82070000D01*
X97932560Y-85570000D01*
X97976838Y-85805317D01*
X98115910Y-86021441D01*
X98282109Y-86135000D01*
X97615750Y-86135000D01*
X97457000Y-86293750D01*
X97203000Y-86293750D01*
X97044250Y-86135000D01*
X96375304Y-86135000D01*
X96439698Y-86108327D01*
X96618327Y-85929699D01*
X96715000Y-85696310D01*
X96715000Y-84105750D01*
X96556250Y-83947000D01*
X94457000Y-83947000D01*
X94203000Y-83947000D01*
X92103750Y-83947000D01*
X91945000Y-84105750D01*
X90710000Y-84105750D01*
X90710000Y-81943690D01*
X91945000Y-81943690D01*
X91945000Y-83534250D01*
X92103750Y-83693000D01*
X94203000Y-83693000D01*
X94203000Y-81593750D01*
X94457000Y-81593750D01*
X94457000Y-83693000D01*
X96556250Y-83693000D01*
X96715000Y-83534250D01*
X96715000Y-81943690D01*
X96618327Y-81710301D01*
X96439698Y-81531673D01*
X96206309Y-81435000D01*
X94615750Y-81435000D01*
X94457000Y-81593750D01*
X94203000Y-81593750D01*
X94044250Y-81435000D01*
X92453691Y-81435000D01*
X92220302Y-81531673D01*
X92041673Y-81710301D01*
X91945000Y-81943690D01*
X90710000Y-81943690D01*
X90710000Y-75442619D01*
X92764613Y-75442619D01*
X93104155Y-76264372D01*
X93732321Y-76893636D01*
X94553481Y-77234611D01*
X95442619Y-77235387D01*
X96264372Y-76895845D01*
X96893636Y-76267679D01*
X97234611Y-75446519D01*
X97235387Y-74557381D01*
X96895845Y-73735628D01*
X96267679Y-73106364D01*
X95446519Y-72765389D01*
X94557381Y-72764613D01*
X93735628Y-73104155D01*
X93106364Y-73732321D01*
X92765389Y-74553481D01*
X92764613Y-75442619D01*
X90710000Y-75442619D01*
X90710000Y-71475600D01*
X103754000Y-71475600D01*
X103754000Y-83972400D01*
X103802717Y-84217317D01*
X103941452Y-84424948D01*
X104149083Y-84563683D01*
X104394000Y-84612400D01*
X116586000Y-84612400D01*
X116830917Y-84563683D01*
X117038548Y-84424948D01*
X117177283Y-84217317D01*
X117226000Y-83972400D01*
X117226000Y-71475600D01*
X117177283Y-71230683D01*
X117038548Y-71023052D01*
X116830917Y-70884317D01*
X116586000Y-70835600D01*
X104394000Y-70835600D01*
X104149083Y-70884317D01*
X103941452Y-71023052D01*
X103802717Y-71230683D01*
X103754000Y-71475600D01*
X90710000Y-71475600D01*
X90710000Y-70710000D01*
X146290000Y-70710000D01*
X146290000Y-106682099D01*
M02*
