G04 #@! TF.FileFunction,Soldermask,Bot*
%FSLAX46Y46*%
G04 Gerber Fmt 4.6, Leading zero omitted, Abs format (unit mm)*
G04 Created by KiCad (PCBNEW 4.0.7) date 10/02/18 03:43:02*
%MOMM*%
%LPD*%
G01*
G04 APERTURE LIST*
%ADD10C,0.100000*%
%ADD11R,4.100000X4.100000*%
%ADD12R,2.300000X2.300000*%
%ADD13O,2.300000X2.300000*%
%ADD14R,2.800000X2.800000*%
%ADD15O,2.800000X2.800000*%
%ADD16C,2.124000*%
%ADD17C,2.200000*%
%ADD18O,2.200000X2.200000*%
%ADD19R,1.400000X1.900000*%
%ADD20R,2.400000X1.900000*%
%ADD21C,3.800000*%
%ADD22R,3.600000X3.600000*%
%ADD23C,3.600000*%
G04 APERTURE END LIST*
D10*
D11*
X100330000Y-83820000D03*
X94330000Y-83820000D03*
X97330000Y-88520000D03*
D12*
X114300000Y-105410000D03*
D13*
X114300000Y-102870000D03*
D14*
X129540000Y-93472000D03*
D15*
X137160000Y-93472000D03*
D16*
X141732000Y-102068000D03*
X141732000Y-97068000D03*
D12*
X145000000Y-108000000D03*
D13*
X145000000Y-110540000D03*
X145000000Y-113080000D03*
X145000000Y-115620000D03*
D17*
X111252000Y-123444000D03*
D18*
X108712000Y-123444000D03*
D19*
X112044000Y-91380000D03*
D20*
X110744000Y-96580000D03*
X110744000Y-95280000D03*
X110744000Y-91380000D03*
X110744000Y-92680000D03*
X110744000Y-93980000D03*
D19*
X109444000Y-91380000D03*
X109444000Y-92680000D03*
X109444000Y-93980000D03*
X109444000Y-95280000D03*
X109444000Y-96580000D03*
X112044000Y-96580000D03*
X112044000Y-95280000D03*
X112044000Y-93980000D03*
X112044000Y-92680000D03*
D12*
X106680000Y-105410000D03*
D13*
X106680000Y-102870000D03*
D12*
X110490000Y-105410000D03*
D13*
X110490000Y-102870000D03*
D21*
X95000000Y-123000000D03*
X95000000Y-75000000D03*
X142000000Y-75000000D03*
X142000000Y-123000000D03*
D22*
X116840000Y-124460000D03*
D23*
X121920000Y-124460000D03*
D12*
X119380000Y-74930000D03*
D13*
X121920000Y-74930000D03*
D23*
X127000000Y-104140000D03*
X127000000Y-114300000D03*
X127000000Y-109220000D03*
M02*
