G04 #@! TF.FileFunction,Soldermask,Top*
%FSLAX46Y46*%
G04 Gerber Fmt 4.6, Leading zero omitted, Abs format (unit mm)*
G04 Created by KiCad (PCBNEW 4.0.7) date 10/02/18 03:54:40*
%MOMM*%
%LPD*%
G01*
G04 APERTURE LIST*
%ADD10C,0.100000*%
%ADD11R,4.100000X4.100000*%
%ADD12R,2.300000X2.300000*%
%ADD13O,2.300000X2.300000*%
%ADD14R,2.800000X2.800000*%
%ADD15O,2.800000X2.800000*%
%ADD16R,2.200000X4.100000*%
%ADD17C,2.124000*%
%ADD18R,3.800000X2.100000*%
%ADD19R,2.100000X1.850000*%
%ADD20R,4.350000X3.100000*%
%ADD21R,2.300000X2.600000*%
%ADD22R,2.100000X1.900000*%
%ADD23R,1.900000X2.100000*%
%ADD24C,2.200000*%
%ADD25O,2.200000X2.200000*%
%ADD26R,1.400000X1.900000*%
%ADD27R,2.400000X1.900000*%
%ADD28R,2.050000X1.050000*%
%ADD29R,2.600000X4.400000*%
%ADD30R,2.600000X2.100000*%
%ADD31R,1.700000X5.200000*%
%ADD32R,11.400000X10.000000*%
%ADD33C,3.800000*%
%ADD34R,3.300000X3.800000*%
%ADD35R,3.600000X3.600000*%
%ADD36C,3.600000*%
G04 APERTURE END LIST*
D10*
D11*
X100330000Y-83820000D03*
X94330000Y-83820000D03*
X97330000Y-88520000D03*
D12*
X114300000Y-105410000D03*
D13*
X114300000Y-102870000D03*
D14*
X129540000Y-93472000D03*
D15*
X137160000Y-93472000D03*
D16*
X120904000Y-89248000D03*
X120904000Y-94648000D03*
D17*
X141732000Y-102068000D03*
X141732000Y-97068000D03*
D18*
X101060000Y-102616000D03*
X97060000Y-102616000D03*
D19*
X101834000Y-99568000D03*
X99334000Y-99568000D03*
X111526000Y-115824000D03*
X114026000Y-115824000D03*
X121450000Y-118700000D03*
X123950000Y-118700000D03*
D18*
X134588000Y-121412000D03*
X130588000Y-121412000D03*
D20*
X137745000Y-106680000D03*
X131495000Y-106680000D03*
D16*
X140970000Y-87790000D03*
X140970000Y-82390000D03*
D21*
X120396000Y-100616000D03*
X120396000Y-104616000D03*
D12*
X145000000Y-108000000D03*
D13*
X145000000Y-110540000D03*
X145000000Y-113080000D03*
X145000000Y-115620000D03*
D22*
X108030000Y-113284000D03*
X105330000Y-113284000D03*
X105330000Y-115824000D03*
X108030000Y-115824000D03*
D23*
X120396000Y-110570000D03*
X120396000Y-107870000D03*
D24*
X111252000Y-123444000D03*
D25*
X108712000Y-123444000D03*
D26*
X112044000Y-91380000D03*
D27*
X110744000Y-96580000D03*
X110744000Y-95280000D03*
X110744000Y-91380000D03*
X110744000Y-92680000D03*
D28*
X107794000Y-91060000D03*
X107794000Y-91710000D03*
X107794000Y-92360000D03*
X107794000Y-93010000D03*
X107794000Y-93650000D03*
X107794000Y-94310000D03*
X107794000Y-94950000D03*
X107794000Y-95600000D03*
X107794000Y-96250000D03*
X107794000Y-96900000D03*
X113694000Y-96900000D03*
X113694000Y-96250000D03*
X113694000Y-95600000D03*
X113694000Y-94950000D03*
X113694000Y-94310000D03*
X113694000Y-93650000D03*
X113694000Y-93010000D03*
X113694000Y-92360000D03*
X113694000Y-91710000D03*
X113694000Y-91060000D03*
D27*
X110744000Y-93980000D03*
D26*
X109444000Y-91380000D03*
X109444000Y-92680000D03*
X109444000Y-93980000D03*
X109444000Y-95280000D03*
X109444000Y-96580000D03*
X112044000Y-96580000D03*
X112044000Y-95280000D03*
X112044000Y-93980000D03*
X112044000Y-92680000D03*
D29*
X130962000Y-114300000D03*
D30*
X137262000Y-114300000D03*
X137262000Y-112000000D03*
X137262000Y-116600000D03*
D31*
X127410000Y-87055000D03*
X129110000Y-87055000D03*
X130810000Y-87055000D03*
X132510000Y-87055000D03*
X134210000Y-87055000D03*
D32*
X130810000Y-77905000D03*
D19*
X114026000Y-113284000D03*
X111526000Y-113284000D03*
D12*
X106680000Y-105410000D03*
D13*
X106680000Y-102870000D03*
D12*
X110490000Y-105410000D03*
D13*
X110490000Y-102870000D03*
D33*
X95000000Y-123000000D03*
X95000000Y-75000000D03*
X142000000Y-75000000D03*
X142000000Y-123000000D03*
D34*
X106794000Y-87884000D03*
X114694000Y-87884000D03*
D35*
X116840000Y-124460000D03*
D36*
X121920000Y-124460000D03*
D12*
X119380000Y-74930000D03*
D13*
X121920000Y-74930000D03*
D36*
X127000000Y-104140000D03*
X127000000Y-114300000D03*
X127000000Y-109220000D03*
M02*
